<svg width="169" height="143" viewBox="0 0 169 143" fill="none" xmlns="http://www.w3.org/2000/svg">
<path fill-rule="evenodd" clip-rule="evenodd" d="M47.0476 2H147.048C158.093 2 167.047 10.9542 167.047 21.9998V122C167.047 133.046 158.093 142 147.048 142H47.0476C36.0018 142 27.0476 133.046 27.0476 122V21.9998C27.0476 10.9542 36.0018 2 47.0476 2Z" fill="#D3F2ED"/>
<path d="M105.153 82.2539H35.3674L38.8713 75.1172L97.0901 75.0117C99.0588 75.0117 100.746 73.6055 101.098 71.6602L109.16 26.5312C109.371 25.3477 109.055 24.1289 108.281 23.2031C107.899 22.7475 107.422 22.3805 106.884 22.1275C106.346 21.8746 105.759 21.7418 105.164 21.7383L31.1018 21.4922L30.469 18.5156C30.0706 16.6172 28.3596 15.2344 26.4143 15.2344H8.30884C7.21171 15.2344 6.15952 15.6702 5.38374 16.446C4.60795 17.2218 4.17212 18.274 4.17212 19.3711C4.17212 20.4682 4.60795 21.5204 5.38374 22.2962C6.15952 23.072 7.21171 23.5078 8.30884 23.5078H23.0627L25.8284 36.6562L32.637 69.6211L23.8713 83.9297C23.4161 84.5441 23.1419 85.2736 23.0798 86.0357C23.0177 86.7979 23.1701 87.5622 23.5198 88.2422C24.2229 89.6367 25.6409 90.5156 27.2112 90.5156H34.5706C33.0016 92.5995 32.1542 95.1377 32.1565 97.7461C32.1565 104.379 37.5471 109.77 44.1799 109.77C50.8127 109.77 56.2034 104.379 56.2034 97.7461C56.2034 95.1328 55.3362 92.5898 53.7893 90.5156H72.6682C71.0993 92.5995 70.2518 95.1377 70.2541 97.7461C70.2541 104.379 75.6448 109.77 82.2776 109.77C88.9104 109.77 94.301 104.379 94.301 97.7461C94.301 95.1328 93.4338 92.5898 91.887 90.5156H105.164C107.438 90.5156 109.301 88.6641 109.301 86.3789C109.294 85.2829 108.854 84.2341 108.077 83.4613C107.3 82.6886 106.249 82.2545 105.153 82.2539ZM32.8245 29.6484L100.301 29.8711L93.6916 66.8789L40.6877 66.9727L32.8245 29.6484ZM44.1799 101.449C42.1409 101.449 40.4768 99.7852 40.4768 97.7461C40.4768 95.707 42.1409 94.043 44.1799 94.043C46.219 94.043 47.8831 95.707 47.8831 97.7461C47.8831 98.7282 47.4929 99.6701 46.7984 100.365C46.104 101.059 45.1621 101.449 44.1799 101.449ZM82.2776 101.449C80.2385 101.449 78.5745 99.7852 78.5745 97.7461C78.5745 95.707 80.2385 94.043 82.2776 94.043C84.3167 94.043 85.9807 95.707 85.9807 97.7461C85.9807 98.7282 85.5906 99.6701 84.8961 100.365C84.2016 101.059 83.2597 101.449 82.2776 101.449Z" fill="#8975F3"/>
</svg>
