<svg width="158" height="146" viewBox="0 0 158 146" fill="none" xmlns="http://www.w3.org/2000/svg">
<path fill-rule="evenodd" clip-rule="evenodd" d="M37 1.99986H137C148.046 1.99986 157 10.9541 157 21.9997V122C157 133.045 148.046 142 137 142H37C25.9542 142 16.9999 133.045 16.9999 122V21.9997C16.9999 10.9541 25.9542 1.99986 37 1.99986Z" fill="#D3F2ED"/>
<g clip-path="url(#clip0)">
<path d="M75 60.75H45C43.0115 60.752 41.105 61.5428 39.6989 62.9489C38.2928 64.355 37.502 66.2615 37.5 68.25V117C37.502 118.989 38.2928 120.895 39.6989 122.301C41.105 123.707 43.0115 124.498 45 124.5H75C76.9885 124.498 78.895 123.707 80.3011 122.301C81.7072 120.895 82.498 118.989 82.5 117V68.25C82.498 66.2615 81.7072 64.355 80.3011 62.9489C78.895 61.5428 76.9885 60.752 75 60.75ZM75 68.25V79.5H45V68.25H75ZM75 87V98.25H45V87H75ZM45 117V105.75H75V117H45Z" fill="#8975F3"/>
<path d="M97.1641 49.9862C97.0748 49.97 96.9924 49.9274 96.9275 49.8639C96.8627 49.8004 96.8184 49.7189 96.8003 49.63C95.3309 42.3264 91.7206 35.6255 86.4294 30.381C81.1381 25.1365 74.4054 21.5858 67.0891 20.1812C57.3676 18.3029 47.2978 20.3448 39.0758 25.8615C30.8538 31.3782 25.1466 39.9221 23.1991 49.63C23.181 49.7189 23.1367 49.8004 23.0719 49.8639C23.007 49.9274 22.9246 49.97 22.8353 49.9862C15.9624 51.3029 9.82702 55.1339 5.6269 60.7311C1.42677 66.3283 -0.536504 73.29 0.120368 80.257C0.777239 87.2239 4.0071 93.696 9.17937 98.4096C14.3516 103.123 21.095 105.74 28.0928 105.749H30.0016V98.2487H28.1078C25.1488 98.2406 22.226 97.5971 19.5372 96.3616C16.8485 95.1261 14.4564 93.3276 12.5229 91.0876C10.5894 88.8476 9.15958 86.2185 8.33015 83.378C7.50073 80.5376 7.29105 77.5522 7.71532 74.6237C8.47198 70.2321 10.5823 66.1867 13.7512 63.0534C16.9202 59.9202 20.9891 57.8557 25.3891 57.1487L29.2028 56.4587C29.3003 56.4414 29.3902 56.3948 29.4605 56.3251C29.5308 56.2555 29.5783 56.166 29.5966 56.0687L30.2716 52.5625C31.3895 46.2006 34.4637 40.3457 39.066 35.8133C43.6683 31.2809 49.5695 28.2967 55.9478 27.2762C59.5058 26.7887 63.1225 26.9475 66.6241 27.745C72.4326 29.16 77.7042 32.2336 81.797 36.5914C85.8897 40.9491 88.627 46.403 89.6753 52.2887L90.4028 56.0687C90.4211 56.166 90.4686 56.2555 90.5389 56.3251C90.6092 56.3948 90.6991 56.4414 90.7966 56.4587L94.7603 57.175C99.1355 57.867 103.194 59.8823 106.389 62.95C109.289 65.8271 111.27 69.4999 112.082 73.5036C112.894 77.5072 112.499 81.6616 110.948 85.441C109.398 89.2203 106.761 92.4546 103.371 94.7346C99.9815 97.0145 95.9916 98.2375 91.9066 98.2487H90.0016V105.749H91.9066C98.9044 105.74 105.648 103.123 110.82 98.4096C115.992 93.696 119.222 87.2239 119.879 80.257C120.536 73.29 118.573 66.3283 114.372 60.7311C110.172 55.1339 104.037 51.3029 97.1641 49.9862Z" fill="#8975F3"/>
</g>
<defs>
<clipPath id="clip0">
<rect y="12" width="120" height="120" fill="white"/>
</clipPath>
</defs>
</svg>
