<svg width="156" height="146" viewBox="0 0 156 146" fill="none" xmlns="http://www.w3.org/2000/svg">
<path fill-rule="evenodd" clip-rule="evenodd" d="M35 1.99986H135C146.046 1.99986 155 10.9541 155 21.9997V122C155 133.045 146.046 142 135 142H35C23.9542 142 14.9999 133.045 14.9999 122V21.9997C14.9999 10.9541 23.9542 1.99986 35 1.99986Z" fill="#D3F2ED"/>
<g clip-path="url(#clip0)">
<path d="M51.0136 71.762L51.0548 71.7958L46.0561 83.867C41.2641 80.7982 37.6192 76.2332 35.6873 70.8808L48.5761 68.6908L48.5948 68.7095C48.9875 68.6402 49.3916 68.6784 49.7643 68.8198C50.1371 68.9613 50.4647 69.2009 50.7125 69.5133C50.9604 69.8256 51.1191 70.1991 51.1721 70.5943C51.2251 70.9895 51.1703 71.3917 51.0136 71.7583V71.762ZM46.8548 61.1158C47.2394 61.0097 47.588 60.8013 47.8635 60.5127C48.139 60.2242 48.331 59.8663 48.4192 59.4772C48.5073 59.0881 48.4882 58.6824 48.364 58.3033C48.2397 57.9242 48.0149 57.5859 47.7136 57.3245L47.7323 57.2645L37.9261 48.4933C34.9365 53.3614 33.6502 59.0854 34.2698 64.7645L46.8286 61.1495L46.8548 61.1158ZM52.5773 51.212C54.0023 52.247 55.9936 51.272 56.0723 49.5133L56.1323 49.4945L56.8711 36.3883C51.1858 37.0533 45.8855 39.5979 41.8111 43.6183L52.5548 51.212H52.5773ZM56.3836 64.9633L59.9986 66.7033L63.6136 64.9633L64.5098 61.0783L62.0086 57.9545H57.9886L55.4873 61.0783L56.3836 64.9633ZM63.8836 49.4758C63.8979 49.8751 64.0213 50.263 64.2403 50.5972C64.4593 50.9315 64.7655 51.1995 65.1259 51.3722C65.4863 51.5448 65.8871 51.6156 66.2848 51.5768C66.6826 51.538 67.0621 51.3911 67.3823 51.152L67.4161 51.1708L78.0811 43.6145C74.0258 39.6279 68.767 37.0928 63.1223 36.4033L63.8611 49.472L63.8836 49.4758ZM118.259 79.337L89.3948 115.236C87.8686 117.111 85.5848 118.206 83.1661 118.206L36.8573 118.225C34.4386 118.225 32.1323 117.13 30.6061 115.236L1.74233 79.337C0.999095 78.4072 0.474366 77.3222 0.206939 76.1623C-0.0604875 75.0023 -0.0637726 73.7971 0.197327 72.6358L10.5136 27.872C10.7751 26.7067 11.3001 25.6168 12.0483 24.686C12.7965 23.7551 13.748 23.008 14.8298 22.502L56.5298 2.56326C57.6134 2.05216 58.7967 1.78711 59.9948 1.78711C61.1929 1.78711 62.3762 2.05216 63.4598 2.56326L105.179 22.4833C106.254 22.9988 107.199 23.7489 107.946 24.6782C108.693 25.6075 109.222 26.6925 109.495 27.8533L119.811 72.6395C120.069 73.801 120.065 75.0056 119.797 76.1651C119.53 77.3246 119.007 78.4096 118.266 79.3408L118.259 79.337ZM101.815 69.047C101.601 69.0058 101.309 68.9083 101.095 68.867C100.214 68.7133 99.5086 68.7508 98.6911 68.6908C96.9548 68.4958 95.5111 68.3608 94.2211 67.952C93.6923 67.757 93.3211 67.1308 93.1448 66.857L92.1286 66.5608C92.6755 62.6753 92.4962 58.722 91.5998 54.902C90.7206 51.0463 89.1393 47.3853 86.9348 44.102C87.1898 43.8658 87.6736 43.442 87.8086 43.3033C87.8498 42.8533 87.8086 42.3883 88.2773 41.897C89.2711 40.9558 90.5086 40.1983 91.9861 39.2758C92.7098 38.867 93.3548 38.597 94.0748 38.0645C94.2361 37.9483 94.4498 37.7533 94.6261 37.6145C95.8148 36.6808 96.0923 35.0195 95.2298 33.9433C94.3673 32.867 92.7098 32.7733 91.5211 33.707C91.3448 33.8458 91.1123 34.022 90.9511 34.157C90.2911 34.742 89.8823 35.3083 89.3123 35.9158C88.0823 37.1645 87.0473 38.1995 85.9373 38.942C85.4686 39.2383 84.7411 39.137 84.4336 39.1183L83.4736 39.8045C78.0144 34.0578 70.6492 30.4958 62.7548 29.7845L62.6948 28.6708C62.3648 28.3595 61.9748 28.0858 61.8736 27.422C61.7573 26.0758 61.9523 24.632 62.1698 22.892C62.2636 22.0708 62.4586 21.407 62.4998 20.5108V19.8058C62.4998 18.2795 61.3636 17.0308 59.9986 17.0308C58.6148 17.0308 57.4973 18.2795 57.4973 19.8058V20.5108C57.5386 21.407 57.7336 22.0708 57.8273 22.892C58.0411 24.632 58.2211 26.0758 58.1236 27.422C57.9712 27.9182 57.6875 28.364 57.3023 28.712L57.2423 29.7658C49.2976 30.4 41.8745 33.9725 36.4223 39.7858C36.1111 39.572 35.8186 39.3545 35.5223 39.1408C35.0761 39.2008 34.6261 39.3358 34.0411 39.0058C32.9273 38.2408 31.8923 37.2058 30.6623 35.957C30.0961 35.3533 29.6873 34.787 29.0236 34.2208C28.8623 34.082 28.6336 33.9058 28.4723 33.7708C27.9731 33.3807 27.3682 33.1495 26.7361 33.107C26.3578 33.0877 25.9803 33.1574 25.6338 33.3104C25.2873 33.4635 24.9816 33.6956 24.7411 33.9883C23.8823 35.0833 24.1561 36.722 25.3448 37.6783L25.3861 37.697L25.9148 38.1058C26.6161 38.6345 27.2611 38.9045 27.9848 39.317C29.4698 40.2583 30.6998 41.0158 31.6936 41.9383C32.0648 42.347 32.1436 43.067 32.1848 43.382L32.9836 44.0833C28.5711 50.7149 26.7556 58.7393 27.8836 66.6245L26.8486 66.9208C26.5748 67.292 26.1848 67.8358 25.7723 68.0158C24.4823 68.4245 23.0386 68.5595 21.3023 68.7358C20.4811 68.8145 19.7761 68.777 18.8986 68.9308C18.7036 68.972 18.4486 69.0508 18.2348 69.0845L18.2198 69.1033H18.1786C16.7123 69.4595 15.7523 70.8245 16.0673 72.152C16.3561 73.4758 17.8036 74.297 19.2886 73.967H19.3298L19.3711 73.9483L20.0161 73.8133C20.8748 73.577 21.5011 73.2433 22.2623 72.9545C23.9011 72.3695 25.2923 71.8595 26.6161 71.6645C27.1673 71.6233 27.7711 72.0133 28.0411 72.1745L29.1361 71.9945C31.5759 79.5435 36.6975 85.9365 43.5323 89.9645L43.0823 91.0595C43.2586 91.4908 43.4386 92.0533 43.2961 92.4658C42.8273 93.737 41.9873 95.0645 41.0498 96.5308C40.5811 97.2095 40.1086 97.742 39.6998 98.522C39.6061 98.717 39.4861 99.0133 39.3886 99.2083C38.7436 100.573 39.2123 102.16 40.4423 102.763C41.6911 103.348 43.2323 102.722 43.8961 101.338C43.9973 101.143 44.1323 100.888 44.2111 100.693C44.5598 99.8945 44.6798 99.1895 44.9311 98.4095C45.5761 96.7483 45.9473 95.0083 46.8661 93.9133C47.1211 93.6245 47.5111 93.5045 47.9423 93.407L48.5086 92.372C55.922 95.2214 64.125 95.2414 71.5523 92.4283L72.0811 93.3883C72.5123 93.5233 72.9811 93.602 73.3523 94.1683C74.0386 95.3195 74.5036 96.707 75.0736 98.3683C75.3248 99.1483 75.4448 99.8533 75.7936 100.652C75.8723 100.828 76.0073 101.102 76.1086 101.297C76.7686 102.681 78.3136 103.307 79.5436 102.703C80.7923 102.118 81.2648 100.532 80.6198 99.1483C80.5068 98.9285 80.3968 98.7072 80.2898 98.4845C79.8811 97.7045 79.4086 97.1795 78.9586 96.4933C78.0023 95.027 77.2186 93.797 76.7348 92.5295C76.5398 91.8845 76.7686 91.4945 76.9298 91.0633C76.8286 90.947 76.6336 90.3395 76.5211 90.047C83.3742 85.9776 88.4964 79.5357 90.9173 71.942C91.2286 71.9983 91.7911 72.0958 91.9861 72.137C92.3611 71.882 92.6911 71.567 93.3773 71.6083C94.7011 71.8033 96.0923 72.3133 97.7311 72.8983C98.4923 73.1945 99.1148 73.5245 99.9773 73.757C100.154 73.817 100.409 73.8583 100.622 73.892L100.664 73.9108H100.705C102.19 74.2445 103.634 73.427 103.926 72.0958C104.241 70.7645 103.281 69.3995 101.815 69.0508V69.047ZM81.9886 48.497L72.2423 57.227V57.2683C71.9434 57.5309 71.7208 57.8693 71.5981 58.2479C71.4753 58.6264 71.4569 59.031 71.5448 59.4191C71.6327 59.8072 71.8237 60.1645 72.0976 60.4531C72.3715 60.7418 72.7181 60.9513 73.1011 61.0595L73.1198 61.1008L85.7536 64.7308C86.0273 61.9408 85.8548 59.1058 85.2098 56.372C84.5784 53.5877 83.4885 50.9277 81.9848 48.5008L81.9886 48.497ZM61.9336 75.137C61.7396 74.7743 61.4484 74.4728 61.0928 74.2662C60.7371 74.0595 60.331 73.956 59.9198 73.967C59.533 73.9842 59.1572 74.101 58.8288 74.3059C58.5003 74.5109 58.2303 74.7971 58.0448 75.137L51.6998 86.6008C57.0886 88.442 62.9498 88.442 68.3386 86.6008L61.9898 75.137H61.9336ZM71.3648 68.672C70.9739 68.6026 70.5715 68.6399 70.2 68.7799C69.8285 68.9199 69.5015 69.1574 69.2536 69.4675C69.0057 69.7776 68.8459 70.1488 68.7911 70.542C68.7364 70.9352 68.7886 71.336 68.9423 71.702V71.7208L73.9823 83.9045C78.8118 80.8318 82.4759 76.2333 84.3923 70.8395L71.3836 68.6345L71.3648 68.672Z" fill="#8975F3"/>
</g>
<defs>
<clipPath id="clip0">
<rect width="120" height="120" fill="white"/>
</clipPath>
</defs>
</svg>
