<svg width="159" height="146" viewBox="0 0 159 146" fill="none" xmlns="http://www.w3.org/2000/svg">
<path fill-rule="evenodd" clip-rule="evenodd" d="M37.5 1.99986H137.5C148.546 1.99986 157.5 10.9541 157.5 21.9997V122C157.5 133.045 148.546 142 137.5 142H37.5C26.4542 142 17.4999 133.045 17.4999 122V21.9997C17.4999 10.9541 26.4542 1.99986 37.5 1.99986Z" fill="#D3F2ED"/>
<g clip-path="url(#clip0)">
<path d="M30.4202 23.7209C29.3046 22.7679 27.6577 22.7808 26.5571 23.7509L18.5087 30.9534V30.0095C18.5087 28.9051 17.6136 28.01 16.5092 28.01C15.4048 28.01 14.5097 28.9051 14.5097 30.0095V34.5346L11.1761 37.5181C10.3656 38.2574 10.3021 39.5117 11.0339 40.3293C11.7657 41.1468 13.0193 41.2218 13.8435 40.4975L28.5065 27.3722L43.1694 40.4975C43.7004 40.9819 44.4507 41.144 45.1343 40.9221C45.818 40.7002 46.3298 40.1285 46.4751 39.4243C46.6204 38.7204 46.3767 37.9926 45.8368 37.5181L30.4202 23.7209Z" fill="#8975F3"/>
<path d="M40.5045 43.0068C39.4001 43.0068 38.5049 43.902 38.5049 45.0063V59.0034H18.5089V45.0063C18.5089 43.902 17.6138 43.0068 16.5094 43.0068C15.405 43.0068 14.5099 43.902 14.5099 45.0063V60.2732C14.5296 61.7998 15.7828 63.0216 17.3094 63.0026H39.7047C41.2323 63.0181 42.4843 61.7947 42.5042 60.2671V45.0063C42.504 43.902 41.6086 43.0068 40.5045 43.0068Z" fill="#8975F3"/>
<path d="M28.5069 67.002C20.7765 67.002 14.5099 73.2688 14.5099 80.999C14.5099 88.7292 20.7767 94.996 28.5069 94.996C36.2371 94.996 42.504 88.7292 42.504 80.999C42.4951 73.2723 36.2336 67.0106 28.5069 67.002ZM18.5089 80.999C18.515 76.2496 21.8554 72.1576 26.5072 71.2011V79.8653L19.1088 84.3023C18.7215 83.2436 18.5185 82.1263 18.5089 80.999ZM21.1695 87.7309L28.1969 83.5145L34.0117 89.3293C29.9267 92.0545 24.4618 91.3742 21.1695 87.7309ZM36.8391 86.5019L30.5064 80.1711V71.2011C33.7617 71.8607 36.4757 74.0967 37.746 77.1656C39.016 80.2346 38.6762 83.7345 36.8391 86.5019Z" fill="#8975F3"/>
<path d="M108.49 51.0048V44.1601C108.489 42.4191 107.078 41.008 105.337 41.0068H99.6462C97.9052 41.008 96.4941 42.4191 96.4929 44.1601V51.0048H92.4936V38.4674C92.4915 36.5579 90.944 35.0104 89.0343 35.008H83.9552C82.046 35.0104 80.4985 36.5579 80.4961 38.4674V51.0048H76.4971V29.0093C76.4971 26.8005 74.7066 25.01 72.4978 25.01H68.4986C66.2898 25.01 64.4993 26.8005 64.4993 29.0093V51.0048H62.4998C61.3955 51.0048 60.5003 50.1094 60.5003 49.0053V25.0103C60.5003 23.9059 59.605 23.0107 58.5008 23.0107C57.3967 23.0107 56.5013 23.9059 56.5013 25.0103V49.0053C56.5013 52.3182 59.1869 55.004 62.5001 55.004H108.491C109.595 55.004 110.49 54.1089 110.49 53.0045C110.49 51.9002 109.595 51.0048 108.49 51.0048ZM72.4978 51.0048H68.4986V29.0093H72.4978V51.0048ZM88.4946 51.0048H84.4954V39.0073H88.4946V51.0048ZM104.491 51.0048H100.492V45.006H104.491V51.0048H104.491Z" fill="#8975F3"/>
<path d="M108.49 90.997H62.4998C61.3955 90.997 60.5003 90.1018 60.5003 88.9975V85.8261L67.0849 79.2415C67.8748 78.4832 69.1224 78.4832 69.9123 79.2415L72.2558 81.585C74.5984 83.9269 78.3956 83.9269 80.7379 81.585L89.0802 73.2428C89.8701 72.4845 91.1177 72.4845 91.9076 73.2428L94.2511 75.5884C96.5962 77.9237 100.388 77.9237 102.733 75.5884L109.904 68.4177C110.662 67.6332 110.651 66.3859 109.879 65.6147C109.108 64.8433 107.861 64.8325 107.076 65.5904L99.9058 72.7589C99.1251 73.5394 97.8592 73.5394 97.0785 72.7589L94.735 70.4154C92.3612 68.1499 88.6263 68.1499 86.2528 70.4154L77.9106 78.7576C77.1298 79.5382 75.864 79.5382 75.0832 78.7576L72.7418 76.4141C70.3676 74.1484 66.6317 74.1484 64.2575 76.4141L60.5003 80.1713V65.0024C60.5003 63.8981 59.605 63.0029 58.5008 63.0029C57.3967 63.0029 56.5013 63.8983 56.5013 65.0024V88.9975C56.5013 92.3104 59.1869 94.9962 62.5001 94.9962H108.491C109.595 94.9962 110.49 94.1009 110.49 92.9967C110.49 91.8921 109.595 90.997 108.49 90.997Z" fill="#8975F3"/>
<path d="M120.488 107.901V26.1003C120.766 20.2857 116.302 15.3354 110.49 15.0127H10.5106C4.69833 15.3356 0.234411 20.286 0.512557 26.1003V107.901C0.233474 113.717 4.69739 118.668 10.5106 118.991H42.5039V122.99H34.5056C30.0883 122.99 26.5073 126.571 26.5073 130.989V132.988C26.5073 134.092 27.4025 134.988 28.5068 134.988H92.4937C93.5981 134.988 94.4932 134.092 94.4932 132.988V130.989C94.4932 126.571 90.9122 122.99 86.4949 122.99H78.4966V118.991H110.49C116.303 118.668 120.767 113.717 120.488 107.901ZM86.4947 126.99C88.7034 126.99 90.4939 128.78 90.4939 130.989H30.5063C30.5063 128.78 32.2968 126.99 34.5056 126.99H86.4947ZM46.5031 122.99V118.991H74.4974V122.99H46.5031ZM110.49 114.992H10.5106C6.91108 114.662 4.24139 111.506 4.51181 107.902V102.995H116.489V107.902C116.759 111.506 114.089 114.662 110.49 114.992ZM116.488 26.1003V98.9953H4.51181V26.1003C4.24139 22.4961 6.91131 19.3412 10.5106 19.0117H110.49C114.089 19.3412 116.759 22.4961 116.488 26.1003Z" fill="#8975F3"/>
</g>
<defs>
<clipPath id="clip0">
<path d="M0.5 15H120.5V135H0.5V15Z" fill="white"/>
</clipPath>
</defs>
</svg>
