<svg width="159" height="143" viewBox="0 0 159 143" fill="none" xmlns="http://www.w3.org/2000/svg">
<g clip-path="url(#clip0)">
<path fill-rule="evenodd" clip-rule="evenodd" d="M38 1.99986H138C149.046 1.99986 158 10.9541 158 21.9997V122C158 133.045 149.046 142 138 142H38C26.9542 142 17.9999 133.045 17.9999 122V21.9997C17.9999 10.9541 26.9542 1.99986 38 1.99986Z" fill="#D3F2ED"/>
<path d="M83.5 25.5625H67.5625V23.6875C67.5625 11.7812 57.9062 2.125 46 2.125C34.0938 2.125 24.4375 11.7812 24.4375 23.6875V25.5625H8.5C6.42578 25.5625 4.75 27.2383 4.75 29.3125V92.125C4.75 94.1992 6.42578 95.875 8.5 95.875H83.5C85.5742 95.875 87.25 94.1992 87.25 92.125V29.3125C87.25 27.2383 85.5742 25.5625 83.5 25.5625ZM32.875 23.6875C32.875 16.4336 38.7461 10.5625 46 10.5625C53.2539 10.5625 59.125 16.4336 59.125 23.6875V25.5625H32.875V23.6875ZM78.8125 87.4375H13.1875V34H24.4375V44.3125C24.4375 44.8281 24.8594 45.25 25.375 45.25H31.9375C32.4531 45.25 32.875 44.8281 32.875 44.3125V34H59.125V44.3125C59.125 44.8281 59.5469 45.25 60.0625 45.25H66.625C67.1406 45.25 67.5625 44.8281 67.5625 44.3125V34H78.8125V87.4375Z" fill="#8975F3"/>
</g>
<defs>
<clipPath id="clip0">
<rect width="159" height="143" fill="white"/>
</clipPath>
</defs>
</svg>
