<svg width="159" height="143" viewBox="0 0 159 143" fill="none" xmlns="http://www.w3.org/2000/svg">
<path fill-rule="evenodd" clip-rule="evenodd" d="M38.0001 2H138C149.046 2 158 10.9542 158 21.9998V122C158 133.046 149.046 142 138 142H38.0001C26.9544 142 18 133.046 18 122V21.9998C18 10.9542 26.9544 2 38.0001 2Z" fill="#D3F2ED"/>
<path d="M10 35V45H30V55H20C17.3478 55 14.8043 56.0536 12.9289 57.9289C11.0536 59.8043 10 62.3478 10 65V85H40V75H20V65H30C32.6522 65 35.1957 63.9464 37.0711 62.0711C38.9464 60.1957 40 57.6522 40 55V45C40 42.3478 38.9464 39.8043 37.0711 37.9289C35.1957 36.0536 32.6522 35 30 35H10ZM45 35V85H55V65H70V55H55V45H75V35H45ZM90 35C87.3478 35 84.8043 36.0536 82.9289 37.9289C81.0536 39.8043 80 42.3478 80 45V85H90V70H100V85H110V45C110 42.3478 108.946 39.8043 107.071 37.9289C105.196 36.0536 102.652 35 100 35H90ZM90 45H100V60H90V45Z" fill="#8975F3"/>
</svg>
