<svg width="159" height="143" viewBox="0 0 159 143" fill="none" xmlns="http://www.w3.org/2000/svg">
<g clip-path="url(#clip0)">
<path fill-rule="evenodd" clip-rule="evenodd" d="M38 1.99986H138C149.046 1.99986 158 10.9541 158 21.9997V122C158 133.045 149.046 142 138 142H38C26.9542 142 17.9999 133.045 17.9999 122V21.9997C17.9999 10.9541 26.9542 1.99986 38 1.99986Z" fill="#D3F2ED"/>
<path d="M47 36C70.4 36 89 30.6 89 24C89 17.4 70.4 12 47 12C23.6 12 5 17.4 5 24C5 30.6 23.6 36 47 36ZM47 90C23.6 90 5 84.6 5 78V96C5 102.6 23.6 108 47 108C70.4 108 89 102.6 89 96V78C89 84.6 70.4 90 47 90ZM47 66C23.6 66 5 60.6 5 54V72C5 78.6 23.6 84 47 84C70.4 84 89 78.6 89 72V54C89 60.6 70.4 66 47 66ZM47 42C23.6 42 5 36.6 5 30V48C5 54.6 23.6 60 47 60C70.4 60 89 54.6 89 48V30C89 36.6 70.4 42 47 42Z" fill="#8975F3"/>
</g>
<defs>
<clipPath id="clip0">
<rect width="159" height="143" fill="white"/>
</clipPath>
</defs>
</svg>
