<svg width="159" height="143" viewBox="0 0 159 143" fill="none" xmlns="http://www.w3.org/2000/svg">
<path fill-rule="evenodd" clip-rule="evenodd" d="M38 1.99986H138C149.046 1.99986 158 10.9541 158 21.9997V122C158 133.045 149.046 142 138 142H38C26.9542 142 17.9999 133.045 17.9999 122V21.9997C17.9999 10.9541 26.9542 1.99986 38 1.99986Z" fill="#D3F2ED"/>
<path d="M108.561 42.44C103.811 37.69 97.2455 34.75 90.0005 34.75C82.7555 34.75 76.1905 37.69 71.4405 42.44L60.0555 53.825L48.6705 42.44C44.9996 38.7684 40.3223 36.2679 35.2302 35.2547C30.138 34.2415 24.8598 34.7611 20.063 36.7478C15.2662 38.7344 11.1662 42.099 8.28165 46.4158C5.39707 50.7327 3.85742 55.8081 3.85742 61C3.85742 66.192 5.39707 71.2673 8.28165 75.5842C11.1662 79.9011 15.2662 83.2656 20.063 85.2523C24.8598 87.2389 30.138 87.7585 35.2302 86.7453C40.3223 85.7321 44.9996 83.2316 48.6705 79.56L60.0555 68.175L71.4405 79.56C76.3845 84.3777 83.0272 87.054 89.9302 87.0094C96.8332 86.9647 103.441 84.2027 108.322 79.3215C113.203 74.4402 115.965 67.8327 116.01 60.9297C116.055 54.0267 113.378 47.384 108.561 42.44ZM43.3705 74.26C40.7481 76.8818 37.4072 78.667 33.7701 79.3901C30.1331 80.1132 26.3634 79.7416 22.9376 78.3223C19.5117 76.903 16.5837 74.4997 14.5236 71.4164C12.4636 68.3331 11.364 64.7082 11.364 61C11.364 57.2918 12.4636 53.6669 14.5236 50.5836C16.5837 47.5003 19.5117 45.097 22.9376 43.6777C26.3634 42.2585 30.1331 41.8869 33.7701 42.6099C37.4072 43.333 40.7481 45.1183 43.3705 47.74L56.3055 60.675V61.32L43.3705 74.26ZM103.261 74.26C99.8655 77.655 95.1805 79.75 90.0005 79.75C84.8205 79.75 80.1355 77.65 76.7405 74.26L63.8055 61.325V60.68L76.7405 47.745C80.2573 44.2282 85.0271 42.2525 90.0005 42.2525C94.974 42.2525 99.7437 44.2282 103.261 47.745C106.777 51.2618 108.753 56.0315 108.753 61.005C108.753 65.9785 106.777 70.7482 103.261 74.265V74.26Z" fill="#8975F3"/>
</svg>
