<svg width="159" height="143" viewBox="0 0 159 143" fill="none" xmlns="http://www.w3.org/2000/svg">
<path fill-rule="evenodd" clip-rule="evenodd" d="M38 1.99986H138C149.046 1.99986 158 10.9541 158 21.9997V122C158 133.045 149.046 142 138 142H38C26.9542 142 17.9999 133.045 17.9999 122V21.9997C17.9999 10.9541 26.9542 1.99986 38 1.99986Z" fill="#D3F2ED"/>
<path d="M110.625 21.75H9.375C7.88316 21.75 6.45242 22.3426 5.39752 23.3975C4.34263 24.4524 3.75 25.8832 3.75 27.375V128.625C3.75 130.117 4.34263 131.548 5.39752 132.602C6.45242 133.657 7.88316 134.25 9.375 134.25H110.625C112.117 134.25 113.548 133.657 114.602 132.602C115.657 131.548 116.25 130.117 116.25 128.625V27.375C116.25 25.8832 115.657 24.4524 114.602 23.3975C113.548 22.3426 112.117 21.75 110.625 21.75ZM9.375 25.5H110.625C111.122 25.5 111.599 25.6975 111.951 26.0492C112.302 26.4008 112.5 26.8777 112.5 27.375V36.75H7.5V27.375C7.5 26.8777 7.69754 26.4008 8.04918 26.0492C8.40081 25.6975 8.87772 25.5 9.375 25.5ZM110.625 130.5H9.375C8.87772 130.5 8.40081 130.302 8.04918 129.951C7.69754 129.599 7.5 129.122 7.5 128.625V40.5H112.5V128.625C112.5 129.122 112.302 129.599 111.951 129.951C111.599 130.302 111.122 130.5 110.625 130.5Z" fill="#8975F3"/>
<path d="M90 29.25H93.75V33H90V29.25Z" fill="#8975F3"/>
<path d="M97.5 29.25H101.25V33H97.5V29.25Z" fill="#8975F3"/>
<path d="M105 29.25H108.75V33H105V29.25Z" fill="#8975F3"/>
<path d="M106.875 44.25H13.125C12.6277 44.25 12.1508 44.4475 11.7992 44.7992C11.4475 45.1508 11.25 45.6277 11.25 46.125V68.625C11.25 69.1223 11.4475 69.5992 11.7992 69.9508C12.1508 70.3025 12.6277 70.5 13.125 70.5H106.875C107.372 70.5 107.849 70.3025 108.201 69.9508C108.552 69.5992 108.75 69.1223 108.75 68.625V46.125C108.75 45.6277 108.552 45.1508 108.201 44.7992C107.849 44.4475 107.372 44.25 106.875 44.25ZM105 66.75H15V48H105V66.75Z" fill="#8975F3"/>
<path d="M58.125 74.25H13.125C12.6277 74.25 12.1508 74.4475 11.7992 74.7992C11.4475 75.1508 11.25 75.6277 11.25 76.125V94.875C11.25 95.3723 11.4475 95.8492 11.7992 96.2008C12.1508 96.5525 12.6277 96.75 13.125 96.75H58.125C58.6223 96.75 59.0992 96.5525 59.4508 96.2008C59.8025 95.8492 60 95.3723 60 94.875V76.125C60 75.6277 59.8025 75.1508 59.4508 74.7992C59.0992 74.4475 58.6223 74.25 58.125 74.25ZM56.25 93H15V78H56.25V93Z" fill="#8975F3"/>
<path d="M58.125 100.5H13.125C12.6277 100.5 12.1508 100.698 11.7992 101.049C11.4475 101.401 11.25 101.878 11.25 102.375V124.875C11.25 125.372 11.4475 125.849 11.7992 126.201C12.1508 126.552 12.6277 126.75 13.125 126.75H58.125C58.6223 126.75 59.0992 126.552 59.4508 126.201C59.8025 125.849 60 125.372 60 124.875V102.375C60 101.878 59.8025 101.401 59.4508 101.049C59.0992 100.698 58.6223 100.5 58.125 100.5ZM56.25 123H15V104.25H56.25V123Z" fill="#8975F3"/>
<path d="M106.875 74.25H65.625C65.1277 74.25 64.6508 74.4475 64.2992 74.7992C63.9475 75.1508 63.75 75.6277 63.75 76.125V124.875C63.75 125.372 63.9475 125.849 64.2992 126.201C64.6508 126.552 65.1277 126.75 65.625 126.75H106.875C107.372 126.75 107.849 126.552 108.201 126.201C108.552 125.849 108.75 125.372 108.75 124.875V76.125C108.75 75.6277 108.552 75.1508 108.201 74.7992C107.849 74.4475 107.372 74.25 106.875 74.25ZM105 123H67.5V78H105V123Z" fill="#8975F3"/>
<path d="M71.25 79.875H75V83.625H71.25V79.875Z" fill="#8975F3"/>
<path d="M71.25 87.375H101.25V91.125H71.25V87.375Z" fill="#8975F3"/>
<path d="M18.75 81.75H22.5V85.5H18.75V81.75Z" fill="#8975F3"/>
<path d="M71.25 94.875H101.25V98.625H71.25V94.875Z" fill="#8975F3"/>
<path d="M71.25 102.375H101.25V106.125H71.25V102.375Z" fill="#8975F3"/>
<path d="M18.75 108H22.5V111.75H18.75V108Z" fill="#8975F3"/>
<path d="M18.75 115.5H48.75V119.25H18.75V115.5Z" fill="#8975F3"/>
<path d="M18.75 51.75H22.5V55.5H18.75V51.75Z" fill="#8975F3"/>
<path d="M18.75 59.25H101.25V63H18.75V59.25Z" fill="#8975F3"/>
</svg>
