<svg width="169" height="143" viewBox="0 0 169 143" fill="none" xmlns="http://www.w3.org/2000/svg">
<g clip-path="url(#clip0)">
<path fill-rule="evenodd" clip-rule="evenodd" d="M47.0476 2H147.048C158.093 2 167.047 10.9542 167.047 21.9998V122C167.047 133.046 158.093 142 147.048 142H47.0476C36.0018 142 27.0476 133.046 27.0476 122V21.9998C27.0476 10.9542 36.0018 2 47.0476 2Z" fill="#D3F2ED"/>
<path d="M34.9605 72.5099C33.6344 72.5099 32.3626 73.0366 31.425 73.9743C30.4873 74.912 29.9605 76.1838 29.9605 77.5099V86.4199C23.5159 79.1319 19.9592 69.7386 19.9605 60.0099C19.9583 58.5393 20.0452 57.0699 20.2205 55.6099C20.3159 54.9503 20.2785 54.2783 20.1105 53.6334C19.9424 52.9885 19.6472 52.3837 19.2421 51.8546C18.8369 51.3255 18.3301 50.8826 17.7514 50.5522C17.1727 50.2217 16.5338 50.0102 15.8722 49.9303C15.2106 49.8503 14.5396 49.9033 13.8988 50.0864C13.258 50.2694 12.6603 50.5787 12.1407 50.996C11.6212 51.4133 11.1903 51.9304 10.8734 52.5166C10.5565 53.1029 10.36 53.7466 10.2955 54.4099C10.0697 56.2679 9.95779 58.1381 9.9605 60.0099C9.96732 71.9408 14.2556 83.4731 22.0455 92.5099H14.9605C13.6344 92.5099 12.3626 93.0366 11.425 93.9743C10.4873 94.912 9.9605 96.1838 9.9605 97.5099C9.9605 98.8359 10.4873 100.108 11.425 101.045C12.3626 101.983 13.6344 102.51 14.9605 102.51H34.9605C35.7424 102.5 36.5107 102.303 37.2012 101.936C37.8917 101.569 38.4846 101.042 38.9305 100.4C38.9855 100.325 39.0605 100.265 39.1155 100.185C39.1505 100.135 39.1505 100.075 39.1805 100.025C39.4186 99.6228 39.5972 99.1882 39.7105 98.7349C39.7855 98.4798 39.839 98.2189 39.8705 97.9549C39.8855 97.8049 39.9605 97.6699 39.9605 97.5099V77.5099C39.9605 76.1838 39.4337 74.912 38.496 73.9743C37.5583 73.0366 36.2866 72.5099 34.9605 72.5099ZM42.4605 30.0099H33.5455C40.8353 23.5649 50.2302 20.0082 59.9605 20.0099C61.4312 20.0066 62.9008 20.0951 64.3605 20.2749C65.678 20.434 67.0047 20.0632 68.0488 19.2442C69.0929 18.4251 69.7689 17.2248 69.928 15.9074C70.0871 14.5899 69.7164 13.2632 68.8973 12.2191C68.0783 11.175 66.878 10.499 65.5605 10.3399C63.7023 10.1164 61.8321 10.0062 59.9605 10.0099C48.0296 10.0167 36.4973 14.3049 27.4605 22.0949V15.0099C27.4605 13.6838 26.9337 12.412 25.996 11.4743C25.0583 10.5366 23.7866 10.0099 22.4605 10.0099C21.1344 10.0099 19.8626 10.5366 18.925 11.4743C17.9873 12.412 17.4605 13.6838 17.4605 15.0099V35.0099C17.4914 35.3408 17.5567 35.6675 17.6555 35.9849C17.776 36.6018 18.0155 37.1894 18.3605 37.7149L18.4205 37.7999C18.7503 38.2795 19.1635 38.6961 19.6405 39.0299C19.6955 39.0699 19.7255 39.1299 19.7805 39.1699C19.8505 39.2199 19.9305 39.2349 20.0055 39.2749C20.2901 39.4457 20.5918 39.5864 20.9055 39.6949C21.3265 39.8417 21.7655 39.9308 22.2105 39.9599C22.3005 39.9599 22.3705 40.0099 22.4605 40.0099H42.4605C43.7866 40.0099 45.0583 39.4831 45.996 38.5454C46.9337 37.6077 47.4605 36.3359 47.4605 35.0099C47.4605 33.6838 46.9337 32.412 45.996 31.4743C45.0583 30.5366 43.7866 30.0099 42.4605 30.0099ZM102.26 84.0299C102.14 83.4146 101.9 82.8287 101.555 82.3049L101.5 82.2199C101.169 81.7397 100.754 81.3231 100.275 80.9899C100.22 80.9499 100.195 80.8899 100.135 80.8499C100.085 80.8149 100.02 80.8149 99.9655 80.7799C99.3311 80.4262 98.6355 80.1955 97.9155 80.0999C97.7555 80.0849 97.6205 80.0099 97.4605 80.0099H77.4605C76.1344 80.0099 74.8626 80.5366 73.925 81.4743C72.9873 82.412 72.4605 83.6838 72.4605 85.0099C72.4605 86.3359 72.9873 87.6077 73.925 88.5454C74.8626 89.4831 76.1344 90.0099 77.4605 90.0099H86.3705C79.0823 96.4541 69.6891 100.011 59.9605 100.01C58.4896 100.011 57.0201 99.9213 55.5605 99.7399C54.243 99.5807 52.9163 99.9515 51.8722 100.771C50.8281 101.59 50.1521 102.79 49.993 104.107C49.8339 105.425 50.2046 106.752 51.0237 107.796C51.8427 108.84 53.043 109.516 54.3605 109.675C56.2188 109.898 58.0888 110.01 59.9605 110.01C71.8914 110.003 83.4237 105.715 92.4605 97.9249V105.01C92.4605 106.336 92.9873 107.608 93.925 108.545C94.8626 109.483 96.1344 110.01 97.4605 110.01C98.7866 110.01 100.058 109.483 100.996 108.545C101.934 107.608 102.46 106.336 102.46 105.01V85.0099C102.428 84.6788 102.361 84.352 102.26 84.0349V84.0299ZM104.96 27.5099C106.287 27.5099 107.558 26.9831 108.496 26.0454C109.434 25.1077 109.96 23.8359 109.96 22.5099C109.96 21.1838 109.434 19.912 108.496 18.9743C107.558 18.0366 106.287 17.5099 104.96 17.5099H84.9605C84.6346 17.5417 84.3129 17.607 84.0005 17.7049L83.9655 17.7099C83.3593 17.8324 82.7822 18.0701 82.2655 18.4099L82.1655 18.4749C81.6877 18.8052 81.2728 19.2184 80.9405 19.6949C80.9005 19.7449 80.8405 19.7749 80.8005 19.8299C80.7655 19.8799 80.7655 19.9449 80.7305 19.9999C80.3741 20.6385 80.1433 21.3394 80.0505 22.0649C80.0355 22.2149 79.9605 22.3499 79.9605 22.5099V42.5099C79.9605 43.8359 80.4873 45.1077 81.425 46.0454C82.3626 46.9831 83.6344 47.5099 84.9605 47.5099C86.2866 47.5099 87.5583 46.9831 88.496 46.0454C89.4337 45.1077 89.9605 43.8359 89.9605 42.5099V33.5949C96.405 40.8849 99.9617 50.2797 99.9605 60.0099C99.961 61.4805 99.8725 62.9499 99.6955 64.4099C99.5373 65.7257 99.9076 67.0505 100.725 68.0938C101.542 69.1371 102.74 69.8135 104.055 69.9749C104.258 69.9986 104.462 70.0103 104.665 70.0099C105.886 70.0077 107.064 69.5591 107.977 68.7486C108.889 67.9381 109.474 66.8217 109.62 65.6099C109.848 63.7519 109.962 61.8817 109.96 60.0099C109.954 48.0789 105.665 36.5466 97.8755 27.5099H104.96Z" fill="#8975F3"/>
</g>
<defs>
<clipPath id="clip0">
<rect x="0.0476074" width="168" height="143" fill="white"/>
</clipPath>
</defs>
</svg>
