<svg width="169" height="143" viewBox="0 0 169 143" fill="none" xmlns="http://www.w3.org/2000/svg">
<g clip-path="url(#clip0)">
<path fill-rule="evenodd" clip-rule="evenodd" d="M47.0473 2H147.047C158.093 2 167.047 10.9542 167.047 21.9998V122C167.047 133.046 158.093 142 147.047 142H47.0473C36.0016 142 27.0474 133.046 27.0474 122V21.9998C27.0474 10.9542 36.0016 2 47.0473 2Z" fill="#D3F2ED"/>
<path d="M106.707 39.901L107.469 39.1622C107.624 39.0149 107.748 38.8374 107.833 38.6406C107.917 38.4438 107.961 38.2318 107.961 38.0175C107.961 37.8033 107.917 37.5913 107.833 37.3945C107.748 37.1977 107.624 37.0202 107.469 36.8729L89.5848 19.561C89.2654 19.255 88.8402 19.0842 88.3979 19.0842C87.9556 19.0842 87.5304 19.255 87.2111 19.561C87.2111 19.561 83.5004 21.6779 82.8273 16.1166C82.5592 13.8797 82.0529 12.481 81.3873 11.6822C81.3048 11.5904 77.6167 7.97536 77.6167 7.97536C77.2969 7.67023 76.8718 7.5 76.4298 7.5C75.9878 7.5 75.5627 7.67023 75.2429 7.97536L61.8573 20.9354C61.7019 21.0832 61.5782 21.261 61.4937 21.4581C61.4091 21.6552 61.3655 21.8675 61.3655 22.0819C61.3655 22.2964 61.4091 22.5086 61.4937 22.7057C61.5782 22.9028 61.7019 23.0807 61.8573 23.2285C61.8573 23.2285 65.5904 26.8004 65.6879 26.8754C66.5111 27.5222 67.9548 28.0116 70.2686 28.2704C76.0136 28.9229 73.8236 32.5116 73.8236 32.5116C73.6681 32.6598 73.5443 32.8379 73.4597 33.0353C73.3751 33.2327 73.3315 33.4453 73.3315 33.66C73.3315 33.8748 73.3751 34.0873 73.4597 34.2847C73.5443 34.4822 73.6681 34.6603 73.8236 34.8085L77.7029 38.5641L67.6586 48.286L66.1717 46.846C66.1717 46.846 60.8898 50.1216 55.0867 55.7429C48.6761 61.9454 45.0836 70.141 36.6254 78.3254C23.9073 90.6347 17.7198 93.4247 12.5917 97.1391C10.6567 98.536 10.8386 98.7572 12.6104 100.473L18.1229 105.813L23.6354 111.149C25.4073 112.859 25.6379 113.035 27.0854 111.168C30.9198 106.207 34.0342 100.441 46.7523 88.126C55.2086 79.9454 63.6817 76.4654 70.0848 70.2629C75.8898 64.6435 79.276 59.5322 79.276 59.5322L77.7892 58.0904L87.8279 48.3685L91.7073 52.126C92.0274 52.4295 92.4519 52.5984 92.8931 52.5977C93.3342 52.597 93.7582 52.4268 94.0773 52.1222L94.6642 51.5541C98.0954 54.3572 109.158 64.516 105.659 76.3772C105.181 77.9991 104.356 79.4447 104.778 79.8554C105.354 80.4085 107.555 78.2841 108.837 77.0335C125.131 61.1447 109.945 43.3379 106.707 39.901Z" fill="#8975F3"/>
<path d="M76.4446 68.3418C74.9679 69.9792 73.437 71.567 71.8546 73.1024C69.4527 75.4274 66.8183 77.4524 64.0283 79.4193L90.5877 105.939C91.3704 106.713 92.4264 107.147 93.5268 107.147C94.6271 107.147 95.6832 106.713 96.4658 105.939L102.344 100.071C103.122 99.2921 103.559 98.2367 103.559 97.1362C103.559 96.0357 103.122 94.9802 102.344 94.2018L76.4446 68.3418Z" fill="#8975F3"/>
<path d="M23.5883 55.0839L31.6227 47.0626L46.4071 61.8245C48.3646 59.2407 50.3877 56.7957 52.6977 54.5607C54.3835 52.9296 56.1265 51.3587 57.9233 49.8507L43.3752 35.327L51.4058 27.3095C51.7963 26.9197 52.1061 26.4568 52.3175 25.9472C52.5289 25.4375 52.6377 24.8912 52.6377 24.3395C52.6377 23.7878 52.5289 23.2415 52.3175 22.7318C52.1061 22.2222 51.7963 21.7593 51.4058 21.3695L38.7458 8.72824C37.9541 7.94216 36.8839 7.5007 35.7682 7.5C34.6525 7.4993 33.5817 7.93941 32.789 8.72449L24.7621 16.742L21.659 13.6445C20.8774 12.8702 19.8218 12.4355 18.7216 12.4348C17.6214 12.4341 16.5653 12.8674 15.7827 13.6407L9.90647 19.5132C9.13063 20.292 8.69502 21.3465 8.69502 22.4457C8.69502 23.545 9.13063 24.5995 9.90647 25.3782L13.0096 28.4757L4.97522 36.497C4.19045 37.287 3.75 38.3553 3.75 39.4689C3.75 40.5824 4.19045 41.6507 4.97522 42.4407L17.6446 55.0839C18.4348 55.8682 19.5031 56.3083 20.6165 56.3083C21.7299 56.3083 22.7981 55.8682 23.5883 55.0839Z" fill="#8975F3"/>
</g>
<defs>
<clipPath id="clip0">
<rect x="0.0473633" width="168" height="143" fill="white"/>
</clipPath>
</defs>
</svg>
