<svg width="169" height="143" viewBox="0 0 169 143" fill="none" xmlns="http://www.w3.org/2000/svg">
<path fill-rule="evenodd" clip-rule="evenodd" d="M47.0473 2H147.047C158.093 2 167.047 10.9542 167.047 21.9998V122C167.047 133.046 158.093 142 147.047 142H47.0473C36.0016 142 27.0474 133.046 27.0474 122V21.9998C27.0474 10.9542 36.0016 2 47.0473 2Z" fill="#D3F2ED"/>
<g clip-path="url(#clip0)">
<path d="M20.4545 78.3619L32.2708 2.30819C32.6608 -0.271807 36.137 -0.856807 37.3483 1.44944L50.0645 25.2957L20.4545 78.3619ZM104.417 96.8194L93.167 26.8182C93.0818 26.3291 92.8642 25.8726 92.5378 25.4984C92.2115 25.1241 91.789 24.8464 91.316 24.6953C90.843 24.5442 90.3377 24.5255 89.8549 24.6413C89.372 24.7571 88.9301 25.0028 88.577 25.3519L17.582 96.8157L56.8595 118.963C59.3195 120.351 62.327 120.351 64.7908 118.963L104.417 96.8194ZM72.5045 35.7432L63.4033 18.3207C63.1728 17.8834 62.8273 17.5172 62.404 17.2619C61.9807 17.0065 61.4958 16.8715 61.0014 16.8715C60.5071 16.8715 60.0221 17.0065 59.5988 17.2619C59.1755 17.5172 58.83 17.8834 58.5995 18.3207L18.6583 89.9232L72.5045 35.7432Z" fill="#8975F3"/>
</g>
<defs>
<clipPath id="clip0">
<rect x="1" width="120" height="120" fill="white"/>
</clipPath>
</defs>
</svg>
