<svg width="169" height="143" viewBox="0 0 169 143" fill="none" xmlns="http://www.w3.org/2000/svg">
<g clip-path="url(#clip0)">
<path fill-rule="evenodd" clip-rule="evenodd" d="M47.0473 2H147.047C158.093 2 167.047 10.9542 167.047 21.9998V122C167.047 133.046 158.093 142 147.047 142H47.0473C36.0016 142 27.0474 133.046 27.0474 122V21.9998C27.0474 10.9542 36.0016 2 47.0473 2Z" fill="#D3F2ED"/>
<path d="M104.098 81.2344C99.1179 78.3516 93.0476 79.125 88.9578 82.7344L82.7468 79.1367V61.3594C82.7468 59.5195 81.7625 57.8086 80.1687 56.8945L64.2312 47.7188V39.8555C69.4109 38.0977 73.1375 33.1992 73.1375 27.4219C73.1375 20.168 67.2664 14.2969 60.0124 14.2969C52.7585 14.2969 46.8875 20.168 46.8875 27.4219C46.8875 33.1992 50.614 38.0977 55.7937 39.8555V47.7188L39.8562 56.8945C38.2625 57.8086 37.2781 59.5195 37.2781 61.3594V79.125L31.0671 82.7227C26.9773 79.1133 20.8953 78.3398 15.9265 81.2227C9.65698 84.8555 7.52417 92.8711 11.1218 99.1406C14.7312 105.41 22.7117 107.566 28.9578 103.945C33.9382 101.062 36.3054 95.3906 35.239 90.0234L40.946 86.707L57.4226 96.1992C58.2195 96.6562 59.1101 96.8906 60.0007 96.8906C60.8914 96.8906 61.782 96.6562 62.5789 96.1992L79.0437 86.7188L84.7507 90.0352C83.6843 95.3906 86.0632 101.074 91.032 103.957C97.2781 107.578 105.27 105.434 108.868 99.1523C112.477 92.8711 110.344 84.8555 104.098 81.2344ZM25.2312 97.4531C24.5947 97.8218 23.8916 98.0609 23.1623 98.1567C22.433 98.2526 21.6919 98.2032 20.9818 98.0115C20.2716 97.8198 19.6064 97.4896 19.0244 97.0398C18.4424 96.59 17.9551 96.0295 17.5906 95.3906C16.0437 92.707 16.9578 89.2617 19.6414 87.7148C20.2779 87.3462 20.981 87.1071 21.7103 87.0112C22.4396 86.9154 23.1806 86.9647 23.8908 87.1564C24.6009 87.3481 25.2661 87.6784 25.8481 88.1282C26.4302 88.578 26.9174 89.1385 27.282 89.7773C28.8289 92.4609 27.9148 95.9062 25.2312 97.4531ZM54.3757 27.4219C54.4058 25.9499 55.0116 24.5484 56.0632 23.518C57.1149 22.4876 58.5285 21.9105 60.0007 21.9105C61.473 21.9105 62.8866 22.4876 63.9382 23.518C64.9898 24.5484 65.5957 25.9499 65.6257 27.4219C65.5957 28.8938 64.9898 30.2954 63.9382 31.3257C62.8866 32.3561 61.473 32.9332 60.0007 32.9332C58.5285 32.9332 57.1149 32.3561 56.0632 31.3257C55.0116 30.2954 54.4058 28.8938 54.3757 27.4219ZM74.2976 79.7109L60.0007 87.9492L45.7039 79.7109V63.2578L60.0007 55.0195L74.2976 63.2578V79.7109ZM102.411 95.4023C100.864 98.0859 97.4421 99.0117 94.7703 97.4648C92.0984 95.918 91.1726 92.4727 92.7195 89.7891C94.2664 87.1055 97.6882 86.1797 100.36 87.7266C103.044 89.2734 103.958 92.707 102.411 95.4023Z" fill="#8975F3"/>
</g>
<defs>
<clipPath id="clip0">
<rect x="0.0473633" width="168" height="143" fill="white"/>
</clipPath>
</defs>
</svg>
