<svg width="169" height="143" viewBox="0 0 169 143" fill="none" xmlns="http://www.w3.org/2000/svg">
<g clip-path="url(#clip0)">
<path fill-rule="evenodd" clip-rule="evenodd" d="M47.5475 2H147.548C158.593 2 167.547 10.9542 167.547 21.9998V122C167.547 133.046 158.593 142 147.548 142H47.5475C36.5017 142 27.5475 133.046 27.5475 122V21.9998C27.5475 10.9542 36.5017 2 47.5475 2Z" fill="#D3F2ED"/>
<g clip-path="url(#clip1)">
<path d="M113.153 32.3936H7.9418C3.86438 32.3936 0.547501 35.7104 0.547501 39.7876V111.181C0.547501 115.258 3.86438 118.575 7.9418 118.575H43.526L42.0867 130.09H36.1233C35.1523 130.09 34.3655 130.877 34.3655 131.848C34.3655 132.819 35.1523 133.606 36.1233 133.606H84.9717C85.9427 133.606 86.7295 132.819 86.7295 131.848C86.7295 130.877 85.9427 130.09 84.9717 130.09H79.0085L77.569 118.575H113.153C117.23 118.575 120.548 115.258 120.548 111.181V39.7876C120.548 35.7104 117.231 32.3936 113.153 32.3936ZM45.6298 130.09L47.0693 118.575H53.5387L54.1734 121.114C54.9061 124.044 57.5273 126.09 60.5477 126.09C63.5681 126.09 66.1894 124.044 66.922 121.114L67.5567 118.575H74.0262L75.4652 130.09H45.6298ZM57.1624 118.575H63.9323L63.5109 120.261C63.1704 121.623 61.9519 122.575 60.5473 122.575C59.1427 122.575 57.9244 121.623 57.5836 120.261L57.1624 118.575ZM117.032 111.181C117.032 113.32 115.292 115.06 113.153 115.06H7.9418C5.80313 115.06 4.06313 113.32 4.06313 111.181V39.7876C4.06313 37.6489 5.80313 35.9092 7.9418 35.9092H113.153C115.292 35.9092 117.032 37.6489 117.032 39.7876V111.181Z" fill="#8975F3"/>
<path d="M100.002 39.9092H9.82037C8.84936 39.9092 8.06256 40.696 8.06256 41.667V109.303C8.06256 110.274 8.84936 111.061 9.82037 111.061H13.5781C14.5491 111.061 15.3359 110.274 15.3359 109.303C15.3362 108.332 14.5491 107.545 13.5783 107.545H11.5784V43.4248H100.002C100.973 43.4248 101.76 42.6378 101.76 41.667C101.76 40.696 100.973 39.9092 100.002 39.9092Z" fill="#8975F3"/>
<path d="M111.274 39.9092H107.517C106.546 39.9092 105.759 40.696 105.759 41.667C105.759 42.6378 106.546 43.4248 107.517 43.4248H109.517V107.545H21.0931C20.122 107.545 19.3353 108.332 19.3353 109.303C19.3353 110.274 20.122 111.061 21.0931 111.061H111.274C112.245 111.061 113.032 110.274 113.032 109.303V41.667C113.032 40.696 112.245 39.9092 111.274 39.9092Z" fill="#8975F3"/>
<path d="M84.4773 59.3714C84.1614 58.9676 83.6849 58.722 83.173 58.6988L41.8401 56.8198C41.8077 56.8184 41.7761 56.8177 41.7435 56.8181C41.4988 56.0149 40.9818 55.3184 40.2819 54.8515L35.2201 51.477C34.4125 50.9386 33.321 51.1568 32.7826 51.9647C32.2443 52.7726 32.4625 53.8638 33.2701 54.4022L38.3317 57.7763C38.3556 57.7922 38.3732 57.8163 38.3811 57.844L44.8286 80.4098C45.0297 81.1134 45.3606 81.7458 45.7855 82.2919L43.4265 87.0098C42.8587 88.1454 42.9182 89.468 43.5857 90.548C43.8278 90.9396 44.1348 91.2731 44.4876 91.5403C44.0258 92.3463 43.7603 93.2787 43.7603 94.2724C43.7603 97.3137 46.2346 99.7877 49.2756 99.7877C52.3166 99.7877 54.7909 97.3134 54.7909 94.2724C54.7909 93.5672 54.6564 92.8931 54.414 92.2727H70.4399C70.1976 92.8931 70.063 93.5672 70.063 94.2724C70.063 97.3137 72.5373 99.7877 75.5784 99.7877C78.6194 99.7877 81.0937 97.3134 81.0937 94.2724C81.0937 93.3902 80.8844 92.5566 80.5145 91.8164C80.8694 91.4948 81.0937 91.0317 81.0937 90.5149C81.0937 89.5441 80.3069 88.7571 79.3358 88.7571H46.6785C46.6534 88.7571 46.611 88.7571 46.5756 88.6997C46.5402 88.6425 46.5592 88.6048 46.5704 88.582L48.7436 84.236C49.1858 84.3497 49.6466 84.4111 50.1182 84.4111C50.3355 84.4111 50.5548 84.3982 50.7756 84.3724L75.4755 81.4666C78.6655 81.0912 81.2322 78.7231 81.8622 75.573L84.8167 60.7995C84.9173 60.2967 84.7933 59.7752 84.4773 59.3714ZM75.5779 92.2732C76.6806 92.2732 77.5776 93.1704 77.5776 94.2729C77.5776 95.3756 76.6806 96.2726 75.5779 96.2726C74.4751 96.2726 73.5782 95.3756 73.5782 94.2729C73.5782 93.1702 74.4751 92.2732 75.5779 92.2732ZM49.2751 92.2732C50.3779 92.2732 51.2748 93.1702 51.2748 94.2729C51.2748 95.3756 50.3779 96.2726 49.2751 96.2726C48.1724 96.2726 47.2754 95.3756 47.2754 94.2729C47.2754 93.1702 48.1724 92.2732 49.2751 92.2732ZM44.9645 68.0909L42.7616 60.3811L49.7894 60.7005L51.0079 68.0909H44.9645ZM50.365 80.8809C49.3848 80.9963 48.479 80.3918 48.2085 79.4442L45.969 71.6065H51.5875L53.0643 80.5634L50.365 80.8809ZM60.6688 79.6688L56.5597 80.1523L55.1509 71.6067H60.6688V79.6688ZM60.6688 68.0909H54.5711L53.3795 60.8639L60.6688 61.1953V68.0909ZM69.5708 78.6213L64.1844 79.2551V71.6065H70.2058L69.5708 78.6213ZM70.5241 68.0909H64.1844V61.3549L71.1053 61.6695L70.5241 68.0909ZM78.4145 74.884C78.0841 76.5359 76.7378 77.7783 75.0646 77.9752L73.1387 78.2018L73.7357 71.6067H79.0698L78.4145 74.884ZM79.7732 68.0909H74.0542L74.6209 61.8293L80.9678 62.1178L79.7732 68.0909Z" fill="#8975F3"/>
</g>
</g>
<defs>
<clipPath id="clip0">
<rect x="0.547501" width="168" height="143" fill="white"/>
</clipPath>
<clipPath id="clip1">
<path d="M0.547501 23H120.548V143H0.547501V23Z" fill="white"/>
</clipPath>
</defs>
</svg>
