<svg width="156" height="143" viewBox="0 0 156 143" fill="none" xmlns="http://www.w3.org/2000/svg">
<path fill-rule="evenodd" clip-rule="evenodd" d="M35 1.99971H135C146.046 1.99971 155 10.9544 155 21.9995V122C155 133.045 146.046 142 135 142H35C23.9542 142 14.9999 133.045 14.9999 122V21.9995C14.9999 10.9544 23.9542 1.99971 35 1.99971Z" fill="#D3F2ED"/>
<path d="M100 25C97 25 95 27.5 95 30.5V80C95 83 97 85 100 85.5C103 85.5 105 83 105 80V30.5C105 27.5 103 25 100 25ZM82 10H23C18.5 10 15 13.5 15 18V87C15 91.5 18.5 95 23 95H30V105C30 108 32 110 35 110H65C68 110 70 108 70 105V95H82C86.5 95 90 91.5 90 87V18C90 13.5 86.5 10 82 10ZM25 40H40V50H25V40ZM60 55V65H45V55H60ZM45 50V40H60V50H45ZM60 70V80H45V70H60ZM25 55H40V65H25V55ZM25 80V70H40V80H25ZM40 105H35V95H40V105ZM65 105H50V95H65V105ZM80 80H65V70H80V80ZM80 65H65V55H80V65ZM80 50H65V40H80V50ZM80 30H25V20H80V30Z" fill="#8975F3"/>
</svg>
