<svg width="156" height="143" viewBox="0 0 156 143" fill="none" xmlns="http://www.w3.org/2000/svg">
<path fill-rule="evenodd" clip-rule="evenodd" d="M35 1.99971H135C146.046 1.99971 155 10.9544 155 21.9995V122C155 133.045 146.046 142 135 142H35C23.9542 142 14.9999 133.045 14.9999 122V21.9995C14.9999 10.9544 23.9542 1.99971 35 1.99971Z" fill="#D3F2ED"/>
<path d="M112.756 18.5479H7.24431C3.24985 18.5479 0 21.7977 0 25.7922V98.6405C0 102.635 3.24985 105.885 7.24431 105.885H43.3991V111.156C43.3991 115.988 39.4677 119.919 34.6355 119.919H26.6675C25.1398 119.919 23.9011 121.158 23.9011 122.686C23.9011 124.214 25.1398 125.452 26.6675 125.452H93.3323C94.86 125.452 96.0986 124.214 96.0986 122.686C96.0986 121.158 94.86 119.919 93.3323 119.919H85.364C80.5319 119.919 76.6005 115.988 76.6005 111.156V105.885H112.755C116.75 105.885 120 102.635 120 98.6407V25.7922C120 21.7977 116.75 18.5479 112.756 18.5479ZM45.9188 119.92C47.8046 117.497 48.9322 114.457 48.9322 111.156V105.885H71.0683V111.156C71.0683 114.457 72.1958 117.498 74.0816 119.92H45.9188ZM114.468 98.6407C114.468 99.5846 113.7 100.353 112.756 100.353H7.24431C6.30048 100.353 5.53243 99.5848 5.53243 98.6407V84.1017H114.468V98.6407ZM114.468 78.5688H5.53267V25.7922C5.53267 24.8483 6.30048 24.0803 7.24455 24.0803H112.756C113.7 24.0803 114.468 24.8481 114.468 25.7922V78.5688H114.468Z" fill="#8975F3"/>
<path d="M60.0011 95.2131C61.6499 95.2131 62.9865 93.8765 62.9865 92.2277C62.9865 90.5788 61.6499 89.2422 60.0011 89.2422C58.3523 89.2422 57.0156 90.5788 57.0156 92.2277C57.0156 93.8765 58.3523 95.2131 60.0011 95.2131Z" fill="#8975F3"/>
<path d="M64.7435 37.6061C63.663 36.5258 61.912 36.5258 60.8311 37.6061L41.2809 57.1563C40.2006 58.2365 40.2006 59.9882 41.2809 61.0687C41.8214 61.6089 42.5289 61.8789 43.2372 61.8789C43.9455 61.8789 44.6531 61.6089 45.1933 61.0687L64.7435 41.5185C65.8237 40.4383 65.8237 38.6865 64.7435 37.6061Z" fill="#8975F3"/>
<path d="M76.331 48.9362C75.251 47.8559 73.4999 47.8559 72.4188 48.9359L64.6305 56.7238C63.5503 57.8042 63.5503 59.556 64.6305 60.6362C65.1707 61.1764 65.8785 61.4464 66.5866 61.4464C67.2944 61.4464 68.0024 61.1764 68.5427 60.6362L76.331 52.8484C77.4112 51.7681 77.4112 50.0164 76.331 48.9362Z" fill="#8975F3"/>
</svg>
