<svg width="156" height="143" viewBox="0 0 156 143" fill="none" xmlns="http://www.w3.org/2000/svg">
<path fill-rule="evenodd" clip-rule="evenodd" d="M35 1.99971H135C146.046 1.99971 155 10.9544 155 21.9995V122C155 133.045 146.046 142 135 142H35C23.9542 142 14.9999 133.045 14.9999 122V21.9995C14.9999 10.9544 23.9542 1.99971 35 1.99971Z" fill="#D3F2ED"/>
<path fill-rule="evenodd" clip-rule="evenodd" d="M96.9046 7.26937C96.9046 0.241875 96.2222 0.234375 89.0296 0.234375H38.4721C31.2871 0.234375 30.5821 0.241875 30.5821 7.26937H37.7296V29.3194L15.1396 106.787C15.1396 113.829 20.9671 119.529 28.1596 119.529H99.3271C106.512 119.529 112.347 113.829 112.347 106.787L89.9371 29.0944L89.8321 7.26937H96.9046ZM104.765 102.047C106.797 108.677 103.242 112.809 94.0246 112.809H34.2121C23.7046 112.809 21.1246 108.362 23.4721 102.047L44.3671 29.6569L44.2846 7.05937H82.7221V29.4769L104.765 102.047Z" fill="#8975F3"/>
<path fill-rule="evenodd" clip-rule="evenodd" d="M75.2929 45.2344H52.6429L38.8579 92.5444C36.1954 101.169 37.0579 104.424 49.4179 104.424H78.5104C90.7579 104.424 91.0354 100.539 89.0779 92.5444L75.2929 45.2344Z" fill="#8975F3"/>
</svg>
