<svg width="157" height="143" viewBox="0 0 157 143" fill="none" xmlns="http://www.w3.org/2000/svg">
<g clip-path="url(#clip0)">
<path fill-rule="evenodd" clip-rule="evenodd" d="M35.5 1.99971H135.5C146.546 1.99971 155.5 10.9544 155.5 21.9995V122C155.5 133.045 146.546 142 135.5 142H35.5C24.4542 142 15.4999 133.045 15.4999 122V21.9995C15.4999 10.9544 24.4542 1.99971 35.5 1.99971Z" fill="#D3F2ED"/>
<g clip-path="url(#clip1)">
<path d="M113.256 18.5479H7.74431C3.74985 18.5479 0.5 21.7977 0.5 25.7922V98.6405C0.5 102.635 3.74985 105.885 7.74431 105.885H43.8991V111.156C43.8991 115.988 39.9677 119.919 35.1355 119.919H27.1675C25.6398 119.919 24.4011 121.158 24.4011 122.686C24.4011 124.214 25.6398 125.452 27.1675 125.452H93.8323C95.36 125.452 96.5986 124.214 96.5986 122.686C96.5986 121.158 95.36 119.919 93.8323 119.919H85.864C81.0319 119.919 77.1005 115.988 77.1005 111.156V105.885H113.255C117.25 105.885 120.5 102.635 120.5 98.6407V25.7922C120.5 21.7977 117.25 18.5479 113.256 18.5479ZM46.4188 119.92C48.3046 117.497 49.4322 114.457 49.4322 111.156V105.885H71.5683V111.156C71.5683 114.457 72.6958 117.498 74.5816 119.92H46.4188ZM114.968 98.6407C114.968 99.5846 114.2 100.353 113.256 100.353H7.74431C6.80048 100.353 6.03243 99.5848 6.03243 98.6407V84.1017H114.968V98.6407ZM114.968 78.5688H6.03267V25.7922C6.03267 24.8483 6.80048 24.0803 7.74455 24.0803H113.256C114.2 24.0803 114.968 24.8481 114.968 25.7922V78.5688H114.968Z" fill="#8975F3"/>
<path d="M60.501 95.2131C62.1498 95.2131 63.4864 93.8765 63.4864 92.2277C63.4864 90.5788 62.1498 89.2422 60.501 89.2422C58.8521 89.2422 57.5155 90.5788 57.5155 92.2277C57.5155 93.8765 58.8521 95.2131 60.501 95.2131Z" fill="#8975F3"/>
<path d="M65.2433 37.6061C64.1628 36.5258 62.4118 36.5258 61.3308 37.6061L41.7806 57.1563C40.7004 58.2365 40.7004 59.9882 41.7806 61.0687C42.3211 61.6089 43.0287 61.8789 43.737 61.8789C44.4453 61.8789 45.1528 61.6089 45.6931 61.0687L65.2433 41.5185C66.3235 40.4383 66.3235 38.6865 65.2433 37.6061Z" fill="#8975F3"/>
<path d="M76.8308 48.9362C75.7508 47.8559 73.9998 47.8559 72.9186 48.9359L65.1304 56.7238C64.0501 57.8042 64.0501 59.556 65.1304 60.6362C65.6706 61.1764 66.3784 61.4464 67.0865 61.4464C67.7943 61.4464 68.5023 61.1764 69.0426 60.6362L76.8308 52.8484C77.9111 51.7681 77.9111 50.0164 76.8308 48.9362Z" fill="#8975F3"/>
</g>
</g>
<defs>
<clipPath id="clip0">
<rect x="0.5" width="156" height="143" fill="white"/>
</clipPath>
<clipPath id="clip1">
<path d="M0.5 12H120.5V132H0.5V12Z" fill="white"/>
</clipPath>
</defs>
</svg>
