<svg width="156" height="146" viewBox="0 0 156 146" fill="none" xmlns="http://www.w3.org/2000/svg">
<path fill-rule="evenodd" clip-rule="evenodd" d="M35 1.99986H135C146.046 1.99986 155 10.9541 155 21.9997V122C155 133.045 146.046 142 135 142H35C23.9542 142 14.9999 133.045 14.9999 122V21.9997C14.9999 10.9541 23.9542 1.99986 35 1.99986Z" fill="#D3F2ED"/>
<path d="M77.5064 82.5L95.7221 37.5H83.6471L71.1877 66.5789L62.326 37.5H53.0424L43.5314 66.5789L36.8213 53.3297L30.751 71.9531L36.915 82.5H48.7979L57.3947 56.4211L65.5979 82.5H77.5064Z" fill="#8975F3"/>
<path d="M11.4352 67.0523H18.8531C20.8799 67.0808 22.9007 66.8276 24.8578 66.3L26.775 60.3961L32.1375 43.8984C31.7238 43.2472 31.2532 42.6338 30.7312 42.0656C27.9844 39.0219 23.9586 37.5 18.6539 37.5H0V82.5H11.4352V67.0523ZM21.2555 47.8523C22.332 48.9336 22.8695 50.3805 22.868 52.193C22.8664 54.0055 22.3977 55.4531 21.4617 56.5359C20.4242 57.7266 18.5148 58.3211 15.7336 58.3195H11.4352V46.2305H15.7523C18.3445 46.2305 20.1789 46.7711 21.2555 47.8523ZM88.3242 74.4398L91.7906 65.7094H101.796L97.0477 52.4648L102.987 37.5L120 82.5H107.454L104.548 74.4398H88.3242Z" fill="#8975F3"/>
</svg>
