<svg width="165" height="143" viewBox="0 0 165 143" fill="none" xmlns="http://www.w3.org/2000/svg">
<g clip-path="url(#clip0)">
<path fill-rule="evenodd" clip-rule="evenodd" d="M43.5475 1.99971H143.548C154.593 1.99971 163.547 10.9539 163.547 21.9997V122C163.547 133.045 154.593 142 143.548 142H43.5475C32.5017 142 23.5475 133.045 23.5475 122V21.9997C23.5475 10.9539 32.5017 1.99971 43.5475 1.99971Z" fill="#D3F2ED"/>
<g clip-path="url(#clip1)">
<path d="M109.298 16H11.7975C5.58422 16 0.547501 21.0367 0.547501 27.25V124.75C0.547501 130.963 5.58422 136 11.7975 136H109.298C115.511 136 120.548 130.963 120.548 124.75V27.25C120.548 21.0367 115.511 16 109.298 16ZM113.048 124.75C113.048 126.821 111.369 128.5 109.298 128.5H11.7975C9.72633 128.5 8.0475 126.821 8.0475 124.75V53.5H113.048V124.75ZM113.048 46H8.0475V27.25C8.0475 25.1788 9.72633 23.5 11.7975 23.5H109.298C111.369 23.5 113.048 25.1788 113.048 27.25V46Z" fill="#8975F3"/>
<path d="M23.0475 31H15.5475V38.5H23.0475V31Z" fill="#8975F3"/>
<path d="M38.0475 31H30.5475V38.5H38.0475V31Z" fill="#8975F3"/>
<path d="M105.548 31H98.0475V38.5H105.548V31Z" fill="#8975F3"/>
<path d="M39.1088 108.665L44.3963 103.378L32.0589 91.0029L44.3963 78.6654L39.1088 73.3779L24.1089 88.3779C22.6549 89.8406 22.6549 92.2027 24.1089 93.6654L39.1088 108.665Z" fill="#8975F3"/>
<path d="M81.9483 108.665L96.9483 93.6654C98.4024 92.2027 98.4024 89.8406 96.9483 88.3779L81.9483 73.3779L76.6608 78.6654L88.9983 91.0029L76.6608 103.34L81.9483 108.665Z" fill="#8975F3"/>
<path d="M71.5533 73.6808L64.5903 70.8945L49.5863 108.39L56.5493 111.176L71.5533 73.6808Z" fill="#8975F3"/>
</g>
</g>
<defs>
<clipPath id="clip0">
<rect x="0.5" width="164.048" height="143" fill="white"/>
</clipPath>
<clipPath id="clip1">
<path d="M0.547501 16H120.548V136H0.547501V16Z" fill="white"/>
</clipPath>
</defs>
</svg>
