<svg width="163" height="146" viewBox="0 0 163 146" fill="none" xmlns="http://www.w3.org/2000/svg">
<path fill-rule="evenodd" clip-rule="evenodd" d="M42 1.99986H142C153.046 1.99986 162 10.9541 162 21.9997V122C162 133.045 153.046 142 142 142H42C30.9542 142 21.9999 133.045 21.9999 122V21.9997C21.9999 10.9541 30.9542 1.99986 42 1.99986Z" fill="#D3F2ED"/>
<path d="M105 45H75V15H105V45ZM82.5 37.5H97.5V22.5H82.5V37.5Z" fill="#8975F3"/>
<path d="M63.75 56.25V33.75H33.75V86.25H86.25V56.25H63.75ZM41.25 41.25H56.25V56.25H41.25V41.25ZM56.25 78.75H41.25V63.75H56.25V78.75ZM78.75 78.75H63.75V63.75H78.75V78.75Z" fill="#8975F3"/>
<path d="M97.5 105H22.5C20.5115 104.998 18.605 104.207 17.1989 102.801C15.7928 101.395 15.002 99.4885 15 97.5V22.5C15.002 20.5115 15.7928 18.605 17.1989 17.1989C18.605 15.7928 20.5115 15.002 22.5 15H60V22.5H22.5V97.5H97.5V60H105V97.5C104.998 99.4885 104.207 101.395 102.801 102.801C101.395 104.207 99.4885 104.998 97.5 105Z" fill="#8975F3"/>
</svg>
