<svg width="156" height="146" viewBox="0 0 156 146" fill="none" xmlns="http://www.w3.org/2000/svg">
<path fill-rule="evenodd" clip-rule="evenodd" d="M35 1.99986H135C146.046 1.99986 155 10.9541 155 21.9997V122C155 133.045 146.046 142 135 142H35C23.9542 142 14.9999 133.045 14.9999 122V21.9997C14.9999 10.9541 23.9542 1.99986 35 1.99986Z" fill="#D3F2ED"/>
<g clip-path="url(#clip0)">
<path d="M24.101 86.3635C20.6848 86.3635 17.5798 83.5735 17.5798 80.1723C17.5798 76.771 20.3698 73.9623 24.101 73.9623C27.851 73.9623 30.6673 76.756 30.6673 80.1723C30.6673 83.5735 27.5435 86.3635 24.1235 86.3635H24.101ZM104.16 52.5573C103.474 47.596 100.41 43.5535 96.3635 40.4673L94.7848 39.2185L93.5135 40.7598C91.0535 43.5535 90.0598 48.5148 90.3673 52.2235C90.6635 55.0398 91.556 57.8298 93.1423 59.9973C91.8523 60.661 90.2923 61.246 89.0773 61.891C86.2273 62.8248 83.4523 63.1398 80.681 63.1398H0.487263L0.172263 64.9735C-0.434309 71.0226 0.535934 77.1257 2.98851 82.6885L4.21851 84.8598V85.1485C11.7185 97.5723 25.0573 103.16 39.6073 103.16C67.5785 103.16 90.506 91.0698 101.381 64.996C108.51 65.3073 115.702 63.451 119.077 56.6148L119.977 55.0735L118.492 54.1323C114.431 51.6535 108.881 51.3235 104.239 52.5723L104.137 52.591L104.16 52.5573ZM64.121 47.596H51.9748V59.701H64.121V47.596ZM64.121 32.3823H51.9748V44.4873H64.121V32.3823ZM64.121 16.8535H51.9748V28.9623H64.121V16.8535ZM78.9635 47.596H66.8923V59.701H79.001V47.596H78.9635ZM33.986 47.596H21.9148V59.701H34.0235V47.596H33.986ZM49.121 47.596H37.1323V59.701H49.2035V47.596H49.121ZM18.986 47.596H6.98976V59.701H19.1398V47.596H18.986ZM49.121 32.3823H37.1323V44.4873H49.2035V32.3973L49.121 32.3823ZM33.9035 32.3823H21.9335V44.4873H34.0048V32.3973L33.926 32.3823H33.9035Z" fill="#8975F3"/>
</g>
<defs>
<clipPath id="clip0">
<rect width="120" height="120" fill="white"/>
</clipPath>
</defs>
</svg>
