<svg width="156" height="143" viewBox="0 0 156 143" fill="none" xmlns="http://www.w3.org/2000/svg">
<path fill-rule="evenodd" clip-rule="evenodd" d="M35 1.99971H135C146.046 1.99971 155 10.9544 155 21.9995V122C155 133.045 146.046 142 135 142H35C23.9542 142 14.9999 133.045 14.9999 122V21.9995C14.9999 10.9544 23.9542 1.99971 35 1.99971Z" fill="#D3F2ED"/>
<path d="M120 84V108C120 111.183 118.736 114.235 116.485 116.485C114.235 118.736 111.183 120 108 120H84V108C84 104.817 82.7357 101.765 80.4853 99.5147C78.2348 97.2643 75.1826 96 72 96C68.8174 96 65.7652 97.2643 63.5147 99.5147C61.2643 101.765 60 104.817 60 108V120H36C32.8174 120 29.7652 118.736 27.5147 116.485C25.2643 114.235 24 111.183 24 108V84H12C8.8174 84 5.76516 82.7357 3.51472 80.4853C1.26428 78.2348 0 75.1826 0 72C0 68.8174 1.26428 65.7652 3.51472 63.5147C5.76516 61.2643 8.8174 60 12 60H24V36C24 29.4 29.4 24 36 24H60V12C60 8.8174 61.2643 5.76516 63.5147 3.51472C65.7652 1.26428 68.8174 0 72 0C75.1826 0 78.2348 1.26428 80.4853 3.51472C82.7357 5.76516 84 8.8174 84 12V24H108C111.183 24 114.235 25.2643 116.485 27.5147C118.736 29.7652 120 32.8174 120 36V60H108C104.817 60 101.765 61.2643 99.5147 63.5147C97.2643 65.7652 96 68.8174 96 72C96 75.1826 97.2643 78.2348 99.5147 80.4853C101.765 82.7357 104.817 84 108 84H120Z" fill="#8975F3"/>
</svg>
