<svg width="155" height="143" viewBox="0 0 155 143" fill="none" xmlns="http://www.w3.org/2000/svg">
<path fill-rule="evenodd" clip-rule="evenodd" d="M34 1.99986H134C145.046 1.99986 154 10.9541 154 21.9998V122C154 133.045 145.046 142 134 142H34C22.9542 142 13.9999 133.045 13.9999 122V21.9998C13.9999 10.9541 22.9542 1.99986 34 1.99986Z" fill="#D3F2ED"/>
<path d="M106.875 26.75H13.125C10.6395 26.753 8.25667 27.7417 6.49916 29.4992C4.74165 31.2567 3.75298 33.6395 3.75 36.125V107.375C3.75298 109.86 4.74165 112.243 6.49916 114.001C8.25667 115.758 10.6395 116.747 13.125 116.75H44.7506L43.3444 128H39.375C37.8832 128 36.4524 128.593 35.3975 129.648C34.3426 130.702 33.75 132.133 33.75 133.625C33.75 135.117 34.3426 136.548 35.3975 137.602C36.4524 138.657 37.8832 139.25 39.375 139.25H80.625C82.1168 139.25 83.5476 138.657 84.6025 137.602C85.6574 136.548 86.25 135.117 86.25 133.625C86.25 132.133 85.6574 130.702 84.6025 129.648C83.5476 128.593 82.1168 128 80.625 128H76.6556L75.2494 116.75H106.875C109.36 116.747 111.743 115.758 113.501 114.001C115.258 112.243 116.247 109.86 116.25 107.375V36.125C116.247 33.6395 115.258 31.2567 113.501 29.4992C111.743 27.7417 109.36 26.753 106.875 26.75ZM13.125 30.5H106.875C108.367 30.5 109.798 31.0926 110.852 32.1475C111.907 33.2024 112.5 34.6332 112.5 36.125V98H7.5V36.125C7.5 34.6332 8.09263 33.2024 9.14752 32.1475C10.2024 31.0926 11.6332 30.5 13.125 30.5ZM82.5 133.625C82.5 134.122 82.3025 134.599 81.9508 134.951C81.5992 135.302 81.1223 135.5 80.625 135.5H39.375C38.8777 135.5 38.4008 135.302 38.0492 134.951C37.6975 134.599 37.5 134.122 37.5 133.625C37.5 133.128 37.6975 132.651 38.0492 132.299C38.4008 131.948 38.8777 131.75 39.375 131.75H80.625C81.1223 131.75 81.5992 131.948 81.9508 132.299C82.3025 132.651 82.5 133.128 82.5 133.625ZM72.8756 128H47.1244L48.5306 116.75H71.4694L72.8756 128ZM106.875 113H13.125C11.6332 113 10.2024 112.407 9.14752 111.352C8.09263 110.298 7.5 108.867 7.5 107.375V101.75H112.5V107.375C112.5 108.867 111.907 110.298 110.852 111.352C109.798 112.407 108.367 113 106.875 113Z" fill="#8975F3"/>
<path d="M101.25 105.5H105V109.25H101.25V105.5Z" fill="#8975F3"/>
<path d="M33.75 79.2501H35.97C36.4103 80.5001 37.2788 81.554 38.4216 82.225C39.5645 82.8961 40.9079 83.141 42.2141 82.9164C43.5202 82.6919 44.7047 82.0123 45.5578 80.998C46.4109 79.9838 46.8775 78.7004 46.875 77.3751V62.3751C46.8775 61.0498 46.4109 59.7664 45.5578 58.7521C44.7047 57.7379 43.5202 57.0583 42.2141 56.8337C40.9079 56.6091 39.5645 56.8541 38.4216 57.5251C37.2788 58.1962 36.4103 59.25 35.97 60.5001H35.7206C36.1838 54.3773 38.9429 48.6556 43.4455 44.4808C47.9481 40.306 53.8616 37.9863 60.0019 37.9863C66.1421 37.9863 72.0557 40.306 76.5582 44.4808C81.0608 48.6556 83.82 54.3773 84.2831 60.5001H84.0338C83.5954 59.2474 82.7272 58.1905 81.5834 57.5173C80.4396 56.8441 79.0942 56.5981 77.7862 56.8229C76.4782 57.0477 75.2922 57.7289 74.4388 58.7454C73.5854 59.7618 73.1199 61.0479 73.125 62.3751V77.3751C73.1225 78.7004 73.5891 79.9838 74.4422 80.998C75.2953 82.0123 76.4798 82.6919 77.7859 82.9164C79.092 83.141 80.4355 82.8961 81.5784 82.225C82.7212 81.554 83.5897 80.5001 84.03 79.2501H84.375V81.1251C84.375 82.6169 83.7824 84.0477 82.7275 85.1026C81.6726 86.1574 80.2418 86.7501 78.75 86.7501H74.655C74.2127 85.4991 73.3424 84.4447 72.1978 83.7733C71.0533 83.1019 69.7083 82.8567 68.4005 83.0811C67.0927 83.3055 65.9063 83.985 65.051 84.9995C64.1958 86.014 63.7267 87.2982 63.7267 88.6251C63.7267 89.952 64.1958 91.2362 65.051 92.2507C65.9063 93.2652 67.0927 93.9447 68.4005 94.1691C69.7083 94.3935 71.0533 94.1483 72.1978 93.4769C73.3424 92.8055 74.2127 91.7511 74.655 90.5001H78.75C81.2355 90.4971 83.6183 89.5084 85.3758 87.7509C87.1333 85.9934 88.122 83.6106 88.125 81.1251V78.9051C89.218 78.5187 90.1648 77.804 90.8361 76.8589C91.5073 75.9138 91.8702 74.7843 91.875 73.6251V66.1251C91.8695 64.9521 91.4975 63.8102 90.811 62.8591C90.1245 61.908 89.1578 61.1953 88.0462 60.8207C87.6569 53.6454 84.5324 46.8922 79.3154 41.9506C74.0984 37.009 67.1858 34.2549 60 34.2549C52.8142 34.2549 45.9016 37.009 40.6846 41.9506C35.4676 46.8922 32.3431 53.6454 31.9537 60.8207C30.8422 61.1953 29.8755 61.908 29.189 62.8591C28.5025 63.8102 28.1304 64.9521 28.125 66.1251V73.6251C28.125 75.1169 28.7176 76.5477 29.7725 77.6026C30.8274 78.6574 32.2582 79.2501 33.75 79.2501ZM69.375 90.5001C69.0042 90.5001 68.6417 90.3901 68.3333 90.1841C68.025 89.9781 67.7846 89.6852 67.6427 89.3426C67.5008 89 67.4637 88.623 67.536 88.2593C67.6084 87.8956 67.7869 87.5615 68.0492 87.2993C68.3114 87.037 68.6455 86.8585 69.0092 86.7861C69.3729 86.7138 69.7499 86.7509 70.0925 86.8928C70.4351 87.0347 70.728 87.275 70.934 87.5834C71.14 87.8917 71.25 88.2542 71.25 88.6251C71.25 89.1224 71.0525 89.5993 70.7008 89.9509C70.3492 90.3025 69.8723 90.5001 69.375 90.5001ZM80.625 77.3751C80.625 77.8724 80.4275 78.3493 80.0758 78.7009C79.7242 79.0525 79.2473 79.2501 78.75 79.2501C78.2527 79.2501 77.7758 79.0525 77.4242 78.7009C77.0725 78.3493 76.875 77.8724 76.875 77.3751V62.3751C76.875 61.8778 77.0725 61.4009 77.4242 61.0493C77.7758 60.6976 78.2527 60.5001 78.75 60.5001C79.2473 60.5001 79.7242 60.6976 80.0758 61.0493C80.4275 61.4009 80.625 61.8778 80.625 62.3751V77.3751ZM88.125 73.6251C88.125 74.1224 87.9275 74.5993 87.5758 74.9509C87.2242 75.3025 86.7473 75.5001 86.25 75.5001H84.375V64.2501H86.25C86.7473 64.2501 87.2242 64.4476 87.5758 64.7993C87.9275 65.1509 88.125 65.6278 88.125 66.1251V73.6251ZM39.375 62.3751C39.375 61.8778 39.5725 61.4009 39.9242 61.0493C40.2758 60.6976 40.7527 60.5001 41.25 60.5001C41.7473 60.5001 42.2242 60.6976 42.5758 61.0493C42.9275 61.4009 43.125 61.8778 43.125 62.3751V77.3751C43.125 77.8724 42.9275 78.3493 42.5758 78.7009C42.2242 79.0525 41.7473 79.2501 41.25 79.2501C40.7527 79.2501 40.2758 79.0525 39.9242 78.7009C39.5725 78.3493 39.375 77.8724 39.375 77.3751V62.3751ZM31.875 66.1251C31.875 65.6278 32.0725 65.1509 32.4242 64.7993C32.7758 64.4476 33.2527 64.2501 33.75 64.2501H35.625V75.5001H33.75C33.2527 75.5001 32.7758 75.3025 32.4242 74.9509C32.0725 74.5993 31.875 74.1224 31.875 73.6251V66.1251Z" fill="#8975F3"/>
</svg>
