<svg width="156" height="143" viewBox="0 0 156 143" fill="none" xmlns="http://www.w3.org/2000/svg">
<g clip-path="url(#clip0)">
<path fill-rule="evenodd" clip-rule="evenodd" d="M35 1.99971H135C146.046 1.99971 155 10.9544 155 21.9995V122C155 133.045 146.046 142 135 142H35C23.9542 142 14.9999 133.045 14.9999 122V21.9995C14.9999 10.9544 23.9542 1.99971 35 1.99971Z" fill="#D3F2ED"/>
<path d="M16 95H96C101.5 95 106 90.5 106 85C106 79.5 101.5 75 96 75H16C10.5 75 6 79.5 6 85C6 90.5 10.5 95 16 95ZM16 80H26V90H16V80ZM6 25C6 30.5 10.5 35 16 35H96C101.5 35 106 30.5 106 25C106 19.5 101.5 15 96 15H16C10.5 15 6 19.5 6 25ZM26 30H16V20H26V30ZM16 65H96C101.5 65 106 60.5 106 55C106 49.5 101.5 45 96 45H16C10.5 45 6 49.5 6 55C6 60.5 10.5 65 16 65ZM16 50H26V60H16V50Z" fill="#8975F3"/>
</g>
<defs>
<clipPath id="clip0">
<rect width="156" height="143" fill="white"/>
</clipPath>
</defs>
</svg>
