<svg width="156" height="143" viewBox="0 0 156 143" fill="none" xmlns="http://www.w3.org/2000/svg">
<path fill-rule="evenodd" clip-rule="evenodd" d="M35 1.99971H135C146.046 1.99971 155 10.9544 155 21.9995V122C155 133.045 146.046 142 135 142H35C23.9542 142 14.9999 133.045 14.9999 122V21.9995C14.9999 10.9544 23.9542 1.99971 35 1.99971Z" fill="#D3F2ED"/>
<path d="M34.961 72.5099C33.6349 72.5099 32.3631 73.0366 31.4254 73.9743C30.4878 74.912 29.961 76.1838 29.961 77.5099V86.4199C23.5164 79.1319 19.9597 69.7386 19.961 60.0099C19.9588 58.5393 20.0456 57.0699 20.221 55.6099C20.3164 54.9503 20.279 54.2783 20.1109 53.6334C19.9429 52.9885 19.6477 52.3837 19.2425 51.8546C18.8374 51.3255 18.3306 50.8826 17.7519 50.5522C17.1732 50.2217 16.5342 50.0102 15.8726 49.9303C15.211 49.8503 14.5401 49.9033 13.8993 50.0864C13.2585 50.2694 12.6608 50.5787 12.1412 50.996C11.6217 51.4133 11.1908 51.9304 10.8739 52.5166C10.557 53.1029 10.3605 53.7466 10.296 54.4099C10.0702 56.2679 9.95828 58.1381 9.96099 60.0099C9.96781 71.9408 14.256 83.4731 22.046 92.5099H14.961C13.6349 92.5099 12.3631 93.0366 11.4255 93.9743C10.4878 94.912 9.96099 96.1838 9.96099 97.5099C9.96099 98.8359 10.4878 100.108 11.4255 101.045C12.3631 101.983 13.6349 102.51 14.961 102.51H34.961C35.7429 102.5 36.5111 102.303 37.2017 101.936C37.8922 101.569 38.4851 101.042 38.931 100.4C38.986 100.325 39.061 100.265 39.116 100.185C39.151 100.135 39.151 100.075 39.181 100.025C39.4191 99.6228 39.5977 99.1882 39.711 98.7349C39.786 98.4798 39.8395 98.2189 39.871 97.9549C39.886 97.8049 39.961 97.6699 39.961 97.5099V77.5099C39.961 76.1838 39.4342 74.912 38.4965 73.9743C37.5588 73.0366 36.2871 72.5099 34.961 72.5099ZM42.461 30.0099H33.546C40.8357 23.5649 50.2307 20.0082 59.961 20.0099C61.4317 20.0066 62.9013 20.0951 64.361 20.2749C65.6784 20.434 67.0052 20.0632 68.0493 19.2442C69.0934 18.4251 69.7694 17.2248 69.9285 15.9074C70.0876 14.5899 69.7169 13.2632 68.8978 12.2191C68.0787 11.175 66.8785 10.499 65.561 10.3399C63.7027 10.1164 61.8326 10.0062 59.961 10.0099C48.0301 10.0167 36.4978 14.3049 27.461 22.0949V15.0099C27.461 13.6838 26.9342 12.412 25.9965 11.4743C25.0588 10.5366 23.7871 10.0099 22.461 10.0099C21.1349 10.0099 19.8631 10.5366 18.9255 11.4743C17.9878 12.412 17.461 13.6838 17.461 15.0099V35.0099C17.4918 35.3408 17.5572 35.6675 17.656 35.9849C17.7765 36.6018 18.016 37.1894 18.361 37.7149L18.421 37.7999C18.7508 38.2795 19.164 38.6961 19.641 39.0299C19.696 39.0699 19.726 39.1299 19.781 39.1699C19.851 39.2199 19.931 39.2349 20.006 39.2749C20.2906 39.4457 20.5922 39.5864 20.906 39.6949C21.327 39.8417 21.766 39.9308 22.211 39.9599C22.301 39.9599 22.371 40.0099 22.461 40.0099H42.461C43.7871 40.0099 45.0588 39.4831 45.9965 38.5454C46.9342 37.6077 47.461 36.3359 47.461 35.0099C47.461 33.6838 46.9342 32.412 45.9965 31.4743C45.0588 30.5366 43.7871 30.0099 42.461 30.0099ZM102.261 84.0299C102.14 83.4146 101.901 82.8287 101.556 82.3049L101.501 82.2199C101.17 81.7397 100.755 81.3231 100.276 80.9899C100.221 80.9499 100.196 80.8899 100.136 80.8499C100.086 80.8149 100.021 80.8149 99.966 80.7799C99.3315 80.4262 98.636 80.1955 97.916 80.0999C97.756 80.0849 97.621 80.0099 97.461 80.0099H77.461C76.1349 80.0099 74.8631 80.5366 73.9255 81.4743C72.9878 82.412 72.461 83.6838 72.461 85.0099C72.461 86.3359 72.9878 87.6077 73.9255 88.5454C74.8631 89.4831 76.1349 90.0099 77.461 90.0099H86.371C79.0828 96.4541 69.6896 100.011 59.961 100.01C58.4901 100.011 57.0206 99.9213 55.561 99.7399C54.2435 99.5807 52.9168 99.9515 51.8727 100.771C50.8286 101.59 50.1526 102.79 49.9935 104.107C49.8344 105.425 50.2051 106.752 51.0242 107.796C51.8432 108.84 53.0435 109.516 54.361 109.675C56.2193 109.898 58.0893 110.01 59.961 110.01C71.8919 110.003 83.4242 105.715 92.461 97.9249V105.01C92.461 106.336 92.9878 107.608 93.9254 108.545C94.8631 109.483 96.1349 110.01 97.461 110.01C98.7871 110.01 100.059 109.483 100.997 108.545C101.934 107.608 102.461 106.336 102.461 105.01V85.0099C102.429 84.6788 102.362 84.352 102.261 84.0349V84.0299ZM104.961 27.5099C106.287 27.5099 107.559 26.9831 108.497 26.0454C109.434 25.1077 109.961 23.8359 109.961 22.5099C109.961 21.1838 109.434 19.912 108.497 18.9743C107.559 18.0366 106.287 17.5099 104.961 17.5099H84.961C84.6351 17.5417 84.3134 17.607 84.001 17.7049L83.966 17.7099C83.3598 17.8324 82.7827 18.0701 82.266 18.4099L82.166 18.4749C81.6882 18.8052 81.2733 19.2184 80.941 19.6949C80.901 19.7449 80.841 19.7749 80.801 19.8299C80.766 19.8799 80.766 19.9449 80.731 19.9999C80.3746 20.6385 80.1438 21.3394 80.051 22.0649C80.036 22.2149 79.961 22.3499 79.961 22.5099V42.5099C79.961 43.8359 80.4878 45.1077 81.4255 46.0454C82.3631 46.9831 83.6349 47.5099 84.961 47.5099C86.2871 47.5099 87.5588 46.9831 88.4965 46.0454C89.4342 45.1077 89.961 43.8359 89.961 42.5099V33.5949C96.4055 40.8849 99.9622 50.2797 99.961 60.0099C99.9615 61.4805 99.873 62.9499 99.696 64.4099C99.5378 65.7257 99.9081 67.0505 100.725 68.0938C101.543 69.1371 102.741 69.8135 104.056 69.9749C104.258 69.9986 104.462 70.0103 104.666 70.0099C105.887 70.0077 107.064 69.5591 107.977 68.7486C108.89 67.9381 109.475 66.8217 109.621 65.6099C109.848 63.7519 109.962 61.8817 109.961 60.0099C109.954 48.0789 105.666 36.5466 97.876 27.5099H104.961Z" fill="#8975F3"/>
</svg>
