<svg width="156" height="146" viewBox="0 0 156 146" fill="none" xmlns="http://www.w3.org/2000/svg">
<path fill-rule="evenodd" clip-rule="evenodd" d="M35 1.99986H135C146.046 1.99986 155 10.9541 155 21.9997V122C155 133.045 146.046 142 135 142H35C23.9542 142 14.9999 133.045 14.9999 122V21.9997C14.9999 10.9541 23.9542 1.99986 35 1.99986Z" fill="#D3F2ED"/>
<g clip-path="url(#clip0)">
<path d="M70.2516 13.7529L94.9191 28.0104C96.0671 26.8041 97.4799 25.8813 99.0459 25.3151C100.612 24.7488 102.288 24.5546 103.942 24.7477C105.596 24.9409 107.182 25.5161 108.576 26.428C109.969 27.3398 111.131 28.5633 111.97 30.0017C112.8 31.4454 113.281 33.0625 113.377 34.7247C113.473 36.3868 113.18 38.0485 112.522 39.5779C111.864 41.1073 110.859 42.4625 109.587 43.5361C108.314 44.6096 106.809 45.3721 105.19 45.7629V74.2592C106.812 74.6418 108.321 75.3992 109.596 76.4705C110.872 77.5418 111.878 78.8971 112.536 80.4278C113.193 81.9586 113.482 83.622 113.38 85.2846C113.278 86.9473 112.787 88.5628 111.948 90.0017C111.099 91.4668 109.916 92.7102 108.494 93.6298C107.072 94.5495 105.453 95.1194 103.769 95.2928C102.084 95.4662 100.383 95.2382 98.8037 94.6275C97.2244 94.0168 95.8123 93.0407 94.6829 91.7792L70.1504 105.939C70.682 107.547 70.8246 109.258 70.5663 110.932C70.308 112.605 69.6562 114.194 68.6646 115.566C67.6729 116.939 66.3697 118.057 64.862 118.828C63.3542 119.599 61.6851 120.001 59.9916 120.002C58.3272 120.003 56.6854 119.615 55.1972 118.87C53.709 118.124 52.4154 117.042 51.4197 115.708C50.4239 114.374 49.7534 112.826 49.4617 111.188C49.1699 109.549 49.2649 107.865 49.7391 106.269L25.0529 92.0304C24.0835 93.0494 22.9225 93.867 21.6364 94.4364C20.3504 95.0058 18.9646 95.3158 17.5586 95.3485C16.1525 95.3812 14.7538 95.1361 13.4427 94.6272C12.1315 94.1184 10.9337 93.3557 9.9179 92.3829C8.53409 91.0524 7.53289 89.3748 7.01887 87.5252C6.50485 85.6757 6.49686 83.722 6.99573 81.8683C7.4946 80.0146 8.48203 78.3288 9.85491 76.987C11.2278 75.6452 12.9357 74.6967 14.8004 74.2404V45.7442C13.3057 45.3884 11.9053 44.7147 10.6943 43.7691C9.48341 42.8234 8.49045 41.6279 7.78305 40.264C7.07565 38.9001 6.67042 37.3998 6.59494 35.8653C6.51947 34.3307 6.77552 32.7979 7.34567 31.3711C7.91581 29.9444 8.78667 28.6573 9.89896 27.5973C11.0112 26.5374 12.3388 25.7296 13.7914 25.2288C15.2439 24.7281 16.7873 24.5462 18.3165 24.6955C19.8456 24.8448 21.3247 25.3219 22.6529 26.0942C23.5304 26.6004 24.3516 27.2267 25.0566 27.9692L49.7429 13.7304C48.9378 11.0133 49.2448 8.08763 50.5964 5.59679C51.948 3.10596 54.2335 1.25392 56.9504 0.447932C58.7977 -0.104435 60.7601 -0.146746 62.6296 0.32548C64.499 0.797707 66.2059 1.76688 67.5693 3.1303C68.9327 4.49371 69.9019 6.20058 70.3741 8.07002C70.8463 9.93946 70.804 11.9018 70.2516 13.7492V13.7529ZM67.6754 18.1479C67.5779 18.2454 67.4991 18.3429 67.3829 18.4404L99.6891 74.3792C99.8241 74.3417 99.9817 74.3004 100.098 74.2629V45.7292C98.7372 45.3928 97.4564 44.7911 96.3287 43.9586C95.2011 43.1261 94.2489 42.0793 93.5267 40.878C92.8045 39.6768 92.3265 38.3448 92.1201 36.9585C91.9138 35.5721 91.9831 34.1587 92.3242 32.7992C92.3429 32.6829 92.3841 32.5442 92.4029 32.4279L67.6754 18.1479ZM52.5966 18.4404L52.3041 18.1479L27.5766 32.4054C28.3597 35.1275 28.0302 38.0491 26.6605 40.5284C25.2908 43.0077 22.9929 44.8419 20.2716 45.6279L19.8816 45.7254V74.2592L20.3129 74.3754L52.6191 18.4367L52.5966 18.4404ZM62.9879 20.9792C61.0394 21.5267 58.9777 21.5267 57.0291 20.9792L24.7229 76.9179C26.1891 78.3242 27.2241 80.1392 27.7304 82.1342H92.2829C92.7704 80.1429 93.8054 78.3242 95.2904 76.8992L62.9879 20.9792ZM67.9079 102.11L92.4779 87.9129C92.3991 87.6767 92.3429 87.4442 92.2829 87.2079H27.7116L27.5954 87.6167L52.3041 101.874C53.3005 100.84 54.4958 100.017 55.8182 99.4565C57.1406 98.8959 58.5628 98.6085 59.9991 98.6117C63.1454 98.6117 65.9579 99.9579 67.9079 102.107V102.11Z" fill="#8975F3"/>
</g>
<defs>
<clipPath id="clip0">
<rect width="120" height="120" fill="white"/>
</clipPath>
</defs>
</svg>
