<svg width="156" height="146" viewBox="0 0 156 146" fill="none" xmlns="http://www.w3.org/2000/svg">
<path fill-rule="evenodd" clip-rule="evenodd" d="M35 1.99986H135C146.046 1.99986 155 10.9541 155 21.9997V122C155 133.045 146.046 142 135 142H35C23.9542 142 14.9999 133.045 14.9999 122V21.9997C14.9999 10.9541 23.9542 1.99986 35 1.99986Z" fill="#D3F2ED"/>
<path d="M117 66H114V45.7312C114 43.35 113.044 41.0625 111.356 39.375L92.625 20.6437C90.9375 18.9562 88.65 18 86.2688 18H78V9C78 4.03125 73.9688 0 69 0H21C16.0312 0 12 4.03125 12 9V18H1.5C0.675 18 0 18.675 0 19.5V22.5C0 23.325 0.675 24 1.5 24H52.5C53.325 24 54 24.675 54 25.5V28.5C54 29.325 53.325 30 52.5 30H7.5C6.675 30 6 30.675 6 31.5V34.5C6 35.325 6.675 36 7.5 36H46.5C47.325 36 48 36.675 48 37.5V40.5C48 41.325 47.325 42 46.5 42H1.5C0.675 42 0 42.675 0 43.5V46.5C0 47.325 0.675 48 1.5 48H40.5C41.325 48 42 48.675 42 49.5V52.5C42 53.325 41.325 54 40.5 54H12V78C12 87.9375 20.0625 96 30 96C39.9375 96 48 87.9375 48 78H72C72 87.9375 80.0625 96 90 96C99.9375 96 108 87.9375 108 78H117C118.65 78 120 76.65 120 75V69C120 67.35 118.65 66 117 66ZM30 87C25.0312 87 21 82.9688 21 78C21 73.0312 25.0312 69 30 69C34.9688 69 39 73.0312 39 78C39 82.9688 34.9688 87 30 87ZM90 87C85.0312 87 81 82.9688 81 78C81 73.0312 85.0312 69 90 69C94.9688 69 99 73.0312 99 78C99 82.9688 94.9688 87 90 87ZM105 48H78V27H86.2688L105 45.7312V48Z" fill="#8975F3"/>
</svg>
