<svg width="156" height="143" viewBox="0 0 156 143" fill="none" xmlns="http://www.w3.org/2000/svg">
<path fill-rule="evenodd" clip-rule="evenodd" d="M35 1.99971H135C146.046 1.99971 155 10.9544 155 21.9995V122C155 133.045 146.046 142 135 142H35C23.9542 142 14.9999 133.045 14.9999 122V21.9995C14.9999 10.9544 23.9542 1.99971 35 1.99971Z" fill="#D3F2ED"/>
<g clip-path="url(#clip0)">
<path d="M59.6902 0.0774246C54.6698 0.0912046 49.6704 0.727305 44.8065 1.97117C21.4065 7.79117 2.83273 28.9824 0.45148 53.0199C-2.49977 75.7562 9.00523 99.4487 28.6702 111.186C47.9902 123.276 74.139 122.792 93.0465 110.076C110.041 99.0399 120.605 78.9399 119.983 58.6449C119.694 38.5712 108.421 19.0562 91.1715 8.74368C81.7777 2.94242 70.7265 0.0324246 59.6902 0.0736746V0.0774246ZM59.3565 8.55242C84.0802 8.51117 108.301 27.6324 110.78 53.1812C115.509 81.4824 92.0115 110.252 63.339 111.092C36.0727 113.807 9.70273 90.6812 8.92273 63.2987C6.89398 41.1324 21.5227 19.1199 42.4177 11.7924C47.8051 9.64656 53.5538 8.55308 59.3527 8.57117L59.3565 8.55242ZM84.8265 24.6887C71.3865 35.1137 58.5165 46.2287 45.3727 56.9724C51.3877 57.0474 57.444 57.0474 63.4777 57.0062C70.5277 46.1874 77.7765 35.5074 84.8265 24.6849V24.6887ZM56.5065 62.9499C49.4565 73.7912 42.1927 84.4899 35.1352 95.3312C48.6165 84.9212 61.4265 73.7312 74.649 63.0474C68.6005 62.9787 62.5516 62.9475 56.5027 62.9537L56.5065 62.9499Z" fill="#8975F3"/>
</g>
<defs>
<clipPath id="clip0">
<rect width="120" height="120" fill="white"/>
</clipPath>
</defs>
</svg>
