<svg width="63" height="62" viewBox="0 0 63 62" fill="none" xmlns="http://www.w3.org/2000/svg">
<path d="M45.4658 17.4514C46.7646 16.1594 46.7646 14.0539 45.4658 12.7619L40.6875 7.9836L40.6943 7.99043C39.4296 6.72578 37.2558 4.55196 34.1796 1.48262C32.7304 0.0675802 30.3857 0.0812521 28.9501 1.5168L2.03022 28.4162C1.6858 28.7583 1.41245 29.1651 1.22592 29.6133C1.03939 30.0615 0.943359 30.5421 0.943359 31.0275C0.943359 31.513 1.03939 31.9936 1.22592 32.4418C1.41245 32.8899 1.6858 33.2968 2.03022 33.6389L28.9433 60.5314C29.6372 61.2241 30.5776 61.6132 31.5581 61.6132C32.5385 61.6132 33.4789 61.2241 34.1728 60.5314L45.4589 49.2522C46.7578 47.9602 46.7578 45.8547 45.4589 44.5627C44.8351 43.942 43.9908 43.5935 43.1108 43.5935C42.2307 43.5935 41.3865 43.942 40.7626 44.5627L32.2177 53.1213C31.8623 53.4768 31.3085 53.4768 30.9531 53.1213L9.45405 31.6428C9.09858 31.2873 9.09858 30.7336 9.45405 30.3781L30.9462 8.89961C30.9736 8.87227 31.0078 8.85176 31.0351 8.82442C31.3906 8.54414 31.8828 8.57149 32.2109 8.89961L40.7695 17.4514C42.0683 18.7502 44.1738 18.7502 45.4658 17.4514ZM24.4316 31.1643C24.4316 33.0897 25.1972 34.9362 26.5599 36.2977C27.9227 37.6592 29.771 38.424 31.6982 38.424C33.6254 38.424 35.4737 37.6592 36.8365 36.2977C38.1992 34.9362 38.9648 33.0897 38.9648 31.1643C38.9648 29.2389 38.1992 27.3923 36.8365 26.0308C35.4737 24.6694 33.6254 23.9045 31.6982 23.9045C29.771 23.9045 27.9227 24.6694 26.5599 26.0308C25.1972 27.3923 24.4316 29.2389 24.4316 31.1643ZM61.0859 28.5256L52.6845 20.1652C51.3857 18.8732 49.2802 18.8732 47.9882 20.1721C47.6794 20.4795 47.4344 20.8449 47.2672 21.2473C47.1 21.6496 47.014 22.0811 47.014 22.5168C47.014 22.9525 47.1 23.384 47.2672 23.7863C47.4344 24.1887 47.6794 24.5541 47.9882 24.8615L53.6621 30.5285C54.0175 30.884 54.0175 31.4377 53.6621 31.7932L48.0703 37.3781C47.7615 37.6855 47.5164 38.0509 47.3493 38.4533C47.1821 38.8557 47.096 39.2871 47.096 39.7229C47.096 40.1586 47.1821 40.59 47.3493 40.9924C47.5164 41.3948 47.7615 41.7602 48.0703 42.0676C48.6941 42.6883 49.5384 43.0368 50.4184 43.0368C51.2985 43.0368 52.1427 42.6883 52.7666 42.0676L61.0927 33.7482C61.436 33.4053 61.7081 32.998 61.8936 32.5496C62.0791 32.1013 62.1742 31.6207 62.1736 31.1355C62.173 30.6503 62.0766 30.17 61.8899 29.7221C61.7032 29.2743 61.43 28.8676 61.0859 28.5256Z" fill="white"/>
</svg>
