<svg width="83" height="80" viewBox="0 0 83 80" fill="none" xmlns="http://www.w3.org/2000/svg">
<g clip-path="url(#clip0)">
<path fill-rule="evenodd" clip-rule="evenodd" d="M22.4999 1.99984H61.5C72.5457 1.99984 81.5 10.9541 81.5 21.9998V58.9996C81.5 70.0453 72.5457 79 61.5 79H22.4999C11.4542 79 2.4999 70.0453 2.4999 58.9996V21.9998C2.4999 10.9541 11.4542 1.99984 22.4999 1.99984Z" fill="#D3F2ED"/>
<path d="M34.9863 26.5293L36.2305 24.3828C36.9961 23.043 38.7051 22.5918 40.0449 23.3574C41.3848 24.123 41.8359 25.832 41.0703 27.1719L29.1074 47.8848H37.7617C40.5645 47.8848 42.1367 51.1797 40.9199 53.4629H15.5586C14.0137 53.4629 12.7695 52.2188 12.7695 50.6738C12.7695 49.1289 14.0137 47.8848 15.5586 47.8848H22.668L31.7734 32.1074L28.9297 27.1719C28.1641 25.832 28.6152 24.1367 29.9551 23.3574C31.2949 22.5918 32.9902 23.043 33.7695 24.3828L34.9863 26.5293ZM24.2266 56.334L21.5469 60.9824C20.7812 62.3223 19.0723 62.7734 17.7324 62.0078C16.3926 61.2422 15.9414 59.5332 16.707 58.1934L18.7031 54.748C20.9453 54.0508 22.7773 54.584 24.2266 56.334ZM47.3184 47.8984H54.5781C56.123 47.8984 57.3672 49.1426 57.3672 50.6875C57.3672 52.2324 56.123 53.4766 54.5781 53.4766H50.5449L53.2656 58.1934C54.0312 59.5332 53.5801 61.2285 52.2402 62.0078C50.9004 62.7734 49.2051 62.3223 48.4258 60.9824C43.8457 53.0391 40.4004 47.0918 38.1172 43.127C35.7793 39.0938 37.4473 35.0469 39.1016 33.6797C40.9336 36.8242 43.668 41.5684 47.3184 47.8984ZM35 11.0938C16.2695 11.0938 1.09375 26.2695 1.09375 45C1.09375 63.7305 16.2695 78.9062 35 78.9062C53.7305 78.9062 68.9062 63.7305 68.9062 45C68.9062 26.2695 53.7305 11.0938 35 11.0938ZM64.5312 45C64.5312 61.2285 51.3926 74.5312 35 74.5312C18.7715 74.5312 5.46875 61.3926 5.46875 45C5.46875 28.7715 18.6074 15.4688 35 15.4688C51.2285 15.4688 64.5312 28.6074 64.5312 45Z" fill="#8975F3"/>
</g>
<defs>
<clipPath id="clip0">
<rect x="0.5" width="82" height="80" fill="white"/>
</clipPath>
</defs>
</svg>
