<svg width="82" height="80" viewBox="0 0 82 80" fill="none" xmlns="http://www.w3.org/2000/svg">
<path fill-rule="evenodd" clip-rule="evenodd" d="M21.9999 1.99984H60.9999C72.0456 1.99984 80.9999 10.9541 80.9999 21.9998V58.9996C80.9999 70.0453 72.0456 79 60.9999 79H21.9999C10.9542 79 1.9999 70.0453 1.9999 58.9996V21.9998C1.9999 10.9541 10.9542 1.99984 21.9999 1.99984Z" fill="#D3F2ED"/>
<g clip-path="url(#clip0)">
<path d="M13.725 39.0667C10.6954 33.7795 10.0785 28.8467 12.2332 25.1214C15.1163 20.1208 22.3504 18.3774 31.4985 20.0399C32.0235 20.1186 32.3866 20.6217 32.2969 21.1445C32.2734 21.2694 32.2248 21.3882 32.1541 21.4938C32.0834 21.5994 31.9921 21.6896 31.8855 21.7589C31.779 21.8282 31.6596 21.8752 31.5344 21.8971C31.4092 21.9189 31.2809 21.9152 31.1572 21.8861C22.7025 20.3483 16.2538 21.908 13.8629 26.0555C12.0975 29.1092 12.6204 33.3705 15.3547 38.1327C15.4226 38.2403 15.4679 38.3606 15.488 38.4863C15.5081 38.6119 15.5025 38.7404 15.4716 38.8638C15.4408 38.9873 15.3852 39.1032 15.3084 39.2046C15.2315 39.306 15.1349 39.3908 15.0244 39.4539C14.9144 39.5169 14.7927 39.5569 14.6668 39.5715C14.5409 39.5861 14.4133 39.5749 14.2918 39.5387C14.1703 39.5025 14.0574 39.442 13.96 39.3609C13.8626 39.2798 13.7826 39.1797 13.725 39.0667ZM57.2366 21.3611C62.5916 21.4289 66.4416 23.0936 68.185 26.1014C70.5782 30.238 68.71 36.5839 63.1713 43.1224C63.0825 43.2148 63.0135 43.3244 62.9686 43.4445C62.9237 43.5646 62.9038 43.6926 62.9102 43.8206C62.9165 43.9486 62.949 44.074 63.0055 44.189C63.0621 44.3041 63.1416 44.4063 63.2391 44.4895C63.6504 44.8417 64.276 44.7739 64.5954 44.3408C70.5891 37.2664 72.6847 30.1439 69.8016 25.1652C67.6819 21.4967 63.2172 19.5586 57.2694 19.4799C57.1414 19.4715 57.013 19.4894 56.8922 19.5325C56.7713 19.5756 56.6606 19.643 56.5667 19.7305C56.4729 19.818 56.3979 19.9237 56.3465 20.0413C56.295 20.1588 56.2682 20.2856 56.2675 20.4139C56.2653 20.5416 56.2893 20.6685 56.3382 20.7865C56.3871 20.9045 56.4598 21.0112 56.5518 21.0998C56.6437 21.1885 56.7529 21.2573 56.8727 21.3019C56.9924 21.3464 57.12 21.3659 57.2475 21.3589L57.2366 21.3611ZM51.8357 65.8067C51.6223 65.6788 51.367 65.6405 51.1255 65.7004C50.884 65.7602 50.6761 65.9133 50.5472 66.1261C47.8238 70.6608 44.4747 73.1217 41.0338 73.1217C36.2475 73.1217 31.68 68.3245 28.786 60.2352C28.7013 60.0011 28.5271 59.8102 28.3016 59.7046C28.0762 59.5989 27.818 59.5872 27.584 59.6719C27.3499 59.7566 27.159 59.9308 27.0534 60.1562C26.9477 60.3817 26.936 60.6398 27.0207 60.8739C30.1422 69.613 35.2697 75.0008 41.0338 75.0008C45.2272 75.0008 49.1122 72.1417 52.1529 67.093C52.2797 66.8794 52.3173 66.6244 52.2575 66.3832C52.1977 66.1421 52.0454 65.9342 51.8335 65.8045L51.8357 65.8067ZM73.2885 58.2424C73.2775 61.8999 69.1519 64.0064 66.1791 61.8889C59.0238 66.1042 45.341 63.9627 32.4675 56.523C26.9879 53.3555 22.1797 49.5492 18.4763 45.4827C18.3887 45.3914 18.3203 45.2835 18.2751 45.1654C18.2299 45.0473 18.2089 44.9213 18.2131 44.7949C18.2174 44.6684 18.247 44.5442 18.3001 44.4294C18.3531 44.3146 18.4287 44.2116 18.5222 44.1264C18.6155 44.0419 18.7249 43.9771 18.8439 43.9359C18.9628 43.8946 19.0888 43.8778 19.2144 43.8864C19.34 43.895 19.4626 43.9288 19.5748 43.9858C19.687 44.0428 19.7866 44.1219 19.8675 44.2183C23.4332 48.1383 28.0816 51.8286 33.4016 54.8933C45.5575 61.9108 58.3522 63.9955 64.8929 60.4539C64.5528 59.8561 64.3546 59.1882 64.3135 58.5017C64.2724 57.8152 64.3895 57.1284 64.6558 56.4943C64.9221 55.8602 65.3305 55.2958 65.8495 54.8445C66.3685 54.3932 66.9842 54.0671 67.6491 53.8914C68.3148 53.7149 69.0123 53.6939 69.6875 53.8301C70.3626 53.9663 70.9974 54.256 71.5426 54.6769C72.0878 55.0978 72.5289 55.6385 72.8316 56.2571C73.1344 56.8758 73.2907 57.5558 73.2885 58.2445V58.2424ZM17.691 58.2424C17.7019 61.7183 13.9197 63.8817 10.9229 62.1164C7.92598 60.362 7.98286 55.998 11.0257 54.3224C10.341 45.9245 19.161 34.6808 32.4916 26.9786C38.0282 23.7892 43.7944 21.5208 49.2063 20.3592C50.3679 20.1995 50.7222 21.8642 49.6044 22.1945C44.3872 23.3102 38.8025 25.5108 33.4257 28.6083C20.8825 35.8555 12.5875 46.303 12.8719 53.7755C12.9857 53.7645 13.0885 53.7536 13.2022 53.7536C15.685 53.7536 17.691 55.7705 17.691 58.2424ZM36.5472 9.48955C36.7529 3.72549 45.3191 3.72549 45.5247 9.48955C45.5247 9.55736 45.5138 9.62736 45.5138 9.68424C52.9535 13.5342 58.1138 26.6374 58.1138 41.7792C58.1138 48.0114 57.2475 53.9811 55.6179 59.1655C55.48 59.6774 54.9463 59.9858 54.4322 59.8261C53.9182 59.6664 53.6469 59.1086 53.8285 58.6077C55.3904 53.607 56.2325 47.8189 56.2325 41.7792C56.2325 27.5145 51.4922 15.2558 45.0216 11.5524C42.856 15.7327 36.5341 14.1949 36.545 9.48955H36.5472ZM40.3513 38.5986C38.5969 38.9858 37.4791 40.7074 37.8554 42.4617C38.2316 44.2161 39.9641 45.3339 41.7185 44.9577C45.9579 44.0455 44.5775 37.6886 40.3513 38.6008V38.5986Z" fill="#8975F3"/>
</g>
<defs>
<clipPath id="clip0">
<rect x="6" y="5" width="70" height="70" fill="white"/>
</clipPath>
</defs>
</svg>
