<svg width="70" height="42" viewBox="0 0 70 42" fill="none" xmlns="http://www.w3.org/2000/svg">
<path d="M19.722 15.2683C19.722 16.1346 19.8248 16.8302 19.9845 17.3421C20.166 17.854 20.4067 18.414 20.726 19.0177C20.8337 19.176 20.893 19.3622 20.8967 19.5537C20.8967 19.7921 20.7479 20.0218 20.4526 20.2602L18.9826 21.2293C18.8082 21.3615 18.5975 21.4371 18.3788 21.4458C18.1404 21.4458 17.9107 21.3321 17.6832 21.1155C17.3649 20.7815 17.0826 20.4149 16.841 20.0218C16.5791 19.5784 16.3396 19.1221 16.1235 18.6546C14.3013 20.7962 12.022 21.868 9.27666 21.868C7.31666 21.868 5.75697 21.3102 4.61729 20.1924C3.4776 19.0637 2.89791 17.5827 2.89791 15.7146C2.89791 13.7437 3.59354 12.1249 5.0176 10.9174C6.44166 9.7099 8.32072 9.10615 10.7248 9.10615C11.5101 9.10615 12.3304 9.17396 13.1857 9.28771C14.052 9.40146 14.9401 9.59615 15.8632 9.79959V8.10209C15.8632 6.33678 15.4979 5.09428 14.7695 4.37678C14.0279 3.65928 12.7767 3.3049 10.9763 3.3049C10.167 3.3049 9.32479 3.39678 8.45854 3.60021C7.60537 3.80776 6.76771 4.07455 5.95166 4.39865C5.67822 4.52334 5.40479 4.61521 5.13135 4.70709C5.01229 4.74243 4.88985 4.76516 4.76604 4.7749C4.43572 4.7749 4.27604 4.53646 4.27604 4.04646V2.90678C4.27604 2.54146 4.32197 2.25709 4.43572 2.0974C4.60669 1.88106 4.83041 1.71232 5.08541 1.6074C6.01641 1.14239 6.99977 0.790608 8.01447 0.55959C9.20103 0.253537 10.4226 0.104246 11.6479 0.115527C14.4282 0.115527 16.4451 0.741152 17.7554 2.00771C19.0307 3.26115 19.6804 5.16428 19.6804 7.72803V15.2705L19.722 15.2683ZM10.2763 18.8121C11.0398 18.8121 11.8382 18.6743 12.6695 18.3899C13.5242 18.1008 14.2867 17.5897 14.8788 16.909C15.2551 16.4649 15.5395 15.9749 15.6773 15.4171C15.8151 14.8593 15.9048 14.1746 15.9048 13.3893V12.4093C15.1992 12.2356 14.4841 12.1027 13.7632 12.0112C13.0377 11.9187 12.3071 11.8727 11.5757 11.8733C10.0138 11.8733 8.87635 12.1818 8.11291 12.8074C7.33854 13.433 6.97322 14.3233 6.97322 15.4849C6.97322 16.5787 7.24666 17.388 7.82854 17.9458C8.38635 18.5277 9.20666 18.8121 10.2785 18.8121H10.2763ZM28.9729 21.3299C28.5507 21.3299 28.2663 21.2621 28.0848 21.0915C27.9032 20.9537 27.7326 20.6233 27.5948 20.1924L22.126 2.19146C22.019 1.88984 21.95 1.57608 21.9204 1.2574C21.9204 0.881152 22.102 0.675527 22.4673 0.675527H24.7576C25.2017 0.675527 25.4992 0.74334 25.6567 0.903028C25.8513 1.04084 25.987 1.37115 26.1248 1.81521L30.0448 17.2305L33.6782 1.81521C33.792 1.34709 33.9298 1.04084 34.1113 0.903028C34.3914 0.731838 34.718 0.652308 35.0454 0.675527H36.9026C37.3467 0.675527 37.6551 0.74334 37.8367 0.903028C38.0182 1.04084 38.1889 1.37115 38.2807 1.81521L41.9601 17.4121L45.9829 1.81521C46.1317 1.34709 46.2914 1.04084 46.451 0.903028C46.7231 0.732019 47.0427 0.652318 47.3632 0.675527H49.5289C49.9051 0.675527 50.1107 0.857089 50.1107 1.2574C50.1107 1.37115 50.0888 1.4849 50.0648 1.63365C50.0269 1.8315 49.9735 2.02606 49.9051 2.21553L44.2876 20.2055C44.1498 20.6737 43.9923 20.9799 43.7976 21.1177C43.5383 21.2882 43.2299 21.3682 42.9204 21.3452H40.9145C40.4704 21.3452 40.1729 21.2774 39.9804 21.1177C39.7989 20.958 39.6392 20.6496 39.5473 20.1837L35.9357 5.16646L32.346 20.1596C32.2323 20.6277 32.0945 20.934 31.902 21.0936C31.7204 21.2533 31.3901 21.3211 30.9679 21.3211L28.9729 21.3299ZM58.8804 21.9577C57.6729 21.9577 56.4654 21.809 55.3038 21.5355C54.1423 21.2621 53.2301 20.9537 52.6264 20.6015C52.2501 20.3958 52.0007 20.1683 51.9088 19.9518C51.8138 19.7482 51.7631 19.5267 51.7601 19.3021V18.1165C51.7601 17.6265 51.9548 17.388 52.296 17.388C52.4338 17.388 52.5804 17.4099 52.7182 17.4558C52.856 17.5127 53.0704 17.6046 53.3001 17.6943C54.0985 18.0465 54.9517 18.3199 55.8638 18.5037C56.7979 18.6983 57.6992 18.788 58.6332 18.788C60.1032 18.788 61.2429 18.5255 62.0282 18.0137C62.8026 17.5455 63.2707 16.7033 63.2467 15.8043C63.2556 15.2008 63.0315 14.6171 62.621 14.1746C62.1988 13.7415 61.4026 13.3433 60.2629 12.9671L56.8898 11.9193C55.1923 11.3833 53.9279 10.598 53.1645 9.55021C52.4126 8.58158 52.0005 7.39233 51.992 6.16615C51.992 5.18615 52.2085 4.33084 52.6307 3.58053C53.0529 2.83896 53.6107 2.19146 54.3064 1.6774C55.029 1.12784 55.8481 0.718293 56.7213 0.469902C57.6554 0.185527 58.6354 0.0717773 59.6614 0.0717773C60.1732 0.0717773 60.7092 0.0936519 61.2232 0.163652C61.7592 0.231464 62.2492 0.323339 62.7392 0.426152C63.1942 0.539902 63.6382 0.653652 64.0604 0.791465C64.4826 0.929277 64.8129 1.07584 65.0404 1.21365C65.3131 1.3528 65.5509 1.5517 65.736 1.79553C65.8913 2.02287 65.9674 2.295 65.9526 2.5699V3.66365C65.9526 4.15365 65.7579 4.40521 65.4167 4.40521C65.1055 4.37337 64.8037 4.28045 64.5285 4.13178C63.1234 3.50721 61.5992 3.19594 60.0617 3.21959C58.7295 3.21959 57.6795 3.42521 56.962 3.86928C56.2335 4.31334 55.8682 4.9849 55.8682 5.94303C55.8682 6.59271 56.0957 7.15053 56.5638 7.59459C57.032 8.03865 57.896 8.48272 59.1276 8.88303L62.4307 9.9199C64.1064 10.4558 65.3248 11.2083 66.0423 12.1643C66.7598 13.1093 67.1142 14.203 67.1142 15.4237C67.1142 16.4146 66.8976 17.3268 66.5104 18.123C66.0909 18.9159 65.5131 19.6142 64.8129 20.1749C64.0845 20.7568 63.2292 21.1658 62.2273 21.4743C61.1454 21.8038 60.0201 21.969 58.8892 21.9643L58.8804 21.9577ZM63.2882 33.2693C55.621 38.9327 44.4998 41.9274 34.9295 41.9274C21.5201 41.9274 9.43197 36.9705 0.305724 28.7237C-0.411776 28.074 0.237911 27.1858 1.10416 27.7087C10.9698 33.429 23.1498 36.9027 35.7388 36.9027C44.2373 36.9027 53.5692 35.1243 62.1704 31.5018C63.4457 30.909 64.5395 32.333 63.286 33.2671L63.2882 33.2693ZM66.4798 29.6358C65.4998 28.3824 59.996 29.0321 57.5132 29.3405C56.7717 29.4324 56.647 28.7718 57.3317 28.2818C61.7067 25.2171 68.8948 26.0943 69.7392 27.1202C70.5704 28.179 69.5007 35.3693 65.4101 38.8102C64.7845 39.3462 64.1676 39.0727 64.452 38.3661C65.386 36.0649 67.4598 30.8805 66.4798 29.638V29.6358Z" fill="white"/>
</svg>
