<svg width="71" height="70" viewBox="0 0 71 70" fill="none" xmlns="http://www.w3.org/2000/svg">
<path fill-rule="evenodd" clip-rule="evenodd" d="M53 4.375H18C14.519 4.375 11.1806 5.75781 8.71922 8.21922C6.25781 10.6806 4.875 14.019 4.875 17.5V52.5C4.875 55.981 6.25781 59.3194 8.71922 61.7808C11.1806 64.2422 14.519 65.625 18 65.625H53C56.481 65.625 59.8194 64.2422 62.2808 61.7808C64.7422 59.3194 66.125 55.981 66.125 52.5V17.5C66.125 14.019 64.7422 10.6806 62.2808 8.21922C59.8194 5.75781 56.481 4.375 53 4.375ZM18 0C13.3587 0 8.90752 1.84374 5.62563 5.12563C2.34374 8.40752 0.5 12.8587 0.5 17.5L0.5 52.5C0.5 57.1413 2.34374 61.5925 5.62563 64.8744C8.90752 68.1563 13.3587 70 18 70H53C57.6413 70 62.0925 68.1563 65.3744 64.8744C68.6563 61.5925 70.5 57.1413 70.5 52.5V17.5C70.5 12.8587 68.6563 8.40752 65.3744 5.12563C62.0925 1.84374 57.6413 0 53 0L18 0Z" fill="white"/>
<path fill-rule="evenodd" clip-rule="evenodd" d="M37.8494 52.4999H22.6463V15.5093H37.5169C44.4601 15.5093 48.6426 19.0487 48.6426 24.7405C48.6426 28.608 45.7988 32.0687 42.1544 32.6855V33.123C47.1551 33.6349 50.4844 37.1962 50.4844 42.0174C50.4844 48.5274 45.7419 52.4999 37.8494 52.4999ZM28.3907 20.3787V31.1718H35.2069C40.2819 31.1718 42.9244 29.2993 42.9244 25.7905C42.9244 22.378 40.4351 20.3787 36.1826 20.3787H28.3907ZM36.6944 47.6305H28.3907V35.7087H36.3619C41.7694 35.7087 44.6175 37.7343 44.6175 41.6062C44.6175 45.5262 41.8744 47.6305 36.6944 47.6305Z" fill="white"/>
</svg>
