<svg width="66" height="32" viewBox="0 0 66 32" fill="none" xmlns="http://www.w3.org/2000/svg">
<path d="M61.3268 5.17334C58.556 2.40251 54.7264 0.687507 50.5001 0.687507C46.2739 0.687507 42.4443 2.40251 39.6735 5.17334L33.0322 11.8146L26.391 5.17334C24.2496 3.03159 21.5212 1.57296 18.5508 0.98192C15.5804 0.390876 12.5014 0.693965 9.70325 1.85286C6.90511 3.01175 4.51347 4.97439 2.8308 7.49257C1.14813 10.0108 0.25 12.9714 0.25 16C0.25 19.0286 1.14813 21.9893 2.8308 24.5074C4.51347 27.0256 6.90511 28.9883 9.70325 30.1472C12.5014 31.306 15.5804 31.6091 18.5508 31.0181C21.5212 30.427 24.2496 28.9684 26.391 26.8267L33.0322 20.1854L39.6735 26.8267C42.5575 29.637 46.4324 31.1982 50.4591 31.1721C54.4858 31.1461 58.3403 29.5349 61.1876 26.6875C64.035 23.8401 65.6462 19.9857 65.6723 15.959C65.6983 11.9323 64.1371 8.05732 61.3268 5.17334ZM23.2993 23.735C21.7696 25.2644 19.8207 26.3058 17.6991 26.7276C15.5775 27.1493 13.3785 26.9326 11.3801 26.1047C9.38169 25.2767 7.67365 23.8749 6.47195 22.0763C5.27025 20.2777 4.62885 18.1631 4.62885 16C4.62885 13.8369 5.27025 11.7224 6.47195 9.92376C7.67365 8.12516 9.38169 6.72327 11.3801 5.89535C13.3785 5.06743 15.5775 4.85067 17.6991 5.27246C19.8207 5.69425 21.7696 6.73566 23.2993 8.265L30.8447 15.8104V16.1867L23.2993 23.735ZM58.2351 23.735C56.2547 25.7154 53.5218 26.9375 50.5001 26.9375C47.4785 26.9375 44.7456 25.7125 42.7651 23.735L35.2197 16.1896V15.8133L42.7651 8.26792C44.8166 6.21647 47.5989 5.06398 50.5001 5.06398C53.4013 5.06398 56.1837 6.21647 58.2351 8.26792C60.2866 10.3194 61.4391 13.1017 61.4391 16.0029C61.4391 18.9041 60.2866 21.6865 58.2351 23.7379V23.735Z" fill="white"/>
</svg>
