<svg width="83" height="80" viewBox="0 0 83 80" fill="none" xmlns="http://www.w3.org/2000/svg">
<path fill-rule="evenodd" clip-rule="evenodd" d="M22.5 1.99984H61.5C72.5456 1.99984 81.4999 10.9541 81.4999 21.9998V58.9996C81.4999 70.0453 72.5456 79 61.5 79H22.5C11.4543 79 2.49998 70.0453 2.49998 58.9996V21.9998C2.49998 10.9541 11.4543 1.99984 22.5 1.99984Z" fill="#D3F2ED"/>
<path d="M54.625 33.4883H28.375C28.0742 33.4883 27.8281 33.7344 27.8281 34.0352V61.5156C27.8281 61.8164 28.0742 62.0625 28.375 62.0625H54.625C54.9258 62.0625 55.1719 61.8164 55.1719 61.5156V34.0352C55.1719 33.7344 54.9258 33.4883 54.625 33.4883ZM32.2031 37.8633H50.7969V45.8613H32.2031V37.8633ZM50.7969 57.6875H32.2031V49.6895H50.7969V57.6875Z" fill="#8975F3"/>
<path d="M35.4844 54.1328C35.4844 54.713 35.7148 55.2694 36.1251 55.6796C36.5353 56.0898 37.0917 56.3203 37.6719 56.3203C38.252 56.3203 38.8084 56.0898 39.2187 55.6796C39.6289 55.2694 39.8594 54.713 39.8594 54.1328C39.8594 53.5527 39.6289 52.9963 39.2187 52.586C38.8084 52.1758 38.252 51.9453 37.6719 51.9453C37.0917 51.9453 36.5353 52.1758 36.1251 52.586C35.7148 52.9963 35.4844 53.5527 35.4844 54.1328ZM35.4844 41.9648C35.4844 42.545 35.7148 43.1014 36.1251 43.5116C36.5353 43.9219 37.0917 44.1523 37.6719 44.1523C38.252 44.1523 38.8084 43.9219 39.2187 43.5116C39.6289 43.1014 39.8594 42.545 39.8594 41.9648C39.8594 41.3847 39.6289 40.8283 39.2187 40.418C38.8084 40.0078 38.252 39.7773 37.6719 39.7773C37.0917 39.7773 36.5353 40.0078 36.1251 40.418C35.7148 40.8283 35.4844 41.3847 35.4844 41.9648Z" fill="#8975F3"/>
<path d="M61.967 28.2178C58.8361 19.9531 50.8586 14.0742 41.5139 14.0742C32.1691 14.0742 24.1916 19.9463 21.0607 28.2109C15.175 29.7627 10.841 35.1426 10.8752 41.5273C10.9162 48.6641 16.4533 54.4678 23.426 55.0898C23.7473 55.1172 24.0207 54.8643 24.0207 54.543V50.4141C24.0207 50.1406 23.8156 49.9082 23.5422 49.874C21.6965 49.6416 19.9533 48.835 18.6135 47.5156C16.9729 45.9092 16.0705 43.749 16.0705 41.459C16.0705 39.5449 16.6926 37.7402 17.8615 36.2363C19.0031 34.7734 20.6096 33.7139 22.3801 33.249L24.9709 32.5654L25.9211 30.0566C26.509 28.498 27.3293 27.0352 28.3615 25.7158C29.3801 24.4033 30.59 23.2549 31.9436 22.2979C34.7531 20.3223 38.0617 19.2764 41.5139 19.2764C44.966 19.2764 48.2746 20.3223 51.0842 22.3047C52.4445 23.2617 53.6477 24.4102 54.6662 25.7227C55.6984 27.042 56.5188 28.5049 57.1066 30.0635L58.05 32.5654L60.634 33.249C64.3391 34.2334 66.9299 37.6035 66.9299 41.4521C66.9299 43.749 66.0275 45.9023 64.3869 47.5088C63.0539 48.8213 61.3176 49.6348 59.4719 49.8672C59.1984 49.9014 59.0002 50.1338 59.0002 50.4072V54.543C59.0002 54.8643 59.2805 55.1172 59.6018 55.0898C66.5539 54.4609 72.0774 48.6641 72.1252 41.541C72.1662 35.1562 67.8391 29.7764 61.967 28.2178Z" fill="#8975F3"/>
</svg>
