<svg width="82" height="80" viewBox="0 0 82 80" fill="none" xmlns="http://www.w3.org/2000/svg">
<path fill-rule="evenodd" clip-rule="evenodd" d="M21.9999 1.99984H61C72.0457 1.99984 81 10.9541 81 21.9998V58.9996C81 70.0453 72.0457 79 61 79H21.9999C10.9542 79 1.9999 70.0453 1.9999 58.9996V21.9998C1.9999 10.9541 10.9542 1.99984 21.9999 1.99984Z" fill="#D3F2ED"/>
<path d="M49.75 50.2847H60.1406C67.6602 50.2847 73.8125 46.2911 73.8125 38.855C73.8125 31.4188 66.5664 27.7165 60.6875 27.4253C59.4721 15.796 50.9805 8.72217 41 8.72217C31.5664 8.72217 25.4906 14.9825 23.5 21.1909C15.2969 21.9702 8.1875 27.1901 8.1875 35.7378C8.1875 44.2855 15.5703 50.2847 24.5938 50.2847H32.25" stroke="black" stroke-linecap="round" stroke-linejoin="round"/>
<path d="M49.75 34.9722L41 26.2222L32.25 34.9722" stroke="black" stroke-linecap="round" stroke-linejoin="round"/>
<path d="M41 61.2796V28.4097" stroke="black" stroke-linecap="round" stroke-linejoin="round"/>
</svg>
