<svg width="55" height="70" viewBox="0 0 55 70" fill="none" xmlns="http://www.w3.org/2000/svg">
<path d="M25.0039 0H36.4533V52.9791C30.5864 54.0947 26.2683 54.5409 21.5848 54.5409C7.61764 54.5409 0.335449 48.23 0.335449 36.1069C0.335449 24.4409 8.05951 16.8634 20.0229 16.8634C21.8801 16.8634 23.2933 17.0122 25.0017 17.4562L25.0039 0ZM25.0039 26.6722C23.7604 26.2505 22.4536 26.0463 21.1408 26.0684C15.3417 26.0684 12.0036 29.6341 12.0036 35.8903C12.0036 41.9847 15.193 45.325 21.073 45.325C22.3373 45.325 23.3742 45.2572 25.0039 45.0297V26.6634V26.6722ZM54.662 17.6706V44.205C54.662 53.3422 54.0014 57.7412 51.9954 61.5234C50.1383 65.17 47.6773 67.4713 42.6308 70L32.0017 64.9403C37.0483 62.5581 39.5092 60.4866 41.0711 57.2841C42.7008 54.0138 43.2236 50.2206 43.2236 40.2631V17.6706H54.662ZM43.2236 0.056875H54.662V11.8038H43.2236V0.056875Z" fill="white"/>
</svg>
