<?xml version="1.0"?>
<svg xmlns="http://www.w3.org/2000/svg" enable-background="new 0 0 24 24" height="512px" viewBox="0 0 24 24" width="512px" class=""><g><path d="m21 0h-18c-1.655 0-3 1.345-3 3v18c0 1.654 1.345 3 3 3h18c1.654 0 3-1.346 3-3v-18c0-1.655-1.346-3-3-3z" fill="#3b5999" data-original="#3B5999" class="active-path" style="fill:#FFFFFF" data-old_color="#3b5999"/><path d="m16.5 12v-3c0-.828.672-.75 1.5-.75h1.5v-3.75h-3c-2.486 0-4.5 2.014-4.5 4.5v3h-3v3.75h3v8.25h4.5v-8.25h2.25l1.5-3.75z" fill="#fff" data-original="#FFF" class="" style="fill:#6E7EE6" data-old_color="#fff"/></g> </svg>
