<svg width="52" height="70" viewBox="0 0 52 70" fill="none" xmlns="http://www.w3.org/2000/svg">
<path d="M2.34848 45.7111L9.24129 1.34636C9.46879 -0.158635 11.4966 -0.499885 12.2032 0.845427L19.621 14.7557L2.34848 45.7111ZM51.3266 56.4779L44.7641 15.6439C44.7144 15.3585 44.5874 15.0923 44.3971 14.874C44.2067 14.6557 43.9602 14.4937 43.6843 14.4055C43.4084 14.3174 43.1137 14.3065 42.832 14.374C42.5503 14.4415 42.2925 14.5849 42.0866 14.7886L0.672852 56.4757L23.5847 69.3951C25.0197 70.2045 26.7741 70.2045 28.2113 69.3951L51.3266 56.4779ZM32.711 20.8501L27.4019 10.687C27.2675 10.4319 27.0659 10.2183 26.819 10.0693C26.5721 9.92035 26.2892 9.84162 26.0008 9.84162C25.7124 9.84162 25.4295 9.92035 25.1826 10.0693C24.9357 10.2183 24.7342 10.4319 24.5997 10.687L1.30066 52.4551L32.711 20.8501Z" fill="white"/>
</svg>
