<svg width="70" height="58" viewBox="0 0 70 58" fill="none" xmlns="http://www.w3.org/2000/svg">
<path d="M35.5593 0.939339C29.4682 0.799266 23.5058 2.70373 18.6237 6.34876C13.7416 9.99378 10.2213 15.1692 8.62466 21.049C8.77341 20.9922 8.46497 21.084 8.62466 21.049C-2.67815 28.4887 -2.81378 44.7003 7.90716 52.9625L7.9181 52.9406L7.89622 53.0325C11.323 55.6144 15.5013 57.0028 19.7918 56.9853H34.8769L34.9687 57.064H50.1106C69.6165 57.2237 77.4543 31.9756 61.2997 21.049C59.9128 15.9163 57.0535 11.3019 53.0747 7.77528L52.95 7.89996L52.9609 7.75121C48.1453 3.50192 41.9843 1.08881 35.5637 0.937151L35.5593 0.939339ZM34.5115 13.0384C38.134 12.9137 41.8594 14.1103 44.6747 16.3875C46.4133 17.8369 47.8041 19.6583 48.7446 21.7172C49.6851 23.7761 50.1512 26.02 50.1084 28.2831V29.799C60.4072 29.5934 60.4072 45.1465 50.1084 44.9409H34.9665L34.9447 44.9628V44.849H19.7918C18.72 44.849 17.6612 44.6215 16.6812 44.1775C11.8622 42.0009 10.7115 35.6659 14.4478 31.9187C18.1972 28.1825 24.519 29.3331 26.7065 34.1521L35.4915 25.3672C32.5716 21.5612 28.3626 18.9522 23.655 18.0303C23.7118 18.0084 23.7687 17.9625 23.8147 17.9734C25.1775 16.4746 26.8281 15.2655 28.6681 14.4181C30.5081 13.5706 32.4998 13.1021 34.5247 13.0406L34.5115 13.0384Z" fill="white"/>
</svg>
