<svg width="79" height="79" viewBox="0 0 79 79" fill="none" xmlns="http://www.w3.org/2000/svg">
<path d="M44.3318 66.9822C48.4279 63.1209 48.619 56.6478 44.7577 52.5517C41.6487 49.2536 36.8624 48.5346 32.9683 50.3777C31.4135 48.1076 30.7281 45.6754 30.9312 42.9867C31.5142 35.3305 38.7902 27.8224 42.3969 24.5347L54.8169 37.7102C52.629 41.5123 53.0262 46.4408 56.1872 49.7941C60.0485 53.8902 66.5216 54.0813 70.6177 50.22C74.7138 46.3588 74.9049 39.8857 71.0436 35.7896C67.8826 32.4363 62.9861 31.7491 59.0616 33.7089L46.4055 20.283C48.5934 16.4809 48.1962 11.5524 45.0352 8.19908C41.1739 4.10296 34.7008 3.9119 30.6047 7.77315C26.5086 11.6344 26.3175 18.1075 30.1788 22.2036C31.2811 23.373 32.6066 24.1838 34.0167 24.7145C30.0167 29.2305 25.6474 35.6381 25.1161 42.5241C24.7825 46.8348 25.9718 50.7922 28.6136 54.3304C26.3261 58.1501 26.7003 63.1605 29.9013 66.5562C33.7625 70.6524 40.2356 70.8434 44.3318 66.9822ZM66.7989 39.7909C68.4535 41.546 68.3716 44.3208 66.6164 45.9754C64.8612 47.6299 62.0864 47.548 60.4319 45.7928C58.7774 44.0376 58.8593 41.2629 60.6144 39.6083C62.3696 37.9538 65.1444 38.0357 66.7989 39.7909ZM34.606 12.0178C36.3612 10.3633 39.136 10.4452 40.7905 12.2004C41.5785 13.0384 42.0047 14.153 41.9769 15.3029C41.9492 16.4529 41.4696 17.5456 40.6421 18.3446L40.3462 18.5835C39.9151 18.9604 39.414 19.2487 38.8715 19.4319C38.329 19.6152 37.7556 19.6898 37.1843 19.6514C36.6129 19.6131 36.0547 19.4626 35.5415 19.2086C35.0283 18.9545 34.5702 18.6019 34.1933 18.1708C33.8164 17.7397 33.5281 17.2385 33.3448 16.696C33.1616 16.1535 33.087 15.5802 33.1253 15.0088C33.1637 14.4375 33.3141 13.8793 33.5682 13.3661C33.8222 12.8529 34.1749 12.3947 34.606 12.0178ZM34.3285 56.3705C36.0837 54.7159 38.8585 54.7978 40.513 56.553C42.1676 58.3082 42.0857 61.0829 40.3305 62.7375C38.5753 64.392 35.8005 64.3101 34.146 62.5549C32.4914 60.7998 32.5733 58.025 34.3285 56.3705Z" fill="white"/>
</svg>
