<svg width="64" height="70" viewBox="0 0 64 70" fill="none" xmlns="http://www.w3.org/2000/svg">
<path d="M37.9814 8.02254L52.3708 16.3394C53.0404 15.6357 53.8646 15.0974 54.7781 14.7671C55.6915 14.4368 56.6693 14.3235 57.6342 14.4362C58.599 14.5489 59.5244 14.8844 60.3372 15.4163C61.15 15.9482 61.8279 16.6619 62.3174 17.501C62.8011 18.3432 63.082 19.2864 63.1378 20.256C63.1937 21.2257 63.023 22.1949 62.6392 23.0871C62.2554 23.9793 61.6691 24.7698 60.9268 25.396C60.1844 26.0223 59.3064 26.467 58.3624 26.695V43.3179C59.3081 43.5411 60.1883 43.9829 60.9324 44.6078C61.6765 45.2327 62.2638 46.0233 62.647 46.9162C63.0303 47.8092 63.199 48.7795 63.1394 49.7494C63.0799 50.7192 62.7939 51.6616 62.3042 52.501C61.8092 53.3557 61.1187 54.0809 60.2894 54.6174C59.4601 55.1539 58.5155 55.4863 57.533 55.5874C56.5505 55.6886 55.558 55.5556 54.6368 55.1994C53.7156 54.8431 52.8918 54.2737 52.233 53.5379L37.9224 61.7979C38.2325 62.7357 38.3156 63.7338 38.165 64.7101C38.0143 65.6864 37.6341 66.613 37.0556 67.4137C36.4772 68.2145 35.7169 68.8665 34.8374 69.3163C33.9579 69.7661 32.9843 70.0007 31.9964 70.001C31.0255 70.0017 30.0678 69.7756 29.1997 69.3408C28.3315 68.9059 27.577 68.2743 26.9961 67.4963C26.4152 66.7183 26.0241 65.8153 25.8539 64.8594C25.6837 63.9035 25.7392 62.9211 26.0158 61.9904L11.6155 53.6844C11.05 54.2788 10.3727 54.7558 9.62256 55.0879C8.87237 55.42 8.064 55.6009 7.2438 55.62C6.4236 55.6391 5.60769 55.4961 4.84285 55.1992C4.07802 54.9024 3.37929 54.4575 2.78674 53.89C1.97952 53.1139 1.39549 52.1353 1.09564 51.0564C0.795798 49.9775 0.791135 48.8378 1.08214 47.7565C1.37315 46.6752 1.94916 45.6918 2.75 44.9091C3.55084 44.1264 4.54715 43.5731 5.63487 43.3069V26.6841C4.76298 26.4766 3.94604 26.0836 3.23966 25.532C2.53329 24.9803 1.95406 24.283 1.54141 23.4874C1.12876 22.6918 0.89238 21.8166 0.848353 20.9214C0.804326 20.0262 0.953689 19.1321 1.28627 18.2998C1.61886 17.4676 2.12686 16.7167 2.77569 16.0984C3.42453 15.4802 4.19896 15.0089 5.04628 14.7168C5.8936 14.4247 6.7939 14.3186 7.68591 14.4057C8.57792 14.4928 9.44069 14.7711 10.2155 15.2216C10.7274 15.5169 11.2064 15.8822 11.6177 16.3154L26.018 8.00942C25.5483 6.42442 25.7274 4.71778 26.5158 3.2648C27.3043 1.81181 28.6375 0.731452 30.2224 0.261294C31.3 -0.0609202 32.4447 -0.085602 33.5352 0.189864C34.6257 0.465329 35.6214 1.03068 36.4167 1.82601C37.212 2.62133 37.7774 3.61701 38.0529 4.70751C38.3283 5.79802 38.3036 6.94274 37.9814 8.02036V8.02254ZM36.4786 10.5863C36.4217 10.6432 36.3758 10.7 36.308 10.7569L55.1533 43.3879C55.2321 43.366 55.3239 43.3419 55.3917 43.32V26.6754C54.598 26.4791 53.8509 26.1281 53.1931 25.6425C52.5353 25.1569 51.9798 24.5462 51.5585 23.8455C51.1373 23.1448 50.8584 22.3678 50.7381 21.5591C50.6177 20.7504 50.6581 19.9259 50.8571 19.1329C50.868 19.065 50.8921 18.9841 50.903 18.9163L36.4786 10.5863ZM27.6827 10.7569L27.5121 10.5863L13.0877 18.9032C13.5445 20.4911 13.3523 22.1953 12.5533 23.6416C11.7543 25.0878 10.4138 26.1578 8.82643 26.6163L8.59893 26.6732V43.3179L8.85049 43.3857L27.6958 10.7547L27.6827 10.7569ZM33.7442 12.2379C32.6076 12.5572 31.4049 12.5572 30.2683 12.2379L11.423 44.8688C12.2783 45.6891 12.8821 46.7479 13.1774 47.9116H50.833C51.1174 46.75 51.7211 45.6891 52.5874 44.8579L33.7442 12.2379ZM36.6142 59.5644L50.9467 51.2825C50.9008 51.1447 50.868 51.0091 50.833 50.8713H13.1664L13.0986 51.1097L27.5121 59.4266C28.0933 58.8231 28.7905 58.3434 29.5619 58.0163C30.3333 57.6892 31.1629 57.5216 32.0008 57.5235C33.8361 57.5235 35.4767 58.3088 36.6142 59.5622V59.5644Z" fill="white"/>
</svg>
