<svg width="70" height="70" viewBox="0 0 70 70" fill="none" xmlns="http://www.w3.org/2000/svg">
<g clip-path="url(#clip0)">
<path d="M66.8566 20.4948L66.5591 19.8232L66.0581 20.3679C64.8714 21.7243 63.3645 22.7628 61.6744 23.3888L61.2041 23.5704L61.3988 24.0254C62.8485 27.4977 63.5922 31.2241 63.5863 34.9869C63.5863 50.7545 50.7675 63.5841 34.9891 63.5841C19.2106 63.5841 6.40281 50.7654 6.40281 34.9979C6.40281 19.2304 19.2456 6.4007 35 6.4007C39.2853 6.4007 43.4088 7.32601 47.2478 9.15914L47.7028 9.3757L47.8975 8.92945C48.6032 7.2715 49.7106 5.81531 51.1197 4.69226L51.6906 4.22633L51.0409 3.88508C46.0834 1.321 40.5813 -0.0115619 35 7.55728e-05C15.6997 7.55728e-05 0 15.6998 0 35.0001C0 54.3113 15.6997 70.0001 35 70.0001C54.3112 70.0001 70 54.3113 70 35.0001C70 29.9535 68.9522 25.0776 66.8566 20.4948ZM35 19.0488C30.7707 19.0529 26.7158 20.7348 23.7252 23.7253C20.7347 26.7159 19.0528 30.7708 19.0487 35.0001C19.0528 39.2294 20.7347 43.2843 23.7252 46.2748C26.7158 49.2654 30.7707 50.9473 35 50.9513C39.2293 50.9473 43.2842 49.2654 46.2748 46.2748C49.2653 43.2843 50.9472 39.2294 50.9512 35.0001C50.9472 30.7708 49.2653 26.7159 46.2748 23.7253C43.2842 20.7348 39.2293 19.0529 35 19.0488ZM65.17 13.1929C65.1706 14.1477 64.983 15.0933 64.6179 15.9756C64.2528 16.858 63.7174 17.6597 63.0424 18.3349C62.3673 19.0102 61.5657 19.5458 60.6835 19.9112C59.8013 20.2765 58.8558 20.4644 57.9009 20.4641C56.9451 20.4656 55.9984 20.2786 55.115 19.9138C54.2315 19.549 53.4287 19.0136 52.7523 18.3383C52.076 17.663 51.5394 16.8609 51.1733 15.978C50.8072 15.0951 50.6187 14.1487 50.6187 13.1929C50.6187 3.49789 65.17 3.49789 65.17 13.1929Z" fill="white"/>
</g>
<defs>
<clipPath id="clip0">
<rect width="70" height="70" fill="white"/>
</clipPath>
</defs>
</svg>
