<svg width="71" height="69" viewBox="0 0 71 69" fill="none" xmlns="http://www.w3.org/2000/svg">
<path d="M30.2595 41.3597L30.2836 41.3794L27.3677 48.421C24.5723 46.6308 22.4462 43.9679 21.3192 40.8456L28.8377 39.5681L28.8486 39.5791C29.0777 39.5387 29.3134 39.5609 29.5308 39.6434C29.7483 39.726 29.9394 39.8657 30.0839 40.0479C30.2285 40.2301 30.3211 40.448 30.352 40.6786C30.3829 40.9091 30.351 41.1437 30.2595 41.3575V41.3597ZM27.8336 35.1494C28.058 35.0875 28.2613 34.966 28.422 34.7976C28.5827 34.6293 28.6947 34.4205 28.7461 34.1936C28.7976 33.9666 28.7864 33.7299 28.7139 33.5088C28.6415 33.2877 28.5103 33.0903 28.3345 32.9378L28.3455 32.9028L22.6252 27.7863C20.8812 30.626 20.1309 33.965 20.4924 37.2778L27.8183 35.1691L27.8336 35.1494ZM31.1717 29.3722C32.003 29.976 33.1645 29.4072 33.2105 28.3813L33.2455 28.3703L33.6764 20.725C30.36 21.113 27.2682 22.5973 24.8914 24.9425L31.1586 29.3722H31.1717ZM33.392 37.3938L35.5008 38.4088L37.6095 37.3938L38.1324 35.1275L36.6733 33.3053H34.3283L32.8692 35.1275L33.392 37.3938ZM37.767 28.3594C37.7754 28.5924 37.8474 28.8186 37.9751 29.0136C38.1029 29.2086 38.2815 29.3649 38.4917 29.4656C38.702 29.5664 38.9358 29.6076 39.1678 29.585C39.3998 29.5624 39.6212 29.4767 39.808 29.3372L39.8277 29.3481L46.0489 24.9403C43.6833 22.6148 40.6157 21.136 37.323 20.7338L37.7539 28.3572L37.767 28.3594ZM69.4858 45.7785L52.6486 66.7194C51.7583 67.8131 50.4261 68.4519 49.0152 68.4519L22.0017 68.4628C20.5908 68.4628 19.2455 67.8241 18.3552 66.7194L1.51798 45.7785C1.08443 45.2361 0.778341 44.6032 0.622342 43.9265C0.466343 43.2499 0.464427 42.5469 0.616735 41.8694L6.63455 15.7572C6.78711 15.0775 7.09337 14.4417 7.52982 13.8987C7.96627 13.3557 8.52131 12.9199 9.15236 12.6247L33.4774 0.993773C34.1095 0.695629 34.7997 0.541016 35.4986 0.541016C36.1975 0.541016 36.8877 0.695629 37.5199 0.993773L61.8558 12.6138C62.4829 12.9145 63.0346 13.3521 63.4704 13.8942C63.9061 14.4363 64.2147 15.0692 64.3736 15.7463L70.3914 41.8716C70.5421 42.5491 70.5394 43.2518 70.3835 43.9282C70.2275 44.6046 69.9223 45.2375 69.4902 45.7806L69.4858 45.7785ZM59.8936 39.776C59.7689 39.7519 59.5983 39.695 59.4736 39.671C58.9595 39.5813 58.5483 39.6031 58.0714 39.5681C57.0586 39.4544 56.2164 39.3757 55.4639 39.1372C55.1555 39.0235 54.9389 38.6581 54.8361 38.4985L54.2433 38.3256C54.5623 36.0591 54.4578 33.7531 53.9349 31.5247C53.422 29.2755 52.4995 27.14 51.2136 25.2247C51.3624 25.0869 51.6445 24.8397 51.7233 24.7588C51.7474 24.4963 51.7233 24.225 51.9967 23.9385C52.5764 23.3894 53.2983 22.9475 54.1602 22.4094C54.5824 22.171 54.9586 22.0135 55.3786 21.7028C55.4727 21.635 55.5974 21.5213 55.7002 21.4403C56.3936 20.8956 56.5555 19.9266 56.0524 19.2988C55.5492 18.671 54.5824 18.6163 53.8889 19.161C53.7861 19.2419 53.6505 19.3447 53.5564 19.4235C53.1714 19.7647 52.933 20.095 52.6005 20.4494C51.883 21.1778 51.2792 21.7816 50.6317 22.2147C50.3583 22.3875 49.9339 22.3285 49.7545 22.3175L49.1945 22.7178C46.01 19.3656 41.7137 17.2878 37.1086 16.8728L37.0736 16.2231C36.8811 16.0416 36.6536 15.8819 36.5945 15.4947C36.5267 14.7094 36.6405 13.8672 36.7674 12.8522C36.822 12.3731 36.9358 11.986 36.9599 11.4631V11.0519C36.9599 10.1616 36.297 9.43315 35.5008 9.43315C34.6936 9.43315 34.0417 10.1616 34.0417 11.0519V11.4631C34.0658 11.986 34.1795 12.3731 34.2342 12.8522C34.3589 13.8672 34.4639 14.7094 34.407 15.4947C34.3182 15.7842 34.1526 16.0442 33.928 16.2472L33.893 16.8619C29.2586 17.2319 24.9284 19.3158 21.748 22.7069C21.5664 22.5822 21.3958 22.4553 21.223 22.3306C20.9627 22.3656 20.7002 22.4444 20.3589 22.2519C19.7092 21.8056 19.1055 21.2019 18.388 20.4735C18.0577 20.1213 17.8192 19.791 17.432 19.4606C17.338 19.3797 17.2045 19.2769 17.1105 19.1981C16.8192 18.9706 16.4664 18.8357 16.0977 18.811C15.877 18.7997 15.6568 18.8403 15.4547 18.9296C15.2526 19.0189 15.0742 19.1543 14.9339 19.325C14.433 19.9638 14.5927 20.9197 15.2861 21.4775L15.3102 21.4885L15.6186 21.7269C16.0277 22.0353 16.4039 22.1928 16.8261 22.4335C17.6924 22.9825 18.4099 23.4244 18.9895 23.9625C19.2061 24.201 19.252 24.621 19.2761 24.8047L19.742 25.2138C17.1681 29.0822 16.1091 33.7631 16.767 38.3628L16.1633 38.5356C16.0036 38.7522 15.7761 39.0694 15.5355 39.1744C14.783 39.4128 13.9408 39.4916 12.928 39.5944C12.4489 39.6403 12.0377 39.6185 11.5258 39.7081C11.412 39.7322 11.2633 39.7782 11.1386 39.7978L11.1299 39.8088H11.1058C10.2505 40.0166 9.69048 40.8128 9.87423 41.5872C10.0427 42.3594 10.887 42.8385 11.7533 42.646H11.7774L11.8014 42.635L12.1777 42.5563C12.6786 42.4185 13.0439 42.2238 13.488 42.0553C14.4439 41.7141 15.2555 41.4166 16.0277 41.3028C16.3492 41.2788 16.7014 41.5063 16.8589 41.6003L17.4977 41.4953C18.9209 45.8989 21.9085 49.6282 25.8955 51.9778L25.633 52.6166C25.7358 52.8681 25.8408 53.1963 25.7577 53.4369C25.4842 54.1785 24.9942 54.9528 24.4474 55.8081C24.1739 56.2041 23.8983 56.5147 23.6599 56.9697C23.6052 57.0835 23.5352 57.2563 23.4783 57.37C23.102 58.1663 23.3755 59.0916 24.093 59.4438C24.8214 59.785 25.7205 59.4197 26.1077 58.6125C26.1667 58.4988 26.2455 58.35 26.2914 58.2363C26.4949 57.7703 26.5649 57.3591 26.7114 56.9041C27.0877 55.935 27.3042 54.92 27.8402 54.2813C27.9889 54.1128 28.2164 54.0428 28.468 53.986L28.7983 53.3822C33.1228 55.0443 37.9079 55.056 42.2405 53.415L42.5489 53.975C42.8005 54.0538 43.0739 54.0997 43.2905 54.43C43.6908 55.1016 43.962 55.911 44.2945 56.88C44.4411 57.335 44.5111 57.7463 44.7145 58.2122C44.7605 58.315 44.8392 58.4747 44.8983 58.5885C45.2833 59.3956 46.1845 59.761 46.902 59.4088C47.6305 59.0675 47.9061 58.1422 47.5299 57.335C47.4639 57.2068 47.3998 57.0778 47.3374 56.9478C47.0989 56.4928 46.8233 56.1866 46.5608 55.7863C46.003 54.931 45.5458 54.2135 45.2636 53.4741C45.1499 53.0978 45.2833 52.8703 45.3774 52.6188C45.3183 52.551 45.2045 52.1966 45.1389 52.026C49.1366 49.6521 52.1245 45.8944 53.5367 41.4647C53.7183 41.4975 54.0464 41.5544 54.1602 41.5785C54.3789 41.4297 54.5714 41.246 54.9717 41.27C55.7439 41.3838 56.5555 41.6813 57.5114 42.0225C57.9555 42.1953 58.3186 42.3878 58.8217 42.5235C58.9245 42.5585 59.0733 42.5825 59.198 42.6022L59.222 42.6131H59.2461C60.1124 42.8078 60.9545 42.331 61.1252 41.5544C61.3089 40.7778 60.7489 39.9816 59.8936 39.7781V39.776ZM48.3283 27.7885L42.643 32.881V32.905C42.4686 33.0582 42.3388 33.2556 42.2672 33.4765C42.1955 33.6973 42.1848 33.9333 42.2361 34.1597C42.2874 34.3861 42.3988 34.5945 42.5585 34.7629C42.7183 34.9313 42.9205 35.0535 43.1439 35.1166L43.1549 35.1406L50.5245 37.2581C50.6842 35.6306 50.5836 33.9769 50.2074 32.3822C49.839 30.758 49.2033 29.2064 48.3261 27.7906L48.3283 27.7885ZM36.6295 43.3285C36.5164 43.1169 36.3465 42.941 36.1391 42.8205C35.9316 42.6999 35.6947 42.6395 35.4549 42.646C35.2292 42.656 35.01 42.7241 34.8184 42.8437C34.6268 42.9632 34.4693 43.1302 34.3611 43.3285L30.6599 50.0157C33.8033 51.0897 37.2224 51.0897 40.3658 50.0157L36.6624 43.3285H36.6295ZM42.1311 39.5572C41.9031 39.5167 41.6683 39.5385 41.4516 39.6201C41.2349 39.7018 41.0442 39.8404 40.8996 40.0212C40.7549 40.2021 40.6618 40.4187 40.6298 40.648C40.5978 40.8774 40.6283 41.1112 40.718 41.3247V41.3356L43.658 48.4428C46.4752 46.6504 48.6126 43.9679 49.7305 40.8216L42.142 39.5353L42.1311 39.5572Z" fill="white"/>
</svg>
