<svg width="300" height="56" viewBox="0 0 300 56" fill="none" xmlns="http://www.w3.org/2000/svg">
<path d="M49.5821 8.66153L32.4727 25.4746L49.5821 42.312V8.66153Z" fill="#109AAA"/>
<path d="M0.0725098 41.9719V49.7595L8.20091 49.2477L24.1735 33.3317V49.7595H41.5106L24.6854 32.7637L24.7419 18.1835L41.5389 1.35822H24.1452L24.0882 14.0342V17.5867L23.0936 16.62L8.14389 1.69946L0.0725098 1.35822L0.24313 8.94647L16.7559 25.4875" fill="#109AAA"/>
<path d="M78.4275 28.1552H59.8986C58.5698 28.1552 57.4273 27.6772 56.4723 26.7219C55.5165 25.7665 55.0386 24.6244 55.0386 23.2955V6.05722C55.0386 4.69052 55.5069 3.53926 56.4436 2.60216C57.3803 1.66592 58.5319 1.19759 59.8986 1.19759H78.4275V5.84873H59.7089V12.3414H78.4275V17.0113H59.7089V23.4853H78.4275V28.1552Z" fill="black"/>
<path d="M94.9629 14.6762L103.943 28.1548H98.4562L92.2294 18.7389L86.0022 28.1548H80.5537L89.5335 14.6762L80.5537 1.19722H86.0022L92.2294 10.5948L98.4562 1.19722H103.943L94.9629 14.6762Z" fill="black"/>
<path d="M111.441 23.4859H130.16V28.1558H111.632C110.302 28.1558 109.16 27.6779 108.204 26.7225C107.249 25.7666 106.771 24.6245 106.771 23.2957V6.05783C106.771 4.69113 107.239 3.53944 108.176 2.60277C109.112 1.66653 110.264 1.19776 111.632 1.19776H130.16V5.84891H111.441V23.4859Z" fill="black"/>
<path d="M154.802 28.1552H136.273C134.944 28.1552 133.801 27.6772 132.846 26.7219C131.891 25.7665 131.413 24.6244 131.413 23.2955V6.05722C131.413 4.69052 131.881 3.53926 132.818 2.60216C133.754 1.66592 134.906 1.19759 136.273 1.19759H154.802V5.84873H136.083V12.3414H154.802V17.0113H136.083V23.4853H154.802V28.1552Z" fill="black"/>
<path d="M162.376 22.7071H176.425V28.1556H161.788C160.459 28.1556 159.317 27.6777 158.361 26.7223C157.405 25.7665 156.927 24.6244 156.927 23.296V1.19808H162.376V22.7071Z" fill="black"/>
<path d="M183.525 22.7071H197.573V28.1556H182.936C181.608 28.1556 180.465 27.6777 179.51 26.7223C178.554 25.7665 178.076 24.6244 178.076 23.296V1.19808H183.525V22.7071Z" fill="black"/>
<path d="M222.614 28.1552H204.085C202.756 28.1552 201.614 27.6772 200.659 26.7219C199.702 25.7665 199.225 24.6244 199.225 23.2955V6.05722C199.225 4.69052 199.693 3.53926 200.63 2.60216C201.567 1.66592 202.718 1.19759 204.085 1.19759H222.614V5.84873H203.895V12.3414H222.614V17.0113H203.895V23.4853H222.614V28.1552Z" fill="black"/>
<path d="M243.421 19.9161V1.19795H248.128V28.1555H243.421L229.41 9.36118V28.1555H224.74V1.19795H229.41L243.421 19.9161Z" fill="black"/>
<path d="M256.33 23.4859H275.049V28.1558H256.52C255.191 28.1558 254.048 27.6779 253.093 26.7225C252.137 25.7666 251.66 24.6245 251.66 23.2957V6.05783C251.66 4.69113 252.128 3.53944 253.065 2.60277C254.001 1.66653 255.153 1.19776 256.52 1.19776H275.049V5.84891H256.33V23.4859Z" fill="black"/>
<path d="M299.69 28.1552H281.162C279.833 28.1552 278.69 27.6772 277.735 26.7219C276.779 25.7665 276.302 24.6244 276.302 23.2955V6.05722C276.302 4.69052 276.77 3.53926 277.706 2.60216C278.643 1.66592 279.795 1.19759 281.162 1.19759H299.69V5.84873H280.972V12.3414H299.69V17.0113H280.972V23.4853H299.69V28.1552Z" fill="black"/>
<path d="M59.9398 49.7015V40.8658H58.0046V38.6508H59.9398V34.4658H62.4695V38.6508H64.4042V40.8658H62.4695V49.7015H59.9398Z" fill="black"/>
<path d="M83.9628 42.8468C83.8618 42.0542 83.5589 41.4501 83.0536 41.0344C82.5482 40.6188 81.8571 40.4103 80.9787 40.4103C80.1469 40.4103 79.4788 40.6122 78.9739 41.017C78.4682 41.4209 78.1147 42.0312 77.9128 42.8468H83.9628ZM86.5857 44.5487H77.7496C77.8118 45.5824 78.1187 46.3889 78.6706 46.9678C79.222 47.5467 79.9567 47.8362 80.8738 47.8362C81.6899 47.8362 82.3698 47.6647 82.9139 47.323C83.4575 46.9813 83.9319 46.4294 84.3358 45.6677L86.469 46.8568C85.8475 47.9685 85.0779 48.7959 84.1613 49.3395C83.2442 49.8836 82.1674 50.1556 80.9321 50.1556C79.1602 50.1556 77.7496 49.6159 76.7006 48.5352C75.6512 47.4553 75.1267 46.0137 75.1267 44.2109C75.1267 42.4777 75.669 41.0536 76.7533 39.9385C77.837 38.8238 79.2299 38.2658 80.9321 38.2658C82.7115 38.2658 84.0986 38.775 85.0936 39.7926C86.0882 40.8107 86.5857 42.237 86.5857 44.0708V44.5487Z" fill="black"/>
<path d="M106.832 41.7988C106.443 41.3718 105.99 41.0454 105.474 40.8195C104.957 40.5945 104.399 40.4817 103.801 40.4817C102.767 40.4817 101.939 40.8156 101.318 41.4837C100.696 42.1523 100.385 43.0384 100.385 44.1418C100.385 45.2922 100.698 46.1954 101.324 46.8522C101.949 47.509 102.814 47.8371 103.918 47.8371C104.531 47.8371 105.079 47.7227 105.561 47.4933C106.043 47.2648 106.466 46.9161 106.832 46.45V49.3645C106.366 49.6287 105.866 49.8267 105.334 49.9586C104.801 50.0913 104.236 50.1566 103.638 50.1566C101.905 50.1566 100.492 49.6056 99.4001 48.5013C98.3085 47.398 97.7627 45.9681 97.7627 44.2119C97.7627 42.4321 98.3281 40.9962 99.4589 39.9042C100.589 38.813 102.068 38.2667 103.894 38.2667C104.469 38.2667 104.998 38.3233 105.479 38.4356C105.961 38.5483 106.412 38.7211 106.832 38.9544V41.7988Z" fill="black"/>
<path d="M118.778 49.7015V31.6332H121.156V40.458C121.661 39.6968 122.256 39.1405 122.94 38.791C123.623 38.441 124.455 38.2665 125.434 38.2665C126.258 38.2665 126.959 38.3966 127.538 38.6569C128.117 38.9176 128.57 39.3037 128.896 39.8164C129.091 40.1198 129.23 40.4737 129.316 40.8776C129.401 41.282 129.444 41.9888 129.444 42.9995V49.7015H126.891V44.0249C126.891 42.5716 126.715 41.6058 126.361 41.1283C126.007 40.6504 125.38 40.411 124.479 40.411C123.888 40.411 123.361 40.5203 122.899 40.7374C122.436 40.9555 122.073 41.2619 121.809 41.6584C121.622 41.9231 121.492 42.263 121.418 42.6787C121.344 43.0944 121.308 43.7568 121.308 44.6661V49.7015H118.778Z" fill="black"/>
<path d="M142.172 49.7015V38.6508H144.549V40.458C145.055 39.6968 145.649 39.1405 146.333 38.791C147.017 38.441 147.849 38.2665 148.828 38.2665C149.652 38.2665 150.353 38.3966 150.932 38.6569C151.511 38.9176 151.964 39.3037 152.29 39.8164C152.484 40.1198 152.624 40.4737 152.709 40.8776C152.795 41.282 152.838 41.9888 152.838 42.9995V49.7015H150.285V44.0249C150.285 42.5716 150.108 41.6058 149.754 41.1283C149.401 40.6504 148.773 40.411 147.872 40.411C147.282 40.411 146.755 40.5203 146.293 40.7374C145.83 40.9555 145.467 41.2619 145.202 41.6584C145.016 41.9231 144.886 42.263 144.812 42.6787C144.738 43.0944 144.701 43.7568 144.701 44.6661V49.7015H142.172Z" fill="black"/>
<path d="M174.25 44.2118C174.25 43.1859 173.919 42.3175 173.259 41.6063C172.598 40.8956 171.79 40.5395 170.834 40.5395C169.886 40.5395 169.08 40.8956 168.416 41.6063C167.751 42.3175 167.419 43.1859 167.419 44.2118C167.419 45.2377 167.751 46.106 168.416 46.8172C169.08 47.5284 169.886 47.8836 170.834 47.8836C171.782 47.8836 172.589 47.5284 173.253 46.8172C173.918 46.106 174.25 45.2377 174.25 44.2118ZM164.75 44.1883C164.75 43.3804 164.903 42.617 165.21 41.898C165.517 41.1793 165.958 40.5395 166.533 39.9798C167.1 39.4287 167.753 39.0048 168.491 38.7097C169.23 38.4146 170.003 38.2666 170.811 38.2666C171.643 38.2666 172.426 38.4146 173.16 38.7097C173.895 39.0048 174.553 39.4401 175.136 40.015C175.719 40.5826 176.162 41.2237 176.465 41.9384C176.768 42.6536 176.919 43.4035 176.919 44.1883C176.919 45.0044 176.77 45.77 176.471 46.4851C176.171 47.1998 175.734 47.8331 175.159 48.385C174.553 48.9678 173.881 49.4092 173.143 49.7082C172.404 50.0072 171.627 50.1565 170.811 50.1565C170.011 50.1565 169.241 50.0072 168.503 49.7082C167.765 49.4092 167.108 48.9756 166.533 48.4081C165.95 47.8331 165.507 47.1881 165.204 46.4729C164.901 45.7582 164.75 44.9965 164.75 44.1883Z" fill="black"/>
<path d="M189.075 31.6331H191.605V49.7014H189.075V31.6331Z" fill="black"/>
<path d="M213.262 44.2118C213.262 43.1859 212.931 42.3175 212.271 41.6063C211.61 40.8956 210.802 40.5395 209.846 40.5395C208.898 40.5395 208.092 40.8956 207.427 41.6063C206.763 42.3175 206.431 43.1859 206.431 44.2118C206.431 45.2377 206.763 46.106 207.427 46.8172C208.092 47.5284 208.898 47.8836 209.846 47.8836C210.794 47.8836 211.601 47.5284 212.265 46.8172C212.929 46.106 213.262 45.2377 213.262 44.2118ZM203.761 44.1883C203.761 43.3804 203.914 42.617 204.221 41.898C204.529 41.1793 204.969 40.5395 205.545 39.9798C206.112 39.4287 206.764 39.0048 207.503 38.7097C208.241 38.4146 209.014 38.2666 209.823 38.2666C210.654 38.2666 211.437 38.4146 212.172 38.7097C212.906 39.0048 213.564 39.4401 214.147 40.015C214.731 40.5826 215.174 41.2237 215.477 41.9384C215.78 42.6536 215.931 43.4035 215.931 44.1883C215.931 45.0044 215.781 45.77 215.482 46.4851C215.183 47.1998 214.746 47.8331 214.171 48.385C213.564 48.9678 212.892 49.4092 212.154 49.7082C211.416 50.0072 210.639 50.1565 209.823 50.1565C209.022 50.1565 208.253 50.0072 207.515 49.7082C206.776 49.4092 206.119 48.9756 205.545 48.4081C204.962 47.8331 204.519 47.1881 204.216 46.4729C203.913 45.7582 203.761 44.9965 203.761 44.1883Z" fill="black"/>
<path d="M235.91 44.1412C235.91 42.9991 235.643 42.109 235.111 41.4718C234.578 40.8346 233.834 40.516 232.878 40.516C231.923 40.516 231.17 40.8442 230.623 41.5014C230.075 42.1578 229.801 43.0688 229.801 44.2344C229.801 45.4083 230.065 46.3136 230.594 46.9508C231.122 47.588 231.868 47.9066 232.832 47.9066C233.742 47.9066 234.481 47.5606 235.053 46.869C235.624 46.1778 235.91 45.2685 235.91 44.1412ZM238.369 49.0135C238.369 51.1745 237.937 52.6953 237.075 53.578C236.212 54.4594 234.759 54.9008 232.715 54.9008C231.192 54.9008 229.976 54.5804 229.066 53.9393C228.157 53.2981 227.695 52.445 227.679 51.3804L230.396 51.3682C230.434 51.8426 230.656 52.2039 231.06 52.4529C231.464 52.7014 232.031 52.8255 232.762 52.8255C233.842 52.8255 234.619 52.5887 235.093 52.1147C235.567 51.6403 235.809 50.8481 235.816 49.7369L235.839 48.2679C235.389 48.9055 234.862 49.3791 234.26 49.6899C233.658 50.0006 232.968 50.156 232.191 50.156C230.629 50.156 229.399 49.6224 228.501 48.5539C227.604 47.4853 227.155 46.022 227.155 44.1647C227.155 42.4006 227.613 40.9765 228.53 39.8923C229.447 38.808 230.644 38.2661 232.121 38.2661C233.022 38.2661 233.794 38.4546 234.434 38.832C235.076 39.2085 235.544 39.7508 235.839 40.4577V38.6509H238.369V49.0135Z" fill="black"/>
<path d="M251.341 38.6507H253.871V49.7014H251.341V38.6507ZM251.003 33.8716C251.003 33.4442 251.161 33.0751 251.475 32.7639C251.79 32.4535 252.165 32.2981 252.6 32.2981C253.051 32.2981 253.426 32.4479 253.725 32.7469C254.024 33.0464 254.174 33.4211 254.174 33.8716C254.174 34.3221 254.022 34.7012 253.719 35.0081C253.416 35.3149 253.043 35.4685 252.6 35.4685C252.165 35.4685 251.79 35.3114 251.475 34.9963C251.161 34.6816 251.003 34.3069 251.003 33.8716Z" fill="black"/>
<path d="M274.863 42.8468C274.762 42.0542 274.458 41.4501 273.953 41.0344C273.448 40.6188 272.757 40.4103 271.879 40.4103C271.047 40.4103 270.379 40.6122 269.873 41.017C269.369 41.4209 269.015 42.0312 268.813 42.8468H274.863ZM277.485 44.5487H268.65C268.712 45.5824 269.019 46.3889 269.57 46.9678C270.122 47.5467 270.857 47.8362 271.774 47.8362C272.589 47.8362 273.27 47.6647 273.814 47.323C274.357 46.9813 274.832 46.4294 275.236 45.6677L277.369 46.8568C276.747 47.9685 275.978 48.7959 275.061 49.3395C274.144 49.8836 273.068 50.1556 271.832 50.1556C270.06 50.1556 268.65 49.6159 267.6 48.5352C266.552 47.4553 266.027 46.0137 266.027 44.2109C266.027 42.4777 266.569 41.0536 267.653 39.9385C268.737 38.8238 270.13 38.2658 271.832 38.2658C273.611 38.2658 274.999 38.775 275.994 39.7926C276.989 40.8107 277.485 42.237 277.485 44.0708V44.5487Z" fill="black"/>
<path d="M288.208 47.6972L290.306 46.5546C290.462 47.1065 290.749 47.5261 291.169 47.8138C291.588 48.1015 292.129 48.2452 292.789 48.2452C293.356 48.2452 293.802 48.1155 294.124 47.8543C294.446 47.5945 294.608 47.2389 294.608 46.7875C294.608 46.1899 294.033 45.6767 292.882 45.2489C292.494 45.1096 292.195 44.9925 291.985 44.8994C290.804 44.4097 289.978 43.9126 289.507 43.4077C289.037 42.9024 288.802 42.2878 288.802 41.5653C288.802 40.5786 289.189 39.7786 289.962 39.1644C290.736 38.5498 291.76 38.243 293.034 38.243C293.889 38.243 294.621 38.401 295.232 38.7157C295.841 39.0304 296.287 39.4791 296.566 40.0615L294.771 41.2976C294.638 40.9477 294.408 40.6695 294.077 40.4641C293.747 40.2578 293.364 40.1551 292.929 40.1551C292.447 40.1551 292.061 40.27 291.77 40.4994C291.478 40.7279 291.333 41.033 291.333 41.4138C291.333 41.9892 291.985 42.5137 293.29 42.9877C293.702 43.1357 294.021 43.2558 294.247 43.349C295.265 43.7533 295.993 44.2099 296.432 44.7187C296.871 45.2275 297.091 45.863 297.091 46.6243C297.091 47.7285 296.69 48.5934 295.89 49.2184C295.09 49.8439 293.986 50.1564 292.58 50.1564C291.499 50.1564 290.602 49.9544 289.886 49.5505C289.171 49.1466 288.612 48.5285 288.208 47.6972Z" fill="black"/>
</svg>
