<svg width="82" height="80" viewBox="0 0 82 80" fill="none" xmlns="http://www.w3.org/2000/svg">
<path fill-rule="evenodd" clip-rule="evenodd" d="M21.9999 1.99984H61C72.0456 1.99984 80.9999 10.9541 80.9999 21.9998V58.9996C80.9999 70.0453 72.0456 79 61 79H21.9999C10.9543 79 1.99998 70.0453 1.99998 58.9996V21.9998C1.99998 10.9541 10.9543 1.99984 21.9999 1.99984Z" fill="#D3F2ED"/>
<path d="M35.0001 48.1247L46.6667 36.458H37.9167V10.208H32.0834V36.458H23.3334L35.0001 48.1247ZM61.2501 10.208H43.7501V16.0122H61.2501V56.933H8.75008V16.0122H26.2501V10.208H8.75008C5.54175 10.208 2.91675 12.833 2.91675 16.0413V56.8747C2.91675 60.083 5.54175 62.708 8.75008 62.708H61.2501C64.4584 62.708 67.0834 60.083 67.0834 56.8747V16.0413C67.0834 12.833 64.4584 10.208 61.2501 10.208Z" fill="#8975F3"/>
</svg>
