<svg width="70" height="70" viewBox="0 0 70 70" fill="none" xmlns="http://www.w3.org/2000/svg">
<path fill-rule="evenodd" clip-rule="evenodd" d="M8.75 4.375H61.25C62.4103 4.375 63.5231 4.83594 64.3436 5.65641C65.1641 6.47688 65.625 7.58968 65.625 8.75V59.4388L56.875 50.6888C55.2344 49.0477 53.0092 48.1255 50.6888 48.125H8.75C7.58968 48.125 6.47688 47.6641 5.65641 46.8436C4.83594 46.0231 4.375 44.9103 4.375 43.75V8.75C4.375 7.58968 4.83594 6.47688 5.65641 5.65641C6.47688 4.83594 7.58968 4.375 8.75 4.375ZM61.25 0C63.5706 0 65.7962 0.921872 67.4372 2.56282C69.0781 4.20376 70 6.42936 70 8.75V64.7194C69.9999 65.1522 69.8714 65.5753 69.6308 65.9351C69.3901 66.2949 69.0481 66.5752 68.6481 66.7405C68.2481 66.9059 67.808 66.9488 67.3836 66.864C66.9592 66.7791 66.5694 66.5702 66.2637 66.2637L53.7819 53.7819C52.9616 52.9613 51.849 52.5002 50.6888 52.5H8.75C6.42936 52.5 4.20376 51.5781 2.56282 49.9372C0.921872 48.2962 0 46.0706 0 43.75V8.75C0 6.42936 0.921872 4.20376 2.56282 2.56282C4.20376 0.921872 6.42936 0 8.75 0L61.25 0Z" fill="#109AAA"/>
<path d="M21.875 26.25C21.875 27.4103 21.4141 28.5231 20.5936 29.3436C19.7731 30.1641 18.6603 30.625 17.5 30.625C16.3397 30.625 15.2269 30.1641 14.4064 29.3436C13.5859 28.5231 13.125 27.4103 13.125 26.25C13.125 25.0897 13.5859 23.9769 14.4064 23.1564C15.2269 22.3359 16.3397 21.875 17.5 21.875C18.6603 21.875 19.7731 22.3359 20.5936 23.1564C21.4141 23.9769 21.875 25.0897 21.875 26.25ZM39.375 26.25C39.375 27.4103 38.9141 28.5231 38.0936 29.3436C37.2731 30.1641 36.1603 30.625 35 30.625C33.8397 30.625 32.7269 30.1641 31.9064 29.3436C31.0859 28.5231 30.625 27.4103 30.625 26.25C30.625 25.0897 31.0859 23.9769 31.9064 23.1564C32.7269 22.3359 33.8397 21.875 35 21.875C36.1603 21.875 37.2731 22.3359 38.0936 23.1564C38.9141 23.9769 39.375 25.0897 39.375 26.25ZM56.875 26.25C56.875 27.4103 56.4141 28.5231 55.5936 29.3436C54.7731 30.1641 53.6603 30.625 52.5 30.625C51.3397 30.625 50.2269 30.1641 49.4064 29.3436C48.5859 28.5231 48.125 27.4103 48.125 26.25C48.125 25.0897 48.5859 23.9769 49.4064 23.1564C50.2269 22.3359 51.3397 21.875 52.5 21.875C53.6603 21.875 54.7731 22.3359 55.5936 23.1564C56.4141 23.9769 56.875 25.0897 56.875 26.25Z" fill="#109AAA"/>
</svg>
