<svg width="70" height="43" viewBox="0 0 70 43" fill="none" xmlns="http://www.w3.org/2000/svg">
<path d="M34.5953 42.9374C34.3656 42.9374 34.1359 42.8718 33.9281 42.7624L31.8281 41.5155C31.5109 41.3405 31.6641 41.2749 31.7734 41.2421C32.1891 41.0999 32.2766 41.0671 32.725 40.8046C32.7688 40.7827 32.8344 40.7936 32.8781 40.8155L34.4969 41.778C34.5516 41.8108 34.6391 41.8108 34.6938 41.778L41.0156 38.1249C41.0703 38.0921 41.1141 38.0264 41.1141 37.9499V30.6546C41.1141 30.578 41.0812 30.5124 41.0156 30.4796L34.6938 26.8374C34.6391 26.8046 34.5625 26.8046 34.4969 26.8374L28.175 30.4796C28.1094 30.5124 28.0766 30.5889 28.0766 30.6546V37.9499C28.0766 38.0155 28.1203 38.0811 28.175 38.1139L29.9031 39.1093C30.8438 39.5796 31.4234 39.0218 31.4234 38.4749V31.2671C31.4234 31.1686 31.5 31.0811 31.6094 31.0811H32.4078C32.5062 31.0811 32.5938 31.1577 32.5938 31.2671V38.4749C32.5938 39.7327 31.9156 40.4436 30.7234 40.4436C30.3625 40.4436 30.0672 40.4436 29.2688 40.0499L27.6062 39.0983C27.2016 38.8577 26.9391 38.4202 26.9391 37.9499V30.6546C26.9391 30.1843 27.1906 29.7358 27.6062 29.5061L33.9281 25.853C34.3328 25.6233 34.8578 25.6233 35.2516 25.853L41.5734 29.5061C41.9781 29.7468 42.2406 30.1843 42.2406 30.6546V37.9499C42.2406 38.4202 41.9891 38.8686 41.5734 39.0983L35.2516 42.7514C35.0656 42.8718 34.8359 42.9374 34.5953 42.9374ZM39.7031 35.7405C39.7031 34.3733 38.7844 34.0124 36.8375 33.7499C34.8687 33.4874 34.6719 33.3561 34.6719 32.8968C34.6719 32.5139 34.8359 32.0108 36.2906 32.0108C37.5922 32.0108 38.0734 32.2952 38.2703 33.1702C38.2922 33.2577 38.3578 33.3124 38.4453 33.3124H39.2656C39.3203 33.3124 39.3641 33.2905 39.3969 33.2577C39.4297 33.2139 39.4516 33.1702 39.4406 33.1155C39.3094 31.6061 38.3141 30.9061 36.2906 30.9061C34.4859 30.9061 33.4141 31.6718 33.4141 32.9405C33.4141 34.3296 34.4859 34.7014 36.2141 34.8764C38.2812 35.0843 38.4453 35.3796 38.4453 35.7843C38.4453 36.4952 37.8766 36.7905 36.5422 36.7905C34.8688 36.7905 34.4969 36.3749 34.3766 35.5436C34.3656 35.4561 34.2891 35.3905 34.1906 35.3905H33.3703C33.2719 35.3905 33.1844 35.4671 33.1844 35.5764C33.1844 36.6374 33.7641 37.9061 36.5312 37.9061C38.5547 37.9061 39.7031 37.1186 39.7031 35.7405ZM45.6641 30.2608C45.6641 30.928 45.1172 31.4749 44.45 31.4749C43.7828 31.4749 43.2359 30.928 43.2359 30.2608C43.2359 29.5718 43.8047 29.0468 44.45 29.0468C45.1063 29.0358 45.6641 29.5718 45.6641 30.2608ZM45.4672 30.2608C45.4672 29.6921 45.0078 29.2436 44.4391 29.2436C43.8812 29.2436 43.4219 29.6921 43.4219 30.2608C43.4219 30.8296 43.8812 31.2889 44.4391 31.2889C45.0078 31.278 45.4672 30.8186 45.4672 30.2608ZM44.975 30.9389H44.6906C44.6797 30.8733 44.6359 30.5233 44.6359 30.5124C44.6141 30.4358 44.5922 30.3921 44.4937 30.3921H44.2531V30.9389H43.9906V29.5718H44.4609C44.625 29.5718 44.9422 29.5718 44.9422 29.9327C44.9422 30.1843 44.7781 30.2389 44.6797 30.2718C44.8656 30.2827 44.8766 30.403 44.9094 30.578C44.9203 30.6874 44.9422 30.8733 44.975 30.9389ZM44.6688 29.9764C44.6688 29.7905 44.5375 29.7905 44.4719 29.7905H44.2531V30.1733H44.4609C44.6359 30.1733 44.6688 30.053 44.6688 29.9764ZM15.0172 14.3905C15.0172 14.0952 14.8641 13.8327 14.6125 13.6905L7.90781 9.82956C7.79844 9.76394 7.66719 9.73113 7.53594 9.72019H7.47031C7.33906 9.72019 7.21875 9.76394 7.09844 9.82956L0.404687 13.6905C0.153125 13.8327 0 14.1061 0 14.3905L0.0109375 24.7811C0.0109375 24.9233 0.0875 25.0546 0.207813 25.1311C0.328125 25.2077 0.48125 25.2077 0.6125 25.1311L4.59375 22.8452C4.84531 22.6921 4.99844 22.4296 4.99844 22.1452V17.2889C4.99844 17.0046 5.15156 16.7311 5.40313 16.5889L7.09844 15.6155C7.22969 15.5389 7.36094 15.5061 7.50312 15.5061C7.64531 15.5061 7.7875 15.5389 7.90781 15.6155L9.60313 16.5889C9.85469 16.7311 10.0078 17.0046 10.0078 17.2889V22.1452C10.0078 22.4296 10.1609 22.703 10.4125 22.8452L14.3938 25.1311C14.5141 25.2077 14.6781 25.2077 14.7984 25.1311C14.9188 25.0655 14.9953 24.9233 14.9953 24.7811L15.0172 14.3905ZM51.6797 3.04831V22.3421C51.6797 22.6264 51.5266 22.8999 51.275 23.0421L44.5703 26.9139C44.3187 27.0561 44.0125 27.0561 43.7609 26.9139L37.0562 23.0421C36.8047 22.8999 36.6516 22.6264 36.6516 22.3421V14.5983C36.6516 14.3139 36.8047 14.0405 37.0562 13.8983L43.7609 10.0264C44.0125 9.88425 44.3187 9.88425 44.5703 10.0264L46.2437 10.9889C46.4297 11.0983 46.6703 10.9561 46.6703 10.7483V0.467064C46.6703 0.160814 46.9984 -0.0360611 47.2719 0.117064L51.2641 2.34831C51.5156 2.47956 51.6797 2.753 51.6797 3.04831ZM46.6484 17.1468C46.6484 17.0702 46.6047 17.0046 46.55 16.9718L44.2531 15.6374C44.1875 15.6046 44.1109 15.6046 44.0453 15.6374L41.7484 16.9718C41.6828 17.0046 41.65 17.0702 41.65 17.1468V19.8046C41.65 19.8811 41.6938 19.9468 41.7484 19.9796L44.0453 21.303C44.1109 21.3358 44.1875 21.3358 44.2422 21.303L46.5391 19.9796C46.6047 19.9468 46.6375 19.8811 46.6375 19.8046V17.1468H46.6484ZM69.5953 17.0702C69.8469 16.928 70 16.6546 70 16.3702V14.4999C70 14.2155 69.8469 13.9421 69.5953 13.7999L62.9344 9.928C62.6828 9.78581 62.3766 9.78581 62.125 9.928L55.4203 13.7999C55.1688 13.9421 55.0156 14.2155 55.0156 14.4999V22.2436C55.0156 22.5389 55.1688 22.8014 55.4203 22.9436L62.0812 26.7389C62.3219 26.8811 62.6281 26.8811 62.8797 26.7389L66.9047 24.4968C67.1781 24.3436 67.1781 23.9499 66.9047 23.7968L60.1562 19.9249C60.025 19.8483 59.9484 19.7171 59.9484 19.5749V17.1468C59.9484 17.0046 60.025 16.8733 60.1562 16.7968L62.2563 15.5827C62.3766 15.5061 62.5406 15.5061 62.6609 15.5827L64.7609 16.7968C64.8812 16.8733 64.9688 17.0046 64.9688 17.1468V19.0499C64.9688 19.3561 65.3078 19.553 65.5812 19.3999L69.5953 17.0702ZM61.1406 17.453C61.0969 17.4858 61.0641 17.5296 61.0641 17.5843V19.0718C61.0641 19.1264 61.0969 19.1811 61.1406 19.203L62.4312 19.9468C62.475 19.9796 62.5406 19.9796 62.5844 19.9468L63.875 19.203C63.9188 19.1702 63.9516 19.1264 63.9516 19.0718V17.5843C63.9516 17.5296 63.9188 17.4749 63.875 17.453L62.5844 16.7093C62.5406 16.6764 62.475 16.6764 62.4312 16.7093L61.1406 17.453ZM33.3375 22.2108V14.5108C33.3375 14.2264 33.1625 13.953 32.9109 13.8108L26.2281 9.96081C25.9984 9.82956 25.6812 9.80769 25.4187 9.96081L18.7359 13.8108C18.4844 13.953 18.3094 14.2155 18.3094 14.5108V22.2108C18.3094 22.5171 18.5172 22.7796 18.7469 22.9108L25.4406 26.7608C25.7031 26.9139 26.0094 26.903 26.25 26.7608L32.9219 22.9108C33.1188 22.8014 33.2609 22.6155 33.3156 22.3968C33.3266 22.3421 33.3375 22.2764 33.3375 22.2108ZM25.2109 8.54988L25.1234 8.60456H25.2437L25.2109 8.54988ZM33.5453 22.7905L33.5016 22.7139V22.8124L33.5453 22.7905Z" fill="white"/>
</svg>
