<svg width="82" height="80" viewBox="0 0 82 80" fill="none" xmlns="http://www.w3.org/2000/svg">
<path fill-rule="evenodd" clip-rule="evenodd" d="M22 1.99984H61C72.0456 1.99984 80.9999 10.9541 80.9999 21.9998V58.9996C80.9999 70.0453 72.0456 79 61 79H22C10.9543 79 1.99998 70.0453 1.99998 58.9996V21.9998C1.99998 10.9541 10.9543 1.99984 22 1.99984Z" fill="#D3F2ED"/>
<g clip-path="url(#clip0)">
<path d="M74.1353 11.3599L64.5899 1.80647C62.1849 -0.600614 58.0011 -0.605238 55.5867 1.81109L12.8251 44.9946C12.6355 45.1858 12.4987 45.4207 12.4242 45.6788L6.06065 67.9704C5.90211 68.5255 6.05752 69.1242 6.46618 69.5332C6.7691 69.8364 7.17463 69.9997 7.59105 69.9997C7.73706 69.9997 7.88472 69.9794 8.0276 69.939L30.3001 63.57C30.558 63.4954 30.7926 63.3585 30.9837 63.1688L74.1353 20.3662C75.3379 19.1627 75.9996 17.5641 75.9996 15.8631C75.9996 14.1621 75.3379 12.5634 74.1353 11.3599ZM48.654 13.3837L54.5101 19.2398L23.9356 49.8145L21.7414 45.4245C21.471 44.8853 20.921 44.5451 20.3182 44.5451H17.7705L48.654 13.3837ZM9.90745 66.0922L11.9797 58.8381L17.1614 64.0198L9.90745 66.0922ZM28.2726 60.8457L20.6609 63.0201L12.9794 55.3386L15.1538 47.7268H19.3346L22.0766 53.2111C22.2304 53.5188 22.4805 53.7689 22.7882 53.9227L28.2725 56.6648V60.8457H28.2726ZM31.4545 58.2292V55.6814C31.4545 55.0786 31.1143 54.5287 30.5752 54.2583L26.1852 52.064L56.7597 21.4895L62.6158 27.3456L31.4545 58.2292ZM71.8904 18.1539L64.8755 25.106L50.8935 11.124L57.841 4.11392C59.0436 2.91135 61.1378 2.91135 62.3403 4.11392L71.8857 13.6593C72.4869 14.2605 72.8179 15.0591 72.8179 15.9089C72.8179 16.7587 72.4869 17.5573 71.8904 18.1539Z" fill="#8975F3"/>
</g>
<defs>
<clipPath id="clip0">
<rect width="70" height="70" fill="white" transform="translate(6)"/>
</clipPath>
</defs>
</svg>
