<svg width="70" height="70" viewBox="0 0 70 70" fill="none" xmlns="http://www.w3.org/2000/svg">
<path d="M35.0107 0.170898C25.7412 0.203095 16.8547 3.873 10.2635 10.3909V10.4018C3.77979 16.8856 0.00854492 25.92 0.00854492 35.09C0.00854492 44.2512 3.75792 53.2965 10.2635 59.7781C16.8597 66.2818 25.7346 69.9528 34.9976 70.009H35.0085C44.1917 70.009 53.2501 66.2597 59.7426 59.7672H59.7535C66.281 53.2047 69.9626 44.3518 70.0064 35.1009V35.09C70.0064 25.9287 66.257 16.8834 59.7404 10.4018C53.1555 3.88131 44.2734 0.207336 35.0064 0.170898H35.0107ZM35.0107 4.06684C36.4129 4.06684 37.8129 4.20465 39.191 4.39715C33.2782 6.04871 28.2185 9.12434 23.0014 10.0825C20.8561 10.4583 18.666 10.5048 16.5067 10.2203C21.8267 6.3134 28.4132 4.06684 35.0085 4.06684H35.0107ZM47.077 7.20152C47.5779 7.20152 48.092 7.2234 48.5929 7.2584C51.7027 8.74762 54.5441 10.7419 57.0017 13.1603C57.2751 13.4228 57.5026 13.729 57.7651 14.0025C53.7612 16.1103 49.3329 17.2865 44.8107 17.4434C37.7232 17.614 30.3535 15.1181 22.3779 15.0393C18.045 15.009 13.7406 15.7421 9.66198 17.205C10.5925 15.8705 11.6244 14.6097 12.7485 13.4337C16.3251 14.3787 20.0395 14.5734 23.686 13.9128C30.2945 12.7162 35.7523 9.17246 41.3348 7.85121C43.2139 7.40715 45.141 7.19059 47.077 7.20152ZM60.3048 17.124C62.0879 19.6527 63.4925 22.4279 64.4742 25.3621C63.2075 24.6483 61.8942 24.0205 60.5432 23.4831C54.3946 21.084 47.6677 20.5841 41.232 22.0481H41.221C36.881 23.05 32.9392 24.8743 29.111 26.4909C27.7612 27.0644 26.3972 27.6042 25.0204 28.1096C23.639 27.7576 22.2338 27.5061 20.816 27.3571H20.8051C16.6574 26.9691 12.4755 27.5179 8.56823 28.9628C7.32094 28.5398 6.10956 28.0175 4.94573 27.4009C5.34386 25.8521 5.85792 24.3253 6.49448 22.8553C11.3595 20.3025 16.8501 18.8784 22.332 18.9353C29.4632 19.014 36.892 21.534 44.9026 21.3284H44.9135C50.3053 21.1711 55.5818 19.7297 60.3048 17.124ZM48.547 25.1215C52.1367 25.1215 55.7242 25.7931 59.1192 27.1143C61.4929 28.055 63.7308 29.3078 65.7735 30.8396C65.8764 31.5812 65.9551 32.3097 66.012 33.0621C63.872 32.5114 61.6794 32.1902 59.4714 32.104C56.3182 31.974 53.1644 32.3469 50.1285 33.2087C48.1007 33.7906 46.1867 34.554 44.3295 35.4181C41.162 34.3353 38.0054 32.9112 34.7701 31.5221C33.4948 30.9753 32.2064 30.4503 30.907 29.9493C34.7001 28.3437 38.3576 26.7031 42.096 25.8368C44.2086 25.3587 46.3679 25.118 48.5339 25.1193L48.547 25.1215ZM17.1476 31.1371C18.2304 31.0912 19.3351 31.1262 20.4289 31.229C24.7251 31.6621 28.9842 33.2809 33.2345 35.1031C35.3301 36.0153 37.4739 36.9253 39.6614 37.8156C36.4479 39.5809 33.3723 41.3922 30.2157 42.7725C27.162 41.6328 24.0054 40.5631 20.5885 40.095C15.2335 39.3665 9.75386 40.2765 4.87792 42.51C4.32011 40.3225 4.00073 38.0672 3.94386 35.8097C5.1151 34.9251 6.36588 34.151 7.68011 33.4975C10.6422 32.0743 13.864 31.2718 17.1476 31.1393V31.1371ZM59.3248 36.0022C61.5801 36.0809 63.8376 36.4703 66.001 37.1068C65.8755 38.9685 65.5782 40.8146 65.1129 42.6215C63.167 43.9153 61.0751 44.9748 58.8807 45.7781C53.501 47.6983 47.6911 48.0734 42.1092 46.8609C39.8298 46.3709 37.5635 45.5506 35.2842 44.6734C40.7879 41.8362 45.7776 38.4981 51.2004 36.9603C53.8412 36.215 56.5831 35.8916 59.3248 36.0022ZM16.0648 43.7722C17.4004 43.7188 18.7382 43.7795 20.0635 43.9537C26.9214 44.8987 33.5189 48.9675 41.2779 50.665C42.3148 50.8925 43.3626 51.0631 44.4235 51.19C43.3976 51.4853 42.3848 51.8046 41.3807 52.159V52.17C37.6314 53.5153 34.2145 55.1996 30.7735 56.2146C24.4954 58.0368 17.8082 57.7875 11.6898 55.5431C9.28818 52.8025 7.38344 49.6637 6.06136 46.2681C9.18706 44.7525 12.5935 43.9026 16.0648 43.7722ZM63.1529 48.1472C62.9582 48.5693 62.7657 48.9893 62.5492 49.4006C61.8995 49.3547 61.2607 49.2868 60.6132 49.2628C61.4795 48.9325 62.3107 48.5343 63.1529 48.1472ZM58.196 53.115C58.8676 53.104 59.5414 53.1259 60.2239 53.1609C59.2548 54.5172 58.196 55.8165 56.9995 57.024H56.9885C51.2573 62.7553 43.122 66.1043 35.0217 66.1043C29.0245 66.0724 23.1616 64.3251 18.1254 61.0687C22.6951 61.6265 27.3764 61.2634 31.8542 59.964H31.8651C35.7501 58.8134 39.237 57.0809 42.6889 55.8406C47.6624 54.0632 52.9014 53.1423 58.1829 53.1171L58.196 53.115Z" fill="white"/>
</svg>
