<svg width="56" height="56" viewBox="0 0 56 56" fill="none" xmlns="http://www.w3.org/2000/svg">
<path d="M55.7326 3.17139L52.8342 0.272949C52.7248 0.163574 52.5881 0.115723 52.4445 0.115723C52.301 0.115723 52.1642 0.17041 52.0549 0.272949L46.8527 5.4751C44.5912 3.94284 41.9213 3.12591 39.1896 3.13037C35.6896 3.13037 32.1896 4.46338 29.5168 7.13623L22.551 14.1021C22.4492 14.2048 22.3921 14.3436 22.3921 14.4883C22.3921 14.6329 22.4492 14.7717 22.551 14.8745L41.1242 33.4478C41.2336 33.5571 41.3703 33.605 41.5138 33.605C41.6506 33.605 41.7941 33.5503 41.9035 33.4478L48.8693 26.4819C53.5793 21.7651 54.133 14.4712 50.5304 9.15283L55.7326 3.95068C55.9445 3.73193 55.9445 3.3833 55.7326 3.17139ZM45.5744 23.1938L41.5138 27.2544L28.7443 14.4849L32.8049 10.4243C34.507 8.72217 36.7765 7.77881 39.1896 7.77881C41.6027 7.77881 43.8654 8.71533 45.5744 10.4243C47.2765 12.1265 48.2199 14.396 48.2199 16.8091C48.2199 19.2222 47.2765 21.4849 45.5744 23.1938ZM32.5724 30.3716C32.4697 30.2698 32.3309 30.2127 32.1862 30.2127C32.0416 30.2127 31.9028 30.2698 31.8 30.3716L27.2472 34.9243L21.0744 28.7515L25.634 24.1919C25.8459 23.98 25.8459 23.6313 25.634 23.4194L23.1457 20.9312C23.0429 20.8294 22.9041 20.7723 22.7595 20.7723C22.6148 20.7723 22.476 20.8294 22.3732 20.9312L17.8137 25.4907L14.8742 22.5513C14.8232 22.5002 14.7624 22.4599 14.6954 22.4329C14.6285 22.4059 14.5567 22.3927 14.4846 22.394C14.3478 22.394 14.2043 22.4487 14.0949 22.5513L7.13592 29.5171C2.42596 34.2339 1.87225 41.5278 5.47479 46.8462L0.272637 52.0483C0.170862 52.1511 0.11377 52.2899 0.11377 52.4346C0.11377 52.5792 0.170862 52.718 0.272637 52.8208L3.17107 55.7192C3.28045 55.8286 3.41717 55.8765 3.56072 55.8765C3.70428 55.8765 3.841 55.8218 3.95037 55.7192L9.15252 50.5171C11.4562 52.0825 14.1359 52.8618 16.8156 52.8618C20.3156 52.8618 23.8156 51.5288 26.4885 48.856L33.4543 41.8901C33.6662 41.6782 33.6662 41.3296 33.4543 41.1177L30.5148 38.1782L35.0744 33.6187C35.2863 33.4067 35.2863 33.0581 35.0744 32.8462L32.5724 30.3716ZM23.1935 45.5747C22.3569 46.4157 21.3618 47.0824 20.2659 47.5365C19.17 47.9906 17.995 48.223 16.8088 48.2202C14.3957 48.2202 12.133 47.2837 10.424 45.5747C9.58306 44.738 8.91628 43.743 8.46219 42.6471C8.00811 41.5512 7.77573 40.3762 7.7785 39.1899C7.7785 36.7769 8.71502 34.5142 10.424 32.8052L14.4846 28.7446L27.2541 41.5142L23.1935 45.5747Z" fill="white"/>
</svg>
