<svg width="71" height="50" viewBox="0 0 71 50" fill="none" xmlns="http://www.w3.org/2000/svg">
<path d="M70.4708 34.8534C70.2699 33.2237 69.4441 31.8101 68.0099 30.6466C67.9921 30.6249 67.9724 30.6048 67.9511 30.5864L67.8787 30.5345L67.8554 30.5181L67.0939 29.9712L67.0679 29.9521L66.9708 29.8837C66.9352 29.8629 66.8971 29.8468 66.8574 29.8358C64.4484 28.4017 60.4603 27.3968 54.3585 29.5501C52.9025 27.1001 52.7371 25.1368 53.7119 22.129C53.8855 21.6054 53.7242 21.2595 53.2046 21.0353C52.1601 20.5909 50.73 20.8179 49.7156 21.0858C49.2425 21.2089 48.9582 21.4769 48.8679 21.8829C48.2253 24.8907 46.3578 27.6388 44.5517 30.2911L44.4451 30.447C43.3322 28.0872 43.5632 26.2593 44.3384 23.9692C44.4929 23.5126 44.3712 23.2091 43.9433 22.9821C42.7484 22.3655 40.956 22.7894 40.2423 22.9999C39.3373 23.2638 38.3666 25.7097 37.2824 28.6382C37.0089 29.3751 36.7738 30.0054 36.633 30.2993C36.298 30.9829 35.9781 31.7622 35.639 32.5894C34.8734 34.461 34.0107 36.5679 32.7775 37.8913C32.3291 36.9001 33.0345 35.3374 33.7195 33.8212C34.5302 32.0288 35.2958 30.3349 34.414 29.2534C34.2746 29.0824 34.1016 28.9418 33.9057 28.8403C33.7098 28.7387 33.4952 28.6783 33.2751 28.6628C32.988 28.6409 32.6998 28.6878 32.4343 28.7995C32.5259 28.0271 32.53 27.4173 32.3044 26.6804C31.9818 25.629 31.1437 25.0398 29.9898 25.0712C27.3621 25.1478 25.139 27.1056 23.7349 28.7353C22.7998 29.829 20.7271 30.663 18.9074 31.3944C18.1882 31.6993 17.5046 31.9728 16.9345 32.2462C16.0253 31.4778 14.8701 30.7026 13.6533 29.8837C10.2353 27.5896 6.36206 24.9878 6.22808 21.4605C6.03667 16.2501 11.9703 12.5546 17.1492 9.91729C21.0744 7.9212 24.4869 6.59776 27.5822 5.87452C31.9298 4.8587 35.6021 5.06378 38.4951 6.48155C40.0783 7.25675 40.8193 8.94249 40.349 10.6761C39.1185 15.181 34.0203 18.2681 29.6603 19.6571C27.0339 20.4939 24.7986 20.8439 22.8244 20.729C20.3498 20.5855 18.3291 19.3441 17.465 18.815C17.3266 18.7204 17.1802 18.6381 17.0275 18.5689L16.9878 18.5593C16.9096 18.5398 16.8275 18.5423 16.7506 18.5664C16.6736 18.5905 16.6048 18.6354 16.5517 18.696C16.374 18.9079 16.4369 19.2429 16.5011 19.4124C17.3419 21.6095 19.0783 22.9972 21.6609 23.5372C22.5061 23.7065 23.3665 23.7885 24.2285 23.7819C30.2728 23.7819 37.9851 20.297 40.8179 17.4273C42.7498 15.4722 44.1566 13.4624 44.739 9.99659C45.3474 6.36671 42.8865 3.84425 40.3791 2.68214C34.2855 -0.130167 27.3648 0.981357 22.6316 2.4087C17.0945 4.07804 11.366 7.11319 6.91714 10.739C1.43198 15.2056 -0.550439 19.3523 1.02183 23.0778C2.63648 26.8964 6.57398 29.2849 10.3816 31.5954C11.6121 32.3405 12.7824 33.0501 13.8365 33.7829C13.5193 33.9374 13.1953 34.0946 12.8658 34.2519C9.66929 35.8009 6.04351 37.5441 4.03237 40.4247C2.57222 42.5233 2.29878 44.6124 3.22026 46.6345C3.71245 47.7105 4.58745 48.4405 5.80288 48.8042C6.43514 48.9833 7.08992 49.0704 7.74702 49.0626C10.1136 49.0626 12.7181 48.1056 14.1359 47.221C16.6406 45.6487 18.2634 43.5378 18.9607 40.947C19.5814 38.6419 19.4324 36.3519 18.53 34.3079L21.5994 32.7603C20.1187 37.6821 21.2535 40.6216 22.5003 42.2431C22.9597 42.8405 23.7882 43.2001 24.7138 43.2165C25.6394 43.2329 26.4912 42.8843 26.9724 42.2909C27.883 41.163 28.5556 39.8437 29.1749 38.5243C29.1421 39.3857 29.1832 40.2579 29.4771 40.9976C29.741 41.6634 30.1757 42.105 30.7363 42.2745C31.3324 42.4564 32.031 42.3032 32.7037 41.8439C35.7347 39.7698 37.8074 34.7919 39.4726 30.7901C39.7091 30.2214 39.9361 29.6745 40.1562 29.1632C40.5682 30.6376 41.1413 32.0621 41.8652 33.411C42.0265 33.7036 42.0128 33.8321 41.7941 34.0728C41.4646 34.4337 41.0052 34.8698 40.5185 35.3319C39.0447 36.7306 37.2099 38.4765 36.9638 40.0118C36.8681 40.6271 37.2919 41.1876 37.9496 41.3148C39.9279 41.7085 42.3109 41.1329 44.3261 39.7767C46.1582 38.5462 46.8472 36.8304 46.3769 34.6921C45.9216 32.6331 46.9607 30.0765 49.4654 27.0878C49.8755 28.8009 50.4224 30.1858 51.1771 31.3985L51.1566 31.415C49.3328 33.0077 46.8335 35.1884 47.2218 37.8339C47.2544 38.0855 47.3391 38.3275 47.4704 38.5446C47.6018 38.7616 47.7769 38.9489 47.9847 39.0944C48.2068 39.2444 48.4574 39.3468 48.7209 39.3952C48.9844 39.4437 49.2551 39.4372 49.516 39.3761C51.9044 38.8743 53.7023 37.864 55.0093 36.2903C56.3164 34.7167 55.8392 32.9722 55.399 31.6187C58.8169 30.6917 61.8603 30.715 64.7095 31.687C66.3091 32.2339 67.4562 33.1321 68.1179 34.3722C68.9505 35.9321 68.5007 37.3718 66.8478 38.4259C66.3406 38.7499 66.0959 38.9482 66.0808 39.1983C66.0775 39.2564 66.0881 39.3144 66.1119 39.3675C66.1357 39.4206 66.1719 39.4671 66.2175 39.5032C66.4089 39.6605 66.9996 39.9339 68.3353 39.0931C69.5658 38.3206 70.2877 37.2692 70.4722 35.9485C70.5094 35.5844 70.5089 35.2175 70.4708 34.8534ZM15.8203 38.2796L15.8066 38.4546C15.5933 40.4562 14.5761 42.2007 12.7783 43.6499C11.649 44.5605 10.4226 45.1196 9.32612 45.2263C8.5605 45.3001 8.00405 45.1962 7.67319 44.9159C7.42573 44.7067 7.29312 44.3937 7.26304 43.9589C7.03882 40.4753 12.5021 37.0136 15.5769 35.8747C15.7963 36.6563 15.8787 37.4699 15.8203 38.2796ZM29.8134 28.455C29.3076 31.3384 27.8324 36.7812 25.5136 38.8935C25.4029 38.9946 25.3099 39.0302 25.2675 39.0206C25.2251 39.011 25.1923 38.9605 25.1582 38.8839C24.3843 37.0901 24.6701 34.0605 25.8417 31.6802C26.7427 29.8454 28.0292 28.63 29.4675 28.2622C29.5272 28.2457 29.5888 28.237 29.6507 28.2362C29.6992 28.2328 29.7473 28.2458 29.7875 28.2732C29.8044 28.2999 29.8154 28.33 29.8199 28.3613C29.8244 28.3926 29.8222 28.4246 29.8134 28.455ZM41.2281 38.9659C40.7919 39.4212 40.1945 39.3597 40.3353 39.1929L42.5556 36.8358C42.3765 37.6466 41.8474 38.3179 41.2281 38.9659ZM50.4388 36.9274C50.2277 37.0315 49.9992 37.0959 49.7648 37.1175C49.7019 35.8774 50.9037 34.4816 52.089 33.5505C52.4076 34.8439 51.7554 36.211 50.4388 36.9274Z" fill="white"/>
</svg>
