<svg width="82" height="80" viewBox="0 0 82 80" fill="none" xmlns="http://www.w3.org/2000/svg">
<path fill-rule="evenodd" clip-rule="evenodd" d="M21.9999 1.99984H61C72.0456 1.99984 80.9999 10.9541 80.9999 21.9998V58.9996C80.9999 70.0453 72.0456 79 61 79H21.9999C10.9543 79 1.99998 70.0453 1.99998 58.9996V21.9998C1.99998 10.9541 10.9543 1.99984 21.9999 1.99984Z" fill="#D3F2ED"/>
<path d="M34.4375 37.1875H21.3125C20.1522 37.1875 19.0394 37.6484 18.2189 38.4689C17.3984 39.2894 16.9375 40.4022 16.9375 41.5625V54.6875C16.9375 55.8478 17.3984 56.9606 18.2189 57.7811C19.0394 58.6016 20.1522 59.0625 21.3125 59.0625H34.4375C35.5978 59.0625 36.7106 58.6016 37.5311 57.7811C38.3516 56.9606 38.8125 55.8478 38.8125 54.6875V41.5625C38.8125 40.4022 38.3516 39.2894 37.5311 38.4689C36.7106 37.6484 35.5978 37.1875 34.4375 37.1875ZM21.3125 54.6875V41.5625H34.4375V54.6875H21.3125Z" fill="#8975F3"/>
<path d="M47.5625 45.9375V50.3125H60.6875C61.8478 50.3125 62.9606 49.8516 63.7811 49.0311C64.6016 48.2106 65.0625 47.0978 65.0625 45.9375V15.3125C65.0625 14.1522 64.6016 13.0394 63.7811 12.2189C62.9606 11.3984 61.8478 10.9375 60.6875 10.9375H30.0625C28.9022 10.9375 27.7894 11.3984 26.9689 12.2189C26.1484 13.0394 25.6875 14.1522 25.6875 15.3125V28.4375H30.0625V15.3125H60.6875V45.9375" fill="#8975F3"/>
</svg>
