<svg width="82" height="80" viewBox="0 0 82 80" fill="none" xmlns="http://www.w3.org/2000/svg">
<path fill-rule="evenodd" clip-rule="evenodd" d="M21.9999 1.99984H61C72.0457 1.99984 81 10.9541 81 21.9998V58.9996C81 70.0453 72.0457 79 61 79H21.9999C10.9542 79 1.9999 70.0453 1.9999 58.9996V21.9998C1.9999 10.9541 10.9542 1.99984 21.9999 1.99984Z" fill="#D3F2ED"/>
<path d="M51.5296 9.46875V12.5444C49.7362 12.8524 48.0331 13.553 46.5421 14.5962L44.2846 12.4744L41.2768 15.69L43.4643 17.7397C42.4635 19.1981 41.787 20.854 41.4802 22.5959H38.4046V26.9709H41.4802C41.7996 28.7866 42.5171 30.4403 43.5321 31.8928L41.2068 34.1459L44.3568 37.2959L46.6099 34.9684C48.0624 35.9834 49.7162 36.7009 51.5318 37.0203V40.0938H55.9068V37.0181C57.6486 36.7121 59.3045 36.0363 60.7631 35.0362L62.8105 37.2237L66.0262 34.2138L63.9043 31.9606C64.9324 30.495 65.6324 28.7997 65.9562 26.9688H69.0296V22.5938H65.954C65.6391 20.8225 64.9386 19.1422 63.9021 17.6719L65.954 15.62L62.8762 12.5444L60.8265 14.5962C59.3561 13.5597 57.6758 12.8592 55.9046 12.5444V9.46875H51.5296ZM53.7171 16.7159C54.7783 16.709 55.8303 16.9128 56.8121 17.3156C57.7939 17.7185 58.686 18.3122 59.4365 19.0625C60.187 19.8128 60.781 20.7047 61.1841 21.6864C61.5872 22.6681 61.7913 23.72 61.7846 24.7812C61.7846 29.2766 58.2124 32.8487 53.7171 32.8487C49.2218 32.8487 45.6496 29.2766 45.6496 24.7812C45.6496 20.2859 49.2218 16.7137 53.7171 16.7137V16.7159ZM25.3452 29.6331L21.3159 31.2738L22.8865 35.2331C20.7957 36.4843 19.037 38.2205 17.759 40.295L13.8652 38.72L12.2246 42.7559L16.1184 44.3266C15.8111 45.5099 15.6509 46.7265 15.6415 47.9491C15.6415 49.1959 15.8274 50.4122 16.1184 51.5716L12.2246 53.1466L13.8652 57.1781L17.759 55.6031C19.0253 57.7047 20.7854 59.4656 22.8865 60.7328L21.3115 64.6266L25.3474 66.2672L26.9224 62.3734C28.1056 62.6815 29.3224 62.8417 30.5449 62.8503C31.7918 62.8503 33.0124 62.6644 34.1674 62.3734L35.7424 66.2672L39.774 64.6266L38.199 60.7328C40.2749 59.4566 42.0115 57.6975 43.2609 55.6053L47.2202 57.1759L48.8609 53.1444L44.9015 51.5694C45.1859 50.41 45.3784 49.1916 45.3784 47.9469C45.3784 46.7 45.188 45.4794 44.8971 44.3222L48.863 42.7516L47.2224 38.7156L43.2631 40.2906C42.0066 38.2215 40.2703 36.4852 38.2012 35.2288L39.7762 31.2694L35.7402 29.6287L34.1718 33.5881C32.9874 33.2828 31.7702 33.1234 30.5471 33.1134C29.3002 33.1134 28.084 33.3016 26.9246 33.5903L25.3496 29.6309L25.3452 29.6331ZM30.5427 37.4906C36.368 37.4906 40.999 42.1281 40.999 47.9512C41.0034 53.7766 36.368 58.4775 30.5427 58.4775C29.1599 58.4792 27.7904 58.2081 26.5125 57.6798C25.2346 57.1514 24.0735 56.3761 23.0957 55.3983C22.1179 54.4205 21.3426 53.2594 20.8142 51.9815C20.2858 50.7036 20.0148 49.3341 20.0165 47.9512C20.0165 42.1259 24.7196 37.4906 30.5427 37.4906Z" fill="#8975F3"/>
</svg>
