<svg width="70" height="70" viewBox="0 0 70 70" fill="none" xmlns="http://www.w3.org/2000/svg">
<path d="M34.8192 0.0454085C31.8906 0.0534468 28.9743 0.424506 26.137 1.1501C12.487 4.5451 1.6523 16.9067 0.263241 30.9285C-1.45832 44.1913 5.25293 58.012 16.7242 64.8588C27.9942 71.9113 43.2476 71.6292 54.277 64.2113C64.1907 57.7735 70.3529 46.0485 69.9898 34.2098C69.8214 22.5001 63.2457 11.1163 53.1832 5.10072C47.7036 1.71666 41.257 0.0191585 34.8192 0.043221V0.0454085ZM34.6245 4.98916C49.0467 4.9651 63.1757 16.1192 64.6217 31.0226C67.3801 47.5317 53.6732 64.3142 36.9476 64.8042C21.0423 66.3879 5.6598 52.8976 5.2048 36.9245C4.02137 23.9942 12.5548 11.1535 24.7436 6.87916C27.8862 5.6274 31.2396 4.98954 34.6223 5.0001L34.6245 4.98916ZM49.482 14.402C41.642 20.4832 34.1345 26.967 26.4673 33.2342C29.9761 33.2779 33.5089 33.2779 37.0286 33.2538C41.1411 26.9429 45.3695 20.7129 49.482 14.3998V14.402ZM32.962 36.721C28.8495 43.0451 24.6123 49.286 20.4954 55.6101C28.3595 49.5376 35.832 43.0101 43.5451 36.7779C40.0168 36.7378 36.4883 36.7196 32.9598 36.7232L32.962 36.721Z" fill="white"/>
</svg>
