<svg width="60" height="60" viewBox="0 0 60 60" fill="none" xmlns="http://www.w3.org/2000/svg">
<path d="M1.99998 0.600098C1.62868 0.600135 1.27261 0.747646 1.01007 1.01019C0.747524 1.27273 0.600013 1.62881 0.599976 2.0001V58.0001C0.600013 58.3714 0.747524 58.7275 1.01007 58.99C1.27261 59.2526 1.62868 59.4001 1.99998 59.4001H58C58.3713 59.4001 58.7273 59.2526 58.9899 58.99C59.2524 58.7275 59.3999 58.3714 59.4 58.0001V2.0001C59.3999 1.62881 59.2524 1.27273 58.9899 1.01019C58.7273 0.747646 58.3713 0.600135 58 0.600098H1.99998ZM3.39998 3.4001H56.6V56.6001H3.39998V3.4001ZM16 27.2001V32.0235H23V53.8001H28.6V32.0235H35.6V27.2001H16ZM46.3679 27.2138C42.0075 27.1964 37.0246 28.5178 37.0246 34.654C37.0246 42.676 47.8336 42.678 47.8336 46.297C47.8336 46.64 47.979 49.1325 44.164 49.1325C40.349 49.1325 37.1695 46.7345 37.1695 46.7345V52.556C37.1695 52.556 53.8027 57.9358 53.8027 45.8048C53.8013 37.9298 42.8926 38.3236 42.8926 34.4106C42.8926 32.8944 43.9697 31.4767 46.9531 31.4767C49.9365 31.4767 52.5777 33.2376 52.5777 33.2376L52.7746 28.0505C52.7746 28.0505 49.7594 27.2273 46.3679 27.2138Z" fill="white"/>
</svg>
