<svg width="82" height="83" viewBox="0 0 82 83" fill="none" xmlns="http://www.w3.org/2000/svg">
<path fill-rule="evenodd" clip-rule="evenodd" d="M21.9999 4.99984H61C72.0457 4.99984 81 13.9541 81 24.9998V61.9996C81 73.0453 72.0457 82 61 82H21.9999C10.9542 82 1.9999 73.0453 1.9999 61.9996V24.9998C1.9999 13.9541 10.9542 4.99984 21.9999 4.99984Z" fill="#D3F2ED"/>
<g clip-path="url(#clip0)">
<path d="M59.2246 14.652L52.5577 5.39305C52.3008 5.03621 51.8879 4.82471 51.4482 4.82471C51.0085 4.82471 50.5956 5.03621 50.3387 5.39305L43.6718 14.652C43.5042 14.8847 43.4141 15.1642 43.4141 15.4509V15.6692V60.0363C43.4141 62.8573 45.7092 65.1524 48.5302 65.1524H54.366C57.1872 65.1524 59.4823 62.8573 59.4823 60.0363V15.6692V15.4509C59.4823 15.1642 59.3922 14.8846 59.2246 14.652ZM51.4482 8.53169L55.6032 14.302H47.2933L51.4482 8.53169ZM46.1484 17.0364H52.6398V52.4487H50.2561V26.3341C50.2563 25.5789 49.6442 24.9668 48.8891 24.9668C48.1341 24.9668 47.5219 25.5789 47.5219 26.3339V52.4485H46.1484V17.0364ZM56.7479 60.0362C56.7479 61.3495 55.6795 62.4179 54.366 62.4179H48.5302C47.217 62.4179 46.1484 61.3495 46.1484 60.0362V55.1829H56.7479V60.0362ZM56.7479 52.4487H55.3743V17.0364H56.7479V52.4487Z" fill="#8975F3"/>
<path d="M50.2295 20.5759C50.2117 20.4898 50.1857 20.4037 50.1516 20.3203C50.1174 20.2382 50.075 20.1589 50.0258 20.0851C49.9766 20.0099 49.9191 19.9402 49.8562 19.8773C49.7934 19.8144 49.7236 19.757 49.6484 19.7064C49.5746 19.6572 49.4953 19.6162 49.4119 19.582C49.3299 19.5478 49.2439 19.5205 49.1562 19.5027C48.9799 19.4685 48.798 19.4685 48.6217 19.5027C48.5355 19.5205 48.4494 19.5478 48.3661 19.582C48.284 19.6162 48.2047 19.6572 48.1309 19.7064C48.0557 19.757 47.9859 19.8144 47.923 19.8773C47.8602 19.9402 47.8027 20.0099 47.7521 20.0851C47.7029 20.1589 47.6605 20.2382 47.6264 20.3203C47.5922 20.4037 47.5662 20.4898 47.5484 20.5759C47.5307 20.6648 47.5225 20.755 47.5225 20.8439C47.5225 21.2035 47.6687 21.5562 47.9232 21.8105C48.1773 22.0648 48.5301 22.2111 48.8896 22.2111C48.9785 22.2111 49.0689 22.2015 49.1562 22.1837C49.2439 22.166 49.33 22.14 49.4119 22.1058C49.4953 22.0716 49.5746 22.0292 49.6484 21.98C49.7236 21.9308 49.7934 21.8734 49.8562 21.8105C49.9191 21.7476 49.9766 21.6779 50.0258 21.6027C50.075 21.5289 50.1174 21.4496 50.1516 21.3662C50.1857 21.2841 50.2117 21.198 50.2295 21.1105C50.2473 21.023 50.2567 20.9328 50.2567 20.8439C50.2567 20.755 50.2473 20.6648 50.2295 20.5759Z" fill="#8975F3"/>
<path d="M25.2979 30.4297L25.2975 30.2213C25.2977 29.1438 26.1743 28.2672 27.2518 28.2672C27.271 28.2672 27.2903 28.2668 27.3096 28.266L31.474 28.0897C33.9059 28.0726 35.8791 26.089 35.8791 23.6531C35.8791 21.2066 33.8888 19.2164 31.4425 19.2164H22.1378C21.1992 19.2164 20.4355 18.4527 20.4355 17.514C20.4355 17.0598 20.6146 16.6334 20.9397 16.3134C21.2516 16.0062 21.6593 15.838 22.09 15.838C22.1058 15.838 22.122 15.8384 22.1378 15.8384L30.279 15.8381C33.3155 15.8381 35.7857 13.3676 35.7857 10.3311C35.7857 7.29459 33.3154 4.82422 30.2789 4.82422H21.0178C20.2629 4.82422 19.6506 5.43631 19.6506 6.1914C19.6506 6.9465 20.2629 7.55859 21.0178 7.55859H30.2789C31.8076 7.55859 33.0514 8.80232 33.0514 10.3311C33.0514 11.8599 31.8076 13.1036 30.279 13.1038L22.1475 13.104C20.9764 13.0879 19.8632 13.5359 19.0216 14.3646C18.1701 15.2029 17.7012 16.3213 17.7012 17.5142C17.7012 19.9606 19.6915 21.9509 22.1378 21.9509H31.4423C32.3809 21.9509 33.1446 22.7145 33.1446 23.6532C33.1446 24.5919 32.3809 25.3556 31.4423 25.3556C31.423 25.3556 31.4038 25.3561 31.3845 25.3569L27.2205 25.5331C24.6495 25.5499 22.5633 27.6466 22.5633 30.2242L22.5637 30.4305C16.6264 31.112 12 36.1678 12 42.2847V53.2418C12 59.822 17.3533 65.1753 23.9335 65.1753C30.5136 65.1753 35.8669 59.822 35.8669 53.2418V42.2847C35.8669 36.166 31.2378 31.1089 25.2979 30.4297ZM14.7344 42.2847C14.7344 37.6766 18.1398 33.8491 22.5663 33.1869V44.3379H14.7344V42.2847ZM33.1326 53.2418C33.1326 58.3142 29.0059 62.4409 23.9335 62.4409C18.8611 62.4409 14.7344 58.3142 14.7344 53.2418V47.0724H33.1326V53.2418ZM33.1326 44.3379H25.3007V33.1869C29.7272 33.8491 33.1326 37.6766 33.1326 42.2847V44.3379Z" fill="#8975F3"/>
<path d="M17.094 5.92392C17.0762 5.83779 17.0502 5.75166 17.016 5.66826C16.9818 5.58623 16.9395 5.50693 16.8902 5.4331C16.8412 5.35791 16.7837 5.28818 16.7209 5.22529C16.4666 4.971 16.1138 4.82471 15.7543 4.82471C15.3947 4.82471 15.042 4.971 14.7877 5.22529C14.7248 5.28818 14.6673 5.35791 14.6181 5.4331C14.5677 5.50693 14.5265 5.58623 14.4923 5.66826C14.4568 5.75166 14.431 5.83779 14.413 5.92392C14.3953 6.01279 14.3872 6.10302 14.3872 6.19189C14.3872 6.28076 14.3954 6.37099 14.413 6.45849C14.4308 6.54599 14.4568 6.63213 14.4922 6.71416C14.5264 6.79755 14.5675 6.87685 14.618 6.95068C14.6672 7.02587 14.7246 7.0956 14.7875 7.15849C14.8504 7.22138 14.9201 7.2788 14.9955 7.32802C15.0693 7.37724 15.1486 7.41962 15.2306 7.4538C15.314 7.48798 15.4002 7.51396 15.4877 7.53173C15.5752 7.54951 15.6654 7.55908 15.7543 7.55908C16.1138 7.55908 16.4666 7.41279 16.7209 7.15849C16.7837 7.0956 16.8412 7.02587 16.8902 6.95068C16.9395 6.87685 16.9818 6.79755 17.016 6.71416C17.0502 6.63213 17.0762 6.54599 17.094 6.45849C17.1117 6.37099 17.1213 6.28076 17.1213 6.19189C17.1213 6.10302 17.1117 6.01279 17.094 5.92392Z" fill="#8975F3"/>
<path d="M81.9898 18.4664C81.8387 15.2402 80.2135 13.6435 78.9076 12.3605C77.4948 10.9723 76.6419 10.1343 77.4472 7.38807C77.8118 6.14475 77.3096 5.49192 76.9777 5.21343C76.5647 4.86698 75.8276 4.57523 74.66 5.15314C73.1472 5.90208 70.851 8.10393 69.0762 10.5073C67.4466 12.7141 65.5357 16.0186 65.6861 19.2298C65.7986 21.6311 66.8167 23.833 68.4788 25.3817C67.6574 26.4902 67.1706 27.8608 67.1706 29.3433C67.1706 30.2838 67.3623 31.1802 67.7109 31.994V58.7119C67.7109 61.9638 70.3565 64.6093 73.6083 64.6093C76.86 64.6093 79.5056 61.9638 79.5056 58.7119V32.8769C80.143 31.8503 80.5071 30.6387 80.5071 29.3433C80.5072 27.8786 80.0314 26.5237 79.2279 25.4225C81.082 23.7016 82.116 21.1629 81.9898 18.4664ZM76.7712 58.7118C76.7714 60.4559 75.3525 61.8748 73.6084 61.8748C71.8643 61.8748 70.4454 60.4559 70.4454 58.7118V35.0924C71.1554 35.5083 71.9537 35.7998 72.8151 35.9328C72.8842 35.9435 72.9539 35.9488 73.0236 35.9488H74.6542C74.724 35.9488 74.7937 35.9435 74.8626 35.9328C74.9527 35.9189 75.0424 35.9028 75.1317 35.8851C75.1887 35.8741 75.2449 35.8612 75.3014 35.8488C75.3257 35.8433 75.3502 35.8381 75.3745 35.8324C75.8653 35.7178 76.3326 35.5511 76.7712 35.3388V58.7118ZM75.6869 32.8137C75.681 32.8166 75.6754 32.8196 75.6698 32.8226C75.6305 32.8436 75.5907 32.8635 75.5505 32.8832C75.5315 32.8925 75.5123 32.9015 75.4931 32.9105C75.4624 32.9249 75.4317 32.9388 75.4008 32.9524C75.3716 32.9651 75.3423 32.9773 75.3129 32.9893C75.2889 32.999 75.2651 33.0088 75.2411 33.0181C75.2046 33.0322 75.1677 33.0453 75.1308 33.0583C75.1116 33.065 75.0926 33.072 75.0733 33.0784C75.0316 33.0922 74.9897 33.1051 74.9475 33.1175C74.9316 33.1223 74.9157 33.1274 74.8996 33.132C74.8536 33.145 74.8073 33.1566 74.7608 33.1678C74.7477 33.171 74.7348 33.1747 74.7217 33.1777C74.6619 33.1915 74.6019 33.2039 74.5415 33.2149H73.137C73.1356 33.2146 73.1342 33.2143 73.1329 33.2141C73.0668 33.2022 73.0016 33.1879 72.9367 33.1726C72.9107 33.1665 72.885 33.1598 72.8592 33.1531C72.8205 33.1431 72.7819 33.1326 72.7436 33.1214C72.7114 33.1119 72.679 33.1026 72.647 33.0924C72.6228 33.0847 72.5989 33.0761 72.5748 33.0679C71.0148 32.5342 69.9054 31.037 69.9054 29.3434C69.9054 28.0755 70.509 26.9465 71.4432 26.2265C71.4791 26.1988 71.5156 26.1718 71.5524 26.1454C71.6153 26.1003 71.6796 26.057 71.7452 26.0156C71.7739 25.9974 71.8027 25.9793 71.8319 25.962C71.9225 25.908 72.0153 25.8574 72.1105 25.8106C72.1198 25.806 72.1291 25.801 72.1384 25.7965C72.1935 25.77 72.2494 25.7447 72.3059 25.7207C72.3152 25.7167 72.3246 25.7133 72.3339 25.7094C72.4321 25.6686 72.5323 25.6319 72.6343 25.599C72.6659 25.5889 72.6974 25.5793 72.7293 25.57C72.7983 25.5496 72.8682 25.5313 72.9389 25.5146C72.9927 25.502 73.0469 25.4901 73.1014 25.4799C73.1385 25.4728 73.1755 25.4659 73.2129 25.4599C73.2984 25.4464 73.3847 25.4352 73.4718 25.4273C73.4953 25.4251 73.5191 25.4236 73.5428 25.4218C73.6411 25.4145 73.7398 25.4095 73.8394 25.4095C73.9406 25.4095 74.0406 25.4148 74.1401 25.4222C74.1636 25.424 74.1873 25.4253 74.2106 25.4275C74.2979 25.4356 74.3843 25.4471 74.47 25.4608C74.5087 25.467 74.5471 25.474 74.5855 25.4814C74.6405 25.4918 74.695 25.5041 74.7493 25.5169C74.8207 25.5339 74.8914 25.5526 74.9611 25.5734C74.9901 25.582 75.0191 25.591 75.0479 25.6003C75.1459 25.6321 75.2423 25.6675 75.3368 25.7064C75.3507 25.7122 75.3648 25.7176 75.3786 25.7235C75.5443 25.7942 75.704 25.8762 75.8571 25.9681C75.891 25.9885 75.9244 26.0098 75.9578 26.0313C76.0196 26.0709 76.0801 26.1121 76.1395 26.155C76.1809 26.1851 76.2219 26.216 76.2624 26.2478C77.1811 26.9686 77.7731 28.0878 77.7731 29.3434C77.7731 30.8172 76.9331 32.1429 75.6869 32.8137ZM77.1896 23.5781C77.1599 23.5609 77.1289 23.5463 77.0991 23.5295C77.0277 23.4893 76.9553 23.4506 76.8823 23.413C76.8449 23.3938 76.8079 23.374 76.7701 23.3556C76.5267 23.2359 76.2747 23.1315 76.0157 23.0418C76.0014 23.0369 75.9872 23.0321 75.9728 23.0272C75.8432 22.9833 75.7119 22.9427 75.5789 22.9067C75.5784 22.9066 75.5778 22.9064 75.5771 22.9062C75.3077 22.8333 75.0316 22.7774 74.7499 22.7387C74.7242 22.7351 74.6983 22.7321 74.6726 22.7288C74.5638 22.7152 74.4543 22.7042 74.3439 22.696C74.311 22.6936 74.2782 22.6906 74.2452 22.6885C74.1107 22.6804 73.9755 22.675 73.839 22.675C73.704 22.675 73.5701 22.6803 73.4369 22.6882C73.4051 22.6902 73.3734 22.6932 73.3415 22.6955C73.2323 22.7036 73.1237 22.7142 73.016 22.7276C72.9907 22.7308 72.9655 22.7338 72.9402 22.7373C72.523 22.7938 72.118 22.8891 71.7286 23.0194C71.7176 23.0231 71.7066 23.0268 71.6957 23.0306C71.5724 23.0726 71.4504 23.1177 71.3304 23.1666C71.3204 23.1707 71.3103 23.1744 71.3003 23.1785C71.1751 23.2303 71.0515 23.2852 70.9301 23.3442C70.9037 23.3571 70.878 23.3713 70.8517 23.3844C70.7687 23.4261 70.6866 23.4692 70.6056 23.5143C70.582 23.5274 70.5574 23.5388 70.5339 23.5522C69.2766 22.4823 68.5006 20.8745 68.4176 19.102C68.3257 17.142 69.4747 14.4594 71.5698 11.7421C72.6199 10.3802 73.6316 9.3519 74.4324 8.65313C74.2056 11.5738 75.7263 13.068 76.9914 14.311C78.1537 15.453 79.1575 16.4391 79.2584 18.5942C79.3507 20.5643 78.5721 22.4021 77.1896 23.5781Z" fill="#8975F3"/>
</g>
<defs>
<clipPath id="clip0">
<path d="M12 0H82V70H12V0Z" fill="white"/>
</clipPath>
</defs>
</svg>
