<svg width="70" height="66" viewBox="0 0 70 66" fill="none" xmlns="http://www.w3.org/2000/svg">
<path d="M58.3341 12.001C59.4956 11.4213 60.0906 10.8263 60.9525 10.8263C62.4116 10.8263 63.2888 11.7035 63.5863 12.2854C64.1659 13.1626 66.2047 13.7444 67.0841 13.7444C67.6637 13.7444 68.5431 11.7057 69.1228 9.96444C69.7025 8.20788 69.7025 6.16913 69.4203 5.87163C69.1228 5.58944 66.7866 4.99444 66.2069 4.99444C65.9247 5.29194 65.3297 5.58944 64.1681 5.58944C63.0066 5.58944 61.8319 4.71225 60.9547 3.83288C59.4956 2.37382 57.7544 1.79413 56 1.21444C54.2588 0.619442 52.2047 0.619442 50.4634 0.619442C47.8297 0.337254 44.9137 0.337254 42.2931 1.21444C41.1788 1.46969 40.0997 1.85975 39.0797 2.376C38.7975 2.6735 37.9181 2.95569 37.6206 2.95569C37.3384 3.25319 37.3384 3.53538 37.6206 3.53538C37.9181 3.53538 39.0797 3.25319 39.0797 3.25319C39.0797 3.25319 37.6206 3.83288 37.6206 4.41475C37.6206 4.71225 37.9181 4.71225 37.9181 4.71225C37.9181 4.71225 38.7953 4.41475 39.3772 4.41475C40.5387 4.41475 42.2931 3.83507 43.7522 3.83507C45.5087 3.83507 47.25 4.41475 49.0044 6.17132C51.6228 9.37163 51.3406 13.4623 51.3406 14.3416C50.7456 20.4579 37.0409 57.7941 36.4591 60.4126C35.8794 63.0463 35.8794 64.5054 39.0775 65.3826C42.2909 66.2466 43.4525 65.3826 44.0475 64.2079C44.3297 62.1691 53.0797 16.0829 58.3341 12.0054V12.001ZM46.9634 9.08507L0 16.376L7.58844 65.0807L32.6637 61.0032C32.3816 58.9491 39.0775 41.4491 40.2522 38.251L27.4094 40.2898L29.1659 35.0376L38.2134 33.5785L40.5344 36.4944C40.5344 36.4944 41.1294 35.0354 41.1294 34.4557L28.5841 18.9944C28.0044 18.1173 28.0044 16.9557 28.8663 16.376L29.4613 15.7963C30.3253 15.2013 31.5 15.2013 32.0797 16.0785L43.1659 28.9213C45.5022 21.9126 47.5409 15.7963 47.5409 13.7423C47.8231 13.1626 47.8231 11.1238 46.9613 9.08507H46.9634ZM11.9634 37.9535L19.8363 36.4944L17.7975 41.7466L12.5453 42.6238L11.9634 37.9535ZM28.8684 23.0873L29.7456 23.3694C30.9203 23.6669 31.2047 24.8285 30.9203 26.0032L22.1703 49.3373L16.9181 56.3307L17.4978 47.5807L26.2478 24.2466C26.5453 23.0851 27.7069 22.7876 28.8663 23.0851L28.8684 23.0873ZM60.3728 14.9191C59.2113 16.0807 57.7544 19.8738 54.8363 30.9601H55.1184L55.9956 35.6173L53.6594 35.9148C53.3772 37.3738 53.0797 38.8307 52.4978 40.5873C57.4525 43.2057 54.8341 49.6194 54.5366 49.6194C54.2544 49.6194 54.2544 49.6194 54.2544 49.3373C54.2544 49.0398 54.5366 48.1626 53.6594 47.8782C53.0797 47.5807 51.9181 47.2832 51.0409 46.7035C50.0691 50.669 49.196 54.658 48.4225 58.6669L66.7866 55.751L60.6703 14.6194L60.3728 14.9191Z" fill="white"/>
</svg>
