<svg width="70" height="70" viewBox="0 0 70 70" fill="none" xmlns="http://www.w3.org/2000/svg">
<g clip-path="url(#clip0)">
<path d="M19.7225 29.2688C19.7225 30.1351 19.8253 30.8307 19.985 31.3426C20.1666 31.8545 20.4072 32.4145 20.7266 33.0182C20.8343 33.1765 20.8935 33.3627 20.8972 33.5541C20.8972 33.7926 20.7485 34.0223 20.4531 34.2607L18.9831 35.2298C18.8088 35.362 18.5981 35.4376 18.3794 35.4463C18.141 35.4463 17.9113 35.3326 17.6838 35.116C17.3655 34.782 17.0832 34.4154 16.8416 34.0223C16.5796 33.5789 16.3401 33.1226 16.1241 32.6551C14.3019 34.7966 12.0225 35.8685 9.27721 35.8685C7.31721 35.8685 5.75752 35.3107 4.61783 34.1929C3.47815 33.0641 2.89846 31.5832 2.89846 29.7151C2.89846 27.7441 3.59408 26.1254 5.01815 24.9179C6.44221 23.7104 8.32127 23.1066 10.7253 23.1066C11.5106 23.1066 12.331 23.1745 13.1863 23.2882C14.0525 23.402 14.9406 23.5966 15.8638 23.8001V22.1026C15.8638 20.3373 15.4985 19.0948 14.77 18.3773C14.0285 17.6598 12.7772 17.3054 10.9769 17.3054C10.1675 17.3054 9.32533 17.3973 8.45908 17.6007C7.60591 17.8082 6.76826 18.075 5.95221 18.3991C5.67877 18.5238 5.40533 18.6157 5.1319 18.7076C5.01284 18.7429 4.8904 18.7657 4.76658 18.7754C4.43627 18.7754 4.27659 18.537 4.27659 18.047V16.9073C4.27659 16.542 4.32252 16.2576 4.43627 16.0979C4.60723 15.8815 4.83096 15.7128 5.08596 15.6079C6.01695 15.1429 7.00032 14.7911 8.01502 14.5601C9.20158 14.254 10.4231 14.1047 11.6485 14.116C14.4288 14.116 16.4456 14.7416 17.756 16.0082C19.0313 17.2616 19.681 19.1648 19.681 21.7285V29.271L19.7225 29.2688ZM10.2769 32.8126C11.0403 32.8126 11.8388 32.6748 12.67 32.3904C13.5247 32.1013 14.2872 31.5902 14.8794 30.9095C15.2556 30.4654 15.54 29.9754 15.6778 29.4176C15.8156 28.8598 15.9053 28.1751 15.9053 27.3898V26.4098C15.1997 26.2361 14.4847 26.1032 13.7638 26.0116C13.0383 25.9192 12.3076 25.8732 11.5763 25.8738C10.0144 25.8738 8.8769 26.1823 8.11346 26.8079C7.33908 27.4335 6.97377 28.3238 6.97377 29.4854C6.97377 30.5791 7.24721 31.3885 7.82908 31.9463C8.3869 32.5282 9.20721 32.8126 10.2791 32.8126H10.2769ZM28.9735 35.3304C28.5513 35.3304 28.2669 35.2626 28.0853 35.092C27.9038 34.9541 27.7331 34.6238 27.5953 34.1929L22.1266 16.192C22.0196 15.8903 21.9505 15.5766 21.921 15.2579C21.921 14.8816 22.1025 14.676 22.4678 14.676H24.7581C25.2022 14.676 25.4997 14.7438 25.6572 14.9035C25.8519 15.0413 25.9875 15.3716 26.1253 15.8157L30.0453 31.231L33.6788 15.8157C33.7925 15.3476 33.9303 15.0413 34.1119 14.9035C34.392 14.7323 34.7185 14.6528 35.046 14.676H36.9031C37.3472 14.676 37.6556 14.7438 37.8372 14.9035C38.0188 15.0413 38.1894 15.3716 38.2813 15.8157L41.9606 31.4126L45.9835 15.8157C46.1322 15.3476 46.2919 15.0413 46.4516 14.9035C46.7237 14.7325 47.0432 14.6528 47.3638 14.676H49.5294C49.9056 14.676 50.1113 14.8576 50.1113 15.2579C50.1113 15.3716 50.0894 15.4854 50.0653 15.6341C50.0274 15.832 49.974 16.0265 49.9056 16.216L44.2881 34.206C44.1503 34.6741 43.9928 34.9804 43.7981 35.1182C43.5388 35.2887 43.2304 35.3687 42.921 35.3457H40.915C40.471 35.3457 40.1735 35.2779 39.981 35.1182C39.7994 34.9585 39.6397 34.6501 39.5478 34.1841L35.9363 19.167L32.3466 34.1601C32.2328 34.6282 32.095 34.9345 31.9025 35.0941C31.721 35.2538 31.3906 35.3216 30.9685 35.3216L28.9735 35.3304ZM58.881 35.9582C57.6735 35.9582 56.466 35.8095 55.3044 35.536C54.1428 35.2626 53.2306 34.9541 52.6269 34.602C52.2506 34.3963 52.0013 34.1688 51.9094 33.9523C51.8144 33.7487 51.7636 33.5272 51.7606 33.3026V32.117C51.7606 31.627 51.9553 31.3885 52.2966 31.3885C52.4344 31.3885 52.581 31.4104 52.7188 31.4563C52.8566 31.5132 53.071 31.6051 53.3006 31.6948C54.0991 32.047 54.9522 32.3204 55.8644 32.5041C56.7985 32.6988 57.6997 32.7885 58.6338 32.7885C60.1038 32.7885 61.2435 32.526 62.0288 32.0141C62.8031 31.546 63.2713 30.7038 63.2472 29.8048C63.2562 29.2013 63.0321 28.6176 62.6216 28.1751C62.1994 27.742 61.4031 27.3438 60.2635 26.9676L56.8903 25.9198C55.1928 25.3838 53.9285 24.5985 53.165 23.5507C52.4131 22.5821 52.0011 21.3928 51.9925 20.1666C51.9925 19.1866 52.2091 18.3313 52.6313 17.581C53.0535 16.8395 53.6113 16.192 54.3069 15.6779C55.0296 15.1283 55.8486 14.7188 56.7219 14.4704C57.656 14.186 58.636 14.0723 59.6619 14.0723C60.1738 14.0723 60.7097 14.0941 61.2238 14.1641C61.7597 14.232 62.2497 14.3238 62.7397 14.4266C63.1947 14.5404 63.6388 14.6541 64.061 14.792C64.4831 14.9298 64.8135 15.0763 65.041 15.2141C65.3137 15.3533 65.5514 15.5522 65.7366 15.796C65.8918 16.0234 65.9679 16.2955 65.9531 16.5704V17.6641C65.9531 18.1541 65.7585 18.4057 65.4172 18.4057C65.1061 18.3739 64.8043 18.2809 64.5291 18.1323C63.1239 17.5077 61.5997 17.1964 60.0622 17.2201C58.73 17.2201 57.68 17.4257 56.9625 17.8698C56.2341 18.3138 55.8688 18.9854 55.8688 19.9435C55.8688 20.5932 56.0963 21.151 56.5644 21.5951C57.0325 22.0391 57.8966 22.4832 59.1281 22.8835L62.4313 23.9204C64.1069 24.4563 65.3253 25.2088 66.0428 26.1648C66.7603 27.1098 67.1147 28.2035 67.1147 29.4241C67.1147 30.4151 66.8981 31.3273 66.511 32.1235C66.0914 32.9164 65.5137 33.6147 64.8135 34.1754C64.085 34.7573 63.2297 35.1663 62.2278 35.4748C61.1459 35.8043 60.0207 35.9695 58.8897 35.9648L58.881 35.9582ZM63.2888 47.2698C55.6216 52.9332 44.5003 55.9279 34.93 55.9279C21.5206 55.9279 9.43252 50.971 0.306273 42.7241C-0.411227 42.0745 0.23846 41.1863 1.10471 41.7091C10.9703 47.4295 23.1503 50.9032 35.7394 50.9032C44.2378 50.9032 53.5697 49.1248 62.171 45.5023C63.4463 44.9095 64.54 46.3335 63.2866 47.2676L63.2888 47.2698ZM66.4803 43.6363C65.5003 42.3829 59.9966 43.0326 57.5138 43.341C56.7722 43.4329 56.6475 42.7723 57.3322 42.2823C61.7072 39.2176 68.8953 40.0948 69.7397 41.1207C70.571 42.1795 69.5013 49.3698 65.4106 52.8107C64.785 53.3466 64.1681 53.0732 64.4525 52.3666C65.3866 50.0654 67.4603 44.881 66.4803 43.6385V43.6363Z" fill="white"/>
</g>
<defs>
<clipPath id="clip0">
<rect width="70" height="70" fill="white"/>
</clipPath>
</defs>
</svg>
