<svg width="95" height="87" viewBox="0 0 95 87" fill="none" xmlns="http://www.w3.org/2000/svg">
<path fill-rule="evenodd" clip-rule="evenodd" d="M22 10.9997H63.9999C75.0457 10.9997 84 19.954 84 30.9997V65.9997C84 77.0453 75.0457 86 63.9999 86H22C10.9543 86 1.99996 77.0453 1.99996 65.9997V30.9997C1.99996 19.954 10.9543 10.9997 22 10.9997Z" fill="#D3F2ED"/>
<path d="M52.6185 49.0549C52.3541 49.0549 52.0877 48.964 51.8704 48.7789L44.3921 42.4112C44.1342 42.1913 43.9858 41.8701 43.9858 41.5309C43.9858 41.1923 44.1348 40.8712 44.3921 40.6512L51.8704 34.2835C52.356 33.8695 53.0854 33.9282 53.4994 34.4138C53.9128 34.9 53.8547 35.6294 53.3685 36.0428L46.924 41.5309L53.3685 47.019C53.8547 47.433 53.9128 48.1624 53.4994 48.648C53.2705 48.9169 52.9454 49.0549 52.6185 49.0549Z" fill="#8975F3"/>
<path d="M67.3815 49.0549C67.0545 49.0549 66.7295 48.9169 66.5012 48.648C66.0871 48.1624 66.1458 47.433 66.6314 47.019L73.0759 41.5309L66.6314 36.0428C66.1458 35.6294 66.0871 34.9 66.5012 34.4138C66.9145 33.9282 67.6446 33.8695 68.1295 34.2835L75.6078 40.6512C75.8658 40.8712 76.0141 41.1923 76.0141 41.5309C76.0141 41.8701 75.8658 42.1913 75.6078 42.4112L68.1295 48.7789C67.9122 48.964 67.6459 49.0549 67.3815 49.0549Z" fill="#8975F3"/>
<path d="M57.3527 53.8311C57.2734 53.8311 57.1934 53.8227 57.1128 53.8059C56.4885 53.6744 56.0887 53.0611 56.2202 52.4368L60.8809 30.3083C61.0125 29.6841 61.6251 29.2842 62.25 29.4158C62.8743 29.5474 63.2741 30.16 63.1426 30.7849L58.4819 52.9134C58.3671 53.4577 57.8873 53.8311 57.3527 53.8311Z" fill="#8975F3"/>
<path d="M87.2406 65.8868H32.7594C28.4812 65.8868 25 62.4063 25 58.1274V11.8868C25 7.60849 28.4812 4.12732 32.7594 4.12732H87.2406C91.5188 4.12732 95 7.60849 95 11.8868V58.1274C95 62.4063 91.5188 65.8868 87.2406 65.8868ZM32.7594 6.43864C29.7555 6.43864 27.3113 8.88281 27.3113 11.8868V58.1274C27.3113 61.1313 29.7555 63.5755 32.7594 63.5755H87.2406C90.2445 63.5755 92.6887 61.1313 92.6887 58.1274V11.8868C92.6887 8.88281 90.2445 6.43864 87.2406 6.43864H32.7594Z" fill="#8975F3"/>
<path d="M93.8443 22.6327H26.1557C25.5172 22.6327 25 22.1155 25 21.4771C25 20.8393 25.5172 20.3214 26.1557 20.3214H93.8443C94.4828 20.3214 95 20.8393 95 21.4771C95 22.1155 94.4828 22.6327 93.8443 22.6327Z" fill="#8975F3"/>
<path d="M44.7455 17.1028C42.7295 17.1028 41.0883 15.4615 41.0883 13.4456C41.0883 11.429 42.7295 9.78833 44.7455 9.78833C46.7621 9.78833 48.4027 11.429 48.4027 13.4456C48.4027 15.4615 46.7621 17.1028 44.7455 17.1028ZM44.7455 12.0997C44.0038 12.0997 43.3996 12.7033 43.3996 13.4456C43.3996 14.1878 44.0038 14.7915 44.7455 14.7915C45.4878 14.7915 46.0914 14.1878 46.0914 13.4456C46.0914 12.7033 45.4878 12.0997 44.7455 12.0997Z" fill="#8975F3"/>
<path d="M33.5088 17.0673C31.4922 17.0673 29.8516 15.4266 29.8516 13.41C29.8516 11.3934 31.4922 9.75281 33.5088 9.75281C35.5254 9.75281 37.166 11.3934 37.166 13.41C37.166 15.4266 35.5254 17.0673 33.5088 17.0673ZM33.5088 12.0641C32.7672 12.0641 32.1629 12.6684 32.1629 13.41C32.1629 14.1523 32.7672 14.7559 33.5088 14.7559C34.2511 14.7559 34.8547 14.1523 34.8547 13.41C34.8547 12.6684 34.2511 12.0641 33.5088 12.0641Z" fill="#8975F3"/>
<path d="M55.9823 17.1375C53.9663 17.1375 52.3257 15.4969 52.3257 13.4803C52.3257 11.4644 53.9663 9.82373 55.9823 9.82373C57.9989 9.82373 59.6395 11.4644 59.6395 13.4803C59.6395 15.4969 57.9989 17.1375 55.9823 17.1375ZM55.9823 12.1344C55.2406 12.1344 54.637 12.738 54.637 13.4803C54.637 14.2226 55.2406 14.8262 55.9823 14.8262C56.7245 14.8262 57.3282 14.2226 57.3282 13.4803C57.3282 12.738 56.7245 12.1344 55.9823 12.1344Z" fill="#8975F3"/>
</svg>
