<svg width="95" height="87" viewBox="0 0 95 87" fill="none" xmlns="http://www.w3.org/2000/svg">
<g clip-path="url(#clip0)">
<path fill-rule="evenodd" clip-rule="evenodd" d="M22 10.9997H63.9999C75.0457 10.9997 84 19.954 84 30.9997V65.9997C84 77.0453 75.0457 86 63.9999 86H22C10.9543 86 1.99996 77.0453 1.99996 65.9997V30.9997C1.99996 19.954 10.9543 10.9997 22 10.9997Z" fill="#D3F2ED"/>
<path d="M81.7188 51.875H80.625V13.5938C80.6233 12.1439 80.0465 10.7539 79.0213 9.72868C77.9961 8.70347 76.6061 8.12674 75.1562 8.12501H67.8478C67.2798 6.92989 66.4121 5.9021 65.3292 5.1416C64.2463 4.38109 62.9851 3.91375 61.6681 3.785C61.2183 2.49872 60.3804 1.38372 59.27 0.593826C58.1596 -0.196066 56.8314 -0.621922 55.4688 -0.624995C54.9146 -0.62452 54.363 -0.55097 53.8281 -0.406245C52.7251 -1.45636 51.3666 -2.1998 49.8875 -2.56282C48.4084 -2.92583 46.8601 -2.89581 45.3962 -2.47572C43.9323 -2.05563 42.6037 -1.26007 41.5421 -0.167984C40.4806 0.924104 39.7231 2.27477 39.3447 3.75001C37.8497 3.6963 36.3717 4.08211 35.0937 4.85972C33.8158 5.63732 32.7938 6.77258 32.1544 8.12501H24.8438C23.3939 8.12674 22.0039 8.70347 20.9787 9.72868C19.9535 10.7539 19.3767 12.1439 19.375 13.5938V51.875H18.2812C17.9912 51.875 17.713 51.9902 17.5079 52.1954C17.3027 52.4005 17.1875 52.6787 17.1875 52.9688V57.3438C17.1892 58.7936 17.766 60.1836 18.7912 61.2088C19.8164 62.234 21.2064 62.8108 22.6562 62.8125H77.3438C78.7936 62.8108 80.1836 62.234 81.2088 61.2088C82.234 60.1836 82.8108 58.7936 82.8125 57.3438V52.9688C82.8125 52.6787 82.6973 52.4005 82.4921 52.1954C82.287 51.9902 82.0088 51.875 81.7188 51.875ZM67.8445 14.6875H72.9688C73.2588 14.6875 73.537 14.8027 73.7421 15.0079C73.9473 15.213 74.0625 15.4912 74.0625 15.7813V47.5H25.9375V15.7813C25.9375 15.4912 26.0527 15.213 26.2579 15.0079C26.463 14.8027 26.7412 14.6875 27.0312 14.6875H32.1555C32.7756 15.9949 33.7536 17.0999 34.9761 17.8742C36.1986 18.6485 37.6154 19.0605 39.0625 19.0625H41.25V23.4375H31.4062C31.1162 23.4375 30.838 23.5527 30.6329 23.7579C30.4277 23.963 30.3125 24.2412 30.3125 24.5313V44.2188C30.3125 44.5088 30.4277 44.787 30.6329 44.9922C30.838 45.1973 31.1162 45.3125 31.4062 45.3125H53.2812C53.5713 45.3125 53.8495 45.1973 54.0546 44.9922C54.2598 44.787 54.375 44.5088 54.375 44.2188V24.5313C54.375 24.2412 54.2598 23.963 54.0546 23.7579C53.8495 23.5527 53.5713 23.4375 53.2812 23.4375H43.4375V19.0625H56.5625V39.8438C56.5625 40.1338 56.6777 40.412 56.8829 40.6172C57.088 40.8223 57.3662 40.9375 57.6562 40.9375H63.3262C63.5843 41.6673 64.0919 42.2823 64.7596 42.674C65.4272 43.0656 66.2118 43.2086 66.9747 43.0778C67.7376 42.9469 68.4296 42.5505 68.9286 41.9587C69.4275 41.3669 69.7011 40.6178 69.7011 39.8438C69.7011 39.0697 69.4275 38.3206 68.9286 37.7288C68.4296 37.137 67.7376 36.7407 66.9747 36.6098C66.2118 36.4789 65.4272 36.6219 64.7596 37.0135C64.0919 37.4052 63.5843 38.0202 63.3262 38.75H58.75V19.0625H60.9375V28.9063C60.9375 29.1963 61.0527 29.4745 61.2579 29.6797C61.463 29.8848 61.7412 30 62.0312 30H63.3262C63.5843 30.7298 64.0919 31.3448 64.7596 31.7365C65.4272 32.1281 66.2118 32.2711 66.9747 32.1402C67.7376 32.0094 68.4296 31.613 68.9286 31.0212C69.4275 30.4294 69.7011 29.6803 69.7011 28.9063C69.7011 28.1322 69.4275 27.3831 68.9286 26.7913C68.4296 26.1995 67.7376 25.8032 66.9747 25.6723C66.2118 25.5414 65.4272 25.6844 64.7596 26.076C64.0919 26.4677 63.5843 27.0827 63.3262 27.8125H63.125V18.7344C64.1502 18.4259 65.0997 17.9066 65.9124 17.2097C66.7252 16.5128 67.3833 15.6537 67.8445 14.6875ZM52.1875 25.625V43.125H32.5V25.625H52.1875ZM65.3125 39.8438C65.3125 39.6274 65.3766 39.416 65.4968 39.2361C65.617 39.0562 65.7878 38.916 65.9877 38.8333C66.1875 38.7505 66.4075 38.7288 66.6196 38.771C66.8318 38.8132 67.0267 38.9174 67.1796 39.0704C67.3326 39.2233 67.4368 39.4182 67.479 39.6304C67.5212 39.8425 67.4995 40.0625 67.4167 40.2623C67.334 40.4622 67.1938 40.633 67.0139 40.7532C66.834 40.8734 66.6226 40.9375 66.4062 40.9375C66.1162 40.9375 65.838 40.8223 65.6329 40.6172C65.4277 40.412 65.3125 40.1338 65.3125 39.8438ZM65.3125 28.9063C65.3125 28.6899 65.3766 28.4785 65.4968 28.2986C65.617 28.1187 65.7878 27.9785 65.9877 27.8958C66.1875 27.813 66.4075 27.7913 66.6196 27.8335C66.8318 27.8757 67.0267 27.9799 67.1796 28.1329C67.3326 28.2858 67.4368 28.4807 67.479 28.6929C67.5212 28.905 67.4995 29.125 67.4167 29.3248C67.334 29.5247 67.1938 29.6955 67.0139 29.8157C66.834 29.9359 66.6226 30 66.4062 30C66.1162 30 65.838 29.8848 65.6329 29.6797C65.4277 29.4745 65.3125 29.1963 65.3125 28.9063ZM39.0625 5.93751C39.3884 5.93883 39.7134 5.96958 40.0338 6.02938C40.1796 6.05548 40.3293 6.05167 40.4736 6.01818C40.6179 5.9847 40.754 5.92223 40.8734 5.83457C40.9929 5.74691 41.0933 5.63589 41.1686 5.50825C41.2438 5.38061 41.2924 5.23901 41.3112 5.09204C41.471 3.84532 41.9862 2.67092 42.7952 1.709C43.6043 0.747076 44.673 0.0382738 45.8739 -0.332809C47.0748 -0.703891 48.3571 -0.721579 49.5677 -0.383761C50.7784 -0.0459433 51.8663 0.63311 52.7016 1.57235C52.8491 1.73688 53.0431 1.85285 53.2578 1.90498C53.4726 1.95711 53.6981 1.94296 53.9047 1.86438C54.4968 1.63457 55.1319 1.53687 55.7657 1.57811C56.3995 1.61935 57.0166 1.79853 57.5739 2.10313C58.1313 2.40773 58.6153 2.83039 58.9923 3.34156C59.3692 3.85273 59.6299 4.44006 59.7562 5.06251C59.8067 5.30955 59.9409 5.53159 60.1362 5.69104C60.3316 5.85049 60.576 5.93756 60.8281 5.93751C60.8456 5.93751 60.9113 5.9375 60.9539 5.93204C62.405 5.93421 63.7959 6.51276 64.8204 7.5404C65.845 8.56804 66.4194 9.9606 66.4172 11.4117C66.415 12.8629 65.8365 14.2537 64.8088 15.2782C63.7812 16.3028 62.3886 16.8772 60.9375 16.875H39.0625C37.6121 16.875 36.2211 16.2988 35.1955 15.2732C34.1699 14.2477 33.5938 12.8567 33.5938 11.4063C33.5938 9.95585 34.1699 8.56486 35.1955 7.53927C36.2211 6.51368 37.6121 5.93751 39.0625 5.93751ZM21.5625 13.5938C21.5625 12.7235 21.9082 11.8889 22.5236 11.2736C23.1389 10.6582 23.9735 10.3125 24.8438 10.3125H31.4937C31.3771 11.037 31.3771 11.7755 31.4937 12.5H27.0312C26.161 12.5 25.3264 12.8457 24.7111 13.4611C24.0957 14.0764 23.75 14.911 23.75 15.7813V48.5938C23.75 48.8838 23.8652 49.162 24.0704 49.3672C24.2755 49.5723 24.5537 49.6875 24.8438 49.6875H75.1562C75.4463 49.6875 75.7245 49.5723 75.9296 49.3672C76.1348 49.162 76.25 48.8838 76.25 48.5938V15.7813C76.25 14.911 75.9043 14.0764 75.2889 13.4611C74.6736 12.8457 73.839 12.5 72.9688 12.5H68.5062C68.6222 11.7754 68.6222 11.0371 68.5062 10.3125H75.1562C76.0265 10.3125 76.8611 10.6582 77.4764 11.2736C78.0918 11.8889 78.4375 12.7235 78.4375 13.5938V51.875H60.9375C60.6474 51.875 60.3692 51.9902 60.1641 52.1954C59.959 52.4005 59.8438 52.6787 59.8438 52.9688V55.1563C59.8438 55.4463 59.7285 55.7245 59.5234 55.9297C59.3183 56.1348 59.0401 56.25 58.75 56.25H41.25C40.9599 56.25 40.6817 56.1348 40.4766 55.9297C40.2715 55.7245 40.1562 55.4463 40.1562 55.1563V52.9688C40.1562 52.6787 40.041 52.4005 39.8359 52.1954C39.6308 51.9902 39.3526 51.875 39.0625 51.875H21.5625V13.5938ZM80.625 57.3438C80.625 58.214 80.2793 59.0486 79.6639 59.6639C79.0486 60.2793 78.214 60.625 77.3438 60.625H22.6562C21.786 60.625 20.9514 60.2793 20.3361 59.6639C19.7207 59.0486 19.375 58.214 19.375 57.3438V54.0625H37.9688V55.1563C37.9688 56.0265 38.3145 56.8611 38.9298 57.4764C39.5452 58.0918 40.3798 58.4375 41.25 58.4375H58.75C59.6202 58.4375 60.4548 58.0918 61.0702 57.4764C61.6855 56.8611 62.0312 56.0265 62.0312 55.1563V54.0625H80.625V57.3438Z" fill="#8975F3"/>
<path d="M44.5312 51.875H55.4688V54.0625H44.5312V51.875Z" fill="#8975F3"/>
<path d="M23.75 56.25H25.9375V58.4375H23.75V56.25Z" fill="#8975F3"/>
<path d="M28.125 56.25H30.3125V58.4375H28.125V56.25Z" fill="#8975F3"/>
<path d="M32.5 56.25H34.6875V58.4375H32.5V56.25Z" fill="#8975F3"/>
<path d="M65.3125 56.25H67.5V58.4375H65.3125V56.25Z" fill="#8975F3"/>
<path d="M69.6875 56.25H71.875V58.4375H69.6875V56.25Z" fill="#8975F3"/>
<path d="M74.0625 56.25H76.25V58.4375H74.0625V56.25Z" fill="#8975F3"/>
<path d="M38.2892 39.5232L39.8358 37.9767L36.2341 34.375L39.8358 30.7732L38.2892 29.2267L33.9142 33.6017C33.7092 33.8068 33.594 34.0849 33.594 34.375C33.594 34.665 33.7092 34.9431 33.9142 35.1482L38.2892 39.5232Z" fill="#8975F3"/>
<path d="M46.3982 39.5232L50.7732 35.1482C50.9783 34.9431 51.0935 34.665 51.0935 34.375C51.0935 34.0849 50.9783 33.8068 50.7732 33.6017L46.3982 29.2267L44.8517 30.7732L48.4534 34.375L44.8517 37.9767L46.3982 39.5232Z" fill="#8975F3"/>
<path d="M40.1654 40.782L42.361 27.6617L44.5179 28.0227L42.3223 41.1429L40.1654 40.782Z" fill="#8975F3"/>
</g>
<defs>
<clipPath id="clip0">
<rect width="95" height="87" fill="white"/>
</clipPath>
</defs>
</svg>
