<svg width="70" height="70" viewBox="0 0 70 70" fill="none" xmlns="http://www.w3.org/2000/svg">
<g clip-path="url(#clip0)">
<path d="M14.059 50.3805C12.0662 50.3805 10.255 48.753 10.255 46.7689C10.255 44.7849 11.8825 43.1465 14.059 43.1465C16.2465 43.1465 17.8893 44.7761 17.8893 46.7689C17.8893 48.753 16.0672 50.3805 14.0722 50.3805H14.059ZM60.76 30.6602C60.3596 27.7661 58.5725 25.408 56.2122 23.6077L55.2912 22.8793L54.5497 23.7783C53.1147 25.408 52.535 28.3021 52.7143 30.4655C52.8871 32.1083 53.4078 33.7358 54.3331 35.0002C53.5806 35.3874 52.6706 35.7286 51.9618 36.1049C50.2993 36.6496 48.6806 36.8333 47.064 36.8333H0.284339L0.100589 37.903C-0.253245 41.4317 0.31273 44.9918 1.7434 48.2368L2.4609 49.5033V49.6718C6.8359 56.919 14.6168 60.1783 23.1043 60.1783C39.4209 60.1783 52.7953 53.1258 59.139 37.9161C63.2975 38.0977 67.4931 37.0149 69.4618 33.0271L69.9868 32.128L69.1206 31.5789C66.7515 30.133 63.514 29.9405 60.8059 30.6689L60.7468 30.6799L60.76 30.6602ZM37.404 27.7661H30.3187V34.8274H37.404V27.7661ZM37.404 18.8914H30.3187V25.9527H37.404V18.8914ZM37.404 9.83301H30.3187V16.8964H37.404V9.83301ZM46.0621 27.7661H39.0206V34.8274H46.084V27.7661H46.0621ZM19.8253 27.7661H12.7837V34.8274H19.8472V27.7661H19.8253ZM28.654 27.7661H21.6606V34.8274H28.7022V27.7661H28.654ZM11.0753 27.7661H4.07746V34.8274H11.165V27.7661H11.0753ZM28.654 18.8914H21.6606V25.9527H28.7022V18.9002L28.654 18.8914ZM19.7772 18.8914H12.7947V25.9527H19.8362V18.9002L19.7903 18.8914H19.7772Z" fill="white"/>
</g>
<defs>
<clipPath id="clip0">
<rect width="70" height="70" fill="white"/>
</clipPath>
</defs>
</svg>
