<svg width="95" height="87" viewBox="0 0 95 87" fill="none" xmlns="http://www.w3.org/2000/svg">
<g clip-path="url(#clip0)">
<path fill-rule="evenodd" clip-rule="evenodd" d="M21.9999 10.9997H63.9998C75.0456 10.9997 83.9999 19.954 83.9999 30.9997V65.9997C83.9999 77.0453 75.0456 86 63.9998 86H21.9999C10.9542 86 1.99988 77.0453 1.99988 65.9997V30.9997C1.99988 19.954 10.9542 10.9997 21.9999 10.9997Z" fill="#D3F2ED"/>
<path d="M87.6867 4.47974H26.3133C23.9348 4.47974 22 6.41458 22 8.79294V50.4393C22 52.8176 23.9348 54.7525 26.3133 54.7525H47.0708L46.2312 61.4693H42.7525C42.1861 61.4693 41.7271 61.9284 41.7271 62.4947C41.7271 63.061 42.1861 63.5201 42.7525 63.5201H71.2475C71.8139 63.5201 72.2729 63.061 72.2729 62.4947C72.2729 61.9284 71.8139 61.4693 71.2475 61.4693H67.7689L66.9292 54.7525H87.6867C90.065 54.7525 92 52.8176 92 50.4393V8.79294C92 6.41458 90.0652 4.47974 87.6867 4.47974ZM48.298 61.4693L49.1377 54.7525H52.9116L53.2818 56.2331C53.7092 57.9425 55.2382 59.1362 57.0001 59.1362C58.762 59.1362 60.2911 57.9425 60.7185 56.2331L61.0887 54.7525H64.8626L65.702 61.4693H48.298ZM55.0254 54.7525H58.9745L58.7287 55.7357C58.53 56.5305 57.8192 57.0854 56.9999 57.0854C56.1805 57.0854 55.4698 56.5303 55.2711 55.7357L55.0254 54.7525ZM89.9492 50.4393C89.9492 51.6868 88.9342 52.7017 87.6867 52.7017H26.3133C25.0658 52.7017 24.0508 51.6868 24.0508 50.4393V8.79294C24.0508 7.54538 25.0658 6.53052 26.3133 6.53052H87.6867C88.9342 6.53052 89.9492 7.54538 89.9492 8.79294V50.4393Z" fill="#8975F3"/>
<path d="M80.015 8.86377H27.4092C26.8428 8.86377 26.3838 9.32273 26.3838 9.88916V49.3435C26.3838 49.9099 26.8428 50.3689 27.4092 50.3689H29.6012C30.1676 50.3689 30.6266 49.9099 30.6266 49.3435C30.6267 48.7772 30.1676 48.3181 29.6013 48.3181H28.4347V10.9146H80.015C80.5814 10.9146 81.0404 10.4554 81.0404 9.88916C81.0404 9.32273 80.5814 8.86377 80.015 8.86377Z" fill="#8975F3"/>
<path d="M86.5909 8.86377H84.3989C83.8324 8.86377 83.3735 9.32273 83.3735 9.88916C83.3735 10.4554 83.8324 10.9146 84.3989 10.9146H85.5655V48.3181H33.985C33.4186 48.3181 32.9597 48.7772 32.9597 49.3435C32.9597 49.9099 33.4186 50.3689 33.985 50.3689H86.5907C87.1572 50.3689 87.6161 49.9099 87.6161 49.3435V9.88916C87.6163 9.32273 87.1572 8.86377 86.5909 8.86377Z" fill="#8975F3"/>
<path d="M70.9591 20.2166C70.7748 19.981 70.4968 19.8377 70.1982 19.8242L46.0873 18.7281C46.0684 18.7273 46.05 18.7269 46.031 18.7272C45.8882 18.2586 45.5866 17.8523 45.1784 17.58L42.2257 15.6115C41.7545 15.2974 41.1178 15.4247 40.8038 15.896C40.4898 16.3673 40.617 17.0038 41.0882 17.3179L44.0408 19.2861C44.0547 19.2954 44.065 19.3094 44.0696 19.3256L47.8306 32.489C47.9479 32.8994 48.141 33.2683 48.3888 33.5868L47.0128 36.339C46.6815 37.0014 46.7162 37.7729 47.1056 38.4029C47.2468 38.6314 47.4259 38.8259 47.6317 38.9818C47.3623 39.4519 47.2074 39.9958 47.2074 40.5755C47.2074 42.3496 48.6508 43.7928 50.4247 43.7928C52.1986 43.7928 53.642 42.3494 53.642 40.5755C53.642 40.1641 53.5635 39.7709 53.4221 39.409H62.7706C62.6292 39.7709 62.5507 40.1641 62.5507 40.5755C62.5507 42.3496 63.9941 43.7928 65.768 43.7928C67.5419 43.7928 68.9852 42.3494 68.9852 40.5755C68.9852 40.0609 68.8632 39.5746 68.6474 39.1428C68.8544 38.9552 68.9852 38.6851 68.9852 38.3836C68.9852 37.8173 68.5263 37.3582 67.9599 37.3582H48.9097C48.8951 37.3582 48.8704 37.3582 48.8497 37.3247C48.8291 37.2914 48.8401 37.2694 48.8467 37.2561L50.1144 34.7209C50.3723 34.7872 50.6411 34.8231 50.9162 34.8231C51.043 34.8231 51.1709 34.8155 51.2997 34.8005L65.708 33.1055C67.5688 32.8864 69.066 31.505 69.4335 29.6675L71.157 21.0496C71.2157 20.7563 71.1434 20.4521 70.9591 20.2166ZM65.7677 39.4093C66.411 39.4093 66.9342 39.9326 66.9342 40.5758C66.9342 41.219 66.411 41.7423 65.7677 41.7423C65.1244 41.7423 64.6012 41.219 64.6012 40.5758C64.6012 39.9325 65.1244 39.4093 65.7677 39.4093ZM50.4244 39.4093C51.0677 39.4093 51.5909 39.9325 51.5909 40.5758C51.5909 41.219 51.0677 41.7423 50.4244 41.7423C49.7812 41.7423 49.2579 41.219 49.2579 40.5758C49.2579 39.9325 49.7812 39.4093 50.4244 39.4093ZM47.9099 25.3029L46.6249 20.8056L50.7244 20.9919L51.4352 25.3029H47.9099ZM51.0602 32.7638C50.4884 32.8311 49.96 32.4785 49.8022 31.9257L48.4959 27.3537H51.7733L52.6348 32.5785L51.0602 32.7638ZM57.0707 32.0567L54.6738 32.3387L53.852 27.3538H57.0707V32.0567ZM57.0707 25.3029H53.5137L52.8187 21.0872L57.0707 21.2805V25.3029ZM62.2636 31.4457L59.1215 31.8154V27.3537H62.634L62.2636 31.4457ZM62.8196 25.3029H59.1215V21.3736L63.1587 21.5571L62.8196 25.3029ZM67.4224 29.2656C67.2296 30.2292 66.4443 30.9539 65.4683 31.0688L64.3449 31.201L64.6931 27.3538H67.8047L67.4224 29.2656ZM68.215 25.3029H64.8789L65.2095 21.6503L68.9118 21.8186L68.215 25.3029Z" fill="#8975F3"/>
</g>
<defs>
<clipPath id="clip0">
<rect width="95" height="87" fill="white"/>
</clipPath>
</defs>
</svg>
