<svg xmlns="http://www.w3.org/2000/svg" viewBox="0 0 688.37 125.11">
    <title>TernaryAsset 9Excellence</title>
    <g id="Layer_2" data-name="Layer 2">
        <g id="Layer_1-2" data-name="Layer 1">
            <polygon points="113.75 17.15 74.44 55.78 113.75 94.46 113.75 17.15" style="fill:#fff"/>
            <polyline points="0 93.68 0 111.57 18.68 110.39 55.37 73.83 55.37 111.57 95.2 111.57 56.55 72.52 56.68 39.02 95.27 0.37 55.31 0.37 55.18 29.49 55.18 37.65 52.89 35.43 18.54 1.15 0 0.37 0.39 17.8 38.33 55.8" style="fill:#fff"/>
            <path d="M180,61.94H137.45a11.27,11.27,0,0,1-11.17-11.17V11.17a10.8,10.8,0,0,1,3.23-7.94A10.8,10.8,0,0,1,137.45,0H180V10.69H137V25.6h43V36.33H137V51.21h43Z" style="fill:#fff"/>
            <path d="M218,31l20.63,31H226L211.73,40.3,197.42,61.94H184.91l20.63-31L184.91,0h12.51l14.31,21.59L226,0h12.6Z" style="fill:#fff"/>
            <path d="M255.87,51.21h43V61.94H256.31a11.25,11.25,0,0,1-11.17-11.17V11.17a10.8,10.8,0,0,1,3.23-7.94A10.8,10.8,0,0,1,256.31,0h42.57V10.69h-43Z" style="fill:#fff"/>
            <path d="M355.49,61.94H312.92a11.27,11.27,0,0,1-11.17-11.17V11.17A10.8,10.8,0,0,1,305,3.23,10.8,10.8,0,0,1,312.92,0h42.57V10.69h-43V25.6h43V36.33h-43V51.21h43Z" style="fill:#fff"/>
            <path d="M372.89,49.42h32.28V61.94H371.54a11.27,11.27,0,0,1-11.17-11.17V0h12.52Z" style="fill:#fff"/>
            <path d="M421.48,49.42h32.28V61.94H420.13A11.27,11.27,0,0,1,409,50.77V0h12.52Z" style="fill:#fff"/>
            <path d="M511.29,61.94H468.72a11.27,11.27,0,0,1-11.17-11.17V11.17a10.8,10.8,0,0,1,3.23-7.94A10.8,10.8,0,0,1,468.72,0h42.57V10.69h-43V25.6h43V36.33h-43V51.21h43Z" style="fill:#fff"/>
            <path d="M559.09,43V0h10.82V61.94H559.09L526.9,18.76V61.94H516.17V0H526.9Z" style="fill:#fff"/>
            <path d="M588.75,51.21h43V61.94H589.19A11.25,11.25,0,0,1,578,50.77V11.17a10.8,10.8,0,0,1,3.23-7.94A10.8,10.8,0,0,1,589.19,0h42.57V10.69h-43Z" style="fill:#fff"/>
            <path d="M688.37,61.94H645.8a11.25,11.25,0,0,1-11.16-11.17V11.17A11,11,0,0,1,645.8,0h42.57V10.69h-43V25.6h43V36.33h-43V51.21h43Z" style="fill:#fff"/>
            <g id="technologies_Expanded" data-name="technologies Expanded">
                <path d="M132.5,114.22V95.71h-3.85V91.08h3.85V82.31h5v8.77h3.85v4.63h-3.85v18.51Z" style="fill:#fff"/>
                <path d="M193,103.43H175.43a8.11,8.11,0,0,0,1.83,5.07,5.64,5.64,0,0,0,4.39,1.81,7.2,7.2,0,0,0,4.06-1.07,8.81,8.81,0,0,0,2.83-3.47l4.24,2.49a13.31,13.31,0,0,1-4.59,5.2,11.9,11.9,0,0,1-6.43,1.71,10.92,10.92,0,0,1-8.42-3.39,12.86,12.86,0,0,1-3.13-9.06,12.67,12.67,0,0,1,3.24-9,10.83,10.83,0,0,1,8.31-3.5q5.31,0,8.28,3.2t3,9Zm-5.22-3.57A5.67,5.67,0,0,0,186,96.07a6.08,6.08,0,0,0-4.12-1.31,6,6,0,0,0-4,1.27,6.89,6.89,0,0,0-2.11,3.83Z" style="fill:#fff"/>
                <path d="M240.8,97.67a7.84,7.84,0,0,0-6-2.76,6.25,6.25,0,0,0-4.94,2.1,9.4,9.4,0,0,0,0,11.24,6.58,6.58,0,0,0,5.16,2.06,7.21,7.21,0,0,0,3.27-.72,7.12,7.12,0,0,0,2.53-2.18v6.1a11.48,11.48,0,0,1-3,1.25,13.67,13.67,0,0,1-3.38.41,11,11,0,0,1-8.43-3.46,12.61,12.61,0,0,1-3.26-9,12.31,12.31,0,0,1,3.38-9A11.81,11.81,0,0,1,235,90.27a13.38,13.38,0,0,1,3.15.35,10.26,10.26,0,0,1,2.7,1.09Z" style="fill:#fff"/>
                <path d="M272.07,114.22V76.38h4.73V94.86a9.68,9.68,0,0,1,3.55-3.49,10.36,10.36,0,0,1,5-1.1,9.69,9.69,0,0,1,4.19.82,6.12,6.12,0,0,1,2.7,2.43,6.88,6.88,0,0,1,.83,2.22,25.94,25.94,0,0,1,.26,4.44v14h-5.08V102.33q0-4.56-1.06-6.07c-.7-1-1.95-1.5-3.74-1.5a6.91,6.91,0,0,0-3.14.69,5.19,5.19,0,0,0-2.17,1.92,5.56,5.56,0,0,0-.78,2.14,27.41,27.41,0,0,0-.22,4.16v10.55Z" style="fill:#fff"/>
                <path d="M326.11,114.22V91.08h4.73v3.78a9.76,9.76,0,0,1,3.55-3.49,10.4,10.4,0,0,1,5-1.1,9.65,9.65,0,0,1,4.18.82,6.06,6.06,0,0,1,2.7,2.43,6.66,6.66,0,0,1,.84,2.22,26.24,26.24,0,0,1,.25,4.44v14h-5.07V102.33c0-3-.36-5.06-1.06-6.07s-1.95-1.5-3.75-1.5a6.94,6.94,0,0,0-3.14.69,5.25,5.25,0,0,0-2.17,1.92,5.4,5.4,0,0,0-.77,2.14,27.41,27.41,0,0,0-.22,4.16v10.55Z" style="fill:#fff"/>
                <path d="M378.54,102.67a12.69,12.69,0,0,1,.91-4.8,12.4,12.4,0,0,1,2.63-4,12,12,0,0,1,13.19-2.66,11.91,11.91,0,0,1,3.93,2.73,12.24,12.24,0,0,1,2.64,4,12.38,12.38,0,0,1,.91,4.71,12.82,12.82,0,0,1-.9,4.81,11.68,11.68,0,0,1-2.6,4,12.5,12.5,0,0,1-4,2.77,11.8,11.8,0,0,1-9.23,0,11.78,11.78,0,0,1-3.92-2.72,12.43,12.43,0,0,1-2.64-4.05A12.75,12.75,0,0,1,378.54,102.67Zm18.9,0a7.94,7.94,0,0,0-2-5.45,6.31,6.31,0,0,0-9.64,0,8.5,8.5,0,0,0,0,10.91,6.3,6.3,0,0,0,9.62,0A7.9,7.9,0,0,0,397.44,102.72Z" style="fill:#fff"/>
                <path d="M434.44,114.22V76.38h5v37.84Z" style="fill:#fff"/>
                <path d="M471.16,102.67a12.69,12.69,0,0,1,.91-4.8,12.43,12.43,0,0,1,2.64-4,12,12,0,0,1,13.18-2.66,11.91,11.91,0,0,1,3.93,2.73,12.43,12.43,0,0,1,2.65,4,12.57,12.57,0,0,1,.9,4.71,13,13,0,0,1-.89,4.81,11.85,11.85,0,0,1-2.61,4,12.46,12.46,0,0,1-4,2.77,11.66,11.66,0,0,1-4.64.94,11.53,11.53,0,0,1-4.59-.94,11.68,11.68,0,0,1-3.92-2.72,12.62,12.62,0,0,1-2.65-4.05A12.75,12.75,0,0,1,471.16,102.67Zm18.9,0a7.94,7.94,0,0,0-2-5.45,6.31,6.31,0,0,0-9.64,0,8.5,8.5,0,0,0,0,10.91,6.31,6.31,0,0,0,9.63,0A7.94,7.94,0,0,0,490.06,102.72Z" style="fill:#fff"/>
                <path d="M547.52,112.78q0,6.78-2.58,9.56t-8.67,2.77a11.93,11.93,0,0,1-7.26-2,6.47,6.47,0,0,1-2.76-5.36l5.4,0A2.84,2.84,0,0,0,533,120a6.25,6.25,0,0,0,3.39.78c2.15,0,3.7-.49,4.64-1.49s1.42-2.65,1.44-5l0-3.07a9,9,0,0,1-3.14,3,8.5,8.5,0,0,1-4.12,1,8.91,8.91,0,0,1-7.34-3.35c-1.78-2.24-2.68-5.31-2.68-9.2a13.86,13.86,0,0,1,2.74-8.94,8.75,8.75,0,0,1,7.14-3.41,8.59,8.59,0,0,1,4.61,1.18,6.9,6.9,0,0,1,2.79,3.41V91.08h5Zm-4.9-10.21A8.79,8.79,0,0,0,541,97a5.36,5.36,0,0,0-4.44-2A5.43,5.43,0,0,0,532.1,97a9,9,0,0,0-1.63,5.73,9,9,0,0,0,1.58,5.69,5.76,5.76,0,0,0,8.87-.17A9,9,0,0,0,542.62,102.57Z" style="fill:#fff"/>
                <path d="M580.15,81.07a3.25,3.25,0,0,1,.94-2.32,3,3,0,0,1,2.24-1,2.94,2.94,0,0,1,2.24.94,3.27,3.27,0,0,1,.89,2.36,3.37,3.37,0,0,1-.9,2.38,2.94,2.94,0,0,1-2.23,1,3,3,0,0,1-2.24-1A3.32,3.32,0,0,1,580.15,81.07Zm.68,33.15V91.08h5v23.14Z" style="fill:#fff"/>
                <path d="M640.35,103.43H622.77a8,8,0,0,0,1.83,5.07,5.63,5.63,0,0,0,4.38,1.81,7.16,7.16,0,0,0,4.06-1.07,8.73,8.73,0,0,0,2.83-3.47l4.24,2.49a13.16,13.16,0,0,1-4.59,5.2,11.84,11.84,0,0,1-6.42,1.71,10.9,10.9,0,0,1-8.42-3.39,12.81,12.81,0,0,1-3.13-9.06,12.71,12.71,0,0,1,3.23-9,10.84,10.84,0,0,1,8.32-3.5q5.31,0,8.28,3.2t3,9Zm-5.22-3.57a5.71,5.71,0,0,0-1.81-3.79,6.11,6.11,0,0,0-4.13-1.31,6,6,0,0,0-4,1.27,7,7,0,0,0-2.11,3.83Z" style="fill:#fff"/>
                <path d="M669.18,110l4.18-2.39a4.65,4.65,0,0,0,1.71,2.64,5.41,5.41,0,0,0,3.23.9,3.93,3.93,0,0,0,2.65-.82,2.77,2.77,0,0,0,1-2.23c0-1.26-1.14-2.33-3.43-3.23-.77-.29-1.37-.53-1.78-.73a14.13,14.13,0,0,1-4.93-3.12,5.61,5.61,0,0,1-1.4-3.86,6.23,6.23,0,0,1,2.3-5,9.21,9.21,0,0,1,6.11-1.93,9.08,9.08,0,0,1,4.38,1A6,6,0,0,1,685.81,94l-3.57,2.59a3.41,3.41,0,0,0-1.38-1.75,4.08,4.08,0,0,0-2.28-.64,3.56,3.56,0,0,0-2.31.71,2.38,2.38,0,0,0-.87,1.92q0,1.81,3.89,3.3c.82.31,1.46.56,1.91.75a11.14,11.14,0,0,1,4.34,2.87,6.07,6.07,0,0,1,1.31,4,6.66,6.66,0,0,1-2.38,5.44,10.09,10.09,0,0,1-6.59,2,10.3,10.3,0,0,1-5.36-1.27A8.51,8.51,0,0,1,669.18,110Z" style="fill:#fff"/>
            </g>
            <polygon points="0 0.37 17.83 0.44 19.73 2.34 0 0.37" style="fill:#fff"/>
            <polygon points="17.83 111.57 0 111.57 18.68 110.39 17.83 111.57" style="fill:#fff"/>
        </g>
    </g>
</svg>