<svg width="70" height="70" viewBox="0 0 70 70" fill="none" xmlns="http://www.w3.org/2000/svg">
<path d="M0 58.5785C0.125417 60.1244 0.670833 61.6789 2.09417 63.7644C3.78583 66.2406 6.69083 67.5998 8.81125 65.4181C10.2404 63.9452 25.7104 36.9048 33.1654 26.6556C33.37 26.3626 33.6423 26.1233 33.9591 25.958C34.276 25.7928 34.6281 25.7065 34.9854 25.7065C35.3428 25.7065 35.6949 25.7928 36.0117 25.958C36.3286 26.1233 36.6009 26.3626 36.8054 26.6556C44.2604 36.9048 59.7304 63.9452 61.1596 65.4181C63.28 67.5998 66.185 66.2406 67.8767 63.7644C69.5392 61.3289 70 59.6227 70 57.7969C70 56.5544 45.9083 11.7194 43.4817 7.98603C41.1483 4.39853 40.4367 3.61686 36.4904 3.48853H33.4804C29.5342 3.61686 28.8225 4.39561 26.4863 7.98603C24.1121 11.6406 0.9625 54.711 0 57.6627V58.5785Z" fill="white"/>
</svg>
