<svg width="56" height="56" viewBox="0 0 56 56" fill="none" xmlns="http://www.w3.org/2000/svg">
<path d="M3.115 0H52.92C54.635 0 56 1.365 56 3.08V52.92C56 54.6 54.635 56 52.92 56H38.64V34.3H45.92L47.005 25.865H38.64V20.475C38.64 18.025 39.34 16.345 42.84 16.345H47.32V8.785C46.55 8.68 43.89 8.47 40.81 8.47C34.335 8.47 29.925 12.39 29.925 19.635V25.865H22.61V34.3H29.925V56H3.115C2.29488 56.0001 1.50782 55.6767 0.924645 55.1C0.341465 54.5234 0.00921484 53.7401 0 52.92V3.08C0 1.365 1.4 0 3.115 0Z" fill="#109AAA"/>
</svg>
