<svg width="70" height="70" viewBox="0 0 70 70" fill="none" xmlns="http://www.w3.org/2000/svg">
<g clip-path="url(#clip0)">
<path d="M35.5578 6.93909C29.4668 6.79902 23.5043 8.70349 18.6222 12.3485C13.7401 15.9935 10.2198 21.169 8.62317 27.0488C8.77192 26.9919 8.46348 27.0838 8.62317 27.0488C-2.67965 34.4885 -2.81527 50.7 7.90567 58.9622L7.9166 58.9403L7.89473 59.0322C11.3215 61.6141 15.4998 63.0025 19.7904 62.985H34.8754L34.9672 63.0638H50.1091C69.615 63.2235 77.4529 37.9753 61.2982 27.0488C59.9113 21.916 57.052 17.3017 53.0732 13.775L52.9485 13.8997L52.9594 13.751C48.1438 9.50167 41.9828 7.08856 35.5622 6.93691L35.5578 6.93909ZM34.51 19.0382C38.1325 18.9135 41.8579 20.11 44.6732 22.3872C46.4118 23.8367 47.8026 25.6581 48.7431 27.717C49.6836 29.7759 50.1497 32.0197 50.1069 34.2828V35.7988C60.4057 35.5932 60.4057 51.1463 50.1069 50.9407H34.965L34.9432 50.9625V50.8488H19.7904C18.7185 50.8488 17.6597 50.6213 16.6797 50.1772C11.8607 48.0007 10.71 41.6657 14.4463 37.9185C18.1957 34.1822 24.5175 35.3328 26.705 40.1519L35.49 31.3669C32.5701 27.5609 28.3611 24.9519 23.6535 24.03C23.7104 24.0082 23.7672 23.9622 23.8132 23.9732C25.176 22.4744 26.8266 21.2653 28.6666 20.4178C30.5066 19.5704 32.4983 19.1019 34.5232 19.0403L34.51 19.0382Z" fill="white"/>
</g>
<defs>
<clipPath id="clip0">
<rect width="70" height="70" fill="white"/>
</clipPath>
</defs>
</svg>
