<svg width="70" height="70" viewBox="0 0 70 70" fill="none" xmlns="http://www.w3.org/2000/svg">
<path d="M59.6313 59.6553H49.2778V43.4087C49.2778 39.5347 49.1969 34.5559 43.8638 34.5559C38.465 34.5559 37.6425 38.7581 37.6425 43.1222V59.6531H27.2759V26.2478H37.2334V30.8044H37.3669C38.7581 28.1728 42.1422 25.4056 47.1909 25.4056C57.6931 25.4056 59.6422 32.3203 59.6422 41.3109V59.6531L59.6313 59.6553ZM15.5641 21.6825C14.7728 21.6828 13.9892 21.527 13.2583 21.224C12.5273 20.921 11.8633 20.4767 11.3043 19.9167C10.7453 19.3567 10.3023 18.6919 10.0006 17.9604C9.69892 17.2289 9.54452 16.445 9.54625 15.6538C9.54755 14.4628 9.90196 13.2989 10.5647 12.3093C11.2274 11.3198 12.1686 10.5489 13.2694 10.0942C14.3702 9.63957 15.5811 9.5215 16.7489 9.75496C17.9168 9.98843 18.9892 10.5629 19.8306 11.4059C20.672 12.2488 21.2446 13.3222 21.4759 14.4905C21.7073 15.6588 21.587 16.8695 21.1303 17.9694C20.6737 19.0694 19.9011 20.0092 18.9103 20.6702C17.9195 21.3311 16.755 21.6834 15.5641 21.6825V21.6825ZM20.7572 59.6553H10.3687V26.25H20.7572V59.6553ZM64.8287 0H5.1625C2.31219 0 0 2.25531 0 5.04656V64.9556C0 67.7469 2.31219 70.0022 5.1625 70.0022H64.8178C67.6638 70.0022 70 67.7469 70 64.9556V5.04656C70 2.25531 67.6638 0 64.8178 0H64.8287Z" fill="#109AAA"/>
</svg>
