<svg width="85" height="93" viewBox="0 0 85 93" fill="none" xmlns="http://www.w3.org/2000/svg">
<g clip-path="url(#clip0)">
<path fill-rule="evenodd" clip-rule="evenodd" d="M22 16.9997H63.9999C75.0457 16.9997 83.9999 25.954 83.9999 36.9997V71.9997C83.9999 83.0453 75.0457 92 63.9999 92H22C10.9542 92 1.99988 83.0453 1.99988 71.9997V36.9997C1.99988 25.954 10.9542 16.9997 22 16.9997Z" fill="#D3F2ED"/>
<path d="M67.1859 6.1875H38.8141C36.6102 6.1875 34.4063 8.305 34.4073 10.4214L34.4062 67.5786C34.4062 69.695 36.6102 71.8125 38.8141 71.8125H67.1859C69.3909 71.8125 71.5938 69.695 71.5938 67.5786V10.4214C71.5938 8.305 69.3898 6.1875 67.1859 6.1875ZM64.8781 9.77609C65.448 9.77609 65.9117 10.2344 65.9117 10.802C65.9117 11.3675 65.448 11.828 64.8781 11.828C64.3083 11.828 63.8467 11.3675 63.8467 10.802C63.847 10.6669 63.8739 10.5332 63.9259 10.4085C63.9779 10.2838 64.054 10.1706 64.1498 10.0753C64.2456 9.98001 64.3592 9.90454 64.4842 9.8532C64.6091 9.80186 64.743 9.77566 64.8781 9.77609ZM50.2098 10.3252H55.7902C55.9619 10.3252 56.0986 10.5527 56.0986 10.8359C56.0986 11.1203 55.9619 11.3511 55.7902 11.3511H50.2098C50.0403 11.3511 49.9014 11.1203 49.9014 10.8359C49.9014 10.5538 50.0403 10.3252 50.2098 10.3252ZM56.8741 67.9669C56.8738 68.0683 56.8535 68.1687 56.8143 68.2623C56.7752 68.3559 56.7179 68.4408 56.6459 68.5123C56.5739 68.5837 56.4884 68.6402 56.3945 68.6786C56.3006 68.7169 56.2 68.7364 56.0986 68.7358H49.9014C49.8 68.7364 49.6994 68.7169 49.6055 68.6786C49.5116 68.6402 49.4261 68.5837 49.3541 68.5123C49.2821 68.4408 49.2248 68.3559 49.1857 68.2623C49.1465 68.1687 49.1262 68.0683 49.1259 67.9669V66.4291C49.1259 66.0036 49.4727 65.6602 49.9014 65.6602H56.0986C56.5273 65.6602 56.8741 66.0036 56.8741 66.4291V67.9669ZM68.4952 63.6094H37.5048V14.3906H68.4941V63.6094H68.4952Z" fill="#8975F3"/>
<path d="M40.5236 22.081H43.9416C44.0538 22.0813 44.165 22.0594 44.2687 22.0167C44.3725 21.9739 44.4668 21.9111 44.5462 21.8319C44.6257 21.7526 44.6887 21.6585 44.7317 21.5549C44.7747 21.4512 44.7969 21.3401 44.7969 21.2279V17.8099C44.7969 17.5831 44.7068 17.3655 44.5464 17.2051C44.386 17.0447 44.1684 16.9546 43.9416 16.9546H40.5236C40.4114 16.9546 40.3003 16.9767 40.1966 17.0197C40.093 17.0627 39.9988 17.1258 39.9196 17.2052C39.8403 17.2847 39.7775 17.379 39.7348 17.4828C39.692 17.5865 39.6702 17.6977 39.6705 17.8099V21.2279C39.6705 21.6993 40.0522 22.081 40.5236 22.081Z" fill="#8975F3"/>
<path d="M47.7008 22.081H51.1188C51.231 22.0813 51.3421 22.0594 51.4459 22.0167C51.5497 21.9739 51.644 21.9111 51.7234 21.8319C51.8029 21.7526 51.8659 21.6585 51.9089 21.5549C51.9519 21.4512 51.9741 21.3401 51.9741 21.2279V17.8099C51.9741 17.5831 51.884 17.3655 51.7235 17.2051C51.5631 17.0447 51.3456 16.9546 51.1188 16.9546H47.7008C47.5886 16.9546 47.4775 16.9767 47.3738 17.0197C47.2702 17.0627 47.176 17.1258 47.0968 17.2052C47.0175 17.2847 46.9547 17.379 46.912 17.4828C46.8692 17.5865 46.8474 17.6977 46.8477 17.8099V21.2279C46.8477 21.6993 47.2305 22.081 47.7008 22.081Z" fill="#8975F3"/>
<path d="M54.8791 22.081H58.297C58.4093 22.0813 58.5204 22.0594 58.6242 22.0167C58.7279 21.9739 58.8223 21.9111 58.9017 21.8319C58.9812 21.7526 59.0442 21.6585 59.0872 21.5549C59.1302 21.4512 59.1524 21.3401 59.1524 21.2279V17.8099C59.1524 17.5831 59.0622 17.3655 58.9018 17.2051C58.7414 17.0447 58.5239 16.9546 58.297 16.9546H54.8791C54.7668 16.9546 54.6557 16.9767 54.5521 17.0197C54.4484 17.0627 54.3543 17.1258 54.275 17.2052C54.1958 17.2847 54.133 17.379 54.0903 17.4828C54.0475 17.5865 54.0257 17.6977 54.0259 17.8099V21.2279C54.0259 21.6993 54.4077 22.081 54.8791 22.081Z" fill="#8975F3"/>
<path d="M62.0563 22.081H65.4742C65.5864 22.0813 65.6976 22.0594 65.8014 22.0167C65.9051 21.9739 65.9994 21.9111 66.0789 21.8319C66.1583 21.7526 66.2214 21.6585 66.2644 21.5549C66.3074 21.4512 66.3295 21.3401 66.3295 21.2279V17.8099C66.3295 17.5831 66.2394 17.3655 66.079 17.2051C65.9186 17.0447 65.7011 16.9546 65.4742 16.9546H62.0563C61.944 16.9546 61.8329 16.9767 61.7293 17.0197C61.6256 17.0627 61.5315 17.1258 61.4522 17.2052C61.373 17.2847 61.3102 17.379 61.2674 17.4828C61.2247 17.5865 61.2028 17.6977 61.2031 17.8099V21.2279C61.2031 21.6993 61.5859 22.081 62.0563 22.081Z" fill="#8975F3"/>
<path d="M40.5236 61.5585H43.9416C44.0538 61.5588 44.165 61.537 44.2687 61.4942C44.3725 61.4515 44.4668 61.3887 44.5462 61.3094C44.6257 61.2302 44.6887 61.136 44.7317 61.0324C44.7747 60.9287 44.7969 60.8176 44.7969 60.7054V57.2864C44.7969 57.1741 44.7747 57.0629 44.7317 56.9592C44.6888 56.8555 44.6257 56.7613 44.5463 56.6819C44.4669 56.6026 44.3726 56.5397 44.2688 56.4968C44.165 56.454 44.0538 56.432 43.9416 56.4321H40.5236C40.4115 56.4321 40.3004 56.4542 40.1969 56.4972C40.0933 56.5401 39.9992 56.6031 39.92 56.6824C39.8407 56.7617 39.7779 56.8559 39.7351 56.9595C39.6923 57.0632 39.6703 57.1742 39.6705 57.2864V60.7054C39.6705 61.1757 40.0522 61.5585 40.5236 61.5585Z" fill="#8975F3"/>
<path d="M47.7008 61.5585H51.1188C51.231 61.5588 51.3421 61.537 51.4459 61.4942C51.5497 61.4515 51.644 61.3887 51.7234 61.3094C51.8029 61.2302 51.8659 61.136 51.9089 61.0324C51.9519 60.9287 51.9741 60.8176 51.9741 60.7054V57.2864C51.9741 57.1741 51.9519 57.0629 51.9089 56.9592C51.8659 56.8555 51.8029 56.7613 51.7235 56.6819C51.644 56.6026 51.5497 56.5397 51.446 56.4968C51.3422 56.454 51.231 56.432 51.1188 56.4321H47.7008C47.5887 56.4321 47.4776 56.4542 47.3741 56.4972C47.2705 56.5401 47.1764 56.6031 47.0971 56.6824C47.0179 56.7617 46.9551 56.8559 46.9123 56.9595C46.8695 57.0632 46.8475 57.1742 46.8477 57.2864V60.7054C46.8477 61.1757 47.2305 61.5585 47.7008 61.5585Z" fill="#8975F3"/>
<path d="M54.8791 61.5585H58.297C58.4093 61.5588 58.5204 61.537 58.6242 61.4942C58.7279 61.4515 58.8222 61.3887 58.9017 61.3094C58.9812 61.2302 59.0442 61.136 59.0872 61.0324C59.1302 60.9287 59.1523 60.8176 59.1523 60.7054V57.2864C59.1523 57.1741 59.1302 57.0629 59.0872 56.9592C59.0442 56.8555 58.9812 56.7613 58.9018 56.6819C58.8223 56.6026 58.728 56.5397 58.6243 56.4968C58.5205 56.454 58.4093 56.432 58.297 56.4321H54.8791C54.7669 56.4321 54.6559 56.4542 54.5523 56.4972C54.4488 56.5401 54.3547 56.6031 54.2754 56.6824C54.1962 56.7617 54.1334 56.8559 54.0906 56.9595C54.0478 57.0632 54.0258 57.1742 54.0259 57.2864V60.7054C54.0259 61.1757 54.4077 61.5585 54.8791 61.5585Z" fill="#8975F3"/>
<path d="M62.0562 61.5585H65.4742C65.5864 61.5588 65.6976 61.537 65.8014 61.4942C65.9051 61.4515 65.9994 61.3887 66.0789 61.3094C66.1583 61.2302 66.2214 61.136 66.2644 61.0324C66.3074 60.9287 66.3295 60.8176 66.3295 60.7054V57.2864C66.3295 57.1741 66.3074 57.0629 66.2644 56.9592C66.2214 56.8555 66.1584 56.7613 66.079 56.6819C65.9995 56.6026 65.9052 56.5397 65.8014 56.4968C65.6977 56.454 65.5865 56.432 65.4742 56.4321H62.0562C61.9441 56.4321 61.8331 56.4542 61.7295 56.4972C61.6259 56.5401 61.5318 56.6031 61.4526 56.6824C61.3734 56.7617 61.3106 56.8559 61.2678 56.9595C61.2249 57.0632 61.203 57.1742 61.2031 57.2864V60.7054C61.2031 61.1757 61.5859 61.5585 62.0562 61.5585Z" fill="#8975F3"/>
<path d="M40.5236 41.8198H43.9416C44.0538 41.8201 44.165 41.7982 44.2687 41.7555C44.3725 41.7127 44.4668 41.6499 44.5462 41.5707C44.6257 41.4914 44.6887 41.3973 44.7317 41.2936C44.7747 41.19 44.7969 41.0789 44.7969 40.9666V37.5476C44.7969 37.4353 44.7747 37.3241 44.7317 37.2204C44.6888 37.1167 44.6257 37.0225 44.5463 36.9432C44.4669 36.8638 44.3726 36.8009 44.2688 36.7581C44.165 36.7152 44.0538 36.6932 43.9416 36.6934H40.5236C40.4115 36.6934 40.3004 36.7155 40.1969 36.7584C40.0933 36.8013 39.9992 36.8643 39.92 36.9436C39.8407 37.023 39.7779 37.1171 39.7351 37.2208C39.6923 37.3244 39.6703 37.4355 39.6705 37.5476V40.9666C39.6705 41.438 40.0522 41.8198 40.5236 41.8198Z" fill="#8975F3"/>
<path d="M47.7008 41.8198H51.1188C51.231 41.8201 51.3421 41.7982 51.4459 41.7555C51.5497 41.7127 51.644 41.6499 51.7234 41.5707C51.8029 41.4914 51.8659 41.3973 51.9089 41.2936C51.9519 41.19 51.9741 41.0789 51.9741 40.9666V37.5476C51.9741 37.4353 51.9519 37.3241 51.9089 37.2204C51.8659 37.1167 51.8029 37.0225 51.7235 36.9432C51.644 36.8638 51.5497 36.8009 51.446 36.7581C51.3422 36.7152 51.231 36.6932 51.1188 36.6934H47.7008C47.5887 36.6934 47.4776 36.7155 47.3741 36.7584C47.2705 36.8013 47.1764 36.8643 47.0971 36.9436C47.0179 37.023 46.9551 37.1171 46.9123 37.2208C46.8695 37.3244 46.8475 37.4355 46.8477 37.5476V40.9666C46.8477 41.438 47.2305 41.8198 47.7008 41.8198Z" fill="#8975F3"/>
<path d="M54.8791 41.8198H58.297C58.4093 41.8201 58.5204 41.7982 58.6242 41.7555C58.7279 41.7127 58.8222 41.6499 58.9017 41.5707C58.9812 41.4914 59.0442 41.3973 59.0872 41.2936C59.1302 41.19 59.1523 41.0789 59.1523 40.9666V37.5476C59.1523 37.4353 59.1302 37.3241 59.0872 37.2204C59.0442 37.1167 58.9812 37.0225 58.9018 36.9432C58.8223 36.8638 58.728 36.8009 58.6243 36.7581C58.5205 36.7152 58.4093 36.6932 58.297 36.6934H54.8791C54.7669 36.6934 54.6559 36.7155 54.5523 36.7584C54.4488 36.8013 54.3547 36.8643 54.2754 36.9436C54.1962 37.023 54.1334 37.1171 54.0906 37.2208C54.0478 37.3244 54.0258 37.4355 54.0259 37.5476V40.9666C54.0259 41.438 54.4077 41.8198 54.8791 41.8198Z" fill="#8975F3"/>
<path d="M40.5236 35.2408H43.9416C44.4152 35.2408 44.7969 34.858 44.7969 34.3866V30.9697C44.7969 30.7429 44.7068 30.5253 44.5464 30.3649C44.386 30.2045 44.1684 30.1144 43.9416 30.1144H40.5236C40.4114 30.1144 40.3003 30.1365 40.1966 30.1795C40.093 30.2225 39.9988 30.2856 39.9196 30.365C39.8403 30.4445 39.7775 30.5388 39.7348 30.6425C39.692 30.7463 39.6702 30.8575 39.6705 30.9697V34.3866C39.6703 34.4987 39.6923 34.6097 39.7351 34.7134C39.7779 34.817 39.8407 34.9112 39.92 34.9905C39.9992 35.0699 40.0933 35.1328 40.1969 35.1757C40.3004 35.2187 40.4115 35.2408 40.5236 35.2408Z" fill="#8975F3"/>
<path d="M47.7008 35.2408H51.1188C51.5923 35.2408 51.9741 34.858 51.9741 34.3866V30.9697C51.9741 30.7429 51.884 30.5253 51.7235 30.3649C51.5631 30.2045 51.3456 30.1144 51.1188 30.1144H47.7008C47.5886 30.1144 47.4775 30.1365 47.3738 30.1795C47.2702 30.2225 47.176 30.2856 47.0968 30.365C47.0175 30.4445 46.9547 30.5388 46.912 30.6425C46.8692 30.7463 46.8474 30.8575 46.8477 30.9697V34.3866C46.8477 34.858 47.2305 35.2408 47.7008 35.2408Z" fill="#8975F3"/>
<path d="M54.8791 35.2408H58.297C58.7706 35.2408 59.1524 34.858 59.1524 34.3866V30.9697C59.1524 30.7429 59.0622 30.5253 58.9018 30.3649C58.7414 30.2045 58.5239 30.1144 58.297 30.1144H54.8791C54.7668 30.1144 54.6557 30.1365 54.5521 30.1795C54.4484 30.2225 54.3543 30.2856 54.275 30.365C54.1958 30.4445 54.133 30.5388 54.0903 30.6425C54.0475 30.7463 54.0257 30.8575 54.0259 30.9697V34.3866C54.0258 34.4987 54.0478 34.6097 54.0906 34.7134C54.1334 34.817 54.1962 34.9112 54.2754 34.9905C54.3547 35.0699 54.4488 35.1328 54.5523 35.1757C54.6559 35.2187 54.7669 35.2408 54.8791 35.2408Z" fill="#8975F3"/>
<path d="M62.0563 35.2408H65.4742C65.9478 35.2408 66.3295 34.858 66.3295 34.3866V30.9697C66.3295 30.7429 66.2394 30.5253 66.079 30.3649C65.9186 30.2045 65.7011 30.1144 65.4742 30.1144H62.0563C61.944 30.1144 61.8329 30.1365 61.7293 30.1795C61.6256 30.2225 61.5315 30.2856 61.4522 30.365C61.373 30.4445 61.3102 30.5388 61.2674 30.6425C61.2247 30.7463 61.2028 30.8575 61.2031 30.9697V34.3866C61.2031 34.858 61.5859 35.2408 62.0563 35.2408Z" fill="#8975F3"/>
<path d="M40.5236 28.6617H43.9416C44.4152 28.6617 44.7969 28.2789 44.7969 27.8064V24.3884C44.7969 23.9181 44.4141 23.5353 43.9416 23.5353H40.5236C40.2973 23.5353 40.0803 23.6252 39.9203 23.7852C39.7604 23.9451 39.6705 24.1621 39.6705 24.3884V27.8064C39.6702 27.9186 39.692 28.0298 39.7348 28.1335C39.7775 28.2373 39.8403 28.3316 39.9196 28.411C39.9988 28.4905 40.093 28.5535 40.1966 28.5965C40.3003 28.6395 40.4114 28.6617 40.5236 28.6617Z" fill="#8975F3"/>
<path d="M47.7008 28.6617H51.1188C51.5923 28.6617 51.9741 28.2789 51.9741 27.8064V24.3884C51.9741 23.9181 51.5913 23.5353 51.1188 23.5353H47.7008C47.4745 23.5353 47.2575 23.6252 47.0975 23.7852C46.9375 23.9451 46.8477 24.1621 46.8477 24.3884V27.8064C46.8477 28.2789 47.2305 28.6617 47.7008 28.6617Z" fill="#8975F3"/>
<path d="M54.8791 28.6617H58.297C58.7706 28.6617 59.1524 28.2789 59.1524 27.8064V24.3884C59.1524 23.9181 58.7695 23.5353 58.297 23.5353H54.8791C54.6528 23.5353 54.4358 23.6252 54.2758 23.7852C54.1158 23.9451 54.0259 24.1621 54.0259 24.3884V27.8064C54.0257 27.9186 54.0475 28.0298 54.0903 28.1335C54.133 28.2373 54.1958 28.3316 54.275 28.411C54.3543 28.4905 54.4484 28.5535 54.5521 28.5965C54.6557 28.6395 54.7668 28.6617 54.8791 28.6617Z" fill="#8975F3"/>
<path d="M62.0562 28.6617H65.4742C65.9478 28.6617 66.3295 28.2789 66.3295 27.8064V24.3884C66.3295 23.9181 65.9467 23.5353 65.4742 23.5353H62.0562C61.83 23.5353 61.613 23.6252 61.453 23.7852C61.293 23.9451 61.2031 24.1621 61.2031 24.3884V27.8064C61.2031 28.2789 61.5859 28.6617 62.0562 28.6617Z" fill="#8975F3"/>
</g>
<defs>
<clipPath id="clip0">
<rect width="85" height="93" fill="white"/>
</clipPath>
</defs>
</svg>
