<svg width="70" height="71" viewBox="0 0 70 71" fill="none" xmlns="http://www.w3.org/2000/svg">
<path d="M51.38 20.4941V26.9823C51.3536 29.4079 50.3876 31.7289 48.6852 33.457C46.9828 35.1852 44.6766 36.1858 42.2515 36.2485H27.6565C25.7105 36.2873 23.8569 37.0857 22.4916 38.473C21.1264 39.8603 20.3579 41.7265 20.3503 43.6729V57.5854C20.3503 61.5448 23.7934 63.8766 27.6565 65.0119C32.408 66.498 37.5 66.498 42.2515 65.0119C45.9309 63.9466 49.5578 61.8029 49.5578 57.5876V52.016H34.9628V50.1588H56.864C61.11 50.1588 62.6937 47.1969 64.1703 42.7519C65.6701 37.9145 65.6701 32.7363 64.1703 27.8988C63.1203 23.6726 61.1165 20.4919 56.864 20.4919L51.38 20.4941ZM43.1725 55.7304C43.7253 55.7221 44.2681 55.8786 44.7316 56.1799C45.1952 56.4813 45.5586 56.9137 45.7755 57.4223C45.9924 57.9309 46.053 58.4925 45.9496 59.0356C45.8461 59.5788 45.5834 60.0788 45.1948 60.4721C44.8061 60.8654 44.3092 61.134 43.7674 61.2439C43.2255 61.3538 42.6632 61.2999 42.1521 61.089C41.641 60.8782 41.2042 60.52 40.8974 60.06C40.5906 59.6001 40.4277 59.0592 40.4293 58.5063C40.4265 58.1436 40.4952 57.7839 40.6316 57.4479C40.768 57.1118 40.9694 56.8059 41.2242 56.5478C41.4791 56.2897 41.7823 56.0845 42.1167 55.9438C42.451 55.8032 42.8098 55.7299 43.1725 55.7282V55.7304Z" fill="white"/>
<path d="M34.639 4.87473C32.2989 4.87761 29.9632 5.07738 27.6565 5.47192C21.4725 6.56348 20.3503 8.84942 20.3503 13.0669V18.6341H34.9628V20.4913H14.8662C12.7153 20.4515 10.6195 21.1733 8.94916 22.529C7.2788 23.8848 6.14136 25.7872 5.73778 27.9004C4.36613 32.7557 4.36613 37.896 5.73778 42.7513C6.77684 47.076 9.25747 50.1582 13.5034 50.1582H18.5281V43.4841C18.5815 41.0845 19.5619 38.7988 21.2638 37.1063C22.9656 35.4139 25.2567 34.4461 27.6565 34.406H42.2515C43.2189 34.3988 44.1754 34.201 45.0663 33.824C45.9572 33.4469 46.7651 32.8978 47.4436 32.2083C48.1222 31.5188 48.6582 30.7022 49.021 29.8054C49.3837 28.9086 49.5661 27.949 49.5578 26.9816V13.0669C49.4349 11.1414 48.6335 9.32167 47.2958 7.93115C45.9581 6.54062 44.1709 5.66928 42.2515 5.47192C39.7352 5.0603 37.1888 4.86053 34.639 4.87473ZM26.7378 9.35473C27.2899 9.34649 27.8319 9.50256 28.2951 9.80311C28.7583 10.1037 29.1217 10.5351 29.3391 11.0426C29.5565 11.5502 29.6181 12.1109 29.5161 12.6535C29.4141 13.1962 29.1531 13.6962 28.7662 14.0902C28.3793 14.4842 27.8841 14.7542 27.3434 14.8661C26.8027 14.9779 26.241 14.9265 25.7296 14.7183C25.2182 14.5102 24.7802 14.1547 24.4713 13.6971C24.1623 13.2394 23.9964 12.7003 23.9947 12.1482C23.9894 11.4144 24.2751 10.7084 24.7893 10.1849C25.3034 9.66132 26.004 9.36281 26.7378 9.35473Z" fill="white"/>
</svg>
