<svg width="70" height="70" viewBox="0 0 70 70" fill="none" xmlns="http://www.w3.org/2000/svg">
<path d="M35 28.7568C31.5591 28.7568 28.7569 31.559 28.7569 35C28.7569 38.4409 31.5591 41.2431 35 41.2431C38.4409 41.2431 41.2431 38.4409 41.2431 35C41.2431 31.559 38.4409 28.7568 35 28.7568ZM17.5219 47.4075L16.1438 47.0662C5.88875 44.4675 0 40.0706 0 34.989C0 29.9075 5.89094 25.5106 16.1438 22.9118L17.5219 22.5706L17.9091 23.9378C18.9494 27.5187 20.2794 31.0091 21.8859 34.3743L22.1813 34.989L21.8859 35.6146C20.276 38.9784 18.9459 42.4691 17.9091 46.0512L17.5219 47.4075ZM15.5072 26.1012C7.71313 28.2887 2.92906 31.6487 2.92906 34.989C2.92906 38.3293 7.71531 41.6762 15.5072 43.8768C16.4624 40.842 17.6155 37.873 18.9591 34.989C17.6136 32.1058 16.4604 29.1367 15.5072 26.1012ZM52.4781 47.4075L52.0909 46.0403C51.0524 42.4622 49.7224 38.9753 48.1141 35.6146L47.8188 34.989L48.1141 34.3634C49.724 30.9996 51.0541 27.509 52.0909 23.9268L52.4781 22.5706L53.8563 22.9118C64.1113 25.5106 70 29.9075 70 34.989C70 40.0706 64.1091 44.4675 53.8563 47.0662L52.4781 47.4075ZM51.0409 34.989C52.389 37.8711 53.5422 40.8404 54.4928 43.8768C62.2978 41.6784 67.0709 38.3293 67.0709 34.989C67.0709 31.6487 62.2847 28.3018 54.4928 26.1012C53.5354 29.1353 52.3824 32.1041 51.0409 34.989ZM15.4831 26.0903L15.0959 24.7231C12.2128 14.56 13.09 7.26901 17.5 4.72714C21.8291 2.2312 28.7678 5.18214 36.0478 12.6568L37.0387 13.6718L36.0478 14.6868C33.4625 17.3766 31.1003 20.2722 28.9844 23.345L28.5863 23.9028L27.9016 23.9596C24.1795 24.2534 20.4873 24.8482 16.8612 25.7381L15.4831 26.0903ZM21.0197 6.75714C20.2344 6.75714 19.5388 6.91683 18.9569 7.25808C16.0628 8.9337 15.5509 14.7437 17.5438 22.5815C20.6532 21.886 23.8048 21.3949 26.9784 21.1115C28.8056 18.5092 30.8035 16.0312 32.9591 13.6937C28.4134 9.26183 24.1063 6.75495 21.0197 6.75495V6.75714ZM48.9912 66.1368C48.9803 66.1368 48.9803 66.1368 48.9912 66.1368C44.8328 66.1368 39.4888 63.0153 33.9522 57.319L32.9613 56.304L33.9522 55.289C36.5375 52.5992 38.8997 49.7036 41.0156 46.6309L41.4028 46.0731L42.0875 46.0053C45.8144 45.7213 49.511 45.1265 53.1387 44.2268L54.5169 43.8856L54.9041 45.2528C57.7872 55.4159 56.91 62.6959 52.5 65.2356C51.4338 65.8484 50.2208 66.1592 48.9912 66.1346V66.1368ZM37.0387 56.2821C41.5844 60.714 45.8916 63.2209 48.9781 63.2209H48.9891C49.7634 63.2209 50.4591 63.0503 51.0409 62.72C53.935 61.0443 54.46 55.2343 52.4541 47.3965C49.3452 48.0928 46.1933 48.5802 43.0194 48.8556C41.1923 51.4614 39.1944 53.9431 37.0387 56.2843V56.2821ZM54.5169 26.0903L53.1387 25.7381C49.5084 24.8512 45.8128 24.2564 42.0875 23.9596L41.4028 23.9028L41.0156 23.345C38.8997 20.2722 36.5375 17.3766 33.9522 14.6868L32.9613 13.6718L33.9522 12.6568C41.2322 5.18214 48.1709 2.2312 52.5 4.72714C56.91 7.26683 57.7872 14.56 54.9041 24.7231L54.5169 26.0903ZM43.0216 21.1115C46.1953 21.3941 49.347 21.8852 52.4562 22.5815C54.4622 14.7437 53.9372 8.93152 51.0431 7.25808C48.16 5.59558 42.7372 8.1462 37.0409 13.6959C39.1907 16.0384 41.1883 18.5161 43.0216 21.1137V21.1115ZM21.0197 66.1368C19.7881 66.1587 18.5697 65.8525 17.5 65.2378C13.09 62.6981 12.2128 55.4159 15.0959 45.255L15.4831 43.8878L16.8612 44.229C20.2344 45.0843 23.9487 45.675 27.9016 46.0075L28.5863 46.0753L28.9734 46.6331C31.0893 49.7058 33.4516 52.6014 36.0369 55.2912L37.0278 56.3062L36.0369 57.3212C30.5113 63.0175 25.1672 66.139 21.0197 66.139V66.1368ZM17.5459 47.3965C15.54 55.2343 16.065 61.0465 18.9591 62.72C21.8422 64.3606 27.2541 61.8318 32.9613 56.2821C30.8056 53.9409 28.8076 51.4592 26.9806 48.8534C23.8066 48.5789 20.6546 48.0914 17.5459 47.3943V47.3965ZM35 49.2296C32.5959 49.2296 30.135 49.1268 27.6631 48.9212L26.9784 48.8643L26.5803 48.2956C25.1841 46.2894 23.8726 44.2255 22.6494 42.1093C21.4236 39.9931 20.2873 37.8263 19.2434 35.6146L18.9481 34.989L19.2434 34.3634C21.3347 29.9411 23.7888 25.6996 26.5803 21.6825L26.9784 21.1137L27.6631 21.0568C32.5457 20.6456 37.4543 20.6456 42.3369 21.0568L43.0216 21.1137L43.4197 21.6825C46.2148 25.6973 48.669 29.9391 50.7566 34.3634L51.0519 34.989L50.7566 35.6146C48.6732 40.0411 46.2188 44.2832 43.4197 48.2956L43.0216 48.8643L42.3369 48.9212C39.8966 49.1254 37.4488 49.2283 35 49.2296ZM28.5972 46.0621C32.9044 46.3925 37.0956 46.3925 41.4137 46.0621C43.822 42.5357 45.9623 38.8335 47.8166 34.9868C45.9701 31.1338 43.8257 27.4308 41.4028 23.9115C37.1407 23.5812 32.8593 23.5812 28.5972 23.9115C26.1726 27.4297 24.0281 31.1328 22.1834 34.9868C24.0383 38.8354 26.1823 42.5378 28.5972 46.0621Z" fill="white"/>
</svg>
