<svg width="63" height="71" viewBox="0 0 63 71" fill="none" xmlns="http://www.w3.org/2000/svg">
<g clip-path="url(#clip0)">
<path d="M41.23 70.4431L62.2847 65.8866C62.2847 65.8866 54.6853 14.5153 54.6285 14.1719C54.5716 13.8284 54.2872 13.6141 54.0138 13.6141C53.7294 13.6141 48.3853 13.2159 48.3853 13.2159C48.3853 13.2159 44.66 9.50156 44.181 9.10344C44.0818 9.00512 43.9613 8.93101 43.8288 8.88688L41.1622 70.4453L41.23 70.4431ZM30.6578 33.4722C30.6578 33.4722 28.2888 32.2406 25.4844 32.2406C21.2581 32.2406 21.0984 34.8722 21.0984 35.5678C21.0984 39.1575 30.5441 40.5684 30.5441 49.0691C30.5441 55.7562 26.3397 60.0284 20.6084 60.0284C13.7375 60.0284 10.2856 55.7563 10.2856 55.7563L12.1647 49.6728C12.1647 49.6728 15.7981 52.7834 18.8191 52.7834C20.79 52.7834 21.6672 51.1997 21.6672 50.06C21.6672 45.3438 13.9191 45.1272 13.9191 37.3572C13.8163 30.8297 18.4997 24.4706 28.0022 24.4706C31.6706 24.4706 33.4709 25.5184 33.4709 25.5184L30.7147 33.4481L30.6578 33.4722ZM29.085 2.915C29.4722 2.915 29.8703 3.02875 30.2575 3.31313C27.3853 4.66937 24.2419 8.09938 22.9425 14.9572C21.1177 15.5509 19.2829 16.1132 17.4388 16.6438C18.9438 11.4375 22.5991 2.95 29.0828 2.95L29.085 2.915ZM32.6856 11.5162V11.9144C30.4872 12.5859 28.0591 13.3275 25.7009 14.0559C27.0572 8.87156 29.5859 6.34281 31.7844 5.39781C32.3422 6.85687 32.6834 8.82781 32.6834 11.5162H32.6856ZM34.2563 5.01281C36.2731 5.21844 37.5835 7.53062 38.4147 10.1294C37.3997 10.4597 36.2731 10.8009 35.0416 11.1881V10.4597C35.0416 8.26125 34.7572 6.46094 34.2563 5.00188V5.01281ZM42.9844 8.77094C42.9166 8.77094 42.8028 8.82781 42.7569 8.82781C42.7 8.82781 41.9147 9.04437 40.6722 9.4425C39.4406 5.84187 37.2422 2.52781 33.3572 2.52781H33.0159C31.9003 1.11469 30.5331 0.5 29.3584 0.5C20.3 0.5 15.9709 11.8138 14.6147 17.5559C11.1278 18.6147 8.59907 19.4022 8.3147 19.5159C6.34376 20.1416 6.28688 20.2006 6.05938 22.0556C5.84282 23.4009 0.726257 63.0713 0.726257 63.0713L40.2719 70.5L42.9844 8.77094Z" fill="white"/>
</g>
<defs>
<clipPath id="clip0">
<rect x="0.5" y="0.5" width="62" height="70" fill="white"/>
</clipPath>
</defs>
</svg>
