<svg width="56" height="56" viewBox="0 0 56 56" fill="none" xmlns="http://www.w3.org/2000/svg">
<path d="M53.4092 32.5527C53.6895 31.0146 53.8399 29.4424 53.8399 27.8701C53.8399 24.3838 53.1563 21 51.8096 17.8213C50.5108 14.7451 48.6446 11.9834 46.2725 9.61133C43.9203 7.25308 41.1319 5.37479 38.0625 4.08106C34.877 2.73438 31.5 2.05078 28.0137 2.05078C26.3731 2.05078 24.7256 2.20801 23.126 2.51562C20.9126 1.34274 18.4464 0.727933 15.9415 0.724609C11.8604 0.724609 8.0186 2.31738 5.13383 5.20215C3.71034 6.61834 2.58169 8.30265 1.81314 10.1577C1.0446 12.0128 0.651404 14.0018 0.656295 16.0098C0.656295 18.6074 1.32622 21.1641 2.57719 23.4199C2.32426 24.8828 2.18754 26.3799 2.18754 27.8701C2.18754 31.3564 2.87114 34.7402 4.21782 37.9189C5.51665 40.9951 7.37602 43.7568 9.74809 46.1289C12.1202 48.501 14.8819 50.3604 17.9581 51.6592C21.1436 53.0059 24.5206 53.6895 28.0069 53.6895C29.5245 53.6895 31.042 53.5527 32.5323 53.2861C34.8223 54.5781 37.4063 55.2686 40.0518 55.2686C44.1329 55.2686 47.9747 53.6826 50.8594 50.791C53.751 47.9062 55.337 44.0645 55.337 39.9834C55.3438 37.3857 54.6739 34.8223 53.4092 32.5527ZM28.1163 43.6885C18.9424 43.6885 14.8409 39.1768 14.8409 35.7998C14.8409 34.0635 16.1192 32.8535 17.8829 32.8535C21.8067 32.8535 20.795 38.4932 28.1163 38.4932C31.8692 38.4932 33.9405 36.4561 33.9405 34.3711C33.9405 33.1201 33.3252 31.7256 30.8506 31.1172L22.6885 29.0801C16.1192 27.4326 14.9229 23.8779 14.9229 20.542C14.9229 13.6104 21.4512 11.0059 27.5831 11.0059C33.2295 11.0059 39.8877 14.1299 39.8877 18.2861C39.8877 20.0703 38.3428 21.1025 36.5791 21.1025C33.2295 21.1025 33.8448 16.4678 27.0977 16.4678C23.7481 16.4678 21.8956 17.9854 21.8956 20.1523C21.8956 22.3193 24.5411 23.0098 26.8379 23.5361L32.8809 24.876C39.4981 26.3525 41.1729 30.2148 41.1729 33.8516C41.1729 39.4775 36.8457 43.6885 28.1163 43.6885Z" fill="#109AAA"/>
</svg>
