<svg width="96" height="87" viewBox="0 0 96 87" fill="none" xmlns="http://www.w3.org/2000/svg">
<g clip-path="url(#clip0)">
<path fill-rule="evenodd" clip-rule="evenodd" d="M22.5 10.9997H64.4999C75.5457 10.9997 84.5 19.954 84.5 30.9997V65.9997C84.5 77.0453 75.5457 86 64.4999 86H22.5C11.4543 86 2.49996 77.0453 2.49996 65.9997V30.9997C2.49996 19.954 11.4543 10.9997 22.5 10.9997Z" fill="#D3F2ED"/>
<path d="M83.75 45.6667V10.6667H31.25V45.6667H83.75ZM83.75 4.83337C85.2971 4.83337 86.7808 5.44796 87.8748 6.54192C88.9688 7.63588 89.5833 9.11961 89.5833 10.6667V45.6667C89.5833 47.2138 88.9688 48.6975 87.8748 49.7915C86.7808 50.8855 85.2971 51.5 83.75 51.5H63.3333V57.3334H69.1667V63.1667H45.8333V57.3334H51.6667V51.5H31.25C29.7029 51.5 28.2192 50.8855 27.1252 49.7915C26.0313 48.6975 25.4167 47.2138 25.4167 45.6667V10.6667C25.4167 7.42921 28.0125 4.83337 31.25 4.83337H83.75ZM37.0833 16.5H63.3333V31.0834H37.0833V16.5ZM66.25 16.5H77.9167V22.3334H66.25V16.5ZM77.9167 25.25V39.8334H66.25V25.25H77.9167ZM37.0833 34H48.75V39.8334H37.0833V34ZM51.6667 34H63.3333V39.8334H51.6667V34Z" fill="#8975F3"/>
</g>
<defs>
<clipPath id="clip0">
<rect x="0.5" width="95" height="87" fill="white"/>
</clipPath>
</defs>
</svg>
