<svg width="71" height="43" viewBox="0 0 71 43" fill="none" xmlns="http://www.w3.org/2000/svg">
<g clip-path="url(#clip0)">
<path d="M43.542 34.5496H42.7977L43.0791 35.2386L45.3451 40.7878L34.2554 34.6127L34.1419 34.5496H34.0121H7.0252C3.69554 34.5496 1.00044 31.8545 1.00044 28.5245V6.77504H1.00046L1.00042 6.77103C0.973948 3.47225 3.6672 0.75 6.99677 0.75H63.9751C67.3051 0.75 70.0002 3.44509 70.0002 6.77504V28.5245C70.0002 31.8545 67.3051 34.5496 63.9751 34.5496H43.542Z" stroke="white"/>
<path d="M4.48617 6.19737C4.88457 5.65651 5.48203 5.37213 6.27883 5.31526C7.73023 5.20123 8.55547 5.88401 8.75453 7.36385C9.63664 13.3111 10.6041 18.3478 11.6284 22.4737L17.86 10.6079C18.4293 9.52647 19.1408 8.95744 19.9945 8.90057C21.2465 8.81526 22.0146 9.61178 22.3277 11.2907C23.0392 15.0751 23.9497 18.2907 25.0309 21.0223C25.7708 13.7948 27.0229 8.58748 28.7871 5.37213C29.2137 4.57533 29.8398 4.17694 30.6651 4.11979C31.3197 4.06319 31.9171 4.26225 32.4577 4.68908C32.9983 5.11592 33.283 5.65651 33.3398 6.31112C33.3683 6.82326 33.283 7.2501 33.0555 7.67694C31.9456 9.7258 31.0348 13.1689 30.2951 17.9492C29.5839 22.5875 29.3277 26.2015 29.4983 28.791C29.5555 29.5019 29.4414 30.1281 29.1571 30.6689C28.8153 31.2948 28.3034 31.6363 27.6488 31.6932C26.9089 31.7501 26.1408 31.4088 25.4009 30.6405C22.7545 27.937 20.6488 23.8964 19.1123 18.5185C17.2625 22.1606 15.8967 24.8923 15.0146 26.7134C13.3357 29.929 11.913 31.5795 10.7178 31.6648C9.94945 31.7217 9.29512 31.0671 8.72609 29.7015C7.27496 25.9737 5.7098 18.7744 4.03117 8.10377C3.91715 7.36385 4.08777 6.70924 4.48617 6.19737ZM65.6366 10.6648C64.6123 8.87213 63.1041 7.79096 61.0839 7.36385C60.543 7.2501 60.0312 7.19323 59.5472 7.19323C56.8155 7.19323 54.596 8.61592 52.8603 11.4616C51.3804 13.8801 50.6408 16.5549 50.6408 19.4859C50.6408 21.6769 51.0961 23.5549 52.0066 25.1201C53.0309 26.9127 54.5392 27.9939 56.5593 28.4207C57.0999 28.5347 57.6121 28.5916 58.096 28.5916C60.8561 28.5916 63.0756 27.1689 64.783 24.3233C66.2625 21.876 67.0025 19.2012 67.0025 16.2705C67.0309 14.051 66.5472 12.2012 65.6366 10.6648ZM62.0513 18.5469C61.6529 20.4249 60.9414 21.8191 59.8884 22.7581C59.0635 23.498 58.2951 23.8108 57.5839 23.6687C56.9009 23.5265 56.3316 22.929 55.905 21.8191C55.5632 20.937 55.3928 20.0549 55.3928 19.2297C55.3928 18.5185 55.4497 17.807 55.5919 17.1526C55.8481 15.9859 56.3318 14.8476 57.0999 13.7664C58.0392 12.3719 59.035 11.8031 60.0593 12.0022C60.7424 12.1444 61.3117 12.7421 61.7382 13.8517C62.0798 14.7338 62.2504 15.6159 62.2504 16.4412C62.2504 17.1811 62.1935 17.8923 62.0513 18.5466V18.5469ZM47.8235 10.6648C46.7993 8.87213 45.2625 7.79096 43.2708 7.36385C42.7302 7.2501 42.2181 7.19323 41.7341 7.19323C39.0025 7.19323 36.783 8.61592 35.0472 11.4616C33.5676 13.8801 32.8277 16.5549 32.8277 19.4859C32.8277 21.6769 33.283 23.5549 34.1935 25.1201C35.2178 26.9127 36.7261 27.9939 38.7462 28.4207C39.2871 28.5347 39.799 28.5916 40.283 28.5916C43.043 28.5916 45.2625 27.1689 46.9699 24.3233C48.4497 21.876 49.1894 19.2012 49.1894 16.2705C49.1894 14.051 48.7341 12.2012 47.8235 10.6648ZM44.2098 18.5469C43.8114 20.4249 43.0999 21.8191 42.0472 22.7581C41.2219 23.498 40.4536 23.8108 39.7421 23.6687C39.0593 23.5265 38.4903 22.929 38.0632 21.8191C37.7219 20.937 37.5513 20.0549 37.5513 19.2297C37.5513 18.5185 37.6082 17.807 37.7504 17.1526C38.0066 15.9859 38.4903 14.8476 39.2587 13.7664C40.1977 12.3719 41.1935 11.8031 42.2178 12.0022C42.9009 12.1444 43.4701 12.7421 43.8967 13.8517C44.2385 14.7338 44.4089 15.6159 44.4089 16.4412C44.4376 17.1811 44.352 17.8923 44.2098 18.5466V18.5469Z" fill="white"/>
</g>
<defs>
<clipPath id="clip0">
<rect x="0.5" y="0.25" width="70" height="41.8359" fill="white"/>
</clipPath>
</defs>
</svg>
