<svg width="156" height="146" viewBox="0 0 156 146" fill="none" xmlns="http://www.w3.org/2000/svg">
<path fill-rule="evenodd" clip-rule="evenodd" d="M35 1.99986H135C146.046 1.99986 155 10.9541 155 21.9997V122C155 133.045 146.046 142 135 142H35C23.9542 142 14.9999 133.045 14.9999 122V21.9997C14.9999 10.9541 23.9542 1.99986 35 1.99986Z" fill="#D3F2ED"/>
<path d="M107.542 17.4375L102.573 12.4688C102.386 12.2813 102.151 12.1992 101.905 12.1992C101.659 12.1992 101.425 12.293 101.237 12.4688L92.3192 21.3867C88.4424 18.76 83.8654 17.3595 79.1825 17.3672C73.1825 17.3672 67.1825 19.6523 62.6005 24.2344L50.6591 36.1758C50.4846 36.352 50.3867 36.5899 50.3867 36.8379C50.3867 37.0859 50.4846 37.3238 50.6591 37.5L82.4989 69.3398C82.6864 69.5273 82.9208 69.6094 83.1669 69.6094C83.4013 69.6094 83.6473 69.5156 83.8348 69.3398L95.7763 57.3984C103.85 49.3125 104.8 36.8086 98.6239 27.6914L107.542 18.7734C107.905 18.3984 107.905 17.8008 107.542 17.4375ZM90.1278 51.7617L83.1669 58.7227L61.2763 36.832L68.2372 29.8711C71.1552 26.9531 75.0458 25.3359 79.1825 25.3359C83.3192 25.3359 87.1981 26.9414 90.1278 29.8711C93.0458 32.7891 94.663 36.6797 94.663 40.8164C94.663 44.9531 93.0458 48.832 90.1278 51.7617ZM67.8388 64.0664C67.6626 63.8919 67.4246 63.7941 67.1766 63.7941C66.9287 63.7941 66.6907 63.8919 66.5145 64.0664L58.7098 71.8711L48.1278 61.2891L55.9442 53.4727C56.3075 53.1094 56.3075 52.5117 55.9442 52.1484L51.6786 47.8828C51.5024 47.7083 51.2645 47.6105 51.0165 47.6105C50.7685 47.6105 50.5306 47.7083 50.3544 47.8828L42.538 55.6992L37.4989 50.6602C37.4114 50.5726 37.3072 50.5036 37.1924 50.4573C37.0776 50.411 36.9547 50.3883 36.8309 50.3906C36.5966 50.3906 36.3505 50.4844 36.163 50.6602L24.2333 62.6016C16.1591 70.6875 15.2098 83.1914 21.3856 92.3086L12.4677 101.227C12.2932 101.403 12.1953 101.641 12.1953 101.889C12.1953 102.137 12.2932 102.375 12.4677 102.551L17.4364 107.52C17.6239 107.707 17.8583 107.789 18.1044 107.789C18.3505 107.789 18.5848 107.695 18.7723 107.52L27.6903 98.6016C31.6395 101.285 36.2333 102.621 40.827 102.621C46.827 102.621 52.827 100.336 57.4091 95.7539L69.3505 83.8125C69.7137 83.4492 69.7137 82.8516 69.3505 82.4883L64.3114 77.4492L72.1278 69.6328C72.4911 69.2695 72.4911 68.6719 72.1278 68.3086L67.8388 64.0664ZM51.7606 90.1289C50.3264 91.5705 48.6206 92.7136 46.7419 93.492C44.8632 94.2704 42.8489 94.6688 40.8153 94.6641C36.6786 94.6641 32.7997 93.0586 29.87 90.1289C28.4284 88.6946 27.2853 86.9889 26.5069 85.1102C25.7285 83.2315 25.3301 81.2172 25.3348 79.1836C25.3348 75.0469 26.9403 71.168 29.87 68.2383L36.8309 61.2773L58.7216 83.168L51.7606 90.1289Z" fill="#8975F3"/>
</svg>
