<svg width="156" height="146" viewBox="0 0 156 146" fill="none" xmlns="http://www.w3.org/2000/svg">
<path fill-rule="evenodd" clip-rule="evenodd" d="M35 1.99986H135C146.046 1.99986 155 10.9541 155 21.9997V122C155 133.045 146.046 142 135 142H35C23.9542 142 14.9999 133.045 14.9999 122V21.9997C14.9999 10.9541 23.9542 1.99986 35 1.99986Z" fill="#D3F2ED"/>
<path d="M100 20H20C14.45 20 10.05 24.45 10.05 30L10 90C10 95.55 14.45 100 20 100H100C105.55 100 110 95.55 110 90V30C110 24.45 105.55 20 100 20ZM100 90H20V60H100V90ZM100 40H20V30H100V40Z" fill="#8975F3"/>
</svg>
