<svg width="156" height="143" viewBox="0 0 156 143" fill="none" xmlns="http://www.w3.org/2000/svg">
<path fill-rule="evenodd" clip-rule="evenodd" d="M35 1.99971H135C146.046 1.99971 155 10.9544 155 21.9995V122C155 133.045 146.046 142 135 142H35C23.9542 142 14.9999 133.045 14.9999 122V21.9995C14.9999 10.9544 23.9542 1.99971 35 1.99971Z" fill="#D3F2ED"/>
<path d="M64.9998 19.352V19.452C64.9998 22.802 67.2498 25.602 70.3998 26.602C84.6498 31.052 94.9998 44.302 94.9998 60.002C94.9998 62.602 94.6998 65.052 94.1498 67.452C93.4498 70.652 94.7498 73.952 97.5999 75.652L97.6498 75.702C101.95 78.202 107.55 75.952 108.7 71.152C109.55 67.552 110 63.802 110 60.002C110 37.502 95.0998 18.402 74.5998 12.152C69.8498 10.702 64.9998 14.352 64.9998 19.352ZM54.6998 94.602C39.7498 92.452 27.5998 80.302 25.3998 65.402C24.1036 57.1135 25.8293 48.6351 30.2624 41.5128C34.6955 34.3905 41.5407 29.0986 49.5498 26.602C52.7498 25.652 54.9998 22.802 54.9998 19.452V19.352C54.9998 14.352 50.1498 10.702 45.3498 12.152C33.9702 15.6501 24.2081 23.0863 17.8129 33.128C11.4177 43.1697 8.80746 55.1606 10.4498 66.952C13.3998 88.852 31.0998 106.552 52.9998 109.502C68.6998 111.602 83.1998 106.452 93.6498 96.852C97.3498 93.452 96.6998 87.402 92.3498 84.902C89.4498 83.202 85.8498 83.752 83.3498 86.002C75.9998 92.702 65.7998 96.252 54.6998 94.602Z" fill="#8975F3"/>
</svg>
