<svg width="57" height="71" viewBox="0 0 57 71" fill="none" xmlns="http://www.w3.org/2000/svg">
<path d="M18.2567 70.4994C16.0516 69.5275 14.1499 67.978 12.7526 66.0147C11.3553 64.0514 10.5142 61.7471 10.3182 59.3453C10.4482 56.8628 11.1643 54.4464 12.4081 52.2939C13.6518 50.1415 15.3876 48.3142 17.4735 46.9619C17.1295 47.7942 16.9892 48.6967 17.0641 49.5942C17.1391 50.4917 17.4272 51.3584 17.9045 52.1222C18.439 52.8724 19.1803 53.4508 20.038 53.7868C20.8957 54.1228 21.8326 54.2019 22.7345 54.0144C23.5923 53.7729 24.369 53.3045 24.9828 52.6585C25.5967 52.0124 26.0248 51.2128 26.2221 50.3437C26.4195 49.4747 26.3786 48.5686 26.104 47.7208C25.8294 46.8731 25.3311 46.1151 24.6617 45.5269C23.1951 44.3377 22.0611 42.7893 21.37 41.0322C20.6789 39.2751 20.4542 37.369 20.7176 35.4994C21.235 33.4805 22.3515 31.6655 23.9201 30.2931C22.7323 33.4497 26.0617 36.5472 28.306 38.0872C32.2724 40.4625 36.0914 43.0755 39.7423 45.9119C41.7077 47.4611 43.2661 49.4659 44.2827 51.7528C45.2992 54.0397 45.7432 56.5398 45.5763 59.0369C45.1414 61.6683 43.9913 64.1294 42.2517 66.151C40.5121 68.1726 38.25 69.6769 35.7129 70.4994C46.0576 68.1981 56.7326 59.9731 56.9382 48.3072C56.8364 43.7357 55.4401 39.2869 52.9113 35.4772C50.3825 31.6675 46.8249 28.6532 42.6517 26.7844H42.2754C42.457 27.2394 42.5467 27.7294 42.5357 28.2303C42.5598 27.9077 42.5598 27.5838 42.5357 27.2613C42.5817 27.6484 42.5817 28.0247 42.5357 28.3988C42.2233 29.676 41.4171 30.7772 40.2939 31.4608C39.1707 32.1444 37.8222 32.3546 36.5442 32.0453C35.4835 31.7843 34.5385 31.1808 33.8557 30.3281C30.4367 25.9531 33.8557 20.9744 34.4245 16.1531C34.598 13.1317 34.0064 10.1152 32.7044 7.38317C31.4024 4.6511 29.4322 2.29171 26.976 0.523438C29.4698 4.68188 26.1426 10.1506 23.7276 13.2612C21.3126 16.3719 17.8148 18.6841 14.9535 21.3966C11.8785 24.2652 9.06181 27.3989 6.53603 30.7612C3.83671 34.0592 1.91136 37.9205 0.901702 42.061C-0.107953 46.2014 -0.176207 50.5156 0.701964 54.6859C1.89704 58.6784 4.16483 62.2664 7.25828 65.0589C10.3517 67.8515 14.1522 69.7417 18.2457 70.5234H18.2917L18.2567 70.4994Z" fill="white"/>
</svg>
