<svg width="88" height="80" viewBox="0 0 88 80" fill="none" xmlns="http://www.w3.org/2000/svg">
<path fill-rule="evenodd" clip-rule="evenodd" d="M22.4999 1.99984H61.4999C72.5456 1.99984 81.4999 10.9541 81.4999 21.9998V58.9996C81.4999 70.0453 72.5456 79 61.4999 79H22.4999C11.4542 79 2.4999 70.0453 2.4999 58.9996V21.9998C2.4999 10.9541 11.4542 1.99984 22.4999 1.99984Z" fill="#D3F2ED"/>
<g clip-path="url(#clip0)">
<path d="M83.2743 -1.18066H21.7258C19.3957 -1.18066 17.5 0.715082 17.5 3.04518V45.54C17.5 47.8701 19.3957 49.7659 21.7258 49.7659H42.8161V52.8407C42.8161 55.6594 40.5228 57.9528 37.7041 57.9528H33.056C32.1649 57.9528 31.4423 58.6752 31.4423 59.5665C31.4423 60.4577 32.1649 61.1802 33.056 61.1802H71.9438C72.835 61.1802 73.5575 60.4577 73.5575 59.5665C73.5575 58.6752 72.835 57.9528 71.9438 57.9528H67.2957C64.4769 57.9528 62.1836 55.6594 62.1836 52.8407V49.766H83.2739C85.604 49.766 87.4999 47.8703 87.4999 45.5402V3.04518C87.5001 0.715082 85.6044 -1.18066 83.2743 -1.18066ZM44.286 57.953C45.386 56.5399 46.0438 54.7664 46.0438 52.841V49.7662H58.9565V52.841C58.9565 54.7664 59.6142 56.54 60.7143 57.953H44.286ZM84.2728 45.5402C84.2728 46.0907 83.8249 46.5388 83.2742 46.5388H21.7258C21.1753 46.5388 20.7273 46.0909 20.7273 45.5402V37.0591H84.2728V45.5402ZM84.2728 33.8316H20.7274V3.04518C20.7274 2.49462 21.1753 2.04659 21.726 2.04659H83.2742C83.8247 2.04659 84.2729 2.49448 84.2729 3.04518V33.8316H84.2728Z" fill="#8975F3"/>
<path d="M52.5006 43.5412C53.4624 43.5412 54.2421 42.7615 54.2421 41.7996C54.2421 40.8378 53.4624 40.0581 52.5006 40.0581C51.5387 40.0581 50.759 40.8378 50.759 41.7996C50.759 42.7615 51.5387 43.5412 52.5006 43.5412Z" fill="#8975F3"/>
<path d="M55.2669 9.93696C54.6366 9.30682 53.6152 9.30682 52.9847 9.93696L41.5804 21.3412C40.9503 21.9714 40.9503 22.9932 41.5804 23.6235C41.8957 23.9386 42.3084 24.0961 42.7216 24.0961C43.1348 24.0961 43.5475 23.9386 43.8626 23.6235L55.2669 12.2192C55.8971 11.5891 55.8971 10.5672 55.2669 9.93696Z" fill="#8975F3"/>
<path d="M62.0263 16.5459C61.3963 15.9157 60.3749 15.9157 59.7442 16.5457L55.2011 21.0886C54.5709 21.7189 54.5709 22.7407 55.2011 23.3709C55.5162 23.686 55.9291 23.8435 56.3421 23.8435C56.755 23.8435 57.168 23.686 57.4832 23.3709L62.0263 18.828C62.6565 18.1978 62.6565 17.176 62.0263 16.5459Z" fill="#8975F3"/>
</g>
<defs>
<clipPath id="clip0">
<path d="M17.5 -5H87.5V65H17.5V-5Z" fill="white"/>
</clipPath>
</defs>
</svg>
