<svg width="71" height="64" viewBox="0 0 71 64" fill="none" xmlns="http://www.w3.org/2000/svg">
<path d="M21.4188 56.2488C18.7522 54.14 15.9041 52.1363 13.9682 49.2991C9.87756 44.3094 6.721 38.5322 4.5685 32.4488C3.26912 28.5069 2.82506 24.2675 1.14943 20.4634C-0.604942 17.7181 1.44475 14.6994 4.46568 13.8222C5.811 13.5597 8.18006 12.2953 5.321 13.2075C2.75725 15.0756 2.51881 11.4991 5.13943 11.2716C6.92881 11.0331 7.58943 9.56313 6.97475 8.25282C5.06068 6.99938 11.6451 5.62125 8.331 3.74C4.87912 0.0146915 13.161 -0.702809 11.1222 3.52344C10.6322 6.78282 16.9104 2.93063 15.4513 6.69094C16.9322 8.49125 20.9879 7.10219 20.8851 9.63094C23.0507 9.77969 23.7901 11.5909 25.8069 11.7266C27.9157 12.6847 31.7088 13.4241 32.4263 15.7822C30.3416 17.4338 25.5226 12.3872 25.2951 16.9438C25.9207 23.6769 25.7632 30.6156 28.2241 37.0294C29.3966 40.9144 32.2229 43.9791 34.7757 46.9978C37.2147 49.9706 40.5179 52.0444 43.891 53.8119C46.8529 55.2009 50.0444 56.1241 53.2666 56.7059C54.566 55.7041 56.8782 51.9897 58.9169 53.5603C59.0088 55.3147 54.8722 57.2397 58.7222 57.0472C60.9776 56.3625 62.5504 58.7906 64.4185 56.6031C66.1269 58.6309 71.5497 55.3038 70.3313 59.4622C68.6797 60.5209 66.2647 59.8844 64.611 61.3413C61.8876 59.985 59.711 62.5597 56.6922 62.2403C53.3356 62.8168 49.9349 63.0986 46.5291 63.0825C40.9576 62.6384 35.2613 62.4569 29.9522 60.5188C26.9663 59.6416 24.0504 57.9441 21.4188 56.2466V56.2488ZM26.1241 58.2875C29.0401 59.5409 31.9013 60.8731 35.1016 61.2844C40.1722 61.98 45.4135 63.0738 50.506 62.0828C48.2047 61.035 45.8116 62.4941 43.5213 61.3303C40.7651 61.9231 37.8141 61.1816 35.0097 60.8184C31.8313 59.4053 28.3904 58.4253 25.4044 56.5791C21.6901 55.2228 27.3294 58.3225 28.3444 58.585C30.6697 59.9063 25.7807 57.9003 25.0982 57.3534C23.1491 56.2597 22.8997 56.4872 24.9035 57.5919C25.3016 57.8303 25.7019 58.0819 26.1219 58.2875H26.1241ZM20.5744 54.3566C23.4007 55.4044 20.5635 52.3747 19.2641 52.5453C18.6954 51.5544 17.0766 50.9156 18.2163 50.3928C16.1535 51.0994 16.0638 47.6803 15.0947 48.1594C12.9182 47.4747 14.2526 45.0488 11.6647 43.5569C11.4263 41.9841 9.09006 40.6169 8.33756 38.2369C8.00725 37.0294 5.706 33.5316 7.11912 36.7778C8.32662 39.9103 10.4572 42.5878 12.2226 45.2653C13.6007 47.805 15.2194 50.4716 17.7263 52.0553C18.5685 52.8647 19.3779 54.1072 20.5744 54.3566ZM12.4282 45.4141C12.5201 44.9919 12.9401 46.3372 12.4282 45.4141V45.4141ZM23.9585 55.61C24.5841 55.3366 23.0594 55.2688 23.9585 55.61V55.61ZM25.4963 56.1788C25.3366 55.4044 24.7897 56.6009 25.4963 56.1788V56.1788ZM27.4213 56.9772C28.3335 56.1 26.0082 56.4303 27.4213 56.9772V56.9772ZM30.7157 58.8125C31.2735 57.9922 28.9263 58.5041 30.7157 58.8125V58.8125ZM24.3916 54.4025C25.8047 53.4794 22.5454 54.3916 24.3916 54.4025V54.4025ZM25.8266 55.12C25.7916 54.63 25.3147 55.3366 25.8266 55.12V55.12ZM33.0279 59.6197C34.1894 60.3481 39.796 61.2144 36.2872 59.915C35.7054 60.0397 29.7816 58.2394 33.0279 59.6197ZM21.6004 50.71C21.4866 50.22 19.8001 50.1631 21.6004 50.71V50.71ZM24.9494 52.6591C25.8266 52.0553 23.1382 52.1909 24.9494 52.6591V52.6591ZM27.7757 54.3916C29.0291 53.9234 25.7369 53.9125 27.7757 54.3916V54.3916ZM20.2332 49.2181C21.5894 50.2659 25.7129 49.3559 22.3179 48.6034C20.7691 47.7722 17.2822 47.2144 19.6513 49.0934L20.2332 49.2181ZM29.6788 54.9953C30.2476 54.0263 27.3097 54.4375 29.6788 54.9953V54.9953ZM26.8066 52.705C30.1338 53.65 24.0154 50.6094 25.9863 52.3638L26.4304 52.5584L26.8066 52.705ZM32.5707 56.0322C35.7141 56.0672 29.7226 55.5991 32.5707 56.0322V56.0322ZM19.0257 47.3959C18.901 46.8141 18.2513 47.4528 19.0257 47.3959V47.3959ZM37.8929 59.0159C37.9716 57.9572 36.8669 59.8144 37.8929 59.0159V59.0159ZM24.3916 50.6881C24.1969 50.1303 23.4116 50.6663 24.3916 50.6881V50.6881ZM19.321 47.0306C21.1213 46.9278 16.8491 46.2322 19.321 47.0306V47.0306ZM13.3054 43.1456C13.0888 42.2794 11.3454 41.5969 13.3054 43.1456V43.1456ZM29.086 53.1709C28.7557 52.7838 28.9263 53.2497 29.086 53.1709V53.1709ZM38.8947 59.1866C38.8729 58.6178 38.3697 59.4031 38.8947 59.1866V59.1866ZM28.2197 52.2719C28.3904 51.5194 26.671 52.0444 28.2197 52.2719V52.2719ZM20.9047 47.6234C22.2369 47.4856 18.7522 46.7244 20.9047 47.6234V47.6234ZM33.2772 55.3147C35.3619 54.4834 31.2254 54.9034 33.2772 55.3147V55.3147ZM26.8416 50.9506C29.2566 51.2591 23.9694 49.31 26.3057 50.78L26.8416 50.9506ZM35.2263 56.1109C37.4816 54.7547 36.7422 59.2675 39.0544 56.4872C41.3338 54.8247 37.0835 58.55 39.8966 56.7825C41.9244 55.4263 44.9322 57.4322 46.8244 58.0819C48.1916 58.0141 49.5238 59.2675 50.9151 58.5041C53.6144 57.7756 45.6519 57.4322 47.7366 56.1459C45.2757 56.8634 43.4535 55.2906 42.246 53.7069C39.4766 53.0681 36.2872 51.655 34.9091 49.2072C34.3404 48.295 35.7185 49.345 34.4191 47.84C32.7566 46.3591 31.9232 44.6725 30.8076 42.8722C29.4754 42.1656 29.3157 40.07 29.1779 42.8044C29.1888 41.0719 27.5591 39.9103 27.1719 40.4003C27.161 38.7378 28.9044 39.5691 27.6838 38.3375C27.4213 36.605 26.5551 34.8047 26.2947 32.8578C25.8966 31.9238 26.2379 29.9178 24.9166 32.0375C24.4376 34.2819 24.7569 29.2813 25.5094 30.9328C26.4894 29.2463 25.1572 29.4409 25.0982 29.6794C25.7369 28.2553 25.5094 26.2384 24.9276 27.0019C25.2688 25.4969 25.4744 21.4544 24.4157 22.1719C25.0544 20.5991 25.6232 14.9597 22.8669 17.1122C21.7382 17.1231 19.8022 17.5234 18.8901 17.9784C21.7622 19.5622 18.5947 18.5472 17.431 18.2978C17.2822 19.7569 16.1207 19.1291 14.6747 19.14C16.9869 19.4244 13.546 21.4981 12.2138 20.7019C10.4944 21.5222 13.7057 23.5741 12.2488 24.2106C12.4304 25.1688 9.61725 23.8694 9.83381 26.0788C8.15818 25.3722 9.60631 28.7103 10.4376 27.5838C13.2857 28.3472 12.4435 30.1016 12.5113 31.7772C12.0563 32.7463 10.2319 29.4869 12.1132 29.6356C10.6322 27.2316 10.4726 28.7694 9.23006 29.8872C8.94568 29.9659 12.3866 31.4819 10.2319 32.2344C12.1241 32.5188 12.181 34.1834 12.5572 35.2313C13.6969 36.4278 13.4694 33.9209 14.8366 35.3559C13.9704 34.0806 10.2669 31.7663 13.2419 32.5078C13.231 31.2325 12.706 30.1956 13.6182 30.2284C14.5304 28.5878 12.6732 34.2731 14.7119 32.1884C15.2807 31.9369 15.4185 30.5478 16.4444 32.3131C17.9144 33.7722 16.9694 34.82 14.8957 33.4856C15.261 34.75 17.676 35.205 17.221 37.1781C17.7001 38.9216 18.3716 38.2719 18.9644 38.18C19.4194 39.8666 19.6819 38.6241 19.706 37.8147C21.8147 38.2697 21.3116 39.5122 21.9722 40.3894C23.4182 41.0391 19.8985 35.9466 22.3944 38.8516C25.0041 41.2206 23.3744 42.2006 21.0163 41.8244C22.5082 41.7106 22.9872 43.8413 24.8444 43.7603C26.5419 44.5697 27.6926 47.6672 24.7657 46.3809C23.7507 45.4688 20.1632 44.3291 23.1032 46.0725C25.8157 47.3259 27.9572 48.0784 30.5779 49.6491C32.4351 50.9813 33.2554 52.5213 33.9619 52.8166C32.3891 53.5691 29.2216 52.2128 31.5688 51.8016C30.1097 51.5391 28.4582 50.7997 29.8604 52.6219C31.0569 53.6238 34.0866 53.51 34.6335 53.6238C34.1654 54.6388 33.3801 54.7175 34.6554 54.7963C33.2313 55.5597 35.1104 55.6734 35.2372 56.1066L35.2263 56.1109ZM32.3322 47.9188C31.466 47.0066 31.2385 45.32 32.1726 46.79C32.6516 46.9847 33.7104 49.5594 32.3322 47.9188ZM41.7779 53.9125C42.3138 53.8906 41.7888 54.3238 41.7779 53.9125V53.9125ZM30.9651 45.6984C30.9301 44.3422 31.2735 46.7572 30.9651 45.6984V45.6984ZM30.0201 44.445C28.9372 42.3494 31.3982 45.0378 30.0201 44.445V44.445ZM18.6494 36.5831C19.2882 36.4125 18.9579 37.6769 18.6494 36.5831V36.5831ZM27.7079 41.4941C28.0951 40.0241 28.1629 42.7366 27.7079 41.4941V41.4941ZM21.3029 37.0513C20.8588 36.2419 22.2479 37.8147 21.3029 37.0513V37.0513ZM26.7957 38.8056C25.7697 36.5044 27.5241 37.5522 27.0232 39.1928L26.7957 38.8056ZM17.3282 32.4925C16.8732 31.74 16.1097 29.5197 16.3591 28.8459C16.5757 29.9397 18.6954 33.5863 17.396 30.3509C15.961 27.6384 19.1154 31.2281 19.4479 31.9128C19.5966 32.5844 18.5597 31.7313 19.2532 33.3019C17.9779 31.5016 18.5007 34.2928 17.3282 32.4925ZM14.3991 30.4756C14.5238 28.7213 15.0707 31.6831 14.3991 30.4756V30.4756ZM15.7204 30.9328C16.346 29.6006 16.7791 32.7791 15.7204 30.9328V30.9328ZM12.5529 28.4828C11.4591 27.4 10.6738 26.3981 12.5988 27.8113C13.3513 27.8331 10.9582 25.545 12.7804 27.0828C14.7054 27.435 13.7254 30.2394 12.5529 28.485V28.4828ZM14.2176 28.4369C14.8563 27.8113 14.5479 29.0516 14.2176 28.4369V28.4369ZM15.2435 28.7672C14.2854 26.9669 16.4051 29.5197 15.2435 28.7672V28.7672ZM13.2026 26.8203C10.0351 24.0072 17.1904 28.3013 13.7144 27.3453L13.2026 26.8203ZM22.2829 32.0944C20.9047 31.2741 21.9176 26.3063 22.3857 29.7013C23.7179 29.2681 22.3069 31.4556 23.2979 31.4338C23.1491 32.8119 22.7051 33.3128 22.2829 32.0944ZM25.6341 34.0763C25.7719 32.5844 25.9185 35.1022 25.6341 34.0763V34.0763ZM25.0522 33.4966C25.201 32.8578 25.0632 34.2491 25.0522 33.4966V33.4966ZM13.8304 25.8972C11.7916 23.0841 19.7432 28.7344 15.1297 26.6038C14.6507 26.4791 14.071 26.4331 13.8304 25.8972ZM20.2901 29.325C20.0954 26.9559 20.7232 29.7122 20.2901 29.325V29.325ZM25.201 32.4706C25.5772 31.1253 25.2229 33.3588 25.201 32.4706V32.4706ZM14.1366 24.8253C15.3441 24.5628 19.1504 26.945 15.6526 25.51C15.2654 25.0769 14.4451 25.2716 14.1366 24.8253ZM24.5163 29.9988C24.6541 27.5838 25.2447 28.5528 24.5272 30.34L24.5163 29.9988ZM15.0379 23.9831C15.5279 23.2656 13.7276 20.7128 15.3004 23.0709C15.9719 23.6069 17.2604 23.97 16.1207 24.1997C17.9101 25.7725 15.6876 24.6219 15.0379 23.9831ZM24.0044 29.2463C24.3457 26.49 24.3129 30.8519 24.0044 29.2463V29.2463ZM14.0119 21.4413C14.3882 21.2816 14.2066 21.9422 14.0119 21.4413V21.4413ZM16.3482 22.8325C16.9519 21.5681 17.4529 24.2456 16.3482 22.8325V22.8325ZM22.9435 26.5119C22.9435 26.0219 23.0682 27.2075 22.9435 26.5119V26.5119ZM22.5694 25.6566C21.6572 23.4013 23.4247 26.8531 22.5694 25.6566V25.6566ZM21.9985 24.1756C21.8497 23.2416 22.5344 25.3481 21.9985 24.1756V24.1756ZM22.9216 22.6838C22.296 21.5791 23.7201 17.8078 23.8666 20.1441C23.206 21.9663 23.6851 22.9922 24.1401 20.5422C24.9954 18.6172 23.9585 24.3484 22.9216 22.6838ZM23.8557 17.0772C24.1291 16.7359 23.9235 17.4753 23.8557 17.0772V17.0772ZM22.296 48.0325C21.9197 47.7022 22.3419 48.2381 22.296 48.0325V48.0325ZM25.5313 49.6622C27.3207 50.1303 27.3207 49.3888 25.691 49.1722C24.8138 48.3519 22.0576 47.4856 24.5294 49.0694C24.6891 49.4806 25.2141 49.4675 25.5204 49.6622H25.5313ZM19.1394 45.425C20.1304 46.1666 22.8647 47.5206 20.5416 45.6984C21.3269 44.7994 19.0497 44.3094 19.8001 43.7056C17.886 42.52 18.2841 42.6338 19.6404 42.6688C17.3151 41.6319 19.9707 41.7106 19.846 41.1769C18.9469 41.0063 15.4141 39.6041 17.4988 41.2906C15.3791 40.2188 16.9869 41.7019 16.3482 41.5422C14.1826 40.9494 18.2732 43.1938 16.0069 42.6359C17.2494 43.6159 19.356 45.1538 16.5319 43.6728C16.1557 44.2088 18.5488 45.0181 19.1416 45.4272L19.1394 45.425ZM22.5235 47.3719C26.636 48.6931 20.5066 45.7422 22.5235 47.3719V47.3719ZM39.8397 57.8653C39.8966 57.045 39.2819 58.5609 39.8397 57.8653V57.8653ZM41.6291 58.6178C42.5741 57.6947 41.6641 60.0769 43.2019 58.3903C43.2129 57.1828 43.156 56.4653 41.4366 57.9353C40.9576 58.1978 40.7519 59.3134 41.6313 58.62L41.6291 58.6178ZM13.3513 40.8553C13.0669 39.7156 11.3126 39.7156 13.3513 40.8553V40.8553ZM15.2544 42.1087C14.5479 40.9363 12.7366 41.05 15.2544 42.1087V42.1087ZM26.0782 48.6384C27.1369 49.5725 30.9322 49.3231 27.3666 48.7522C26.8307 47.9669 24.0066 48.1594 26.0782 48.6384ZM40.9466 57.8194C42.5763 56.4522 39.3738 58.4231 40.9466 57.8194V57.8194ZM44.3285 60.1338C44.3394 59.7006 43.6329 60.3284 44.3285 60.1338V60.1338ZM44.3285 59.53C46.1288 57.6159 42.5851 59.6438 44.3285 59.53V59.53ZM8.681 36.9484C7.14318 34.7609 7.72287 33.77 6.24193 31.9916C5.9685 30.6134 3.71318 27.5138 5.08037 30.8059C6.33381 32.72 6.71006 35.6928 8.681 36.9463V36.9484ZM43.7707 58.9131C47.0869 56.7825 42.4144 57.99 43.7707 58.9131V58.9131ZM46.3016 59.9063C47.9641 58.4931 45.2538 59.6109 46.3016 59.9063V59.9063ZM12.7935 38.4403C13.2726 37.7337 11.5751 38.3484 12.7935 38.4403V38.4403ZM45.7657 59.2325C47.3713 58.1956 45.4004 58.3553 45.4813 59.3244L45.7657 59.2325ZM23.9804 45.4928C23.9235 44.7972 23.1251 45.5497 23.9804 45.4928V45.4928ZM25.3257 46.2672C24.8926 45.4009 24.6651 46.405 25.3257 46.2672V46.2672ZM48.3513 59.9391C50.4032 58.4472 47.0979 59.6438 47.9182 60.2125L48.3513 59.9391ZM47.566 59.5519C49.2416 58.1497 45.7876 60.1775 47.566 59.5519V59.5519ZM51.5866 62.2294C52.7154 61.4769 50.2194 61.9909 51.5866 62.2294V62.2294ZM13.8304 37.9284C15.3354 38.2697 19.8569 41.6428 17.1904 38.1669C15.8232 37.7556 16.6435 34.4175 15.2413 35.0103C16.1754 36.5722 16.0157 37.2438 14.0557 36.2528C11.5838 35.0563 12.6666 36.8566 13.1435 37.3466C12.4938 37.4953 14.0207 37.9153 13.8282 37.9284H13.8304ZM6.95943 32.5056C7.22193 31.39 4.4635 26.3653 5.64912 29.9878C6.08225 30.7403 6.03631 32.1863 6.95943 32.5056ZM19.5616 40.2866C18.7872 39.6369 19.5266 40.1838 19.5616 40.2866V40.2866ZM21.4757 40.7306C21.4757 39.545 19.3669 40.2516 21.4757 40.7306V40.7306ZM38.0526 51.1781C37.7332 50.3688 36.7991 51.1563 38.0526 51.1781V51.1781ZM38.8488 51.76C38.7351 51.305 38.3938 51.8388 38.8488 51.76V51.76ZM45.4222 55.8944C46.0479 55.4263 44.6369 55.8375 45.4222 55.8944V55.8944ZM10.3894 33.3828C12.2007 32.6763 8.4535 32.8819 10.3894 33.3828V33.3828ZM36.5935 49.8897C36.5716 48.7172 35.4429 50.185 36.5935 49.8897V49.8897ZM9.67193 31.7181C10.8335 31.32 8.60006 31.4556 9.67193 31.7181V31.7181ZM13.0429 33.3478C13.021 32.9606 12.6907 33.4966 13.0429 33.3478V33.3478ZM54.1394 58.55C55.6313 58.2547 59.0394 59.3134 59.5863 58.1519C57.7751 58.1169 53.3082 56.8766 53.1026 58.4472L53.5007 58.515L54.1394 58.55ZM14.1147 33.6213C14.1366 32.4356 13.1916 33.5753 14.1147 33.6213V33.6213ZM5.251 27.4678C4.85287 25.2125 3.72412 27.1266 5.251 27.4678V27.4678ZM7.37068 28.0038C7.39256 27.2753 5.43475 27.3431 7.37068 28.0038V28.0038ZM8.57818 28.5966C8.226 28.3122 8.30475 28.9488 8.57818 28.5966V28.5966ZM16.1644 33.4616C16.5297 33.1422 15.3222 33.2231 16.1644 33.4616V33.4616ZM7.76881 27.2644C7.56318 25.5559 5.31881 27.0019 7.76881 27.2644V27.2644ZM3.43975 24.4491C3.38287 23.6638 3.01756 24.7444 3.43975 24.4491V24.4491ZM4.07631 23.9591C3.9735 23.025 3.52943 24.0728 4.07631 23.9591V23.9591ZM7.64412 26.0897C9.14912 25.4969 4.89881 24.8581 7.33568 25.9759L7.64412 26.0897ZM55.2791 55.5072C56.2482 54.63 54.0607 55.2337 55.2791 55.5072V55.5072ZM61.0432 58.4931C61.4194 57.3534 60.0632 58.6419 61.0432 58.4931V58.4931ZM8.00725 24.2216C8.16693 23.1169 6.81068 24.4381 8.00725 24.2216V24.2216ZM2.93881 20.8266C2.66537 19.2647 2.71131 16.5303 5.30787 17.4534C1.83193 18.1491 7.71193 21.7716 6.97037 18.9125C8.42943 18.9803 9.82943 18.0463 9.05506 19.4703C11.9382 19.1509 13.931 16.6572 16.7113 16.9984C18.8769 16.7141 21.246 16.4975 23.5822 15.6313C25.4963 15.4825 27.3426 13.4219 26.2947 12.2013C23.6741 11.9738 20.9397 12.3041 18.0457 12.8728C14.8432 13.5444 11.9382 14.8088 8.70287 15.3556C5.54631 15.7778 9.3285 16.5172 8.42943 16.6878C6.78881 17.2566 10.3894 17.6459 8.21287 18.2366C6.88068 17.985 5.4785 17.5191 6.04725 16.1059C3.0285 16.4931 0.372871 17.7575 2.766 20.8222L2.93881 20.8266ZM10.2188 17.1231C10.9254 14.5134 14.0119 19.2647 11.3804 17.4644C11.061 17.2369 10.5491 17.0422 10.2188 17.1231ZM10.3544 15.8588C11.3694 15.1063 10.8904 16.2809 10.3544 15.8588V15.8588ZM11.6538 15.8828C11.7457 14.6863 14.6157 16.5216 12.1219 16.3159L11.6538 15.8828ZM13.4191 15.1631C14.0688 14.4106 13.6138 15.8478 13.4191 15.1631V15.1631ZM13.8763 14.8678C14.9591 13.5684 19.9947 14.0366 16.3022 14.7431C15.3222 14.0016 14.5588 15.1763 13.8763 14.8678ZM20.4497 13.8528C20.2791 10.3091 23.7091 15.1172 20.4497 13.8528V13.8528ZM22.3069 13.8419C22.9916 12.0525 24.9494 13.1244 22.6263 13.4766C22.6722 13.6713 22.5585 14.3997 22.3069 13.8419ZM7.26787 23.3094C9.30662 22.0559 5.11537 22.2266 7.26787 23.3094V23.3094ZM8.77068 23.7316C9.48818 22.9681 7.22193 23.4122 8.77068 23.7316V23.7316ZM4.33881 20.575C5.50037 19.6869 2.97162 20.2338 4.33881 20.575V20.575ZM64.4382 58.1738C64.4732 57.1369 63.5501 58.6419 64.4382 58.1738V58.1738ZM58.3329 54.0044C58.5035 52.8078 57.5476 54.1072 58.3329 54.0044V54.0044ZM66.1138 58.5719C67.7435 58.5719 71.0357 58.0709 67.5029 58.0709C66.9451 58.1628 64.2676 58.1388 66.1138 58.5719ZM10.0919 22.9922C11.4132 22.9003 12.1547 21.5463 9.84037 21.625C6.25068 21.2488 12.9969 22.8434 9.38537 22.3884C8.89537 22.7078 10.0701 23.0841 10.0919 22.9922ZM11.2557 23.5828C11.1179 22.7275 10.8444 24.0269 11.2557 23.5828V23.5828ZM12.6229 19.9144C13.2047 19.2078 11.8376 19.7197 12.6229 19.9144V19.9144ZM8.24787 12.6016C10.606 11.8031 13.8194 10.9041 14.9241 12.9888C13.7954 11.6325 14.4691 10.3003 15.5388 12.2822C17.0438 14.2991 17.7941 11.37 16.8141 10.6984C17.9297 12.0875 19.1963 12.7372 17.5666 10.7772C19.3451 8.64657 14.001 11.0616 12.7804 11.0397C12.1985 11.3022 6.74287 12.4288 8.25662 12.6016H8.24787ZM9.626 9.96782C10.9713 8.95282 14.2635 10.5606 12.1438 8.95282C11.9491 8.78219 7.51725 10.1713 9.626 9.96782ZM14.5129 10.1625C16.0857 10.2084 13.8413 8.06688 15.7094 9.03375C15.401 8.03188 13.5329 7.83719 12.6097 7.43907C12.0979 8.36219 13.6685 10.1734 14.5129 10.1625ZM10.4922 5.73063C11.0282 5.00219 9.53412 6.10688 10.4922 5.73063V5.73063ZM12.4851 6.20969C15.0029 5.87938 11.8354 5.12688 11.9732 6.18782L12.4851 6.20969ZM8.75975 3.29157C6.98131 0.966254 12.0979 3.68969 10.2976 1.25282C8.77068 0.0453163 7.31162 2.62 8.75975 3.29157ZM31.5797 15.5853C32.4001 14.1394 28.2066 13.6363 31.0329 15.0734C31.2954 15.1653 31.2276 15.6881 31.5797 15.5853Z" fill="white"/>
</svg>
