<svg width="69" height="70" viewBox="0 0 69 70" fill="none" xmlns="http://www.w3.org/2000/svg">
<path d="M68.4632 15.8368C68.4851 15.9287 68.4982 16.0315 68.4982 16.1212V31.1493C68.4987 31.3411 68.4484 31.5296 68.3523 31.6956C68.2562 31.8616 68.1179 31.9992 67.9513 32.0943L55.3382 39.3634V53.7527C55.3387 53.9445 55.2884 54.133 55.1923 54.299C55.0962 54.465 54.9579 54.6026 54.7913 54.6977L28.4626 69.8505C28.4012 69.8846 28.3358 69.9111 28.2679 69.9293L28.2001 69.9643C28.017 70.0102 27.8254 70.0102 27.6423 69.9643C27.6146 69.956 27.5882 69.9443 27.5635 69.9293C27.5003 69.9097 27.4395 69.8833 27.382 69.8505L1.06416 54.6977C0.896473 54.603 0.756659 54.4658 0.658751 54.2999C0.560842 54.134 0.508283 53.9453 0.506348 53.7527V8.67055C0.506348 8.57867 0.528223 8.47586 0.552285 8.38617C0.563223 8.35117 0.57416 8.3293 0.587285 8.2943L0.655098 8.12367C0.666035 8.08867 0.701035 8.0668 0.72291 8.0318L0.825723 7.89399C0.862547 7.87125 0.896992 7.84487 0.928535 7.81524C0.974473 7.78024 1.00729 7.74742 1.05322 7.72336L14.2132 0.145861C14.3796 0.0502909 14.5682 0 14.7601 0C14.952 0 15.1406 0.0502909 15.307 0.145861L28.4779 7.72336C28.5238 7.74524 28.5567 7.78024 28.5917 7.81524L28.7054 7.89399C28.739 7.93785 28.7697 7.98389 28.7973 8.0318C28.8192 8.05367 28.8542 8.08867 28.876 8.12367L28.9438 8.2943C28.9548 8.3293 28.9788 8.35117 28.9788 8.38617C29.012 8.47722 29.0275 8.57371 29.0248 8.67055V36.8237L39.9842 30.5127V16.1234C39.9883 15.9941 40.0157 15.8666 40.0651 15.7471L40.1329 15.5765C40.1548 15.5305 40.1898 15.5087 40.2117 15.4737C40.2467 15.4277 40.2685 15.3818 40.3035 15.349C40.3385 15.3162 40.3823 15.2921 40.4173 15.2702C40.4501 15.2338 40.4885 15.2028 40.531 15.1784L53.702 7.60086C53.8665 7.49989 54.0558 7.44645 54.2488 7.44645C54.4419 7.44645 54.6312 7.49989 54.7957 7.60086L67.9557 15.1784C68.0017 15.2002 68.0345 15.2352 68.0804 15.2702C68.1154 15.2921 68.1482 15.3162 68.1832 15.349C68.2182 15.3818 68.251 15.4277 68.286 15.4737C68.3079 15.5087 68.3429 15.5305 68.3539 15.5765C68.3888 15.6334 68.3998 15.6902 68.4217 15.7471C68.4435 15.769 68.4567 15.804 68.4676 15.839L68.4632 15.8368ZM66.2976 30.5105V18.0243L61.6951 20.6668L55.3382 24.3352V36.8215L66.2976 30.5105ZM53.1507 53.114V40.6146L46.8835 44.1802L29.0182 54.3893V67.0024L53.1507 53.114ZM2.68947 10.5715V53.114L26.8198 67.0024V54.3893L14.2067 47.2449C14.1607 47.223 14.1279 47.188 14.0929 47.153C14.0579 47.1312 14.0142 47.1071 13.9901 47.0743H13.9792C13.9442 47.0393 13.9223 46.9955 13.8873 46.9605C13.8654 46.9255 13.8304 46.8927 13.8085 46.8468C13.7831 46.8038 13.7639 46.7574 13.7517 46.709C13.7298 46.6631 13.7057 46.6302 13.6948 46.5843C13.6838 46.5384 13.6729 46.4815 13.6729 46.4246C13.662 46.3787 13.651 46.3459 13.651 46.2999V16.8824L7.29416 13.214L2.68947 10.5715ZM14.7557 2.35742L3.79635 8.66836L14.7557 14.9793L25.7151 8.66836L14.7557 2.35742ZM20.4629 41.7565L26.8198 38.0881V10.5737L22.2173 13.2162L15.8495 16.8846V44.399L20.4629 41.7565ZM54.2445 9.80805L43.272 16.119L54.2445 22.4299L65.2038 16.119L54.2445 9.80805ZM53.1507 24.3352L42.1782 18.0243V30.5105L48.5351 34.179L53.1485 36.8215L53.1507 24.3352ZM27.9157 52.4884L52.0351 38.7246L41.0867 32.4137L16.9782 46.2912L27.9157 52.4884Z" fill="white"/>
</svg>
