<svg width="83" height="80" viewBox="0 0 83 80" fill="none" xmlns="http://www.w3.org/2000/svg">
<path fill-rule="evenodd" clip-rule="evenodd" d="M22.4999 1.99984H61.5C72.5456 1.99984 81.4999 10.9541 81.4999 21.9998V58.9996C81.4999 70.0453 72.5456 79 61.5 79H22.4999C11.4543 79 2.49998 70.0453 2.49998 58.9996V21.9998C2.49998 10.9541 11.4543 1.99984 22.4999 1.99984Z" fill="#D3F2ED"/>
<g clip-path="url(#clip0)">
<path d="M43.6667 10.8335C27.5842 10.8335 14.5 23.9177 14.5 40.0002V52.0839C14.5 55.0706 17.1163 57.5002 20.3333 57.5002H23.25C24.0235 57.5002 24.7654 57.1929 25.3124 56.6459C25.8594 56.0989 26.1667 55.357 26.1667 54.5835V39.5831C26.1667 38.8095 25.8594 38.0677 25.3124 37.5207C24.7654 36.9737 24.0235 36.6664 23.25 36.6664H20.6017C22.2233 25.3789 31.9358 16.6668 43.6667 16.6668C55.3975 16.6668 65.11 25.3789 66.7317 36.6664H64.0833C63.3098 36.6664 62.5679 36.9737 62.0209 37.5207C61.474 38.0677 61.1667 38.8095 61.1667 39.5831V57.5002C61.1667 60.7173 58.5504 63.3335 55.3333 63.3335H49.5V60.4168H37.8333V69.1668H55.3333C61.7675 69.1668 67 63.9343 67 57.5002C70.2171 57.5002 72.8333 55.0706 72.8333 52.0839V40.0002C72.8333 23.9177 59.7492 10.8335 43.6667 10.8335Z" fill="#8975F3"/>
</g>
<defs>
<clipPath id="clip0">
<path d="M14.5 10H73.5V70H14.5V10Z" fill="white"/>
</clipPath>
</defs>
</svg>
