<svg width="70" height="70" viewBox="0 0 70 70" fill="none" xmlns="http://www.w3.org/2000/svg">
<path d="M51.3803 19.9983V26.4864C51.3539 28.9121 50.3879 31.2331 48.6855 32.9612C46.9831 34.6893 44.6769 35.6899 42.2518 35.7527H27.6568C25.7108 35.7915 23.8572 36.5898 22.4919 37.9771C21.1267 39.3644 20.3582 41.2306 20.3506 43.177V57.0895C20.3506 61.0489 23.7937 63.3808 27.6568 64.5161C32.4083 66.0021 37.5003 66.0021 42.2518 64.5161C45.9312 63.4508 49.5581 61.307 49.5581 57.0917V51.5202H34.9631V49.663H56.8643C61.1103 49.663 62.694 46.7011 64.1706 42.2561C65.6704 37.4186 65.6704 32.2404 64.1706 27.403C63.1206 23.1767 61.1168 19.9961 56.8643 19.9961L51.3803 19.9983ZM43.1728 55.2345C43.7256 55.2263 44.2684 55.3828 44.7319 55.6841C45.1955 55.9854 45.5589 56.4179 45.7758 56.9265C45.9927 57.435 46.0533 57.9967 45.9499 58.5398C45.8464 59.0829 45.5837 59.583 45.1951 59.9762C44.8064 60.3695 44.3096 60.6382 43.7677 60.7481C43.2258 60.8579 42.6635 60.804 42.1524 60.5932C41.6413 60.3823 41.2045 60.0241 40.8977 59.5642C40.5909 59.1042 40.428 58.5634 40.4296 58.0105C40.4268 57.6478 40.4955 57.2881 40.6319 56.952C40.7683 56.6159 40.9697 56.3101 41.2245 56.052C41.4794 55.7939 41.7826 55.5886 42.117 55.448C42.4513 55.3073 42.8101 55.2341 43.1728 55.2323V55.2345Z" fill="#8975F3"/>
<path d="M34.6392 4.37571C32.2991 4.37859 29.9633 4.57835 27.6567 4.97289C21.4726 6.06446 20.3505 8.35039 20.3505 12.5679V18.1351H34.963V19.9923H14.8664C12.7155 19.9525 10.6197 20.6743 8.94934 22.03C7.27899 23.3858 6.14154 25.2882 5.73796 27.4013C4.36632 32.2566 4.36632 37.397 5.73796 42.2523C6.77702 46.577 9.25765 49.6591 13.5036 49.6591H18.5283V42.9851C18.5817 40.5855 19.5621 38.2998 21.2639 36.6073C22.9658 34.9148 25.2569 33.9471 27.6567 33.907H42.2517C43.2191 33.8998 44.1756 33.702 45.0665 33.3249C45.9574 32.9478 46.7653 32.3988 47.4438 31.7093C48.1224 31.0197 48.6584 30.2032 49.0211 29.3064C49.3839 28.4095 49.5663 27.45 49.558 26.4826V12.5679C49.4351 10.6423 48.6337 8.82265 47.296 7.43212C45.9583 6.0416 44.1711 5.17026 42.2517 4.97289C39.7354 4.56127 37.1889 4.36151 34.6392 4.37571ZM26.738 8.85571C27.29 8.84747 27.8321 9.00354 28.2953 9.30408C28.7585 9.60463 29.1218 10.0361 29.3392 10.5436C29.5567 11.0512 29.6183 11.6119 29.5163 12.1545C29.4143 12.6972 29.1533 13.1972 28.7664 13.5912C28.3795 13.9851 27.8843 14.2552 27.3436 14.367C26.8029 14.4789 26.2412 14.4275 25.7297 14.2193C25.2183 14.0112 24.7804 13.6557 24.4714 13.1981C24.1625 12.7404 23.9966 12.2013 23.9948 11.6491C23.9896 10.9154 24.2753 10.2094 24.7894 9.68585C25.3036 9.16229 26.0042 8.86379 26.738 8.85571Z" fill="#8975F3"/>
</svg>
