<svg width="70" height="64" viewBox="0 0 70 64" fill="none" xmlns="http://www.w3.org/2000/svg">
<path d="M35 25.7583C31.5591 25.7583 28.7569 28.5605 28.7569 32.0014C28.7569 35.4424 31.5591 38.2445 35 38.2445C38.4409 38.2445 41.2431 35.4424 41.2431 32.0014C41.2431 28.5605 38.4409 25.7583 35 25.7583ZM17.5219 44.4089L16.1438 44.0677C5.88875 41.4689 0 37.072 0 31.9905C0 26.9089 5.89094 22.512 16.1438 19.9133L17.5219 19.572L17.9091 20.9392C18.9494 24.5202 20.2794 28.0106 21.8859 31.3758L22.1813 31.9905L21.8859 32.6161C20.276 35.9799 18.9459 39.4705 17.9091 43.0527L17.5219 44.4089ZM15.5072 23.1027C7.71313 25.2902 2.92906 28.6502 2.92906 31.9905C2.92906 35.3308 7.71531 38.6777 15.5072 40.8783C16.4624 37.8434 17.6155 34.8745 18.9591 31.9905C17.6136 29.1073 16.4604 26.1382 15.5072 23.1027ZM52.4781 44.4089L52.0909 43.0417C51.0524 39.4637 49.7224 35.9768 48.1141 32.6161L47.8188 31.9905L48.1141 31.3649C49.724 28.0011 51.0541 24.5104 52.0909 20.9283L52.4781 19.572L53.8563 19.9133C64.1113 22.512 70 26.9089 70 31.9905C70 37.072 64.1091 41.4689 53.8563 44.0677L52.4781 44.4089ZM51.0409 31.9905C52.389 34.8726 53.5422 37.8418 54.4928 40.8783C62.2978 38.6799 67.0709 35.3308 67.0709 31.9905C67.0709 28.6502 62.2847 25.3033 54.4928 23.1027C53.5354 26.1367 52.3824 29.1056 51.0409 31.9905ZM15.4831 23.0917L15.0959 21.7245C12.2128 11.5614 13.09 4.27048 17.5 1.7286C21.8291 -0.767333 28.7678 2.1836 36.0478 9.65829L37.0387 10.6733L36.0478 11.6883C33.4625 14.3781 31.1003 17.2737 28.9844 20.3464L28.5863 20.9042L27.9016 20.9611C24.1795 21.2549 20.4873 21.8497 16.8612 22.7395L15.4831 23.0917ZM21.0197 3.7586C20.2344 3.7586 19.5388 3.91829 18.9569 4.25954C16.0628 5.93517 15.5509 11.7452 17.5438 19.583C20.6532 18.8874 23.8048 18.3964 26.9784 18.113C28.8056 15.5107 30.8035 13.0326 32.9591 10.6952C28.4134 6.26329 24.1063 3.75642 21.0197 3.75642V3.7586ZM48.9912 63.1383C48.9803 63.1383 48.9803 63.1383 48.9912 63.1383C44.8328 63.1383 39.4888 60.0167 33.9522 54.3205L32.9613 53.3055L33.9522 52.2905C36.5375 49.6007 38.8997 46.7051 41.0156 43.6324L41.4028 43.0745L42.0875 43.0067C45.8144 42.7228 49.511 42.1279 53.1387 41.2283L54.5169 40.887L54.9041 42.2542C57.7872 52.4174 56.91 59.6974 52.5 62.237C51.4338 62.8498 50.2208 63.1606 48.9912 63.1361V63.1383ZM37.0387 53.2836C41.5844 57.7155 45.8916 60.2224 48.9781 60.2224H48.9891C49.7634 60.2224 50.4591 60.0517 51.0409 59.7214C53.935 58.0458 54.46 52.2358 52.4541 44.398C49.3452 45.0942 46.1933 45.5817 43.0194 45.857C41.1923 48.4629 39.1944 50.9446 37.0387 53.2858V53.2836ZM54.5169 23.0917L53.1387 22.7395C49.5084 21.8526 45.8128 21.2579 42.0875 20.9611L41.4028 20.9042L41.0156 20.3464C38.8997 17.2737 36.5375 14.3781 33.9522 11.6883L32.9613 10.6733L33.9522 9.65829C41.2322 2.1836 48.1709 -0.767333 52.5 1.7286C56.91 4.26829 57.7872 11.5614 54.9041 21.7245L54.5169 23.0917ZM43.0216 18.113C46.1953 18.3956 49.347 18.8867 52.4562 19.583C54.4622 11.7452 53.9372 5.93298 51.0431 4.25954C48.16 2.59704 42.7372 5.14767 37.0409 10.6974C39.1907 13.0398 41.1883 15.5175 43.0216 18.1152V18.113ZM21.0197 63.1383C19.7881 63.1602 18.5697 62.8539 17.5 62.2392C13.09 59.6995 12.2128 52.4174 15.0959 42.2564L15.4831 40.8892L16.8612 41.2305C20.2344 42.0858 23.9487 42.6764 27.9016 43.0089L28.5863 43.0767L28.9734 43.6345C31.0893 46.7073 33.4516 49.6029 36.0369 52.2927L37.0278 53.3077L36.0369 54.3227C30.5113 60.0189 25.1672 63.1405 21.0197 63.1405V63.1383ZM17.5459 44.398C15.54 52.2358 16.065 58.048 18.9591 59.7214C21.8422 61.362 27.2541 58.8333 32.9613 53.2836C30.8056 50.9424 28.8076 48.4607 26.9806 45.8549C23.8066 45.5803 20.6546 45.0929 17.5459 44.3958V44.398ZM35 46.2311C32.5959 46.2311 30.135 46.1283 27.6631 45.9227L26.9784 45.8658L26.5803 45.297C25.1841 43.2908 23.8726 41.2269 22.6494 39.1108C21.4236 36.9945 20.2873 34.8277 19.2434 32.6161L18.9481 31.9905L19.2434 31.3649C21.3347 26.9426 23.7888 22.7011 26.5803 18.6839L26.9784 18.1152L27.6631 18.0583C32.5457 17.647 37.4543 17.647 42.3369 18.0583L43.0216 18.1152L43.4197 18.6839C46.2148 22.6988 48.669 26.9406 50.7566 31.3649L51.0519 31.9905L50.7566 32.6161C48.6732 37.0426 46.2188 41.2847 43.4197 45.297L43.0216 45.8658L42.3369 45.9227C39.8966 46.1269 37.4488 46.2298 35 46.2311ZM28.5972 43.0636C32.9044 43.3939 37.0956 43.3939 41.4137 43.0636C43.822 39.5372 45.9623 35.835 47.8166 31.9883C45.9701 28.1353 43.8257 24.4322 41.4028 20.913C37.1407 20.5827 32.8593 20.5827 28.5972 20.913C26.1726 24.4311 24.0281 28.1343 22.1834 31.9883C24.0383 35.8369 26.1823 39.5393 28.5972 43.0636Z" fill="#8975F3"/>
</svg>
