<svg width="62" height="70" viewBox="0 0 62 70" fill="none" xmlns="http://www.w3.org/2000/svg">
<path d="M40.7303 69.9431L61.785 65.3866C61.785 65.3866 54.1856 14.0153 54.1288 13.6719C54.0719 13.3284 53.7875 13.1141 53.5141 13.1141C53.2297 13.1141 47.8856 12.7159 47.8856 12.7159C47.8856 12.7159 44.1603 9.00156 43.6813 8.60344C43.5821 8.50512 43.4616 8.43101 43.3291 8.38688L40.6625 69.9453L40.7303 69.9431ZM30.1581 32.9722C30.1581 32.9722 27.7891 31.7406 24.9847 31.7406C20.7584 31.7406 20.5988 34.3722 20.5988 35.0678C20.5988 38.6575 30.0444 40.0684 30.0444 48.5691C30.0444 55.2562 25.84 59.5284 20.1088 59.5284C13.2378 59.5284 9.78594 55.2563 9.78594 55.2563L11.665 49.1728C11.665 49.1728 15.2984 52.2834 18.3194 52.2834C20.2903 52.2834 21.1675 50.6997 21.1675 49.56C21.1675 44.8438 13.4194 44.6272 13.4194 36.8572C13.3166 30.3297 18 23.9706 27.5025 23.9706C31.1709 23.9706 32.9713 25.0184 32.9713 25.0184L30.215 32.9481L30.1581 32.9722ZM28.5853 2.415C28.9725 2.415 29.3706 2.52875 29.7578 2.81313C26.8856 4.16937 23.7422 7.59938 22.4428 14.4572C20.618 15.0509 18.7832 15.6132 16.9391 16.1438C18.4441 10.9375 22.0994 2.45 28.5831 2.45L28.5853 2.415ZM32.1859 11.0162V11.4144C29.9875 12.0859 27.5594 12.8275 25.2013 13.5559C26.5575 8.37156 29.0863 5.84281 31.2847 4.89781C31.8425 6.35687 32.1838 8.32781 32.1838 11.0162H32.1859ZM33.7566 4.51281C35.7734 4.71844 37.0838 7.03062 37.915 9.62937C36.9 9.95969 35.7734 10.3009 34.5419 10.6881V9.95969C34.5419 7.76125 34.2575 5.96094 33.7566 4.50188V4.51281ZM42.4847 8.27094C42.4169 8.27094 42.3031 8.32781 42.2572 8.32781C42.2003 8.32781 41.415 8.54437 40.1725 8.9425C38.9409 5.34187 36.7425 2.02781 32.8575 2.02781H32.5163C31.4006 0.614687 30.0334 0 28.8588 0C19.8003 0 15.4713 11.3138 14.115 17.0559C10.6281 18.1147 8.09938 18.9022 7.815 19.0159C5.84406 19.6416 5.78719 19.7006 5.55969 21.5556C5.34312 22.9009 0.226562 62.5713 0.226562 62.5713L39.7722 70L42.4847 8.27094Z" fill="#8975F3"/>
</svg>
